%TF.GenerationSoftware,KiCad,Pcbnew,10.0.0*%
%TF.CreationDate,2026-06-03T11:52:45+05:30*%
%TF.ProjectId,usbkitv1,7573626b-6974-4763-912e-6b696361645f,rev?*%
%TF.SameCoordinates,Original*%
%TF.FileFunction,Legend,Bot*%
%TF.FilePolarity,Positive*%
%FSLAX46Y46*%
G04 Gerber Fmt 4.6, Leading zero omitted, Abs format (unit mm)*
G04 Created by KiCad (PCBNEW 10.0.0) date 2026-06-03 11:52:45*
%MOMM*%
%LPD*%
G01*
G04 APERTURE LIST*
%ADD10C,0.150000*%
%ADD11C,0.180000*%
G04 APERTURE END LIST*
D10*
X155142857Y-58788152D02*
X155142857Y-59597676D01*
X155142857Y-59597676D02*
X155190476Y-59692914D01*
X155190476Y-59692914D02*
X155238095Y-59740533D01*
X155238095Y-59740533D02*
X155333333Y-59788152D01*
X155333333Y-59788152D02*
X155476190Y-59788152D01*
X155476190Y-59788152D02*
X155571428Y-59740533D01*
X155142857Y-59407200D02*
X155238095Y-59454819D01*
X155238095Y-59454819D02*
X155428571Y-59454819D01*
X155428571Y-59454819D02*
X155523809Y-59407200D01*
X155523809Y-59407200D02*
X155571428Y-59359580D01*
X155571428Y-59359580D02*
X155619047Y-59264342D01*
X155619047Y-59264342D02*
X155619047Y-58978628D01*
X155619047Y-58978628D02*
X155571428Y-58883390D01*
X155571428Y-58883390D02*
X155523809Y-58835771D01*
X155523809Y-58835771D02*
X155428571Y-58788152D01*
X155428571Y-58788152D02*
X155238095Y-58788152D01*
X155238095Y-58788152D02*
X155142857Y-58835771D01*
X154666666Y-59454819D02*
X154666666Y-58788152D01*
X154666666Y-58454819D02*
X154714285Y-58502438D01*
X154714285Y-58502438D02*
X154666666Y-58550057D01*
X154666666Y-58550057D02*
X154619047Y-58502438D01*
X154619047Y-58502438D02*
X154666666Y-58454819D01*
X154666666Y-58454819D02*
X154666666Y-58550057D01*
X154333333Y-58788152D02*
X153952381Y-58788152D01*
X154190476Y-58454819D02*
X154190476Y-59311961D01*
X154190476Y-59311961D02*
X154142857Y-59407200D01*
X154142857Y-59407200D02*
X154047619Y-59454819D01*
X154047619Y-59454819D02*
X153952381Y-59454819D01*
X153619047Y-59454819D02*
X153619047Y-58454819D01*
X153190476Y-59454819D02*
X153190476Y-58931009D01*
X153190476Y-58931009D02*
X153238095Y-58835771D01*
X153238095Y-58835771D02*
X153333333Y-58788152D01*
X153333333Y-58788152D02*
X153476190Y-58788152D01*
X153476190Y-58788152D02*
X153571428Y-58835771D01*
X153571428Y-58835771D02*
X153619047Y-58883390D01*
X152285714Y-58788152D02*
X152285714Y-59454819D01*
X152714285Y-58788152D02*
X152714285Y-59311961D01*
X152714285Y-59311961D02*
X152666666Y-59407200D01*
X152666666Y-59407200D02*
X152571428Y-59454819D01*
X152571428Y-59454819D02*
X152428571Y-59454819D01*
X152428571Y-59454819D02*
X152333333Y-59407200D01*
X152333333Y-59407200D02*
X152285714Y-59359580D01*
X151809523Y-59454819D02*
X151809523Y-58454819D01*
X151809523Y-58835771D02*
X151714285Y-58788152D01*
X151714285Y-58788152D02*
X151523809Y-58788152D01*
X151523809Y-58788152D02*
X151428571Y-58835771D01*
X151428571Y-58835771D02*
X151380952Y-58883390D01*
X151380952Y-58883390D02*
X151333333Y-58978628D01*
X151333333Y-58978628D02*
X151333333Y-59264342D01*
X151333333Y-59264342D02*
X151380952Y-59359580D01*
X151380952Y-59359580D02*
X151428571Y-59407200D01*
X151428571Y-59407200D02*
X151523809Y-59454819D01*
X151523809Y-59454819D02*
X151714285Y-59454819D01*
X151714285Y-59454819D02*
X151809523Y-59407200D01*
X150904761Y-59359580D02*
X150857142Y-59407200D01*
X150857142Y-59407200D02*
X150904761Y-59454819D01*
X150904761Y-59454819D02*
X150952380Y-59407200D01*
X150952380Y-59407200D02*
X150904761Y-59359580D01*
X150904761Y-59359580D02*
X150904761Y-59454819D01*
X150000000Y-59407200D02*
X150095238Y-59454819D01*
X150095238Y-59454819D02*
X150285714Y-59454819D01*
X150285714Y-59454819D02*
X150380952Y-59407200D01*
X150380952Y-59407200D02*
X150428571Y-59359580D01*
X150428571Y-59359580D02*
X150476190Y-59264342D01*
X150476190Y-59264342D02*
X150476190Y-58978628D01*
X150476190Y-58978628D02*
X150428571Y-58883390D01*
X150428571Y-58883390D02*
X150380952Y-58835771D01*
X150380952Y-58835771D02*
X150285714Y-58788152D01*
X150285714Y-58788152D02*
X150095238Y-58788152D01*
X150095238Y-58788152D02*
X150000000Y-58835771D01*
X149428571Y-59454819D02*
X149523809Y-59407200D01*
X149523809Y-59407200D02*
X149571428Y-59359580D01*
X149571428Y-59359580D02*
X149619047Y-59264342D01*
X149619047Y-59264342D02*
X149619047Y-58978628D01*
X149619047Y-58978628D02*
X149571428Y-58883390D01*
X149571428Y-58883390D02*
X149523809Y-58835771D01*
X149523809Y-58835771D02*
X149428571Y-58788152D01*
X149428571Y-58788152D02*
X149285714Y-58788152D01*
X149285714Y-58788152D02*
X149190476Y-58835771D01*
X149190476Y-58835771D02*
X149142857Y-58883390D01*
X149142857Y-58883390D02*
X149095238Y-58978628D01*
X149095238Y-58978628D02*
X149095238Y-59264342D01*
X149095238Y-59264342D02*
X149142857Y-59359580D01*
X149142857Y-59359580D02*
X149190476Y-59407200D01*
X149190476Y-59407200D02*
X149285714Y-59454819D01*
X149285714Y-59454819D02*
X149428571Y-59454819D01*
X148666666Y-59454819D02*
X148666666Y-58788152D01*
X148666666Y-58883390D02*
X148619047Y-58835771D01*
X148619047Y-58835771D02*
X148523809Y-58788152D01*
X148523809Y-58788152D02*
X148380952Y-58788152D01*
X148380952Y-58788152D02*
X148285714Y-58835771D01*
X148285714Y-58835771D02*
X148238095Y-58931009D01*
X148238095Y-58931009D02*
X148238095Y-59454819D01*
X148238095Y-58931009D02*
X148190476Y-58835771D01*
X148190476Y-58835771D02*
X148095238Y-58788152D01*
X148095238Y-58788152D02*
X147952381Y-58788152D01*
X147952381Y-58788152D02*
X147857142Y-58835771D01*
X147857142Y-58835771D02*
X147809523Y-58931009D01*
X147809523Y-58931009D02*
X147809523Y-59454819D01*
X146619048Y-58407200D02*
X147476190Y-59692914D01*
X146380952Y-58788152D02*
X146142857Y-59454819D01*
X145904762Y-58788152D02*
X146142857Y-59454819D01*
X146142857Y-59454819D02*
X146238095Y-59692914D01*
X146238095Y-59692914D02*
X146285714Y-59740533D01*
X146285714Y-59740533D02*
X146380952Y-59788152D01*
X145380952Y-59454819D02*
X145476190Y-59407200D01*
X145476190Y-59407200D02*
X145523809Y-59359580D01*
X145523809Y-59359580D02*
X145571428Y-59264342D01*
X145571428Y-59264342D02*
X145571428Y-58978628D01*
X145571428Y-58978628D02*
X145523809Y-58883390D01*
X145523809Y-58883390D02*
X145476190Y-58835771D01*
X145476190Y-58835771D02*
X145380952Y-58788152D01*
X145380952Y-58788152D02*
X145238095Y-58788152D01*
X145238095Y-58788152D02*
X145142857Y-58835771D01*
X145142857Y-58835771D02*
X145095238Y-58883390D01*
X145095238Y-58883390D02*
X145047619Y-58978628D01*
X145047619Y-58978628D02*
X145047619Y-59264342D01*
X145047619Y-59264342D02*
X145095238Y-59359580D01*
X145095238Y-59359580D02*
X145142857Y-59407200D01*
X145142857Y-59407200D02*
X145238095Y-59454819D01*
X145238095Y-59454819D02*
X145380952Y-59454819D01*
X144190476Y-58788152D02*
X144190476Y-59597676D01*
X144190476Y-59597676D02*
X144238095Y-59692914D01*
X144238095Y-59692914D02*
X144285714Y-59740533D01*
X144285714Y-59740533D02*
X144380952Y-59788152D01*
X144380952Y-59788152D02*
X144523809Y-59788152D01*
X144523809Y-59788152D02*
X144619047Y-59740533D01*
X144190476Y-59407200D02*
X144285714Y-59454819D01*
X144285714Y-59454819D02*
X144476190Y-59454819D01*
X144476190Y-59454819D02*
X144571428Y-59407200D01*
X144571428Y-59407200D02*
X144619047Y-59359580D01*
X144619047Y-59359580D02*
X144666666Y-59264342D01*
X144666666Y-59264342D02*
X144666666Y-58978628D01*
X144666666Y-58978628D02*
X144619047Y-58883390D01*
X144619047Y-58883390D02*
X144571428Y-58835771D01*
X144571428Y-58835771D02*
X144476190Y-58788152D01*
X144476190Y-58788152D02*
X144285714Y-58788152D01*
X144285714Y-58788152D02*
X144190476Y-58835771D01*
X143333333Y-59407200D02*
X143428571Y-59454819D01*
X143428571Y-59454819D02*
X143619047Y-59454819D01*
X143619047Y-59454819D02*
X143714285Y-59407200D01*
X143714285Y-59407200D02*
X143761904Y-59311961D01*
X143761904Y-59311961D02*
X143761904Y-58931009D01*
X143761904Y-58931009D02*
X143714285Y-58835771D01*
X143714285Y-58835771D02*
X143619047Y-58788152D01*
X143619047Y-58788152D02*
X143428571Y-58788152D01*
X143428571Y-58788152D02*
X143333333Y-58835771D01*
X143333333Y-58835771D02*
X143285714Y-58931009D01*
X143285714Y-58931009D02*
X143285714Y-59026247D01*
X143285714Y-59026247D02*
X143761904Y-59121485D01*
X142904761Y-59407200D02*
X142809523Y-59454819D01*
X142809523Y-59454819D02*
X142619047Y-59454819D01*
X142619047Y-59454819D02*
X142523809Y-59407200D01*
X142523809Y-59407200D02*
X142476190Y-59311961D01*
X142476190Y-59311961D02*
X142476190Y-59264342D01*
X142476190Y-59264342D02*
X142523809Y-59169104D01*
X142523809Y-59169104D02*
X142619047Y-59121485D01*
X142619047Y-59121485D02*
X142761904Y-59121485D01*
X142761904Y-59121485D02*
X142857142Y-59073866D01*
X142857142Y-59073866D02*
X142904761Y-58978628D01*
X142904761Y-58978628D02*
X142904761Y-58931009D01*
X142904761Y-58931009D02*
X142857142Y-58835771D01*
X142857142Y-58835771D02*
X142761904Y-58788152D01*
X142761904Y-58788152D02*
X142619047Y-58788152D01*
X142619047Y-58788152D02*
X142523809Y-58835771D01*
X142047618Y-59454819D02*
X142047618Y-58454819D01*
X141619047Y-59454819D02*
X141619047Y-58931009D01*
X141619047Y-58931009D02*
X141666666Y-58835771D01*
X141666666Y-58835771D02*
X141761904Y-58788152D01*
X141761904Y-58788152D02*
X141904761Y-58788152D01*
X141904761Y-58788152D02*
X141999999Y-58835771D01*
X141999999Y-58835771D02*
X142047618Y-58883390D01*
X140714285Y-58788152D02*
X140714285Y-59597676D01*
X140714285Y-59597676D02*
X140761904Y-59692914D01*
X140761904Y-59692914D02*
X140809523Y-59740533D01*
X140809523Y-59740533D02*
X140904761Y-59788152D01*
X140904761Y-59788152D02*
X141047618Y-59788152D01*
X141047618Y-59788152D02*
X141142856Y-59740533D01*
X140714285Y-59407200D02*
X140809523Y-59454819D01*
X140809523Y-59454819D02*
X140999999Y-59454819D01*
X140999999Y-59454819D02*
X141095237Y-59407200D01*
X141095237Y-59407200D02*
X141142856Y-59359580D01*
X141142856Y-59359580D02*
X141190475Y-59264342D01*
X141190475Y-59264342D02*
X141190475Y-58978628D01*
X141190475Y-58978628D02*
X141142856Y-58883390D01*
X141142856Y-58883390D02*
X141095237Y-58835771D01*
X141095237Y-58835771D02*
X140999999Y-58788152D01*
X140999999Y-58788152D02*
X140809523Y-58788152D01*
X140809523Y-58788152D02*
X140714285Y-58835771D01*
X139523809Y-58407200D02*
X140380951Y-59692914D01*
X138809523Y-59407200D02*
X138904761Y-59454819D01*
X138904761Y-59454819D02*
X139095237Y-59454819D01*
X139095237Y-59454819D02*
X139190475Y-59407200D01*
X139190475Y-59407200D02*
X139238094Y-59311961D01*
X139238094Y-59311961D02*
X139238094Y-58931009D01*
X139238094Y-58931009D02*
X139190475Y-58835771D01*
X139190475Y-58835771D02*
X139095237Y-58788152D01*
X139095237Y-58788152D02*
X138904761Y-58788152D01*
X138904761Y-58788152D02*
X138809523Y-58835771D01*
X138809523Y-58835771D02*
X138761904Y-58931009D01*
X138761904Y-58931009D02*
X138761904Y-59026247D01*
X138761904Y-59026247D02*
X139238094Y-59121485D01*
X137904761Y-59454819D02*
X137904761Y-58454819D01*
X137904761Y-59407200D02*
X137999999Y-59454819D01*
X137999999Y-59454819D02*
X138190475Y-59454819D01*
X138190475Y-59454819D02*
X138285713Y-59407200D01*
X138285713Y-59407200D02*
X138333332Y-59359580D01*
X138333332Y-59359580D02*
X138380951Y-59264342D01*
X138380951Y-59264342D02*
X138380951Y-58978628D01*
X138380951Y-58978628D02*
X138333332Y-58883390D01*
X138333332Y-58883390D02*
X138285713Y-58835771D01*
X138285713Y-58835771D02*
X138190475Y-58788152D01*
X138190475Y-58788152D02*
X137999999Y-58788152D01*
X137999999Y-58788152D02*
X137904761Y-58835771D01*
X137047618Y-59407200D02*
X137142856Y-59454819D01*
X137142856Y-59454819D02*
X137333332Y-59454819D01*
X137333332Y-59454819D02*
X137428570Y-59407200D01*
X137428570Y-59407200D02*
X137476189Y-59311961D01*
X137476189Y-59311961D02*
X137476189Y-58931009D01*
X137476189Y-58931009D02*
X137428570Y-58835771D01*
X137428570Y-58835771D02*
X137333332Y-58788152D01*
X137333332Y-58788152D02*
X137142856Y-58788152D01*
X137142856Y-58788152D02*
X137047618Y-58835771D01*
X137047618Y-58835771D02*
X136999999Y-58931009D01*
X136999999Y-58931009D02*
X136999999Y-59026247D01*
X136999999Y-59026247D02*
X137476189Y-59121485D01*
X136666665Y-58788152D02*
X136428570Y-59454819D01*
X136428570Y-59454819D02*
X136190475Y-58788152D01*
X135809522Y-59454819D02*
X135809522Y-58454819D01*
X135714284Y-59073866D02*
X135428570Y-59454819D01*
X135428570Y-58788152D02*
X135809522Y-59169104D01*
X134999998Y-59454819D02*
X134999998Y-58788152D01*
X134999998Y-58454819D02*
X135047617Y-58502438D01*
X135047617Y-58502438D02*
X134999998Y-58550057D01*
X134999998Y-58550057D02*
X134952379Y-58502438D01*
X134952379Y-58502438D02*
X134999998Y-58454819D01*
X134999998Y-58454819D02*
X134999998Y-58550057D01*
X134666665Y-58788152D02*
X134285713Y-58788152D01*
X134523808Y-58454819D02*
X134523808Y-59311961D01*
X134523808Y-59311961D02*
X134476189Y-59407200D01*
X134476189Y-59407200D02*
X134380951Y-59454819D01*
X134380951Y-59454819D02*
X134285713Y-59454819D01*
D11*
X159314285Y-56245782D02*
X159314285Y-57045782D01*
X159828570Y-56245782D02*
X159828570Y-56874354D01*
X159828570Y-56874354D02*
X159771427Y-56988640D01*
X159771427Y-56988640D02*
X159657142Y-57045782D01*
X159657142Y-57045782D02*
X159485713Y-57045782D01*
X159485713Y-57045782D02*
X159371427Y-56988640D01*
X159371427Y-56988640D02*
X159314285Y-56931497D01*
X158799999Y-56988640D02*
X158685713Y-57045782D01*
X158685713Y-57045782D02*
X158457142Y-57045782D01*
X158457142Y-57045782D02*
X158342856Y-56988640D01*
X158342856Y-56988640D02*
X158285713Y-56874354D01*
X158285713Y-56874354D02*
X158285713Y-56817211D01*
X158285713Y-56817211D02*
X158342856Y-56702925D01*
X158342856Y-56702925D02*
X158457142Y-56645782D01*
X158457142Y-56645782D02*
X158628571Y-56645782D01*
X158628571Y-56645782D02*
X158742856Y-56588640D01*
X158742856Y-56588640D02*
X158799999Y-56474354D01*
X158799999Y-56474354D02*
X158799999Y-56417211D01*
X158799999Y-56417211D02*
X158742856Y-56302925D01*
X158742856Y-56302925D02*
X158628571Y-56245782D01*
X158628571Y-56245782D02*
X158457142Y-56245782D01*
X158457142Y-56245782D02*
X158342856Y-56302925D01*
X157771427Y-57045782D02*
X157771427Y-55845782D01*
X157771427Y-56302925D02*
X157657142Y-56245782D01*
X157657142Y-56245782D02*
X157428570Y-56245782D01*
X157428570Y-56245782D02*
X157314284Y-56302925D01*
X157314284Y-56302925D02*
X157257142Y-56360068D01*
X157257142Y-56360068D02*
X157199999Y-56474354D01*
X157199999Y-56474354D02*
X157199999Y-56817211D01*
X157199999Y-56817211D02*
X157257142Y-56931497D01*
X157257142Y-56931497D02*
X157314284Y-56988640D01*
X157314284Y-56988640D02*
X157428570Y-57045782D01*
X157428570Y-57045782D02*
X157657142Y-57045782D01*
X157657142Y-57045782D02*
X157771427Y-56988640D01*
X156685713Y-57045782D02*
X156685713Y-55845782D01*
X156571428Y-56588640D02*
X156228570Y-57045782D01*
X156228570Y-56245782D02*
X156685713Y-56702925D01*
X155714284Y-57045782D02*
X155714284Y-56245782D01*
X155714284Y-55845782D02*
X155771427Y-55902925D01*
X155771427Y-55902925D02*
X155714284Y-55960068D01*
X155714284Y-55960068D02*
X155657141Y-55902925D01*
X155657141Y-55902925D02*
X155714284Y-55845782D01*
X155714284Y-55845782D02*
X155714284Y-55960068D01*
X155314284Y-56245782D02*
X154857141Y-56245782D01*
X155142855Y-55845782D02*
X155142855Y-56874354D01*
X155142855Y-56874354D02*
X155085712Y-56988640D01*
X155085712Y-56988640D02*
X154971427Y-57045782D01*
X154971427Y-57045782D02*
X154857141Y-57045782D01*
X154571427Y-56245782D02*
X154285713Y-57045782D01*
X154285713Y-57045782D02*
X153999998Y-56245782D01*
X152914284Y-57045782D02*
X153599998Y-57045782D01*
X153257141Y-57045782D02*
X153257141Y-55845782D01*
X153257141Y-55845782D02*
X153371427Y-56017211D01*
X153371427Y-56017211D02*
X153485712Y-56131497D01*
X153485712Y-56131497D02*
X153599998Y-56188640D01*
X151485712Y-56588640D02*
X150571427Y-56588640D01*
X149085712Y-55845782D02*
X149085712Y-56817211D01*
X149085712Y-56817211D02*
X149028569Y-56931497D01*
X149028569Y-56931497D02*
X148971427Y-56988640D01*
X148971427Y-56988640D02*
X148857141Y-57045782D01*
X148857141Y-57045782D02*
X148628569Y-57045782D01*
X148628569Y-57045782D02*
X148514284Y-56988640D01*
X148514284Y-56988640D02*
X148457141Y-56931497D01*
X148457141Y-56931497D02*
X148399998Y-56817211D01*
X148399998Y-56817211D02*
X148399998Y-55845782D01*
X147885712Y-56988640D02*
X147714284Y-57045782D01*
X147714284Y-57045782D02*
X147428569Y-57045782D01*
X147428569Y-57045782D02*
X147314284Y-56988640D01*
X147314284Y-56988640D02*
X147257141Y-56931497D01*
X147257141Y-56931497D02*
X147199998Y-56817211D01*
X147199998Y-56817211D02*
X147199998Y-56702925D01*
X147199998Y-56702925D02*
X147257141Y-56588640D01*
X147257141Y-56588640D02*
X147314284Y-56531497D01*
X147314284Y-56531497D02*
X147428569Y-56474354D01*
X147428569Y-56474354D02*
X147657141Y-56417211D01*
X147657141Y-56417211D02*
X147771426Y-56360068D01*
X147771426Y-56360068D02*
X147828569Y-56302925D01*
X147828569Y-56302925D02*
X147885712Y-56188640D01*
X147885712Y-56188640D02*
X147885712Y-56074354D01*
X147885712Y-56074354D02*
X147828569Y-55960068D01*
X147828569Y-55960068D02*
X147771426Y-55902925D01*
X147771426Y-55902925D02*
X147657141Y-55845782D01*
X147657141Y-55845782D02*
X147371426Y-55845782D01*
X147371426Y-55845782D02*
X147199998Y-55902925D01*
X146285712Y-56417211D02*
X146114284Y-56474354D01*
X146114284Y-56474354D02*
X146057141Y-56531497D01*
X146057141Y-56531497D02*
X145999998Y-56645782D01*
X145999998Y-56645782D02*
X145999998Y-56817211D01*
X145999998Y-56817211D02*
X146057141Y-56931497D01*
X146057141Y-56931497D02*
X146114284Y-56988640D01*
X146114284Y-56988640D02*
X146228569Y-57045782D01*
X146228569Y-57045782D02*
X146685712Y-57045782D01*
X146685712Y-57045782D02*
X146685712Y-55845782D01*
X146685712Y-55845782D02*
X146285712Y-55845782D01*
X146285712Y-55845782D02*
X146171427Y-55902925D01*
X146171427Y-55902925D02*
X146114284Y-55960068D01*
X146114284Y-55960068D02*
X146057141Y-56074354D01*
X146057141Y-56074354D02*
X146057141Y-56188640D01*
X146057141Y-56188640D02*
X146114284Y-56302925D01*
X146114284Y-56302925D02*
X146171427Y-56360068D01*
X146171427Y-56360068D02*
X146285712Y-56417211D01*
X146285712Y-56417211D02*
X146685712Y-56417211D01*
X144171426Y-56417211D02*
X143999998Y-56474354D01*
X143999998Y-56474354D02*
X143942855Y-56531497D01*
X143942855Y-56531497D02*
X143885712Y-56645782D01*
X143885712Y-56645782D02*
X143885712Y-56817211D01*
X143885712Y-56817211D02*
X143942855Y-56931497D01*
X143942855Y-56931497D02*
X143999998Y-56988640D01*
X143999998Y-56988640D02*
X144114283Y-57045782D01*
X144114283Y-57045782D02*
X144571426Y-57045782D01*
X144571426Y-57045782D02*
X144571426Y-55845782D01*
X144571426Y-55845782D02*
X144171426Y-55845782D01*
X144171426Y-55845782D02*
X144057141Y-55902925D01*
X144057141Y-55902925D02*
X143999998Y-55960068D01*
X143999998Y-55960068D02*
X143942855Y-56074354D01*
X143942855Y-56074354D02*
X143942855Y-56188640D01*
X143942855Y-56188640D02*
X143999998Y-56302925D01*
X143999998Y-56302925D02*
X144057141Y-56360068D01*
X144057141Y-56360068D02*
X144171426Y-56417211D01*
X144171426Y-56417211D02*
X144571426Y-56417211D01*
X143199998Y-57045782D02*
X143314283Y-56988640D01*
X143314283Y-56988640D02*
X143371426Y-56931497D01*
X143371426Y-56931497D02*
X143428569Y-56817211D01*
X143428569Y-56817211D02*
X143428569Y-56474354D01*
X143428569Y-56474354D02*
X143371426Y-56360068D01*
X143371426Y-56360068D02*
X143314283Y-56302925D01*
X143314283Y-56302925D02*
X143199998Y-56245782D01*
X143199998Y-56245782D02*
X143028569Y-56245782D01*
X143028569Y-56245782D02*
X142914283Y-56302925D01*
X142914283Y-56302925D02*
X142857141Y-56360068D01*
X142857141Y-56360068D02*
X142799998Y-56474354D01*
X142799998Y-56474354D02*
X142799998Y-56817211D01*
X142799998Y-56817211D02*
X142857141Y-56931497D01*
X142857141Y-56931497D02*
X142914283Y-56988640D01*
X142914283Y-56988640D02*
X143028569Y-57045782D01*
X143028569Y-57045782D02*
X143199998Y-57045782D01*
X142114284Y-57045782D02*
X142228569Y-56988640D01*
X142228569Y-56988640D02*
X142285712Y-56931497D01*
X142285712Y-56931497D02*
X142342855Y-56817211D01*
X142342855Y-56817211D02*
X142342855Y-56474354D01*
X142342855Y-56474354D02*
X142285712Y-56360068D01*
X142285712Y-56360068D02*
X142228569Y-56302925D01*
X142228569Y-56302925D02*
X142114284Y-56245782D01*
X142114284Y-56245782D02*
X141942855Y-56245782D01*
X141942855Y-56245782D02*
X141828569Y-56302925D01*
X141828569Y-56302925D02*
X141771427Y-56360068D01*
X141771427Y-56360068D02*
X141714284Y-56474354D01*
X141714284Y-56474354D02*
X141714284Y-56817211D01*
X141714284Y-56817211D02*
X141771427Y-56931497D01*
X141771427Y-56931497D02*
X141828569Y-56988640D01*
X141828569Y-56988640D02*
X141942855Y-57045782D01*
X141942855Y-57045782D02*
X142114284Y-57045782D01*
X141199998Y-57045782D02*
X141199998Y-55845782D01*
X141085713Y-56588640D02*
X140742855Y-57045782D01*
X140742855Y-56245782D02*
X141199998Y-56702925D01*
X138799998Y-56988640D02*
X138914283Y-57045782D01*
X138914283Y-57045782D02*
X139142855Y-57045782D01*
X139142855Y-57045782D02*
X139257140Y-56988640D01*
X139257140Y-56988640D02*
X139314283Y-56931497D01*
X139314283Y-56931497D02*
X139371426Y-56817211D01*
X139371426Y-56817211D02*
X139371426Y-56474354D01*
X139371426Y-56474354D02*
X139314283Y-56360068D01*
X139314283Y-56360068D02*
X139257140Y-56302925D01*
X139257140Y-56302925D02*
X139142855Y-56245782D01*
X139142855Y-56245782D02*
X138914283Y-56245782D01*
X138914283Y-56245782D02*
X138799998Y-56302925D01*
X138114284Y-57045782D02*
X138228569Y-56988640D01*
X138228569Y-56988640D02*
X138285712Y-56931497D01*
X138285712Y-56931497D02*
X138342855Y-56817211D01*
X138342855Y-56817211D02*
X138342855Y-56474354D01*
X138342855Y-56474354D02*
X138285712Y-56360068D01*
X138285712Y-56360068D02*
X138228569Y-56302925D01*
X138228569Y-56302925D02*
X138114284Y-56245782D01*
X138114284Y-56245782D02*
X137942855Y-56245782D01*
X137942855Y-56245782D02*
X137828569Y-56302925D01*
X137828569Y-56302925D02*
X137771427Y-56360068D01*
X137771427Y-56360068D02*
X137714284Y-56474354D01*
X137714284Y-56474354D02*
X137714284Y-56817211D01*
X137714284Y-56817211D02*
X137771427Y-56931497D01*
X137771427Y-56931497D02*
X137828569Y-56988640D01*
X137828569Y-56988640D02*
X137942855Y-57045782D01*
X137942855Y-57045782D02*
X138114284Y-57045782D01*
X137199998Y-57045782D02*
X137199998Y-56245782D01*
X137199998Y-56360068D02*
X137142855Y-56302925D01*
X137142855Y-56302925D02*
X137028570Y-56245782D01*
X137028570Y-56245782D02*
X136857141Y-56245782D01*
X136857141Y-56245782D02*
X136742855Y-56302925D01*
X136742855Y-56302925D02*
X136685713Y-56417211D01*
X136685713Y-56417211D02*
X136685713Y-57045782D01*
X136685713Y-56417211D02*
X136628570Y-56302925D01*
X136628570Y-56302925D02*
X136514284Y-56245782D01*
X136514284Y-56245782D02*
X136342855Y-56245782D01*
X136342855Y-56245782D02*
X136228570Y-56302925D01*
X136228570Y-56302925D02*
X136171427Y-56417211D01*
X136171427Y-56417211D02*
X136171427Y-57045782D01*
X135599998Y-56245782D02*
X135599998Y-57445782D01*
X135599998Y-56302925D02*
X135485713Y-56245782D01*
X135485713Y-56245782D02*
X135257141Y-56245782D01*
X135257141Y-56245782D02*
X135142855Y-56302925D01*
X135142855Y-56302925D02*
X135085713Y-56360068D01*
X135085713Y-56360068D02*
X135028570Y-56474354D01*
X135028570Y-56474354D02*
X135028570Y-56817211D01*
X135028570Y-56817211D02*
X135085713Y-56931497D01*
X135085713Y-56931497D02*
X135142855Y-56988640D01*
X135142855Y-56988640D02*
X135257141Y-57045782D01*
X135257141Y-57045782D02*
X135485713Y-57045782D01*
X135485713Y-57045782D02*
X135599998Y-56988640D01*
X133999999Y-57045782D02*
X133999999Y-56417211D01*
X133999999Y-56417211D02*
X134057141Y-56302925D01*
X134057141Y-56302925D02*
X134171427Y-56245782D01*
X134171427Y-56245782D02*
X134399999Y-56245782D01*
X134399999Y-56245782D02*
X134514284Y-56302925D01*
X133999999Y-56988640D02*
X134114284Y-57045782D01*
X134114284Y-57045782D02*
X134399999Y-57045782D01*
X134399999Y-57045782D02*
X134514284Y-56988640D01*
X134514284Y-56988640D02*
X134571427Y-56874354D01*
X134571427Y-56874354D02*
X134571427Y-56760068D01*
X134571427Y-56760068D02*
X134514284Y-56645782D01*
X134514284Y-56645782D02*
X134399999Y-56588640D01*
X134399999Y-56588640D02*
X134114284Y-56588640D01*
X134114284Y-56588640D02*
X133999999Y-56531497D01*
X133428570Y-56245782D02*
X133428570Y-57045782D01*
X133428570Y-56360068D02*
X133371427Y-56302925D01*
X133371427Y-56302925D02*
X133257142Y-56245782D01*
X133257142Y-56245782D02*
X133085713Y-56245782D01*
X133085713Y-56245782D02*
X132971427Y-56302925D01*
X132971427Y-56302925D02*
X132914285Y-56417211D01*
X132914285Y-56417211D02*
X132914285Y-57045782D01*
X132342856Y-57045782D02*
X132342856Y-56245782D01*
X132342856Y-55845782D02*
X132399999Y-55902925D01*
X132399999Y-55902925D02*
X132342856Y-55960068D01*
X132342856Y-55960068D02*
X132285713Y-55902925D01*
X132285713Y-55902925D02*
X132342856Y-55845782D01*
X132342856Y-55845782D02*
X132342856Y-55960068D01*
X131599999Y-57045782D02*
X131714284Y-56988640D01*
X131714284Y-56988640D02*
X131771427Y-56931497D01*
X131771427Y-56931497D02*
X131828570Y-56817211D01*
X131828570Y-56817211D02*
X131828570Y-56474354D01*
X131828570Y-56474354D02*
X131771427Y-56360068D01*
X131771427Y-56360068D02*
X131714284Y-56302925D01*
X131714284Y-56302925D02*
X131599999Y-56245782D01*
X131599999Y-56245782D02*
X131428570Y-56245782D01*
X131428570Y-56245782D02*
X131314284Y-56302925D01*
X131314284Y-56302925D02*
X131257142Y-56360068D01*
X131257142Y-56360068D02*
X131199999Y-56474354D01*
X131199999Y-56474354D02*
X131199999Y-56817211D01*
X131199999Y-56817211D02*
X131257142Y-56931497D01*
X131257142Y-56931497D02*
X131314284Y-56988640D01*
X131314284Y-56988640D02*
X131428570Y-57045782D01*
X131428570Y-57045782D02*
X131599999Y-57045782D01*
X130685713Y-56245782D02*
X130685713Y-57045782D01*
X130685713Y-56360068D02*
X130628570Y-56302925D01*
X130628570Y-56302925D02*
X130514285Y-56245782D01*
X130514285Y-56245782D02*
X130342856Y-56245782D01*
X130342856Y-56245782D02*
X130228570Y-56302925D01*
X130228570Y-56302925D02*
X130171428Y-56417211D01*
X130171428Y-56417211D02*
X130171428Y-57045782D01*
M02*
