%TF.GenerationSoftware,KiCad,Pcbnew,10.0.0*%
%TF.CreationDate,2026-06-03T11:52:45+05:30*%
%TF.ProjectId,usbkitv1,7573626b-6974-4763-912e-6b696361645f,rev?*%
%TF.SameCoordinates,Original*%
%TF.FileFunction,Copper,L1,Top*%
%TF.FilePolarity,Positive*%
%FSLAX46Y46*%
G04 Gerber Fmt 4.6, Leading zero omitted, Abs format (unit mm)*
G04 Created by KiCad (PCBNEW 10.0.0) date 2026-06-03 11:52:45*
%MOMM*%
%LPD*%
G01*
G04 APERTURE LIST*
G04 Aperture macros list*
%AMRoundRect*
0 Rectangle with rounded corners*
0 $1 Rounding radius*
0 $2 $3 $4 $5 $6 $7 $8 $9 X,Y pos of 4 corners*
0 Add a 4 corners polygon primitive as box body*
4,1,4,$2,$3,$4,$5,$6,$7,$8,$9,$2,$3,0*
0 Add four circle primitives for the rounded corners*
1,1,$1+$1,$2,$3*
1,1,$1+$1,$4,$5*
1,1,$1+$1,$6,$7*
1,1,$1+$1,$8,$9*
0 Add four rect primitives between the rounded corners*
20,1,$1+$1,$2,$3,$4,$5,0*
20,1,$1+$1,$4,$5,$6,$7,0*
20,1,$1+$1,$6,$7,$8,$9,0*
20,1,$1+$1,$8,$9,$2,$3,0*%
G04 Aperture macros list end*
%TA.AperFunction,SMDPad,CuDef*%
%ADD10RoundRect,0.250000X-0.350000X-0.450000X0.350000X-0.450000X0.350000X0.450000X-0.350000X0.450000X0*%
%TD*%
%TA.AperFunction,ComponentPad*%
%ADD11R,1.700000X1.700000*%
%TD*%
%TA.AperFunction,ComponentPad*%
%ADD12C,1.700000*%
%TD*%
%TA.AperFunction,ComponentPad*%
%ADD13O,3.200000X1.900000*%
%TD*%
%TA.AperFunction,SMDPad,CuDef*%
%ADD14RoundRect,0.250000X0.350000X0.450000X-0.350000X0.450000X-0.350000X-0.450000X0.350000X-0.450000X0*%
%TD*%
%TA.AperFunction,SMDPad,CuDef*%
%ADD15RoundRect,0.250000X-0.325000X-0.450000X0.325000X-0.450000X0.325000X0.450000X-0.325000X0.450000X0*%
%TD*%
%TA.AperFunction,SMDPad,CuDef*%
%ADD16RoundRect,0.500000X-0.875000X-0.500000X0.875000X-0.500000X0.875000X0.500000X-0.875000X0.500000X0*%
%TD*%
%TA.AperFunction,SMDPad,CuDef*%
%ADD17C,1.700000*%
%TD*%
%TA.AperFunction,SMDPad,CuDef*%
%ADD18RoundRect,0.275000X0.975000X0.275000X-0.975000X0.275000X-0.975000X-0.275000X0.975000X-0.275000X0*%
%TD*%
%TA.AperFunction,SMDPad,CuDef*%
%ADD19RoundRect,0.275000X-0.275000X0.975000X-0.275000X-0.975000X0.275000X-0.975000X0.275000X0.975000X0*%
%TD*%
%TA.AperFunction,ComponentPad*%
%ADD20C,2.000000*%
%TD*%
%TA.AperFunction,ComponentPad*%
%ADD21C,1.778000*%
%TD*%
%TA.AperFunction,ComponentPad*%
%ADD22C,2.286000*%
%TD*%
%TA.AperFunction,SMDPad,CuDef*%
%ADD23RoundRect,0.250000X-0.450000X0.350000X-0.450000X-0.350000X0.450000X-0.350000X0.450000X0.350000X0*%
%TD*%
%TA.AperFunction,ViaPad*%
%ADD24C,0.600000*%
%TD*%
%TA.AperFunction,Conductor*%
%ADD25C,0.200000*%
%TD*%
G04 APERTURE END LIST*
D10*
%TO.P,R1,1*%
%TO.N,+3.3V*%
X69735000Y-68500000D03*
%TO.P,R1,2*%
%TO.N,GPIO_D2*%
X71735000Y-68500000D03*
%TD*%
D11*
%TO.P,J4,1,Pin_1_1*%
%TO.N,+3.3V*%
X127575000Y-102500000D03*
D12*
%TO.P,J4,2,Pin_2_2*%
%TO.N,GND*%
X130115000Y-102500000D03*
%TO.P,J4,3,Pin_3_3*%
%TO.N,SWDIO*%
X132655000Y-102500000D03*
%TO.P,J4,4,Pin_4_4*%
%TO.N,SWCLK*%
X135195000Y-102500000D03*
%TO.P,J4,5,Pin_5_5*%
%TO.N,RESET*%
X137735000Y-102500000D03*
%TD*%
D13*
%TO.P,SW4,1,1_1*%
%TO.N,GPIO_D8*%
X207500000Y-81000000D03*
X220000000Y-81000000D03*
%TO.P,SW4,2,2_2*%
%TO.N,GND*%
X207500000Y-86000000D03*
X220000000Y-86000000D03*
%TD*%
D10*
%TO.P,R3,1*%
%TO.N,+3.3V*%
X173000000Y-96500000D03*
%TO.P,R3,2*%
%TO.N,GPIO_D5*%
X175000000Y-96500000D03*
%TD*%
%TO.P,R5,1*%
%TO.N,+3.3V*%
X200500000Y-81000000D03*
%TO.P,R5,2*%
%TO.N,GPIO_D8*%
X202500000Y-81000000D03*
%TD*%
D14*
%TO.P,R7,1*%
%TO.N,GPIO_D10*%
X142235000Y-95000000D03*
%TO.P,R7,2*%
%TO.N,Net-(D2-A)*%
X140235000Y-95000000D03*
%TD*%
D11*
%TO.P,J1,1,Pin_1_1*%
%TO.N,UART_TX*%
X115195000Y-102500000D03*
D12*
%TO.P,J1,2,Pin_2_2*%
%TO.N,UART_RX*%
X117735000Y-102500000D03*
%TO.P,J1,3,Pin_3_3*%
%TO.N,GND*%
X120275000Y-102500000D03*
%TD*%
D15*
%TO.P,D2,1,K_1*%
%TO.N,GND*%
X134710000Y-95000000D03*
%TO.P,D2,2,A_2*%
%TO.N,Net-(D2-A)*%
X136760000Y-95000000D03*
%TD*%
D10*
%TO.P,R6,1*%
%TO.N,GPIO_D9*%
X124235000Y-95000000D03*
%TO.P,R6,2*%
%TO.N,Net-(D1-A)*%
X126235000Y-95000000D03*
%TD*%
D13*
%TO.P,SW2,1,1_1*%
%TO.N,GPIO_D5*%
X182500000Y-96500000D03*
X195000000Y-96500000D03*
%TO.P,SW2,2,2_2*%
%TO.N,GND*%
X182500000Y-101500000D03*
X195000000Y-101500000D03*
%TD*%
D16*
%TO.P,U1,1,P0.02_A0_D0_1*%
%TO.N,ADC_00*%
X117004500Y-57060250D03*
%TO.P,U1,2,P0.03_A1_D1_2*%
%TO.N,ADC_01*%
X117004500Y-59600250D03*
%TO.P,U1,3,P0.28_A2_D2_3*%
%TO.N,GPIO_D2*%
X117004500Y-62140250D03*
%TO.P,U1,4,P0.29_A3_D3_4*%
%TO.N,GPIO_D3*%
X117004500Y-64680250D03*
%TO.P,U1,5,P0.04_A4_D4_SDA_5*%
%TO.N,GPIO_D4*%
X117004500Y-67220250D03*
%TO.P,U1,6,P0.05_A5_D5_SCL_6*%
%TO.N,GPIO_D5*%
X117004500Y-69760250D03*
%TO.P,U1,7,P1.11_D6_TX_7*%
%TO.N,UART_TX*%
X117004500Y-72300250D03*
%TO.P,U1,8,P1.12_D7_RX_8*%
%TO.N,UART_RX*%
X133169500Y-72300250D03*
%TO.P,U1,9,P1.13_D8_SCK_9*%
%TO.N,GPIO_D8*%
X133169500Y-69760250D03*
%TO.P,U1,10,P1.14_D9_MISO_10*%
%TO.N,GPIO_D9*%
X133169500Y-67220250D03*
%TO.P,U1,11,P1.15_D10_MOSI_11*%
%TO.N,GPIO_D10*%
X133169500Y-64680250D03*
%TO.P,U1,12,3V3_12*%
%TO.N,+3.3V*%
X133169500Y-62140250D03*
%TO.P,U1,13,GND_13*%
%TO.N,GND*%
X133169500Y-59600250D03*
%TO.P,U1,14,VBUS_14*%
%TO.N,+5V*%
X133169500Y-57060250D03*
D17*
%TO.P,U1,24,SWDIO_24*%
%TO.N,SWDIO*%
X123789500Y-58651750D03*
%TO.P,U1,25,SWCLK_25*%
%TO.N,SWCLK*%
X126329500Y-58651750D03*
%TO.P,U1,26,RESET_26*%
%TO.N,RESET*%
X123789500Y-56111750D03*
%TO.P,U1,27,GND_27*%
%TO.N,GND*%
X126329500Y-56111750D03*
D18*
%TO.P,U1,32,BAT_32*%
%TO.N,BAT*%
X120614500Y-64366750D03*
%TO.P,U1,33,GND_33*%
%TO.N,GND*%
X120614500Y-62461750D03*
D19*
%TO.P,U1,34,P0.09_NFC1_34*%
%TO.N,unconnected-(U1-P0.09_NFC1-Pad34)*%
X128869500Y-73917150D03*
%TO.P,U1,35,P0.10_NFC2_35*%
%TO.N,unconnected-(U1-P0.10_NFC2-Pad35)*%
X130774500Y-73917150D03*
%TD*%
D13*
%TO.P,SW1,1,1_1*%
%TO.N,GPIO_D4*%
X182500000Y-65000000D03*
X195000000Y-65000000D03*
%TO.P,SW1,2,2_2*%
%TO.N,GND*%
X182500000Y-70000000D03*
X195000000Y-70000000D03*
%TD*%
D10*
%TO.P,R4,1*%
%TO.N,+3.3V*%
X148500000Y-81000000D03*
%TO.P,R4,2*%
%TO.N,GPIO_D3*%
X150500000Y-81000000D03*
%TD*%
D20*
%TO.P,SW5,1,1_1*%
%TO.N,RESET*%
X106985000Y-89250000D03*
X113485000Y-89250000D03*
%TO.P,SW5,2,2_2*%
%TO.N,GND*%
X106985000Y-93750000D03*
X113485000Y-93750000D03*
%TD*%
D10*
%TO.P,R10,1*%
%TO.N,+3.3V*%
X111735000Y-83500000D03*
%TO.P,R10,2*%
%TO.N,RESET*%
X113735000Y-83500000D03*
%TD*%
D13*
%TO.P,SW3,1,1_1*%
%TO.N,GPIO_D3*%
X158500000Y-81000000D03*
X171000000Y-81000000D03*
%TO.P,SW3,2,2_2*%
%TO.N,GND*%
X158500000Y-86000000D03*
X171000000Y-86000000D03*
%TD*%
D15*
%TO.P,D1,1,K_1*%
%TO.N,GND*%
X129210000Y-95000000D03*
%TO.P,D1,2,A_2*%
%TO.N,Net-(D1-A)*%
X131260000Y-95000000D03*
%TD*%
D21*
%TO.P,U2,B1A,SEL+_B1A*%
%TO.N,GPIO_D2*%
X72535000Y-84175000D03*
%TO.P,U2,B1B*%
%TO.N,N/C*%
X72535000Y-77825000D03*
%TO.P,U2,B2A,SEL-_B2A*%
%TO.N,GND*%
X77615000Y-84175000D03*
%TO.P,U2,B2B*%
%TO.N,N/C*%
X77615000Y-77825000D03*
%TO.P,U2,H1,H+_H1*%
%TO.N,+3.3V*%
X95395000Y-83540000D03*
%TO.P,U2,H2,H_H2*%
%TO.N,ADC_01*%
X95395000Y-81000000D03*
%TO.P,U2,H3,H-_H3*%
%TO.N,GND*%
X95395000Y-78460000D03*
D22*
%TO.P,U2,S1,SHIELD_S1*%
X78567500Y-88620000D03*
%TO.P,U2,S2,SHIELD__1_S2*%
X91902500Y-88620000D03*
%TO.P,U2,S3,SHIELD__2_S3*%
X91902500Y-73380000D03*
%TO.P,U2,S4,SHIELD__3_S4*%
X78567500Y-73380000D03*
D21*
%TO.P,U2,V1,V+_V1*%
%TO.N,+3.3V*%
X82695000Y-91160000D03*
%TO.P,U2,V2,V_V2*%
%TO.N,ADC_00*%
X85235000Y-91160000D03*
%TO.P,U2,V3,V-_V3*%
%TO.N,GND*%
X87775000Y-91160000D03*
%TD*%
D23*
%TO.P,R2,1*%
%TO.N,+3.3V*%
X176500000Y-63000000D03*
%TO.P,R2,2*%
%TO.N,GPIO_D4*%
X176500000Y-65000000D03*
%TD*%
D11*
%TO.P,J6,1,Pin_1_1*%
%TO.N,BAT*%
X145460000Y-102500000D03*
D12*
%TO.P,J6,2,Pin_2_2*%
%TO.N,GND*%
X148000000Y-102500000D03*
%TD*%
D24*
%TO.N,+3.3V*%
X121250000Y-107000000D03*
X122500000Y-104750000D03*
%TO.N,GND*%
X95000000Y-93000000D03*
X82000000Y-86000000D03*
%TO.N,SWDIO*%
X126000000Y-61000000D03*
X126000000Y-81500000D03*
X132750000Y-98500000D03*
%TO.N,SWCLK*%
X127000000Y-63500000D03*
X135000000Y-100500000D03*
X130500000Y-84250000D03*
X127000000Y-60250000D03*
%TO.N,RESET*%
X125000000Y-64000000D03*
X121000000Y-58000000D03*
%TO.N,GPIO_D8*%
X202500000Y-78500000D03*
X147500000Y-69750000D03*
X151000000Y-70000000D03*
X171750000Y-71250000D03*
%TO.N,GPIO_D5*%
X123750000Y-103750000D03*
X121500000Y-90250000D03*
X119750000Y-86000000D03*
X174750000Y-99000000D03*
%TO.N,UART_TX*%
X116500000Y-95250000D03*
X116500000Y-74000000D03*
%TO.N,UART_RX*%
X118250000Y-95250000D03*
X133250000Y-74500000D03*
%TO.N,ADC_00*%
X92000000Y-77000000D03*
X114000000Y-57000000D03*
%TO.N,ADC_01*%
X113000000Y-60000000D03*
X107000000Y-64000000D03*
%TO.N,GPIO_D3*%
X132000000Y-88750000D03*
X126000000Y-85750000D03*
X123000000Y-82750000D03*
X137750000Y-89500000D03*
X127500000Y-87250000D03*
X150500000Y-84000000D03*
%TO.N,GPIO_D4*%
X124750000Y-87500000D03*
X128500000Y-90250000D03*
X174500000Y-65000000D03*
X130000000Y-88750000D03*
X134750000Y-84750000D03*
X121500000Y-84250000D03*
%TO.N,BAT*%
X124000000Y-81750000D03*
X132000000Y-80000000D03*
%TD*%
%TO.N,+3.3V*%
D25*
X218565686Y-68750000D02*
X227000000Y-77184314D01*
X66000000Y-82000000D02*
X75160000Y-91160000D01*
X123200736Y-104049264D02*
X122850000Y-103698529D01*
X82695000Y-91160000D02*
X82695000Y-93695000D01*
X122500000Y-104750000D02*
X123200736Y-104049264D01*
X82695000Y-93695000D02*
X83000000Y-94000000D01*
X133169500Y-62140250D02*
X143140250Y-62140250D01*
X179000000Y-79750000D02*
X180250000Y-81000000D01*
X69735000Y-68500000D02*
X68500000Y-68500000D01*
X180832233Y-68750000D02*
X218565686Y-68750000D01*
X227000000Y-99000000D02*
X218600000Y-107400000D01*
X95395000Y-83540000D02*
X111695000Y-83540000D01*
X121100000Y-92865000D02*
X118785000Y-90550000D01*
X68500000Y-68500000D02*
X66000000Y-71000000D01*
X95395000Y-90605000D02*
X95395000Y-83540000D01*
X123501471Y-104350000D02*
X123200736Y-104049264D01*
X122850000Y-103698529D02*
X122850000Y-97915686D01*
X180250000Y-81000000D02*
X174250000Y-87000000D01*
X121650000Y-107400000D02*
X121250000Y-107000000D01*
X169832233Y-79750000D02*
X180832233Y-68750000D01*
X174250000Y-93250000D02*
X173000000Y-94500000D01*
X144000000Y-63000000D02*
X148500000Y-67500000D01*
X122850000Y-97915686D02*
X121100000Y-96165685D01*
X127575000Y-102500000D02*
X125725000Y-104350000D01*
X149750000Y-79750000D02*
X179000000Y-79750000D01*
X148500000Y-81000000D02*
X149750000Y-79750000D01*
X173000000Y-94500000D02*
X173000000Y-96500000D01*
X227000000Y-77184314D02*
X227000000Y-99000000D01*
X75160000Y-91160000D02*
X82695000Y-91160000D01*
X92000000Y-94000000D02*
X95395000Y-90605000D01*
X180250000Y-81000000D02*
X173000000Y-73750000D01*
X149750000Y-79750000D02*
X169832233Y-79750000D01*
X148500000Y-67500000D02*
X148500000Y-81000000D01*
X125725000Y-104350000D02*
X123501471Y-104350000D01*
X102405000Y-90550000D02*
X95395000Y-83540000D01*
X173000000Y-63000000D02*
X144000000Y-63000000D01*
X218600000Y-107400000D02*
X121650000Y-107400000D01*
X111695000Y-83540000D02*
X111735000Y-83500000D01*
X173000000Y-73750000D02*
X173000000Y-63000000D01*
X118785000Y-90550000D02*
X102405000Y-90550000D01*
X66000000Y-71000000D02*
X66000000Y-82000000D01*
X176500000Y-63000000D02*
X173000000Y-63000000D01*
X200500000Y-81000000D02*
X180250000Y-81000000D01*
X121100000Y-96165685D02*
X121100000Y-92865000D01*
X143140250Y-62140250D02*
X144000000Y-63000000D01*
X174250000Y-87000000D02*
X174250000Y-93250000D01*
X83000000Y-94000000D02*
X92000000Y-94000000D01*
%TO.N,GPIO_D2*%
X83859750Y-62140250D02*
X117004500Y-62140250D01*
X77500000Y-68500000D02*
X83859750Y-62140250D01*
X69000000Y-72000000D02*
X70000000Y-72000000D01*
X69175000Y-84175000D02*
X67000000Y-82000000D01*
X71735000Y-70265000D02*
X71735000Y-68500000D01*
X71735000Y-68500000D02*
X77500000Y-68500000D01*
X70000000Y-72000000D02*
X71735000Y-70265000D01*
X72535000Y-84175000D02*
X69175000Y-84175000D01*
X67000000Y-74000000D02*
X69000000Y-72000000D01*
X67000000Y-82000000D02*
X67000000Y-74000000D01*
%TO.N,GND*%
X80000000Y-74812500D02*
X78567500Y-73380000D01*
X158500000Y-92000000D02*
X158500000Y-86000000D01*
X77000000Y-96000000D02*
X92000000Y-96000000D01*
X92000000Y-96000000D02*
X95000000Y-93000000D01*
X130115000Y-104885000D02*
X130115000Y-102500000D01*
X222500000Y-86000000D02*
X224500000Y-84000000D01*
X124817750Y-54600000D02*
X111400000Y-54600000D01*
X202000000Y-101500000D02*
X195000000Y-101500000D01*
X120614500Y-62461750D02*
X127538250Y-62461750D01*
X95750000Y-93750000D02*
X95000000Y-93000000D01*
X224500000Y-75250000D02*
X219250000Y-70000000D01*
X126329500Y-56111750D02*
X127217750Y-57000000D01*
X133885000Y-100115000D02*
X130115000Y-100115000D01*
X80000000Y-84000000D02*
X80000000Y-74812500D01*
X224500000Y-84000000D02*
X224500000Y-75250000D01*
X148000000Y-102500000D02*
X149000000Y-103500000D01*
X111400000Y-54600000D02*
X105000000Y-61000000D01*
X81187500Y-86000000D02*
X82000000Y-86000000D01*
X72000000Y-66000000D02*
X69000000Y-66000000D01*
X105000000Y-61000000D02*
X84000000Y-61000000D01*
X182500000Y-101500000D02*
X195000000Y-101500000D01*
X79825000Y-84175000D02*
X80000000Y-84000000D01*
X78567500Y-88620000D02*
X78567500Y-85127500D01*
X69000000Y-66000000D02*
X65000000Y-70000000D01*
X149000000Y-103500000D02*
X149000000Y-106000000D01*
X73000000Y-67000000D02*
X72000000Y-66000000D01*
X120275000Y-94275000D02*
X119750000Y-93750000D01*
X134710000Y-99290000D02*
X133885000Y-100115000D01*
X220000000Y-86000000D02*
X222500000Y-86000000D01*
X148000000Y-107000000D02*
X130000000Y-107000000D01*
X130115000Y-100115000D02*
X130115000Y-102500000D01*
X126329500Y-56111750D02*
X124817750Y-54600000D01*
X65000000Y-70000000D02*
X65000000Y-84000000D01*
X106985000Y-93750000D02*
X95750000Y-93750000D01*
X78567500Y-85127500D02*
X77615000Y-84175000D01*
X127217750Y-57000000D02*
X129000000Y-57000000D01*
X65000000Y-84000000D02*
X77000000Y-96000000D01*
X122000000Y-106000000D02*
X129000000Y-106000000D01*
X220000000Y-86000000D02*
X207500000Y-86000000D01*
X129000000Y-106000000D02*
X130115000Y-104885000D01*
X95395000Y-76872500D02*
X95395000Y-78460000D01*
X87775000Y-91160000D02*
X89362500Y-91160000D01*
X182500000Y-70000000D02*
X195000000Y-70000000D01*
X120275000Y-102500000D02*
X120275000Y-94275000D01*
X119750000Y-93750000D02*
X113485000Y-93750000D01*
X207500000Y-86000000D02*
X207500000Y-96000000D01*
X182500000Y-101500000D02*
X149000000Y-101500000D01*
X149000000Y-101500000D02*
X148000000Y-102500000D01*
X78567500Y-88620000D02*
X81187500Y-86000000D01*
X148000000Y-102500000D02*
X158500000Y-92000000D01*
X171000000Y-86000000D02*
X158500000Y-86000000D01*
X207500000Y-96000000D02*
X202000000Y-101500000D01*
X120275000Y-104275000D02*
X122000000Y-106000000D01*
X91902500Y-73380000D02*
X78567500Y-73380000D01*
X219250000Y-70000000D02*
X195000000Y-70000000D01*
X134710000Y-95000000D02*
X134710000Y-99290000D01*
X131600250Y-59600250D02*
X133169500Y-59600250D01*
X89362500Y-91160000D02*
X91902500Y-88620000D01*
X130000000Y-107000000D02*
X129000000Y-106000000D01*
X130399750Y-59600250D02*
X133169500Y-59600250D01*
X149000000Y-106000000D02*
X148000000Y-107000000D01*
X129210000Y-99210000D02*
X130115000Y-100115000D01*
X120275000Y-102500000D02*
X120275000Y-104275000D01*
X77615000Y-84175000D02*
X79825000Y-84175000D01*
X78000000Y-67000000D02*
X73000000Y-67000000D01*
X106985000Y-93750000D02*
X113485000Y-93750000D01*
X129210000Y-95000000D02*
X129210000Y-99210000D01*
X129000000Y-57000000D02*
X131600250Y-59600250D01*
X127538250Y-62461750D02*
X130399750Y-59600250D01*
X91902500Y-73380000D02*
X95395000Y-76872500D01*
X84000000Y-61000000D02*
X78000000Y-67000000D01*
%TO.N,SWDIO*%
X126000000Y-60862250D02*
X126000000Y-61000000D01*
X128750000Y-84250000D02*
X126000000Y-81500000D01*
X132750000Y-98500000D02*
X132750000Y-92750000D01*
X132750000Y-92750000D02*
X128750000Y-88750000D01*
X128750000Y-88750000D02*
X128750000Y-84250000D01*
X123789500Y-58651750D02*
X126000000Y-60862250D01*
%TO.N,SWCLK*%
X135195000Y-102500000D02*
X135195000Y-100695000D01*
X130500000Y-84250000D02*
X127000000Y-80750000D01*
X127000000Y-59322250D02*
X126329500Y-58651750D01*
X127000000Y-80750000D02*
X127000000Y-63500000D01*
X127000000Y-60250000D02*
X127000000Y-59322250D01*
X135195000Y-100695000D02*
X135000000Y-100500000D01*
%TO.N,RESET*%
X125000000Y-83000000D02*
X125000000Y-64000000D01*
X133350000Y-98748529D02*
X132998529Y-99100000D01*
X121000000Y-58000000D02*
X121000000Y-56750000D01*
X125135000Y-95684744D02*
X124819744Y-96000000D01*
X122250000Y-56000000D02*
X122500000Y-55750000D01*
X132150000Y-93548529D02*
X129451471Y-90850000D01*
X132150000Y-98748529D02*
X132150000Y-93548529D01*
X132501471Y-99100000D02*
X132150000Y-98748529D01*
X120000000Y-88000000D02*
X125000000Y-83000000D01*
X113485000Y-89250000D02*
X113485000Y-83750000D01*
X125135000Y-93966471D02*
X125135000Y-95684744D01*
X135585000Y-94315256D02*
X133350000Y-92080256D01*
X137735000Y-102500000D02*
X135585000Y-100350000D01*
X133350000Y-92080256D02*
X133350000Y-98748529D01*
X123335000Y-90433529D02*
X116401471Y-83500000D01*
X113485000Y-89250000D02*
X114735000Y-88000000D01*
X113485000Y-83750000D02*
X113735000Y-83500000D01*
X114735000Y-88000000D02*
X120000000Y-88000000D01*
X128251471Y-90850000D02*
X125135000Y-93966471D01*
X123335000Y-95684744D02*
X123335000Y-90433529D01*
X129451471Y-90850000D02*
X128251471Y-90850000D01*
X122500000Y-55750000D02*
X123427750Y-55750000D01*
X124819744Y-96000000D02*
X123650256Y-96000000D01*
X113485000Y-89250000D02*
X106985000Y-89250000D01*
X135585000Y-100350000D02*
X135585000Y-94315256D01*
X116401471Y-83500000D02*
X113735000Y-83500000D01*
X121000000Y-56750000D02*
X121750000Y-56000000D01*
X123650256Y-96000000D02*
X123335000Y-95684744D01*
X121750000Y-56000000D02*
X122250000Y-56000000D01*
X132998529Y-99100000D02*
X132501471Y-99100000D01*
X123427750Y-55750000D02*
X123789500Y-56111750D01*
%TO.N,GPIO_D8*%
X170500000Y-70000000D02*
X171750000Y-71250000D01*
X133169500Y-69760250D02*
X147489750Y-69760250D01*
X151000000Y-70000000D02*
X170500000Y-70000000D01*
X202500000Y-81000000D02*
X207500000Y-81000000D01*
X147489750Y-69760250D02*
X147500000Y-69750000D01*
X207500000Y-81000000D02*
X220000000Y-81000000D01*
X202500000Y-78500000D02*
X202500000Y-81000000D01*
%TO.N,GPIO_D5*%
X182500000Y-96500000D02*
X175000000Y-96500000D01*
X175000000Y-98750000D02*
X175000000Y-96500000D01*
X118760250Y-69760250D02*
X119750000Y-70750000D01*
X174750000Y-99000000D02*
X175000000Y-98750000D01*
X121500000Y-90250000D02*
X121500000Y-96000000D01*
X121500000Y-96000000D02*
X123250000Y-97750000D01*
X123250000Y-97750000D02*
X123250000Y-103250000D01*
X123250000Y-103250000D02*
X123750000Y-103750000D01*
X119750000Y-70750000D02*
X119750000Y-86000000D01*
X117004500Y-69760250D02*
X118760250Y-69760250D01*
X195000000Y-96500000D02*
X182500000Y-96500000D01*
%TO.N,GPIO_D10*%
X139662942Y-71488529D02*
X131400000Y-79751471D01*
X146610000Y-71488529D02*
X139662942Y-71488529D01*
X148100000Y-69501471D02*
X148100000Y-69998529D01*
X131400000Y-80248529D02*
X142235000Y-91083529D01*
X148100000Y-69998529D02*
X146610000Y-71488529D01*
X142235000Y-91083529D02*
X142235000Y-95000000D01*
X143278779Y-64680250D02*
X148100000Y-69501471D01*
X133169500Y-64680250D02*
X143278779Y-64680250D01*
X131400000Y-79751471D02*
X131400000Y-80248529D01*
%TO.N,Net-(D2-A)*%
X136760000Y-95000000D02*
X140235000Y-95000000D01*
%TO.N,UART_TX*%
X115195000Y-97555000D02*
X116500000Y-96250000D01*
X116500000Y-72804750D02*
X117004500Y-72300250D01*
X116500000Y-96250000D02*
X116500000Y-95250000D01*
X115195000Y-102500000D02*
X115195000Y-97555000D01*
X116500000Y-74000000D02*
X116500000Y-72804750D01*
%TO.N,UART_RX*%
X117735000Y-102500000D02*
X117735000Y-95765000D01*
X133169500Y-74419500D02*
X133169500Y-72300250D01*
X117735000Y-95765000D02*
X118250000Y-95250000D01*
X133250000Y-74500000D02*
X133169500Y-74419500D01*
%TO.N,GPIO_D9*%
X125400000Y-86001471D02*
X124150000Y-87251471D01*
X124150000Y-94915000D02*
X124235000Y-95000000D01*
X125751471Y-80900000D02*
X125400000Y-81251471D01*
X126248529Y-80900000D02*
X125751471Y-80900000D01*
X133169500Y-67220250D02*
X129719500Y-70670250D01*
X129719500Y-82620971D02*
X131100000Y-84001471D01*
X129719500Y-70670250D02*
X129719500Y-82620971D01*
X125400000Y-81251471D02*
X125400000Y-86001471D01*
X130198529Y-84850000D02*
X126248529Y-80900000D01*
X131100000Y-84498529D02*
X130748529Y-84850000D01*
X130748529Y-84850000D02*
X130198529Y-84850000D01*
X131100000Y-84001471D02*
X131100000Y-84498529D01*
X124150000Y-87251471D02*
X124150000Y-94915000D01*
%TO.N,Net-(D1-A)*%
X126235000Y-95000000D02*
X126235000Y-93765000D01*
X131260000Y-93260000D02*
X131000000Y-93000000D01*
X127000000Y-93000000D02*
X131000000Y-93000000D01*
X131260000Y-95000000D02*
X131260000Y-93260000D01*
X126235000Y-93765000D02*
X127000000Y-93000000D01*
%TO.N,ADC_00*%
X85235000Y-91160000D02*
X85235000Y-83765000D01*
X85235000Y-83765000D02*
X92000000Y-77000000D01*
X116944250Y-57000000D02*
X117004500Y-57060250D01*
X114000000Y-57000000D02*
X116944250Y-57000000D01*
%TO.N,ADC_01*%
X113000000Y-60000000D02*
X113399750Y-59600250D01*
X105000000Y-66000000D02*
X107000000Y-64000000D01*
X113399750Y-59600250D02*
X117004500Y-59600250D01*
X105000000Y-71395000D02*
X105000000Y-66000000D01*
X95395000Y-81000000D02*
X105000000Y-71395000D01*
%TO.N,GPIO_D3*%
X150500000Y-84000000D02*
X150500000Y-81000000D01*
X118680250Y-64680250D02*
X120750000Y-66750000D01*
X123000000Y-68000000D02*
X123000000Y-82750000D01*
X132000000Y-88750000D02*
X132750000Y-89500000D01*
X158500000Y-81000000D02*
X171000000Y-81000000D01*
X158500000Y-81000000D02*
X150500000Y-81000000D01*
X117004500Y-64680250D02*
X118680250Y-64680250D01*
X132750000Y-89500000D02*
X137750000Y-89500000D01*
X120750000Y-66750000D02*
X121750000Y-66750000D01*
X126000000Y-85750000D02*
X127500000Y-87250000D01*
X121750000Y-66750000D02*
X123000000Y-68000000D01*
%TO.N,GPIO_D4*%
X182500000Y-65000000D02*
X195000000Y-65000000D01*
X134000000Y-84750000D02*
X134750000Y-84750000D01*
X127500000Y-90250000D02*
X128500000Y-90250000D01*
X174500000Y-65000000D02*
X176500000Y-65000000D01*
X117004500Y-67220250D02*
X120220250Y-67220250D01*
X120220250Y-67220250D02*
X121250000Y-68250000D01*
X130000000Y-88750000D02*
X134000000Y-84750000D01*
X121250000Y-68250000D02*
X121250000Y-84000000D01*
X121250000Y-84000000D02*
X121500000Y-84250000D01*
X124750000Y-87500000D02*
X127500000Y-90250000D01*
X182500000Y-65000000D02*
X176500000Y-65000000D01*
%TO.N,BAT*%
X120614500Y-64366750D02*
X124000000Y-67752250D01*
X124000000Y-67752250D02*
X124000000Y-81750000D01*
X145460000Y-93460000D02*
X145460000Y-102500000D01*
X132000000Y-80000000D02*
X145460000Y-93460000D01*
%TD*%
%TA.AperFunction,Conductor*%
%TO.N,GND*%
G36*
X122431239Y-90396332D02*
G01*
X122477908Y-90425672D01*
X122698181Y-90645945D01*
X122731666Y-90707268D01*
X122734500Y-90733626D01*
X122734500Y-95598074D01*
X122734499Y-95598092D01*
X122734499Y-95763798D01*
X122734498Y-95763798D01*
X122775423Y-95916530D01*
X122775424Y-95916531D01*
X122777743Y-95920548D01*
X122800171Y-95959394D01*
X122854480Y-96053460D01*
X122854482Y-96053462D01*
X122973349Y-96172329D01*
X122973355Y-96172334D01*
X123165395Y-96364374D01*
X123165405Y-96364385D01*
X123169735Y-96368715D01*
X123169736Y-96368716D01*
X123281540Y-96480520D01*
X123368351Y-96530639D01*
X123368353Y-96530641D01*
X123418469Y-96559576D01*
X123418471Y-96559577D01*
X123571198Y-96600500D01*
X123571199Y-96600500D01*
X124733075Y-96600500D01*
X124733091Y-96600501D01*
X124740687Y-96600501D01*
X124898798Y-96600501D01*
X124898801Y-96600501D01*
X125051529Y-96559577D01*
X125101648Y-96530639D01*
X125188460Y-96480520D01*
X125300264Y-96368716D01*
X125300264Y-96368714D01*
X125310472Y-96358507D01*
X125310474Y-96358504D01*
X125487923Y-96181054D01*
X125549244Y-96147571D01*
X125614605Y-96151030D01*
X125732203Y-96189999D01*
X125834991Y-96200500D01*
X126635008Y-96200499D01*
X126635016Y-96200498D01*
X126635019Y-96200498D01*
X126697895Y-96194075D01*
X126737797Y-96189999D01*
X126904334Y-96134814D01*
X127053656Y-96042712D01*
X127177712Y-95918656D01*
X127269814Y-95769334D01*
X127324999Y-95602797D01*
X127335500Y-95500009D01*
X127335500Y-95499986D01*
X128135001Y-95499986D01*
X128145494Y-95602697D01*
X128200641Y-95769119D01*
X128200643Y-95769124D01*
X128292684Y-95918345D01*
X128416654Y-96042315D01*
X128565875Y-96134356D01*
X128565880Y-96134358D01*
X128732302Y-96189505D01*
X128732309Y-96189506D01*
X128835019Y-96199999D01*
X128959999Y-96199999D01*
X128960000Y-96199998D01*
X128960000Y-95250000D01*
X128135001Y-95250000D01*
X128135001Y-95499986D01*
X127335500Y-95499986D01*
X127335499Y-95000000D01*
X127335499Y-94499998D01*
X127335498Y-94499980D01*
X127324999Y-94397203D01*
X127324998Y-94397200D01*
X127314124Y-94364385D01*
X127269814Y-94230666D01*
X127177712Y-94081344D01*
X127060482Y-93964114D01*
X127026997Y-93902791D01*
X127031981Y-93833099D01*
X127060479Y-93788754D01*
X127212417Y-93636816D01*
X127273739Y-93603334D01*
X127300097Y-93600500D01*
X128597600Y-93600500D01*
X128664639Y-93620185D01*
X128710394Y-93672989D01*
X128720338Y-93742147D01*
X128691313Y-93805703D01*
X128636604Y-93842206D01*
X128565880Y-93865641D01*
X128565875Y-93865643D01*
X128416654Y-93957684D01*
X128292684Y-94081654D01*
X128200643Y-94230875D01*
X128200641Y-94230880D01*
X128145494Y-94397302D01*
X128145493Y-94397309D01*
X128135000Y-94500013D01*
X128135000Y-94750000D01*
X129086000Y-94750000D01*
X129153039Y-94769685D01*
X129198794Y-94822489D01*
X129210000Y-94874000D01*
X129210000Y-95000000D01*
X129336000Y-95000000D01*
X129403039Y-95019685D01*
X129448794Y-95072489D01*
X129460000Y-95124000D01*
X129460000Y-96199999D01*
X129584972Y-96199999D01*
X129584986Y-96199998D01*
X129687697Y-96189505D01*
X129854119Y-96134358D01*
X129854124Y-96134356D01*
X130003345Y-96042315D01*
X130127318Y-95918342D01*
X130129165Y-95915348D01*
X130130969Y-95913724D01*
X130131798Y-95912677D01*
X130131976Y-95912818D01*
X130181110Y-95868621D01*
X130250073Y-95857396D01*
X130314156Y-95885236D01*
X130340243Y-95915341D01*
X130342288Y-95918656D01*
X130466344Y-96042712D01*
X130615666Y-96134814D01*
X130782203Y-96189999D01*
X130884991Y-96200500D01*
X131425500Y-96200499D01*
X131492539Y-96220183D01*
X131538294Y-96272987D01*
X131549500Y-96324499D01*
X131549500Y-98661859D01*
X131549499Y-98661877D01*
X131549499Y-98827583D01*
X131549498Y-98827583D01*
X131549893Y-98829056D01*
X131590423Y-98980314D01*
X131618164Y-99028362D01*
X131619358Y-99030429D01*
X131619359Y-99030433D01*
X131619360Y-99030433D01*
X131647308Y-99078842D01*
X131669479Y-99117243D01*
X131669481Y-99117246D01*
X131788349Y-99236114D01*
X131788355Y-99236119D01*
X132016610Y-99464374D01*
X132016620Y-99464385D01*
X132020950Y-99468715D01*
X132020951Y-99468716D01*
X132132755Y-99580520D01*
X132204236Y-99621789D01*
X132256865Y-99652175D01*
X132269686Y-99659577D01*
X132422414Y-99700500D01*
X132911860Y-99700500D01*
X132911876Y-99700501D01*
X132919472Y-99700501D01*
X133077583Y-99700501D01*
X133077586Y-99700501D01*
X133230314Y-99659577D01*
X133295764Y-99621789D01*
X133367245Y-99580520D01*
X133479049Y-99468716D01*
X133479049Y-99468714D01*
X133489253Y-99458511D01*
X133489257Y-99458506D01*
X133718713Y-99229050D01*
X133718716Y-99229049D01*
X133830520Y-99117245D01*
X133880639Y-99030433D01*
X133909577Y-98980314D01*
X133950500Y-98827586D01*
X133950500Y-98669472D01*
X133950500Y-96267845D01*
X133970185Y-96200806D01*
X134022989Y-96155051D01*
X134092147Y-96145107D01*
X134113504Y-96150139D01*
X134232302Y-96189505D01*
X134232309Y-96189506D01*
X134335019Y-96199999D01*
X134459999Y-96199999D01*
X134460000Y-96199998D01*
X134460000Y-95124000D01*
X134479685Y-95056961D01*
X134532489Y-95011206D01*
X134584000Y-95000000D01*
X134836000Y-95000000D01*
X134903039Y-95019685D01*
X134948794Y-95072489D01*
X134960000Y-95124000D01*
X134960000Y-96209824D01*
X134981666Y-96249503D01*
X134984500Y-96275861D01*
X134984500Y-99585136D01*
X134964815Y-99652175D01*
X134912011Y-99697930D01*
X134884692Y-99706753D01*
X134766508Y-99730261D01*
X134766498Y-99730264D01*
X134620827Y-99790602D01*
X134620814Y-99790609D01*
X134489711Y-99878210D01*
X134489707Y-99878213D01*
X134378213Y-99989707D01*
X134378210Y-99989711D01*
X134290609Y-100120814D01*
X134290602Y-100120827D01*
X134230264Y-100266498D01*
X134230261Y-100266510D01*
X134199500Y-100421153D01*
X134199500Y-100578846D01*
X134230261Y-100733489D01*
X134230264Y-100733501D01*
X134290602Y-100879172D01*
X134290609Y-100879185D01*
X134378210Y-101010288D01*
X134378213Y-101010292D01*
X134489708Y-101121787D01*
X134502196Y-101130131D01*
X134547001Y-101183744D01*
X134555708Y-101253069D01*
X134525553Y-101316096D01*
X134491327Y-101342390D01*
X134491336Y-101342404D01*
X134491212Y-101342479D01*
X134489602Y-101343717D01*
X134487180Y-101344950D01*
X134315213Y-101469890D01*
X134164890Y-101620213D01*
X134039949Y-101792182D01*
X134035484Y-101800946D01*
X133987509Y-101851742D01*
X133919688Y-101868536D01*
X133853553Y-101845998D01*
X133814516Y-101800946D01*
X133810050Y-101792182D01*
X133685109Y-101620213D01*
X133534786Y-101469890D01*
X133362820Y-101344951D01*
X133173414Y-101248444D01*
X133173413Y-101248443D01*
X133173412Y-101248443D01*
X132971243Y-101182754D01*
X132971241Y-101182753D01*
X132971240Y-101182753D01*
X132809957Y-101157208D01*
X132761287Y-101149500D01*
X132548713Y-101149500D01*
X132500042Y-101157208D01*
X132338760Y-101182753D01*
X132136585Y-101248444D01*
X131947179Y-101344951D01*
X131775213Y-101469890D01*
X131624890Y-101620213D01*
X131499949Y-101792182D01*
X131495202Y-101801499D01*
X131447227Y-101852293D01*
X131379405Y-101869087D01*
X131313271Y-101846548D01*
X131274234Y-101801495D01*
X131269626Y-101792452D01*
X131230270Y-101738282D01*
X131230269Y-101738282D01*
X130597962Y-102370590D01*
X130580925Y-102307007D01*
X130515099Y-102192993D01*
X130422007Y-102099901D01*
X130307993Y-102034075D01*
X130244409Y-102017037D01*
X130876716Y-101384728D01*
X130822550Y-101345375D01*
X130633217Y-101248904D01*
X130431129Y-101183242D01*
X130221246Y-101150000D01*
X130008754Y-101150000D01*
X129798872Y-101183242D01*
X129798869Y-101183242D01*
X129596782Y-101248904D01*
X129407439Y-101345380D01*
X129353282Y-101384727D01*
X129353282Y-101384728D01*
X129985591Y-102017037D01*
X129922007Y-102034075D01*
X129807993Y-102099901D01*
X129714901Y-102192993D01*
X129649075Y-102307007D01*
X129632037Y-102370591D01*
X128961818Y-101700372D01*
X128928333Y-101639049D01*
X128928330Y-101639036D01*
X128925499Y-101626015D01*
X128925499Y-101602128D01*
X128919091Y-101542517D01*
X128879356Y-101435981D01*
X128868798Y-101407673D01*
X128868793Y-101407664D01*
X128782547Y-101292455D01*
X128782544Y-101292452D01*
X128667335Y-101206206D01*
X128667328Y-101206202D01*
X128532482Y-101155908D01*
X128532483Y-101155908D01*
X128472883Y-101149501D01*
X128472881Y-101149500D01*
X128472873Y-101149500D01*
X128472864Y-101149500D01*
X126677129Y-101149500D01*
X126677123Y-101149501D01*
X126617516Y-101155908D01*
X126482671Y-101206202D01*
X126482664Y-101206206D01*
X126367455Y-101292452D01*
X126367452Y-101292455D01*
X126281206Y-101407664D01*
X126281202Y-101407671D01*
X126230908Y-101542517D01*
X126224501Y-101602116D01*
X126224500Y-101602135D01*
X126224500Y-102949902D01*
X126204815Y-103016941D01*
X126188181Y-103037583D01*
X125512584Y-103713181D01*
X125451261Y-103746666D01*
X125424903Y-103749500D01*
X124667848Y-103749500D01*
X124600809Y-103729815D01*
X124555054Y-103677011D01*
X124546231Y-103649692D01*
X124519738Y-103516508D01*
X124519737Y-103516507D01*
X124519737Y-103516503D01*
X124496713Y-103460917D01*
X124459397Y-103370827D01*
X124459390Y-103370814D01*
X124371789Y-103239711D01*
X124371786Y-103239707D01*
X124260292Y-103128213D01*
X124260288Y-103128210D01*
X124129185Y-103040609D01*
X124129172Y-103040602D01*
X123983501Y-102980264D01*
X123983489Y-102980261D01*
X123950309Y-102973661D01*
X123888398Y-102941276D01*
X123853824Y-102880561D01*
X123850500Y-102852044D01*
X123850500Y-97839060D01*
X123850501Y-97839047D01*
X123850501Y-97670944D01*
X123843294Y-97644046D01*
X123809577Y-97518216D01*
X123769644Y-97449049D01*
X123730524Y-97381290D01*
X123730518Y-97381282D01*
X122136819Y-95787583D01*
X122103334Y-95726260D01*
X122100500Y-95699902D01*
X122100500Y-90829765D01*
X122120185Y-90762726D01*
X122121398Y-90760874D01*
X122131476Y-90745792D01*
X122209394Y-90629179D01*
X122269737Y-90483497D01*
X122269738Y-90483489D01*
X122271506Y-90477665D01*
X122274242Y-90478495D01*
X122300818Y-90427435D01*
X122361462Y-90392735D01*
X122431239Y-90396332D01*
G37*
%TD.AperFunction*%
%TA.AperFunction,Conductor*%
G36*
X115091149Y-62760435D02*
G01*
X115136904Y-62813239D01*
X115143323Y-62830632D01*
X115156937Y-62878210D01*
X115195589Y-63013295D01*
X115195590Y-63013298D01*
X115195591Y-63013299D01*
X115289802Y-63193657D01*
X115313736Y-63223010D01*
X115402515Y-63331889D01*
X115429624Y-63396286D01*
X115417615Y-63465115D01*
X115402515Y-63488611D01*
X115291115Y-63625233D01*
X115289802Y-63626843D01*
X115261426Y-63681166D01*
X115195589Y-63807204D01*
X115162984Y-63921158D01*
X115140425Y-64000000D01*
X115139614Y-64002833D01*
X115139613Y-64002836D01*
X115129000Y-64122216D01*
X115129000Y-65238278D01*
X115129001Y-65238284D01*
X115139613Y-65357665D01*
X115195589Y-65553295D01*
X115195590Y-65553298D01*
X115195591Y-65553299D01*
X115289802Y-65733657D01*
X115319222Y-65769738D01*
X115402515Y-65871889D01*
X115429624Y-65936286D01*
X115417615Y-66005115D01*
X115402515Y-66028611D01*
X115289804Y-66166840D01*
X115195589Y-66347204D01*
X115166033Y-66450500D01*
X115140687Y-66539084D01*
X115139614Y-66542833D01*
X115139613Y-66542836D01*
X115129000Y-66662216D01*
X115129000Y-67778278D01*
X115129001Y-67778284D01*
X115139613Y-67897665D01*
X115195589Y-68093295D01*
X115195590Y-68093298D01*
X115195591Y-68093299D01*
X115289802Y-68273657D01*
X115311361Y-68300097D01*
X115402515Y-68411889D01*
X115429624Y-68476286D01*
X115417615Y-68545115D01*
X115402515Y-68568611D01*
X115289804Y-68706840D01*
X115195589Y-68887204D01*
X115178174Y-68948069D01*
X115139615Y-69082831D01*
X115139614Y-69082833D01*
X115139613Y-69082836D01*
X115129000Y-69202216D01*
X115129000Y-70318278D01*
X115129001Y-70318284D01*
X115139613Y-70437665D01*
X115195589Y-70633295D01*
X115195590Y-70633298D01*
X115195591Y-70633299D01*
X115289802Y-70813657D01*
X115310504Y-70839046D01*
X115402515Y-70951889D01*
X115429624Y-71016286D01*
X115417615Y-71085115D01*
X115402515Y-71108611D01*
X115371813Y-71146265D01*
X115289802Y-71246843D01*
X115262696Y-71298735D01*
X115195589Y-71427204D01*
X115139614Y-71622833D01*
X115139613Y-71622836D01*
X115132107Y-71707266D01*
X115129464Y-71737000D01*
X115129000Y-71742216D01*
X115129000Y-72858278D01*
X115129001Y-72858284D01*
X115139613Y-72977665D01*
X115195589Y-73173295D01*
X115195590Y-73173298D01*
X115195591Y-73173299D01*
X115289802Y-73353657D01*
X115304814Y-73372068D01*
X115418390Y-73511359D01*
X115450553Y-73537584D01*
X115576093Y-73639948D01*
X115656230Y-73681808D01*
X115706537Y-73730294D01*
X115722644Y-73798281D01*
X115720435Y-73815907D01*
X115699500Y-73921153D01*
X115699500Y-74078846D01*
X115730261Y-74233489D01*
X115730264Y-74233501D01*
X115790602Y-74379172D01*
X115790609Y-74379185D01*
X115878210Y-74510288D01*
X115878213Y-74510292D01*
X115989707Y-74621786D01*
X115989711Y-74621789D01*
X116120814Y-74709390D01*
X116120827Y-74709397D01*
X116266498Y-74769735D01*
X116266503Y-74769737D01*
X116421153Y-74800499D01*
X116421156Y-74800500D01*
X116421158Y-74800500D01*
X116578844Y-74800500D01*
X116578845Y-74800499D01*
X116733497Y-74769737D01*
X116879179Y-74709394D01*
X117010289Y-74621789D01*
X117121789Y-74510289D01*
X117209394Y-74379179D01*
X117269737Y-74233497D01*
X117300500Y-74078842D01*
X117300500Y-73924749D01*
X117320185Y-73857710D01*
X117372989Y-73811955D01*
X117424500Y-73800749D01*
X117937528Y-73800749D01*
X117937536Y-73800749D01*
X118056918Y-73790136D01*
X118252549Y-73734159D01*
X118432907Y-73639948D01*
X118590609Y-73511359D01*
X118719198Y-73353657D01*
X118813409Y-73173299D01*
X118869386Y-72977668D01*
X118880000Y-72858287D01*
X118879999Y-71742214D01*
X118869386Y-71622832D01*
X118813409Y-71427201D01*
X118719198Y-71246843D01*
X118606483Y-71108609D01*
X118579375Y-71044215D01*
X118591384Y-70975385D01*
X118604650Y-70954194D01*
X118605546Y-70953039D01*
X118719198Y-70813657D01*
X118730309Y-70792384D01*
X118737128Y-70783605D01*
X118756800Y-70769414D01*
X118773636Y-70751945D01*
X118784630Y-70749339D01*
X118793794Y-70742730D01*
X118818020Y-70741427D01*
X118841623Y-70735835D01*
X118852278Y-70739586D01*
X118863563Y-70738980D01*
X118884648Y-70750983D01*
X118907527Y-70759038D01*
X118922745Y-70771980D01*
X119113181Y-70962416D01*
X119146666Y-71023739D01*
X119149500Y-71050097D01*
X119149500Y-85099431D01*
X119129815Y-85166470D01*
X119077011Y-85212225D01*
X119007853Y-85222169D01*
X118944297Y-85193144D01*
X118937819Y-85187112D01*
X116889061Y-83138355D01*
X116889059Y-83138352D01*
X116770188Y-83019481D01*
X116770187Y-83019480D01*
X116683375Y-82969360D01*
X116683375Y-82969359D01*
X116683371Y-82969358D01*
X116633256Y-82940423D01*
X116480528Y-82899499D01*
X116322414Y-82899499D01*
X116314818Y-82899499D01*
X116314802Y-82899500D01*
X114915301Y-82899500D01*
X114848262Y-82879815D01*
X114802507Y-82827011D01*
X114797595Y-82814504D01*
X114781834Y-82766941D01*
X114769814Y-82730666D01*
X114677712Y-82581344D01*
X114553656Y-82457288D01*
X114413470Y-82370821D01*
X114404336Y-82365187D01*
X114404331Y-82365185D01*
X114357706Y-82349735D01*
X114237797Y-82310001D01*
X114237795Y-82310000D01*
X114135010Y-82299500D01*
X113334998Y-82299500D01*
X113334980Y-82299501D01*
X113232203Y-82310000D01*
X113232200Y-82310001D01*
X113065668Y-82365185D01*
X113065663Y-82365187D01*
X112916342Y-82457289D01*
X112822681Y-82550951D01*
X112761358Y-82584436D01*
X112691666Y-82579452D01*
X112647319Y-82550951D01*
X112553657Y-82457289D01*
X112553656Y-82457288D01*
X112413470Y-82370821D01*
X112404336Y-82365187D01*
X112404331Y-82365185D01*
X112357706Y-82349735D01*
X112237797Y-82310001D01*
X112237795Y-82310000D01*
X112135010Y-82299500D01*
X111334998Y-82299500D01*
X111334980Y-82299501D01*
X111232203Y-82310000D01*
X111232200Y-82310001D01*
X111065668Y-82365185D01*
X111065663Y-82365187D01*
X110916342Y-82457289D01*
X110792289Y-82581342D01*
X110700187Y-82730663D01*
X110700186Y-82730666D01*
X110659149Y-82854506D01*
X110619379Y-82911949D01*
X110554863Y-82938772D01*
X110541445Y-82939500D01*
X96724490Y-82939500D01*
X96657451Y-82919815D01*
X96614005Y-82871795D01*
X96592119Y-82828842D01*
X96583407Y-82811743D01*
X96564704Y-82786000D01*
X96454857Y-82634806D01*
X96300199Y-82480148D01*
X96268736Y-82457289D01*
X96149028Y-82370316D01*
X96106364Y-82314989D01*
X96100385Y-82245376D01*
X96132990Y-82183580D01*
X96149023Y-82169686D01*
X96300199Y-82059852D01*
X96454852Y-81905199D01*
X96454854Y-81905195D01*
X96454857Y-81905193D01*
X96525410Y-81808084D01*
X96583407Y-81728257D01*
X96682701Y-81533383D01*
X96750286Y-81325375D01*
X96767912Y-81214082D01*
X96784500Y-81109361D01*
X96784500Y-80890638D01*
X96750286Y-80674628D01*
X96750286Y-80674627D01*
X96750286Y-80674625D01*
X96729457Y-80610523D01*
X96727463Y-80540683D01*
X96759706Y-80484527D01*
X105358506Y-71885728D01*
X105358511Y-71885724D01*
X105368714Y-71875520D01*
X105368716Y-71875520D01*
X105480520Y-71763716D01*
X105556979Y-71631284D01*
X105559577Y-71626785D01*
X105600500Y-71474058D01*
X105600500Y-71315943D01*
X105600500Y-66300097D01*
X105620185Y-66233058D01*
X105636819Y-66212416D01*
X106295940Y-65553295D01*
X107014662Y-64834572D01*
X107075983Y-64801089D01*
X107078150Y-64800638D01*
X107136085Y-64789113D01*
X107233497Y-64769737D01*
X107379179Y-64709394D01*
X107510289Y-64621789D01*
X107621789Y-64510289D01*
X107709394Y-64379179D01*
X107769737Y-64233497D01*
X107800500Y-64078842D01*
X107800500Y-63921158D01*
X107800500Y-63921155D01*
X107800499Y-63921153D01*
X107795023Y-63893622D01*
X107769737Y-63766503D01*
X107731003Y-63672989D01*
X107709397Y-63620827D01*
X107709390Y-63620814D01*
X107621789Y-63489711D01*
X107621786Y-63489707D01*
X107510292Y-63378213D01*
X107510288Y-63378210D01*
X107379185Y-63290609D01*
X107379172Y-63290602D01*
X107233501Y-63230264D01*
X107233489Y-63230261D01*
X107078845Y-63199500D01*
X107078842Y-63199500D01*
X106921158Y-63199500D01*
X106921155Y-63199500D01*
X106766510Y-63230261D01*
X106766498Y-63230264D01*
X106620827Y-63290602D01*
X106620814Y-63290609D01*
X106489711Y-63378210D01*
X106489707Y-63378213D01*
X106378213Y-63489707D01*
X106378210Y-63489711D01*
X106290609Y-63620814D01*
X106290602Y-63620827D01*
X106230264Y-63766498D01*
X106230261Y-63766508D01*
X106199361Y-63921850D01*
X106166976Y-63983761D01*
X106165425Y-63985339D01*
X104519481Y-65631282D01*
X104519479Y-65631285D01*
X104474385Y-65709392D01*
X104474384Y-65709393D01*
X104440423Y-65768214D01*
X104440423Y-65768215D01*
X104399499Y-65920943D01*
X104399499Y-65920945D01*
X104399499Y-66089046D01*
X104399500Y-66089059D01*
X104399500Y-71094902D01*
X104379815Y-71161941D01*
X104363181Y-71182583D01*
X96995681Y-78550082D01*
X96934358Y-78583567D01*
X96864666Y-78578583D01*
X96808733Y-78536711D01*
X96784316Y-78471247D01*
X96784000Y-78462401D01*
X96784000Y-78350683D01*
X96749797Y-78134740D01*
X96682238Y-77926811D01*
X96682237Y-77926808D01*
X96582980Y-77732008D01*
X96538191Y-77670360D01*
X96538190Y-77670360D01*
X95832647Y-78375905D01*
X95809208Y-78288429D01*
X95750689Y-78187070D01*
X95667930Y-78104311D01*
X95566571Y-78045792D01*
X95479092Y-78022352D01*
X96184638Y-77316807D01*
X96184638Y-77316806D01*
X96122995Y-77272021D01*
X96122993Y-77272020D01*
X95928191Y-77172762D01*
X95928188Y-77172761D01*
X95720259Y-77105202D01*
X95504316Y-77071000D01*
X95285684Y-77071000D01*
X95069740Y-77105202D01*
X94861811Y-77172761D01*
X94861808Y-77172762D01*
X94667001Y-77272023D01*
X94605360Y-77316806D01*
X94605360Y-77316807D01*
X95310905Y-78022352D01*
X95223429Y-78045792D01*
X95122070Y-78104311D01*
X95039311Y-78187070D01*
X94980792Y-78288429D01*
X94957352Y-78375905D01*
X94251807Y-77670360D01*
X94251806Y-77670360D01*
X94207023Y-77732001D01*
X94107762Y-77926808D01*
X94107761Y-77926811D01*
X94040202Y-78134740D01*
X94006000Y-78350683D01*
X94006000Y-78569316D01*
X94040202Y-78785259D01*
X94107761Y-78993188D01*
X94107762Y-78993191D01*
X94207020Y-79187993D01*
X94207021Y-79187995D01*
X94251806Y-79249638D01*
X94251807Y-79249638D01*
X94957352Y-78544093D01*
X94980792Y-78631571D01*
X95039311Y-78732930D01*
X95122070Y-78815689D01*
X95223429Y-78874208D01*
X95310905Y-78897647D01*
X94605360Y-79603190D01*
X94605360Y-79603192D01*
X94641394Y-79629372D01*
X94684060Y-79684701D01*
X94690039Y-79754315D01*
X94657434Y-79816110D01*
X94641394Y-79830008D01*
X94489807Y-79940142D01*
X94489802Y-79940146D01*
X94335142Y-80094806D01*
X94206595Y-80271739D01*
X94107298Y-80466616D01*
X94107297Y-80466619D01*
X94039714Y-80674623D01*
X94005500Y-80890638D01*
X94005500Y-81109361D01*
X94039714Y-81325376D01*
X94107297Y-81533380D01*
X94107298Y-81533383D01*
X94174782Y-81665825D01*
X94202591Y-81720403D01*
X94206595Y-81728260D01*
X94335142Y-81905193D01*
X94489806Y-82059857D01*
X94640969Y-82169682D01*
X94683635Y-82225011D01*
X94689614Y-82294625D01*
X94657009Y-82356420D01*
X94640969Y-82370318D01*
X94489806Y-82480142D01*
X94335142Y-82634806D01*
X94206595Y-82811739D01*
X94107298Y-83006616D01*
X94107297Y-83006619D01*
X94039714Y-83214623D01*
X94005500Y-83430638D01*
X94005500Y-83649361D01*
X94039714Y-83865376D01*
X94107297Y-84073380D01*
X94107298Y-84073383D01*
X94157118Y-84171158D01*
X94189262Y-84234244D01*
X94206595Y-84268260D01*
X94335142Y-84445193D01*
X94489806Y-84599857D01*
X94665691Y-84727643D01*
X94666743Y-84728407D01*
X94726794Y-84759004D01*
X94777591Y-84806978D01*
X94794500Y-84869489D01*
X94794500Y-90304903D01*
X94774815Y-90371942D01*
X94758181Y-90392584D01*
X91787584Y-93363181D01*
X91726261Y-93396666D01*
X91699903Y-93399500D01*
X83419500Y-93399500D01*
X83352461Y-93379815D01*
X83306706Y-93327011D01*
X83295500Y-93275500D01*
X83295500Y-92489489D01*
X83315185Y-92422450D01*
X83363205Y-92379004D01*
X83423257Y-92348407D01*
X83558704Y-92250000D01*
X83600193Y-92219857D01*
X83600195Y-92219854D01*
X83600199Y-92219852D01*
X83754852Y-92065199D01*
X83864683Y-91914028D01*
X83920011Y-91871364D01*
X83989624Y-91865385D01*
X84051420Y-91897990D01*
X84065313Y-91914023D01*
X84175144Y-92065193D01*
X84175148Y-92065199D01*
X84329806Y-92219857D01*
X84444508Y-92303191D01*
X84506743Y-92348407D01*
X84606398Y-92399184D01*
X84701616Y-92447701D01*
X84701619Y-92447702D01*
X84805621Y-92481493D01*
X84909625Y-92515286D01*
X85009672Y-92531132D01*
X85125639Y-92549500D01*
X85125644Y-92549500D01*
X85344361Y-92549500D01*
X85449082Y-92532912D01*
X85560375Y-92515286D01*
X85768383Y-92447701D01*
X85963257Y-92348407D01*
X86098704Y-92250000D01*
X86140193Y-92219857D01*
X86140195Y-92219854D01*
X86140199Y-92219852D01*
X86294852Y-92065199D01*
X86404991Y-91913603D01*
X86460320Y-91870939D01*
X86529933Y-91864960D01*
X86591729Y-91897565D01*
X86605628Y-91913606D01*
X86631806Y-91949638D01*
X86631807Y-91949638D01*
X87337352Y-91244093D01*
X87360792Y-91331571D01*
X87419311Y-91432930D01*
X87502070Y-91515689D01*
X87603429Y-91574208D01*
X87690905Y-91597647D01*
X86985360Y-92303191D01*
X87047008Y-92347980D01*
X87241808Y-92447237D01*
X87241811Y-92447238D01*
X87449740Y-92514797D01*
X87665684Y-92549000D01*
X87884316Y-92549000D01*
X88100259Y-92514797D01*
X88308188Y-92447238D01*
X88308191Y-92447237D01*
X88502995Y-92347978D01*
X88564638Y-92303191D01*
X88564639Y-92303191D01*
X87859094Y-91597647D01*
X87946571Y-91574208D01*
X88047930Y-91515689D01*
X88130689Y-91432930D01*
X88189208Y-91331571D01*
X88212647Y-91244095D01*
X88918191Y-91949639D01*
X88918191Y-91949638D01*
X88962978Y-91887995D01*
X89062237Y-91693191D01*
X89062238Y-91693188D01*
X89129797Y-91485259D01*
X89164000Y-91269316D01*
X89164000Y-91050683D01*
X89129797Y-90834740D01*
X89062238Y-90626811D01*
X89062237Y-90626808D01*
X88962980Y-90432008D01*
X88918191Y-90370360D01*
X88212647Y-91075904D01*
X88189208Y-90988429D01*
X88130689Y-90887070D01*
X88047930Y-90804311D01*
X87946571Y-90745792D01*
X87859092Y-90722352D01*
X88564638Y-90016807D01*
X88564638Y-90016806D01*
X88538882Y-89998094D01*
X88502995Y-89972021D01*
X88502993Y-89972020D01*
X88308191Y-89872762D01*
X88308188Y-89872761D01*
X88100259Y-89805202D01*
X87884316Y-89771000D01*
X87665684Y-89771000D01*
X87449740Y-89805202D01*
X87241811Y-89872761D01*
X87241808Y-89872762D01*
X87047001Y-89972023D01*
X86985360Y-90016806D01*
X86985360Y-90016807D01*
X87690905Y-90722352D01*
X87603429Y-90745792D01*
X87502070Y-90804311D01*
X87419311Y-90887070D01*
X87360792Y-90988429D01*
X87337352Y-91075905D01*
X86631807Y-90370360D01*
X86631805Y-90370360D01*
X86605626Y-90406394D01*
X86550297Y-90449060D01*
X86480683Y-90455039D01*
X86418888Y-90422434D01*
X86404995Y-90406401D01*
X86294852Y-90254801D01*
X86140199Y-90100148D01*
X86140193Y-90100142D01*
X85963258Y-89971593D01*
X85903204Y-89940993D01*
X85852408Y-89893018D01*
X85835500Y-89830509D01*
X85835500Y-88490693D01*
X90259500Y-88490693D01*
X90259500Y-88749306D01*
X90299956Y-89004733D01*
X90299956Y-89004734D01*
X90379874Y-89250695D01*
X90497283Y-89481122D01*
X90577463Y-89591481D01*
X90577464Y-89591482D01*
X91264337Y-88904609D01*
X91283497Y-88950864D01*
X91359939Y-89065268D01*
X91457232Y-89162561D01*
X91571636Y-89239003D01*
X91617890Y-89258161D01*
X90931016Y-89945034D01*
X90931017Y-89945036D01*
X91041377Y-90025216D01*
X91271804Y-90142625D01*
X91517766Y-90222543D01*
X91773194Y-90263000D01*
X92031806Y-90263000D01*
X92287233Y-90222543D01*
X92287234Y-90222543D01*
X92533195Y-90142625D01*
X92763619Y-90025218D01*
X92873981Y-89945034D01*
X92873982Y-89945034D01*
X92187109Y-89258162D01*
X92233364Y-89239003D01*
X92347768Y-89162561D01*
X92445061Y-89065268D01*
X92521503Y-88950864D01*
X92540661Y-88904609D01*
X93227534Y-89591482D01*
X93227534Y-89591481D01*
X93307718Y-89481119D01*
X93425125Y-89250695D01*
X93505043Y-89004734D01*
X93505043Y-89004733D01*
X93545500Y-88749306D01*
X93545500Y-88490693D01*
X93505043Y-88235266D01*
X93505043Y-88235265D01*
X93425125Y-87989304D01*
X93307716Y-87758877D01*
X93227536Y-87648517D01*
X93227534Y-87648516D01*
X92540661Y-88335389D01*
X92521503Y-88289136D01*
X92445061Y-88174732D01*
X92347768Y-88077439D01*
X92233364Y-88000997D01*
X92187108Y-87981837D01*
X92873982Y-87294964D01*
X92873981Y-87294963D01*
X92763622Y-87214783D01*
X92533195Y-87097374D01*
X92287233Y-87017456D01*
X92031806Y-86977000D01*
X91773194Y-86977000D01*
X91517766Y-87017456D01*
X91517765Y-87017456D01*
X91271804Y-87097374D01*
X91041384Y-87214779D01*
X90931017Y-87294964D01*
X90931017Y-87294965D01*
X91617890Y-87981837D01*
X91571636Y-88000997D01*
X91457232Y-88077439D01*
X91359939Y-88174732D01*
X91283497Y-88289136D01*
X91264337Y-88335390D01*
X90577465Y-87648517D01*
X90577464Y-87648517D01*
X90497279Y-87758884D01*
X90379874Y-87989304D01*
X90299956Y-88235265D01*
X90299956Y-88235266D01*
X90259500Y-88490693D01*
X85835500Y-88490693D01*
X85835500Y-84065097D01*
X85855185Y-83998058D01*
X85871819Y-83977416D01*
X88936917Y-80912318D01*
X92014664Y-77834571D01*
X92075985Y-77801088D01*
X92078152Y-77800637D01*
X92078841Y-77800500D01*
X92078842Y-77800500D01*
X92233497Y-77769737D01*
X92379179Y-77709394D01*
X92510289Y-77621789D01*
X92621789Y-77510289D01*
X92709394Y-77379179D01*
X92769737Y-77233497D01*
X92800500Y-77078842D01*
X92800500Y-76921158D01*
X92800500Y-76921155D01*
X92800499Y-76921153D01*
X92779503Y-76815599D01*
X92769737Y-76766503D01*
X92769173Y-76765142D01*
X92709397Y-76620827D01*
X92709390Y-76620814D01*
X92621789Y-76489711D01*
X92621786Y-76489707D01*
X92510292Y-76378213D01*
X92510288Y-76378210D01*
X92379185Y-76290609D01*
X92379172Y-76290602D01*
X92233501Y-76230264D01*
X92233489Y-76230261D01*
X92078845Y-76199500D01*
X92078842Y-76199500D01*
X91921158Y-76199500D01*
X91921155Y-76199500D01*
X91766510Y-76230261D01*
X91766498Y-76230264D01*
X91620827Y-76290602D01*
X91620814Y-76290609D01*
X91489711Y-76378210D01*
X91489707Y-76378213D01*
X91378213Y-76489707D01*
X91378210Y-76489711D01*
X91290609Y-76620814D01*
X91290602Y-76620827D01*
X91230264Y-76766498D01*
X91230261Y-76766508D01*
X91199362Y-76921848D01*
X91166977Y-76983759D01*
X91165426Y-76985337D01*
X84866286Y-83284478D01*
X84754481Y-83396282D01*
X84754479Y-83396285D01*
X84739375Y-83422447D01*
X84705995Y-83480263D01*
X84675423Y-83533215D01*
X84634499Y-83685943D01*
X84634499Y-83685945D01*
X84634499Y-83854046D01*
X84634500Y-83854059D01*
X84634500Y-89830509D01*
X84614815Y-89897548D01*
X84566796Y-89940993D01*
X84506741Y-89971593D01*
X84329806Y-90100142D01*
X84175142Y-90254806D01*
X84065318Y-90405969D01*
X84009989Y-90448635D01*
X83940375Y-90454614D01*
X83878580Y-90422009D01*
X83864682Y-90405969D01*
X83754857Y-90254806D01*
X83600193Y-90100142D01*
X83423260Y-89971595D01*
X83423259Y-89971594D01*
X83423257Y-89971593D01*
X83341264Y-89929815D01*
X83228383Y-89872298D01*
X83228380Y-89872297D01*
X83020376Y-89804714D01*
X82804361Y-89770500D01*
X82804356Y-89770500D01*
X82585644Y-89770500D01*
X82585639Y-89770500D01*
X82369623Y-89804714D01*
X82161619Y-89872297D01*
X82161616Y-89872298D01*
X81966739Y-89971595D01*
X81789806Y-90100142D01*
X81635142Y-90254806D01*
X81506595Y-90431739D01*
X81506593Y-90431743D01*
X81482772Y-90478495D01*
X81475995Y-90491795D01*
X81428020Y-90542591D01*
X81365510Y-90559500D01*
X75460097Y-90559500D01*
X75393058Y-90539815D01*
X75372416Y-90523181D01*
X73339928Y-88490693D01*
X76924500Y-88490693D01*
X76924500Y-88749306D01*
X76964956Y-89004733D01*
X76964956Y-89004734D01*
X77044874Y-89250695D01*
X77162283Y-89481122D01*
X77242463Y-89591481D01*
X77242464Y-89591482D01*
X77929337Y-88904609D01*
X77948497Y-88950864D01*
X78024939Y-89065268D01*
X78122232Y-89162561D01*
X78236636Y-89239003D01*
X78282890Y-89258161D01*
X77596016Y-89945034D01*
X77596017Y-89945036D01*
X77706377Y-90025216D01*
X77936804Y-90142625D01*
X78182766Y-90222543D01*
X78438194Y-90263000D01*
X78696806Y-90263000D01*
X78952233Y-90222543D01*
X78952234Y-90222543D01*
X79198195Y-90142625D01*
X79428619Y-90025218D01*
X79538981Y-89945034D01*
X79538982Y-89945034D01*
X78852109Y-89258162D01*
X78898364Y-89239003D01*
X79012768Y-89162561D01*
X79110061Y-89065268D01*
X79186503Y-88950864D01*
X79205662Y-88904609D01*
X79892534Y-89591482D01*
X79892534Y-89591481D01*
X79972718Y-89481119D01*
X80090125Y-89250695D01*
X80170043Y-89004734D01*
X80170043Y-89004733D01*
X80210500Y-88749306D01*
X80210500Y-88490693D01*
X80170043Y-88235266D01*
X80170043Y-88235265D01*
X80090125Y-87989304D01*
X79972716Y-87758877D01*
X79892536Y-87648517D01*
X79892534Y-87648516D01*
X79205661Y-88335389D01*
X79186503Y-88289136D01*
X79110061Y-88174732D01*
X79012768Y-88077439D01*
X78898364Y-88000997D01*
X78852108Y-87981837D01*
X79538982Y-87294964D01*
X79538981Y-87294963D01*
X79428622Y-87214783D01*
X79198195Y-87097374D01*
X78952233Y-87017456D01*
X78696806Y-86977000D01*
X78438194Y-86977000D01*
X78182766Y-87017456D01*
X78182765Y-87017456D01*
X77936804Y-87097374D01*
X77706384Y-87214779D01*
X77596017Y-87294964D01*
X77596017Y-87294965D01*
X78282890Y-87981837D01*
X78236636Y-88000997D01*
X78122232Y-88077439D01*
X78024939Y-88174732D01*
X77948497Y-88289136D01*
X77929337Y-88335390D01*
X77242465Y-87648517D01*
X77242464Y-87648517D01*
X77162279Y-87758884D01*
X77044874Y-87989304D01*
X76964956Y-88235265D01*
X76964956Y-88235266D01*
X76924500Y-88490693D01*
X73339928Y-88490693D01*
X69836416Y-84987181D01*
X69802931Y-84925858D01*
X69807915Y-84856166D01*
X69849787Y-84800233D01*
X69915251Y-84775816D01*
X69924097Y-84775500D01*
X71205510Y-84775500D01*
X71272549Y-84795185D01*
X71315994Y-84843204D01*
X71346458Y-84902993D01*
X71346595Y-84903260D01*
X71475142Y-85080193D01*
X71629806Y-85234857D01*
X71761483Y-85330524D01*
X71806743Y-85363407D01*
X71934132Y-85428315D01*
X72001616Y-85462701D01*
X72001619Y-85462702D01*
X72082943Y-85489125D01*
X72209625Y-85530286D01*
X72309672Y-85546132D01*
X72425639Y-85564500D01*
X72425644Y-85564500D01*
X72644361Y-85564500D01*
X72749082Y-85547912D01*
X72860375Y-85530286D01*
X73068383Y-85462701D01*
X73263257Y-85363407D01*
X73405188Y-85260289D01*
X73440193Y-85234857D01*
X73440195Y-85234854D01*
X73440199Y-85234852D01*
X73594852Y-85080199D01*
X73594854Y-85080195D01*
X73594857Y-85080193D01*
X73662433Y-84987181D01*
X73723407Y-84903257D01*
X73822701Y-84708383D01*
X73890286Y-84500375D01*
X73913758Y-84352181D01*
X73924500Y-84284361D01*
X73924500Y-84065683D01*
X76226000Y-84065683D01*
X76226000Y-84284316D01*
X76260202Y-84500259D01*
X76327761Y-84708188D01*
X76327762Y-84708191D01*
X76427020Y-84902993D01*
X76427021Y-84902995D01*
X76471806Y-84964638D01*
X76471807Y-84964638D01*
X77172861Y-84263584D01*
X77195667Y-84348694D01*
X77254910Y-84451306D01*
X77338694Y-84535090D01*
X77441306Y-84594333D01*
X77526414Y-84617137D01*
X76825360Y-85318191D01*
X76887008Y-85362980D01*
X77081808Y-85462237D01*
X77081811Y-85462238D01*
X77289740Y-85529797D01*
X77505684Y-85564000D01*
X77724316Y-85564000D01*
X77940259Y-85529797D01*
X78148188Y-85462238D01*
X78148191Y-85462237D01*
X78342995Y-85362978D01*
X78404638Y-85318191D01*
X78404639Y-85318191D01*
X77703585Y-84617138D01*
X77788694Y-84594333D01*
X77891306Y-84535090D01*
X77975090Y-84451306D01*
X78034333Y-84348694D01*
X78057137Y-84263585D01*
X78758191Y-84964639D01*
X78758191Y-84964638D01*
X78802978Y-84902995D01*
X78902237Y-84708191D01*
X78902238Y-84708188D01*
X78969797Y-84500259D01*
X79004000Y-84284316D01*
X79004000Y-84065683D01*
X78969797Y-83849740D01*
X78902238Y-83641811D01*
X78902237Y-83641808D01*
X78802980Y-83447008D01*
X78758191Y-83385360D01*
X78057137Y-84086414D01*
X78034333Y-84001306D01*
X77975090Y-83898694D01*
X77891306Y-83814910D01*
X77788694Y-83755667D01*
X77703583Y-83732861D01*
X78404638Y-83031807D01*
X78404638Y-83031806D01*
X78342995Y-82987021D01*
X78342993Y-82987020D01*
X78148191Y-82887762D01*
X78148188Y-82887761D01*
X77940259Y-82820202D01*
X77724316Y-82786000D01*
X77505684Y-82786000D01*
X77289740Y-82820202D01*
X77081811Y-82887761D01*
X77081808Y-82887762D01*
X76887001Y-82987023D01*
X76825360Y-83031806D01*
X76825360Y-83031807D01*
X77526414Y-83732861D01*
X77441306Y-83755667D01*
X77338694Y-83814910D01*
X77254910Y-83898694D01*
X77195667Y-84001306D01*
X77172861Y-84086414D01*
X76471807Y-83385360D01*
X76471806Y-83385360D01*
X76427023Y-83447001D01*
X76327762Y-83641808D01*
X76327761Y-83641811D01*
X76260202Y-83849740D01*
X76226000Y-84065683D01*
X73924500Y-84065683D01*
X73924500Y-84065638D01*
X73901815Y-83922416D01*
X73890286Y-83849625D01*
X73822701Y-83641617D01*
X73822701Y-83641616D01*
X73767466Y-83533213D01*
X73723407Y-83446743D01*
X73715147Y-83435374D01*
X73594857Y-83269806D01*
X73440193Y-83115142D01*
X73263260Y-82986595D01*
X73263259Y-82986594D01*
X73263257Y-82986593D01*
X73172644Y-82940423D01*
X73068383Y-82887298D01*
X73068380Y-82887297D01*
X72860376Y-82819714D01*
X72644361Y-82785500D01*
X72644356Y-82785500D01*
X72425644Y-82785500D01*
X72425639Y-82785500D01*
X72209623Y-82819714D01*
X72001619Y-82887297D01*
X72001616Y-82887298D01*
X71806739Y-82986595D01*
X71629806Y-83115142D01*
X71475142Y-83269806D01*
X71346595Y-83446739D01*
X71346593Y-83446743D01*
X71334880Y-83469732D01*
X71315995Y-83506795D01*
X71268020Y-83557591D01*
X71205510Y-83574500D01*
X69475097Y-83574500D01*
X69408058Y-83554815D01*
X69387416Y-83538181D01*
X67636819Y-81787584D01*
X67603334Y-81726261D01*
X67600500Y-81699903D01*
X67600500Y-77715638D01*
X71145500Y-77715638D01*
X71145500Y-77934361D01*
X71179714Y-78150376D01*
X71247297Y-78358380D01*
X71247298Y-78358383D01*
X71314782Y-78490825D01*
X71344975Y-78550082D01*
X71346595Y-78553260D01*
X71475142Y-78730193D01*
X71629806Y-78884857D01*
X71778914Y-78993188D01*
X71806743Y-79013407D01*
X71915524Y-79068834D01*
X72001616Y-79112701D01*
X72001619Y-79112702D01*
X72054289Y-79129815D01*
X72209625Y-79180286D01*
X72309672Y-79196132D01*
X72425639Y-79214500D01*
X72425644Y-79214500D01*
X72644361Y-79214500D01*
X72749082Y-79197912D01*
X72860375Y-79180286D01*
X73068383Y-79112701D01*
X73263257Y-79013407D01*
X73413156Y-78904500D01*
X73440193Y-78884857D01*
X73440195Y-78884854D01*
X73440199Y-78884852D01*
X73594852Y-78730199D01*
X73594854Y-78730195D01*
X73594857Y-78730193D01*
X73651229Y-78652601D01*
X73723407Y-78553257D01*
X73822701Y-78358383D01*
X73890286Y-78150375D01*
X73915733Y-77989711D01*
X73924500Y-77934361D01*
X73924500Y-77715638D01*
X76225500Y-77715638D01*
X76225500Y-77934361D01*
X76259714Y-78150376D01*
X76327297Y-78358380D01*
X76327298Y-78358383D01*
X76394782Y-78490825D01*
X76424975Y-78550082D01*
X76426595Y-78553260D01*
X76555142Y-78730193D01*
X76709806Y-78884857D01*
X76858914Y-78993188D01*
X76886743Y-79013407D01*
X76995524Y-79068834D01*
X77081616Y-79112701D01*
X77081619Y-79112702D01*
X77134289Y-79129815D01*
X77289625Y-79180286D01*
X77389672Y-79196132D01*
X77505639Y-79214500D01*
X77505644Y-79214500D01*
X77724361Y-79214500D01*
X77829082Y-79197912D01*
X77940375Y-79180286D01*
X78148383Y-79112701D01*
X78343257Y-79013407D01*
X78493156Y-78904500D01*
X78520193Y-78884857D01*
X78520195Y-78884854D01*
X78520199Y-78884852D01*
X78674852Y-78730199D01*
X78674854Y-78730195D01*
X78674857Y-78730193D01*
X78731229Y-78652601D01*
X78803407Y-78553257D01*
X78902701Y-78358383D01*
X78970286Y-78150375D01*
X78995733Y-77989711D01*
X79004500Y-77934361D01*
X79004500Y-77715638D01*
X78971975Y-77510292D01*
X78970286Y-77499625D01*
X78910886Y-77316807D01*
X78902702Y-77291619D01*
X78902701Y-77291616D01*
X78842140Y-77172761D01*
X78803407Y-77096743D01*
X78784704Y-77071000D01*
X78674857Y-76919806D01*
X78520193Y-76765142D01*
X78343260Y-76636595D01*
X78343259Y-76636594D01*
X78343257Y-76636593D01*
X78280825Y-76604782D01*
X78148383Y-76537298D01*
X78148380Y-76537297D01*
X77940376Y-76469714D01*
X77724361Y-76435500D01*
X77724356Y-76435500D01*
X77505644Y-76435500D01*
X77505639Y-76435500D01*
X77289623Y-76469714D01*
X77081619Y-76537297D01*
X77081616Y-76537298D01*
X76886739Y-76636595D01*
X76709806Y-76765142D01*
X76555142Y-76919806D01*
X76426595Y-77096739D01*
X76327298Y-77291616D01*
X76327297Y-77291619D01*
X76259714Y-77499623D01*
X76225500Y-77715638D01*
X73924500Y-77715638D01*
X73891975Y-77510292D01*
X73890286Y-77499625D01*
X73830886Y-77316807D01*
X73822702Y-77291619D01*
X73822701Y-77291616D01*
X73762140Y-77172761D01*
X73723407Y-77096743D01*
X73704704Y-77071000D01*
X73594857Y-76919806D01*
X73440193Y-76765142D01*
X73263260Y-76636595D01*
X73263259Y-76636594D01*
X73263257Y-76636593D01*
X73200825Y-76604782D01*
X73068383Y-76537298D01*
X73068380Y-76537297D01*
X72860376Y-76469714D01*
X72644361Y-76435500D01*
X72644356Y-76435500D01*
X72425644Y-76435500D01*
X72425639Y-76435500D01*
X72209623Y-76469714D01*
X72001619Y-76537297D01*
X72001616Y-76537298D01*
X71806739Y-76636595D01*
X71629806Y-76765142D01*
X71475142Y-76919806D01*
X71346595Y-77096739D01*
X71247298Y-77291616D01*
X71247297Y-77291619D01*
X71179714Y-77499623D01*
X71145500Y-77715638D01*
X67600500Y-77715638D01*
X67600500Y-74300097D01*
X67620185Y-74233058D01*
X67636819Y-74212416D01*
X68598542Y-73250693D01*
X76924500Y-73250693D01*
X76924500Y-73509306D01*
X76964956Y-73764733D01*
X76964956Y-73764734D01*
X77044874Y-74010695D01*
X77162283Y-74241122D01*
X77242463Y-74351481D01*
X77242464Y-74351482D01*
X77929337Y-73664609D01*
X77948497Y-73710864D01*
X78024939Y-73825268D01*
X78122232Y-73922561D01*
X78236636Y-73999003D01*
X78282890Y-74018161D01*
X77596016Y-74705034D01*
X77596017Y-74705036D01*
X77706377Y-74785216D01*
X77936804Y-74902625D01*
X78182766Y-74982543D01*
X78438194Y-75023000D01*
X78696806Y-75023000D01*
X78952233Y-74982543D01*
X78952234Y-74982543D01*
X79198195Y-74902625D01*
X79428619Y-74785218D01*
X79538981Y-74705034D01*
X79538982Y-74705034D01*
X78852109Y-74018162D01*
X78898364Y-73999003D01*
X79012768Y-73922561D01*
X79110061Y-73825268D01*
X79186503Y-73710864D01*
X79205662Y-73664609D01*
X79892534Y-74351482D01*
X79892534Y-74351481D01*
X79972718Y-74241119D01*
X80090125Y-74010695D01*
X80170043Y-73764734D01*
X80170043Y-73764733D01*
X80210500Y-73509306D01*
X80210500Y-73250693D01*
X90259500Y-73250693D01*
X90259500Y-73509306D01*
X90299956Y-73764733D01*
X90299956Y-73764734D01*
X90379874Y-74010695D01*
X90497283Y-74241122D01*
X90577463Y-74351481D01*
X90577464Y-74351482D01*
X91264337Y-73664609D01*
X91283497Y-73710864D01*
X91359939Y-73825268D01*
X91457232Y-73922561D01*
X91571636Y-73999003D01*
X91617890Y-74018161D01*
X90931016Y-74705034D01*
X90931017Y-74705036D01*
X91041377Y-74785216D01*
X91271804Y-74902625D01*
X91517766Y-74982543D01*
X91773194Y-75023000D01*
X92031806Y-75023000D01*
X92287233Y-74982543D01*
X92287234Y-74982543D01*
X92533195Y-74902625D01*
X92763619Y-74785218D01*
X92873981Y-74705034D01*
X92873982Y-74705034D01*
X92187109Y-74018162D01*
X92233364Y-73999003D01*
X92347768Y-73922561D01*
X92445061Y-73825268D01*
X92521503Y-73710864D01*
X92540661Y-73664609D01*
X93227534Y-74351482D01*
X93227534Y-74351481D01*
X93307718Y-74241119D01*
X93425125Y-74010695D01*
X93505043Y-73764734D01*
X93505043Y-73764733D01*
X93545500Y-73509306D01*
X93545500Y-73250693D01*
X93505043Y-72995266D01*
X93505043Y-72995265D01*
X93425125Y-72749304D01*
X93307716Y-72518877D01*
X93227536Y-72408517D01*
X93227534Y-72408516D01*
X92540661Y-73095389D01*
X92521503Y-73049136D01*
X92445061Y-72934732D01*
X92347768Y-72837439D01*
X92233364Y-72760997D01*
X92187108Y-72741837D01*
X92873982Y-72054964D01*
X92873981Y-72054963D01*
X92763622Y-71974783D01*
X92533195Y-71857374D01*
X92287233Y-71777456D01*
X92031806Y-71737000D01*
X91773194Y-71737000D01*
X91517766Y-71777456D01*
X91517765Y-71777456D01*
X91271804Y-71857374D01*
X91041384Y-71974779D01*
X90931017Y-72054964D01*
X90931017Y-72054965D01*
X91617890Y-72741837D01*
X91571636Y-72760997D01*
X91457232Y-72837439D01*
X91359939Y-72934732D01*
X91283497Y-73049136D01*
X91264337Y-73095390D01*
X90577465Y-72408517D01*
X90577464Y-72408517D01*
X90497279Y-72518884D01*
X90379874Y-72749304D01*
X90299956Y-72995265D01*
X90299956Y-72995266D01*
X90259500Y-73250693D01*
X80210500Y-73250693D01*
X80170043Y-72995266D01*
X80170043Y-72995265D01*
X80090125Y-72749304D01*
X79972716Y-72518877D01*
X79892536Y-72408517D01*
X79892534Y-72408516D01*
X79205661Y-73095389D01*
X79186503Y-73049136D01*
X79110061Y-72934732D01*
X79012768Y-72837439D01*
X78898364Y-72760997D01*
X78852108Y-72741837D01*
X79538982Y-72054964D01*
X79538981Y-72054963D01*
X79428622Y-71974783D01*
X79198195Y-71857374D01*
X78952233Y-71777456D01*
X78696806Y-71737000D01*
X78438194Y-71737000D01*
X78182766Y-71777456D01*
X78182765Y-71777456D01*
X77936804Y-71857374D01*
X77706384Y-71974779D01*
X77596017Y-72054964D01*
X77596017Y-72054965D01*
X78282890Y-72741837D01*
X78236636Y-72760997D01*
X78122232Y-72837439D01*
X78024939Y-72934732D01*
X77948497Y-73049136D01*
X77929337Y-73095390D01*
X77242465Y-72408517D01*
X77242464Y-72408517D01*
X77162279Y-72518884D01*
X77044874Y-72749304D01*
X76964956Y-72995265D01*
X76964956Y-72995266D01*
X76924500Y-73250693D01*
X68598542Y-73250693D01*
X69212416Y-72636819D01*
X69273739Y-72603334D01*
X69300097Y-72600500D01*
X69913331Y-72600500D01*
X69913347Y-72600501D01*
X69920943Y-72600501D01*
X70079054Y-72600501D01*
X70079057Y-72600501D01*
X70231785Y-72559577D01*
X70281904Y-72530639D01*
X70368716Y-72480520D01*
X70480520Y-72368716D01*
X70480520Y-72368714D01*
X70490728Y-72358507D01*
X70490729Y-72358504D01*
X72215520Y-70633716D01*
X72294577Y-70496784D01*
X72335501Y-70344057D01*
X72335501Y-70185942D01*
X72335501Y-70178347D01*
X72335500Y-70178329D01*
X72335500Y-69745908D01*
X72355185Y-69678869D01*
X72399271Y-69640363D01*
X72398187Y-69638605D01*
X72404332Y-69634814D01*
X72404334Y-69634814D01*
X72553656Y-69542712D01*
X72677712Y-69418656D01*
X72769814Y-69269334D01*
X72797595Y-69185495D01*
X72837368Y-69128051D01*
X72901884Y-69101228D01*
X72915301Y-69100500D01*
X77413331Y-69100500D01*
X77413347Y-69100501D01*
X77420943Y-69100501D01*
X77579054Y-69100501D01*
X77579057Y-69100501D01*
X77731785Y-69059577D01*
X77781904Y-69030639D01*
X77868716Y-68980520D01*
X77980520Y-68868716D01*
X77980520Y-68868714D01*
X77990728Y-68858507D01*
X77990729Y-68858504D01*
X84072167Y-62777069D01*
X84133490Y-62743584D01*
X84159848Y-62740750D01*
X115024110Y-62740750D01*
X115091149Y-62760435D01*
G37*
%TD.AperFunction*%
%TA.AperFunction,Conductor*%
G36*
X229442539Y-54520185D02*
G01*
X229488294Y-54572989D01*
X229499500Y-54624500D01*
X229499500Y-109375500D01*
X229479815Y-109442539D01*
X229427011Y-109488294D01*
X229375500Y-109499500D01*
X60649363Y-109499500D01*
X60582324Y-109479815D01*
X60546189Y-109444283D01*
X60521326Y-109406989D01*
X60500518Y-109340290D01*
X60500500Y-109338206D01*
X60500500Y-101602135D01*
X113844500Y-101602135D01*
X113844500Y-103397870D01*
X113844501Y-103397876D01*
X113850908Y-103457483D01*
X113901202Y-103592328D01*
X113901206Y-103592335D01*
X113987452Y-103707544D01*
X113987455Y-103707547D01*
X114102664Y-103793793D01*
X114102671Y-103793797D01*
X114237517Y-103844091D01*
X114237516Y-103844091D01*
X114244444Y-103844835D01*
X114297127Y-103850500D01*
X116092872Y-103850499D01*
X116152483Y-103844091D01*
X116287331Y-103793796D01*
X116402546Y-103707546D01*
X116488796Y-103592331D01*
X116537810Y-103460916D01*
X116579681Y-103404984D01*
X116645145Y-103380566D01*
X116713418Y-103395417D01*
X116741673Y-103416569D01*
X116855213Y-103530109D01*
X117027179Y-103655048D01*
X117027181Y-103655049D01*
X117027184Y-103655051D01*
X117216588Y-103751557D01*
X117418757Y-103817246D01*
X117628713Y-103850500D01*
X117628714Y-103850500D01*
X117841286Y-103850500D01*
X117841287Y-103850500D01*
X118051243Y-103817246D01*
X118253412Y-103751557D01*
X118442816Y-103655051D01*
X118529138Y-103592335D01*
X118614786Y-103530109D01*
X118614788Y-103530106D01*
X118614792Y-103530104D01*
X118765104Y-103379792D01*
X118765106Y-103379788D01*
X118765109Y-103379786D01*
X118850890Y-103261717D01*
X118890051Y-103207816D01*
X118894793Y-103198508D01*
X118942763Y-103147711D01*
X119010583Y-103130911D01*
X119076719Y-103153445D01*
X119115763Y-103198500D01*
X119120373Y-103207547D01*
X119159728Y-103261716D01*
X119792037Y-102629408D01*
X119809075Y-102692993D01*
X119874901Y-102807007D01*
X119967993Y-102900099D01*
X120082007Y-102965925D01*
X120145590Y-102982962D01*
X119513282Y-103615269D01*
X119513282Y-103615270D01*
X119567449Y-103654624D01*
X119756782Y-103751095D01*
X119958870Y-103816757D01*
X120168754Y-103850000D01*
X120381246Y-103850000D01*
X120591127Y-103816757D01*
X120591130Y-103816757D01*
X120793217Y-103751095D01*
X120982554Y-103654622D01*
X121036716Y-103615270D01*
X121036717Y-103615270D01*
X120404408Y-102982962D01*
X120467993Y-102965925D01*
X120582007Y-102900099D01*
X120675099Y-102807007D01*
X120740925Y-102692993D01*
X120757962Y-102629409D01*
X121390270Y-103261717D01*
X121390270Y-103261716D01*
X121429622Y-103207554D01*
X121526095Y-103018217D01*
X121591757Y-102816130D01*
X121591757Y-102816127D01*
X121625000Y-102606246D01*
X121625000Y-102393753D01*
X121591757Y-102183872D01*
X121591757Y-102183869D01*
X121526095Y-101981782D01*
X121429624Y-101792449D01*
X121390270Y-101738282D01*
X121390269Y-101738282D01*
X120757962Y-102370590D01*
X120740925Y-102307007D01*
X120675099Y-102192993D01*
X120582007Y-102099901D01*
X120467993Y-102034075D01*
X120404409Y-102017037D01*
X121036716Y-101384728D01*
X120982550Y-101345375D01*
X120793217Y-101248904D01*
X120591129Y-101183242D01*
X120381246Y-101150000D01*
X120168754Y-101150000D01*
X119958872Y-101183242D01*
X119958869Y-101183242D01*
X119756782Y-101248904D01*
X119567439Y-101345380D01*
X119513282Y-101384727D01*
X119513282Y-101384728D01*
X120145591Y-102017037D01*
X120082007Y-102034075D01*
X119967993Y-102099901D01*
X119874901Y-102192993D01*
X119809075Y-102307007D01*
X119792037Y-102370591D01*
X119159728Y-101738282D01*
X119159727Y-101738282D01*
X119120380Y-101792440D01*
X119120376Y-101792446D01*
X119115760Y-101801505D01*
X119067781Y-101852297D01*
X118999959Y-101869087D01*
X118933826Y-101846543D01*
X118894794Y-101801493D01*
X118890051Y-101792184D01*
X118890049Y-101792181D01*
X118890048Y-101792179D01*
X118765109Y-101620213D01*
X118614786Y-101469890D01*
X118442815Y-101344948D01*
X118442814Y-101344947D01*
X118403205Y-101324765D01*
X118352409Y-101276791D01*
X118335500Y-101214281D01*
X118335500Y-96150939D01*
X118355185Y-96083900D01*
X118407989Y-96038145D01*
X118435303Y-96029323D01*
X118483497Y-96019737D01*
X118629179Y-95959394D01*
X118760289Y-95871789D01*
X118871789Y-95760289D01*
X118959394Y-95629179D01*
X119019737Y-95483497D01*
X119050500Y-95328842D01*
X119050500Y-95171158D01*
X119050500Y-95171155D01*
X119050499Y-95171153D01*
X119047439Y-95155769D01*
X119019737Y-95016503D01*
X119012901Y-95000000D01*
X118959397Y-94870827D01*
X118959390Y-94870814D01*
X118871789Y-94739711D01*
X118871786Y-94739707D01*
X118760292Y-94628213D01*
X118760288Y-94628210D01*
X118629185Y-94540609D01*
X118629172Y-94540602D01*
X118483501Y-94480264D01*
X118483489Y-94480261D01*
X118328845Y-94449500D01*
X118328842Y-94449500D01*
X118171158Y-94449500D01*
X118171155Y-94449500D01*
X118016510Y-94480261D01*
X118016498Y-94480264D01*
X117870827Y-94540602D01*
X117870814Y-94540609D01*
X117739711Y-94628210D01*
X117739707Y-94628213D01*
X117628213Y-94739707D01*
X117628210Y-94739711D01*
X117540609Y-94870814D01*
X117540602Y-94870827D01*
X117489561Y-94994054D01*
X117445720Y-95048458D01*
X117379426Y-95070523D01*
X117311727Y-95053244D01*
X117264116Y-95002107D01*
X117260439Y-94994054D01*
X117209397Y-94870827D01*
X117209390Y-94870814D01*
X117121789Y-94739711D01*
X117121786Y-94739707D01*
X117010292Y-94628213D01*
X117010288Y-94628210D01*
X116879185Y-94540609D01*
X116879172Y-94540602D01*
X116733501Y-94480264D01*
X116733489Y-94480261D01*
X116578845Y-94449500D01*
X116578842Y-94449500D01*
X116421158Y-94449500D01*
X116421155Y-94449500D01*
X116266510Y-94480261D01*
X116266498Y-94480264D01*
X116120827Y-94540602D01*
X116120814Y-94540609D01*
X115989711Y-94628210D01*
X115989707Y-94628213D01*
X115878213Y-94739707D01*
X115878210Y-94739711D01*
X115790609Y-94870814D01*
X115790602Y-94870827D01*
X115730264Y-95016498D01*
X115730261Y-95016510D01*
X115699500Y-95171153D01*
X115699500Y-95328846D01*
X115730261Y-95483489D01*
X115730264Y-95483501D01*
X115790602Y-95629172D01*
X115790609Y-95629185D01*
X115878602Y-95760874D01*
X115899480Y-95827551D01*
X115899500Y-95829765D01*
X115899500Y-95949902D01*
X115879815Y-96016941D01*
X115863181Y-96037583D01*
X114714481Y-97186282D01*
X114714480Y-97186284D01*
X114677982Y-97249501D01*
X114635423Y-97323215D01*
X114594499Y-97475943D01*
X114594499Y-97475945D01*
X114594499Y-97644046D01*
X114594500Y-97644059D01*
X114594500Y-101025500D01*
X114574815Y-101092539D01*
X114522011Y-101138294D01*
X114470501Y-101149500D01*
X114297130Y-101149500D01*
X114297123Y-101149501D01*
X114237516Y-101155908D01*
X114102671Y-101206202D01*
X114102664Y-101206206D01*
X113987455Y-101292452D01*
X113987452Y-101292455D01*
X113901206Y-101407664D01*
X113901202Y-101407671D01*
X113850908Y-101542517D01*
X113844501Y-101602116D01*
X113844500Y-101602135D01*
X60500500Y-101602135D01*
X60500500Y-82079054D01*
X65399498Y-82079054D01*
X65399499Y-82079057D01*
X65440423Y-82231785D01*
X65440424Y-82231786D01*
X65452266Y-82252299D01*
X65452267Y-82252300D01*
X65519475Y-82368709D01*
X65519481Y-82368717D01*
X65638349Y-82487585D01*
X65638355Y-82487590D01*
X74675139Y-91524374D01*
X74675149Y-91524385D01*
X74679479Y-91528715D01*
X74679480Y-91528716D01*
X74791284Y-91640520D01*
X74866646Y-91684030D01*
X74928215Y-91719577D01*
X75080942Y-91760500D01*
X75080943Y-91760500D01*
X81365510Y-91760500D01*
X81432549Y-91780185D01*
X81475994Y-91828204D01*
X81497954Y-91871303D01*
X81506595Y-91888260D01*
X81635142Y-92065193D01*
X81789806Y-92219857D01*
X81965691Y-92347643D01*
X81966743Y-92348407D01*
X82026794Y-92379004D01*
X82077591Y-92426978D01*
X82094500Y-92489489D01*
X82094500Y-93608330D01*
X82094499Y-93608348D01*
X82094499Y-93774054D01*
X82094498Y-93774054D01*
X82135423Y-93926785D01*
X82143297Y-93940423D01*
X82214477Y-94063712D01*
X82214481Y-94063717D01*
X82333349Y-94182585D01*
X82333355Y-94182590D01*
X82515139Y-94364374D01*
X82515149Y-94364385D01*
X82519479Y-94368715D01*
X82519480Y-94368716D01*
X82631284Y-94480520D01*
X82710142Y-94526048D01*
X82768215Y-94559577D01*
X82920943Y-94600500D01*
X91913331Y-94600500D01*
X91913347Y-94600501D01*
X91920943Y-94600501D01*
X92079054Y-94600501D01*
X92079057Y-94600501D01*
X92231785Y-94559577D01*
X92289858Y-94526048D01*
X92368716Y-94480520D01*
X92480520Y-94368716D01*
X92480520Y-94368714D01*
X92490724Y-94358511D01*
X92490728Y-94358506D01*
X93217287Y-93631947D01*
X105485000Y-93631947D01*
X105485000Y-93868052D01*
X105521934Y-94101247D01*
X105594897Y-94325802D01*
X105702087Y-94536174D01*
X105762338Y-94619104D01*
X105762340Y-94619105D01*
X106461212Y-93920233D01*
X106472482Y-93962292D01*
X106544890Y-94087708D01*
X106647292Y-94190110D01*
X106772708Y-94262518D01*
X106814765Y-94273787D01*
X106115893Y-94972658D01*
X106198828Y-95032914D01*
X106409197Y-95140102D01*
X106633752Y-95213065D01*
X106633751Y-95213065D01*
X106866948Y-95250000D01*
X107103052Y-95250000D01*
X107336247Y-95213065D01*
X107560802Y-95140102D01*
X107771163Y-95032918D01*
X107771169Y-95032914D01*
X107854104Y-94972658D01*
X107854105Y-94972658D01*
X107155233Y-94273787D01*
X107197292Y-94262518D01*
X107322708Y-94190110D01*
X107425110Y-94087708D01*
X107497518Y-93962292D01*
X107508787Y-93920233D01*
X108207658Y-94619105D01*
X108207658Y-94619104D01*
X108267914Y-94536169D01*
X108267918Y-94536163D01*
X108375102Y-94325802D01*
X108448065Y-94101247D01*
X108485000Y-93868052D01*
X108485000Y-93631947D01*
X111985000Y-93631947D01*
X111985000Y-93868052D01*
X112021934Y-94101247D01*
X112094897Y-94325802D01*
X112202087Y-94536174D01*
X112262338Y-94619104D01*
X112262340Y-94619105D01*
X112961212Y-93920233D01*
X112972482Y-93962292D01*
X113044890Y-94087708D01*
X113147292Y-94190110D01*
X113272708Y-94262518D01*
X113314765Y-94273787D01*
X112615893Y-94972658D01*
X112698828Y-95032914D01*
X112909197Y-95140102D01*
X113133752Y-95213065D01*
X113133751Y-95213065D01*
X113366948Y-95250000D01*
X113603052Y-95250000D01*
X113836247Y-95213065D01*
X114060802Y-95140102D01*
X114271163Y-95032918D01*
X114271169Y-95032914D01*
X114354104Y-94972658D01*
X114354105Y-94972658D01*
X113655233Y-94273787D01*
X113697292Y-94262518D01*
X113822708Y-94190110D01*
X113925110Y-94087708D01*
X113997518Y-93962292D01*
X114008787Y-93920234D01*
X114707658Y-94619105D01*
X114707658Y-94619104D01*
X114767914Y-94536169D01*
X114767918Y-94536163D01*
X114875102Y-94325802D01*
X114948065Y-94101247D01*
X114985000Y-93868052D01*
X114985000Y-93631947D01*
X114948065Y-93398752D01*
X114875102Y-93174197D01*
X114767914Y-92963828D01*
X114707658Y-92880894D01*
X114707658Y-92880893D01*
X114008787Y-93579765D01*
X113997518Y-93537708D01*
X113925110Y-93412292D01*
X113822708Y-93309890D01*
X113697292Y-93237482D01*
X113655234Y-93226212D01*
X114354105Y-92527340D01*
X114354104Y-92527338D01*
X114271174Y-92467087D01*
X114060802Y-92359897D01*
X113836247Y-92286934D01*
X113836248Y-92286934D01*
X113603052Y-92250000D01*
X113366948Y-92250000D01*
X113133752Y-92286934D01*
X112909197Y-92359897D01*
X112698830Y-92467084D01*
X112615894Y-92527340D01*
X113314766Y-93226212D01*
X113272708Y-93237482D01*
X113147292Y-93309890D01*
X113044890Y-93412292D01*
X112972482Y-93537708D01*
X112961212Y-93579766D01*
X112262340Y-92880894D01*
X112202084Y-92963830D01*
X112094897Y-93174197D01*
X112021934Y-93398752D01*
X111985000Y-93631947D01*
X108485000Y-93631947D01*
X108448065Y-93398752D01*
X108375102Y-93174197D01*
X108267914Y-92963828D01*
X108207658Y-92880894D01*
X108207658Y-92880893D01*
X107508787Y-93579765D01*
X107497518Y-93537708D01*
X107425110Y-93412292D01*
X107322708Y-93309890D01*
X107197292Y-93237482D01*
X107155234Y-93226212D01*
X107854105Y-92527340D01*
X107854104Y-92527339D01*
X107771174Y-92467087D01*
X107560802Y-92359897D01*
X107336247Y-92286934D01*
X107336248Y-92286934D01*
X107103052Y-92250000D01*
X106866948Y-92250000D01*
X106633752Y-92286934D01*
X106409197Y-92359897D01*
X106198830Y-92467084D01*
X106115894Y-92527340D01*
X106814766Y-93226212D01*
X106772708Y-93237482D01*
X106647292Y-93309890D01*
X106544890Y-93412292D01*
X106472482Y-93537708D01*
X106461212Y-93579766D01*
X105762340Y-92880894D01*
X105702084Y-92963830D01*
X105594897Y-93174197D01*
X105521934Y-93398752D01*
X105485000Y-93631947D01*
X93217287Y-93631947D01*
X95753506Y-91095728D01*
X95753511Y-91095724D01*
X95763714Y-91085520D01*
X95763716Y-91085520D01*
X95875520Y-90973716D01*
X95934367Y-90871789D01*
X95954577Y-90836785D01*
X95995501Y-90684057D01*
X95995501Y-90525943D01*
X95995501Y-90518348D01*
X95995500Y-90518330D01*
X95995500Y-85289097D01*
X96015185Y-85222058D01*
X96067989Y-85176303D01*
X96137147Y-85166359D01*
X96200703Y-85195384D01*
X96207181Y-85201416D01*
X101920139Y-90914374D01*
X101920149Y-90914385D01*
X101924479Y-90918715D01*
X101924480Y-90918716D01*
X102036284Y-91030520D01*
X102036286Y-91030521D01*
X102036290Y-91030524D01*
X102099337Y-91066924D01*
X102099341Y-91066925D01*
X102099342Y-91066926D01*
X102131549Y-91085521D01*
X102173212Y-91109576D01*
X102173214Y-91109576D01*
X102173215Y-91109577D01*
X102325943Y-91150500D01*
X118484903Y-91150500D01*
X118551942Y-91170185D01*
X118572584Y-91186819D01*
X120463181Y-93077416D01*
X120496666Y-93138739D01*
X120499500Y-93165097D01*
X120499500Y-96079014D01*
X120499499Y-96079032D01*
X120499499Y-96086627D01*
X120499499Y-96244742D01*
X120507838Y-96275861D01*
X120537304Y-96385830D01*
X120537309Y-96385846D01*
X120540423Y-96397470D01*
X120540423Y-96397471D01*
X120619475Y-96534394D01*
X120619481Y-96534402D01*
X120738349Y-96653270D01*
X120738355Y-96653275D01*
X122213181Y-98128101D01*
X122246666Y-98189424D01*
X122249500Y-98215782D01*
X122249500Y-103611860D01*
X122249499Y-103611878D01*
X122249499Y-103777582D01*
X122249499Y-103777585D01*
X122249500Y-103777587D01*
X122253843Y-103793796D01*
X122269036Y-103850498D01*
X122271935Y-103861314D01*
X122270272Y-103931164D01*
X122231110Y-103989026D01*
X122199613Y-104007969D01*
X122120824Y-104040604D01*
X122120814Y-104040609D01*
X121989711Y-104128210D01*
X121989707Y-104128213D01*
X121878213Y-104239707D01*
X121878210Y-104239711D01*
X121790609Y-104370814D01*
X121790602Y-104370827D01*
X121730264Y-104516498D01*
X121730261Y-104516510D01*
X121699500Y-104671153D01*
X121699500Y-104828846D01*
X121730261Y-104983489D01*
X121730264Y-104983501D01*
X121790602Y-105129172D01*
X121790609Y-105129185D01*
X121878210Y-105260288D01*
X121878213Y-105260292D01*
X121989707Y-105371786D01*
X121989711Y-105371789D01*
X122120814Y-105459390D01*
X122120827Y-105459397D01*
X122266498Y-105519735D01*
X122266503Y-105519737D01*
X122421153Y-105550499D01*
X122421156Y-105550500D01*
X122421158Y-105550500D01*
X122578844Y-105550500D01*
X122578845Y-105550499D01*
X122733497Y-105519737D01*
X122879179Y-105459394D01*
X123010289Y-105371789D01*
X123121789Y-105260289D01*
X123209394Y-105129179D01*
X123255678Y-105017437D01*
X123299516Y-104963038D01*
X123365809Y-104940972D01*
X123375699Y-104941013D01*
X123389235Y-104941609D01*
X123422412Y-104950500D01*
X123580527Y-104950501D01*
X123580531Y-104950500D01*
X125638331Y-104950500D01*
X125638347Y-104950501D01*
X125645943Y-104950501D01*
X125804054Y-104950501D01*
X125804057Y-104950501D01*
X125956785Y-104909577D01*
X126006904Y-104880639D01*
X126093716Y-104830520D01*
X126205520Y-104718716D01*
X126205520Y-104718714D01*
X126215728Y-104708507D01*
X126215730Y-104708504D01*
X127037416Y-103886818D01*
X127098739Y-103853333D01*
X127125097Y-103850499D01*
X128472871Y-103850499D01*
X128472872Y-103850499D01*
X128532483Y-103844091D01*
X128667331Y-103793796D01*
X128782546Y-103707546D01*
X128868796Y-103592331D01*
X128919091Y-103457483D01*
X128925500Y-103397873D01*
X128925499Y-103373979D01*
X128928330Y-103360963D01*
X128938940Y-103341525D01*
X128945179Y-103320275D01*
X128961803Y-103299643D01*
X128961808Y-103299636D01*
X128961811Y-103299634D01*
X128961818Y-103299626D01*
X129632037Y-102629408D01*
X129649075Y-102692993D01*
X129714901Y-102807007D01*
X129807993Y-102900099D01*
X129922007Y-102965925D01*
X129985590Y-102982962D01*
X129353282Y-103615269D01*
X129353282Y-103615270D01*
X129407449Y-103654624D01*
X129596782Y-103751095D01*
X129798870Y-103816757D01*
X130008754Y-103850000D01*
X130221246Y-103850000D01*
X130431127Y-103816757D01*
X130431130Y-103816757D01*
X130633217Y-103751095D01*
X130822554Y-103654622D01*
X130876716Y-103615270D01*
X130876717Y-103615270D01*
X130244408Y-102982962D01*
X130307993Y-102965925D01*
X130422007Y-102900099D01*
X130515099Y-102807007D01*
X130580925Y-102692993D01*
X130597962Y-102629408D01*
X131230270Y-103261717D01*
X131230270Y-103261716D01*
X131269622Y-103207555D01*
X131274232Y-103198507D01*
X131322205Y-103147709D01*
X131390025Y-103130912D01*
X131456161Y-103153447D01*
X131495204Y-103198504D01*
X131499949Y-103207817D01*
X131624890Y-103379786D01*
X131775213Y-103530109D01*
X131947179Y-103655048D01*
X131947181Y-103655049D01*
X131947184Y-103655051D01*
X132136588Y-103751557D01*
X132338757Y-103817246D01*
X132548713Y-103850500D01*
X132548714Y-103850500D01*
X132761286Y-103850500D01*
X132761287Y-103850500D01*
X132971243Y-103817246D01*
X133173412Y-103751557D01*
X133362816Y-103655051D01*
X133449138Y-103592335D01*
X133534786Y-103530109D01*
X133534788Y-103530106D01*
X133534792Y-103530104D01*
X133685104Y-103379792D01*
X133685106Y-103379788D01*
X133685109Y-103379786D01*
X133810048Y-103207820D01*
X133810047Y-103207820D01*
X133810051Y-103207816D01*
X133814514Y-103199054D01*
X133862488Y-103148259D01*
X133930308Y-103131463D01*
X133996444Y-103153999D01*
X134035486Y-103199056D01*
X134039951Y-103207820D01*
X134164890Y-103379786D01*
X134315213Y-103530109D01*
X134487179Y-103655048D01*
X134487181Y-103655049D01*
X134487184Y-103655051D01*
X134676588Y-103751557D01*
X134878757Y-103817246D01*
X135088713Y-103850500D01*
X135088714Y-103850500D01*
X135301286Y-103850500D01*
X135301287Y-103850500D01*
X135511243Y-103817246D01*
X135713412Y-103751557D01*
X135902816Y-103655051D01*
X135989138Y-103592335D01*
X136074786Y-103530109D01*
X136074788Y-103530106D01*
X136074792Y-103530104D01*
X136225104Y-103379792D01*
X136225106Y-103379788D01*
X136225109Y-103379786D01*
X136350048Y-103207820D01*
X136350047Y-103207820D01*
X136350051Y-103207816D01*
X136354514Y-103199054D01*
X136402488Y-103148259D01*
X136470308Y-103131463D01*
X136536444Y-103153999D01*
X136575486Y-103199056D01*
X136579951Y-103207820D01*
X136704890Y-103379786D01*
X136855213Y-103530109D01*
X137027179Y-103655048D01*
X137027181Y-103655049D01*
X137027184Y-103655051D01*
X137216588Y-103751557D01*
X137418757Y-103817246D01*
X137628713Y-103850500D01*
X137628714Y-103850500D01*
X137841286Y-103850500D01*
X137841287Y-103850500D01*
X138051243Y-103817246D01*
X138253412Y-103751557D01*
X138442816Y-103655051D01*
X138529138Y-103592335D01*
X138614786Y-103530109D01*
X138614788Y-103530106D01*
X138614792Y-103530104D01*
X138765104Y-103379792D01*
X138765106Y-103379788D01*
X138765109Y-103379786D01*
X138890048Y-103207820D01*
X138890047Y-103207820D01*
X138890051Y-103207816D01*
X138986557Y-103018412D01*
X139052246Y-102816243D01*
X139085500Y-102606287D01*
X139085500Y-102393713D01*
X139052246Y-102183757D01*
X138986557Y-101981588D01*
X138890051Y-101792184D01*
X138890049Y-101792181D01*
X138890048Y-101792179D01*
X138765109Y-101620213D01*
X138614786Y-101469890D01*
X138442820Y-101344951D01*
X138253414Y-101248444D01*
X138253413Y-101248443D01*
X138253412Y-101248443D01*
X138051243Y-101182754D01*
X138051241Y-101182753D01*
X138051240Y-101182753D01*
X137889957Y-101157208D01*
X137841287Y-101149500D01*
X137628713Y-101149500D01*
X137600006Y-101154046D01*
X137418757Y-101182753D01*
X137376473Y-101196492D01*
X137306632Y-101198486D01*
X137250476Y-101166241D01*
X136221819Y-100137584D01*
X136188334Y-100076261D01*
X136185500Y-100049903D01*
X136185500Y-96317433D01*
X136205185Y-96250394D01*
X136257989Y-96204639D01*
X136322102Y-96194075D01*
X136384991Y-96200500D01*
X137135008Y-96200499D01*
X137135016Y-96200498D01*
X137135019Y-96200498D01*
X137197895Y-96194075D01*
X137237797Y-96189999D01*
X137404334Y-96134814D01*
X137553656Y-96042712D01*
X137677712Y-95918656D01*
X137769814Y-95769334D01*
X137797595Y-95685495D01*
X137837368Y-95628051D01*
X137901884Y-95601228D01*
X137915301Y-95600500D01*
X139054699Y-95600500D01*
X139121738Y-95620185D01*
X139167493Y-95672989D01*
X139172403Y-95685492D01*
X139200186Y-95769334D01*
X139292288Y-95918656D01*
X139416344Y-96042712D01*
X139565666Y-96134814D01*
X139732203Y-96189999D01*
X139834991Y-96200500D01*
X140635008Y-96200499D01*
X140635016Y-96200498D01*
X140635019Y-96200498D01*
X140697895Y-96194075D01*
X140737797Y-96189999D01*
X140904334Y-96134814D01*
X141053656Y-96042712D01*
X141147319Y-95949049D01*
X141208642Y-95915564D01*
X141278334Y-95920548D01*
X141322681Y-95949049D01*
X141416344Y-96042712D01*
X141565666Y-96134814D01*
X141732203Y-96189999D01*
X141834991Y-96200500D01*
X142635008Y-96200499D01*
X142635016Y-96200498D01*
X142635019Y-96200498D01*
X142697895Y-96194075D01*
X142737797Y-96189999D01*
X142904334Y-96134814D01*
X143053656Y-96042712D01*
X143177712Y-95918656D01*
X143269814Y-95769334D01*
X143324999Y-95602797D01*
X143335500Y-95500009D01*
X143335499Y-94499992D01*
X143333483Y-94480261D01*
X143324999Y-94397203D01*
X143324998Y-94397200D01*
X143314124Y-94364385D01*
X143269814Y-94230666D01*
X143177712Y-94081344D01*
X143053656Y-93957288D01*
X142904334Y-93865186D01*
X142904332Y-93865185D01*
X142898187Y-93861395D01*
X142899290Y-93859605D01*
X142854649Y-93820290D01*
X142835500Y-93754091D01*
X142835500Y-91984097D01*
X142855185Y-91917058D01*
X142907989Y-91871303D01*
X142977147Y-91861359D01*
X143040703Y-91890384D01*
X143047181Y-91896416D01*
X144823181Y-93672416D01*
X144856666Y-93733739D01*
X144859500Y-93760097D01*
X144859500Y-101025500D01*
X144839815Y-101092539D01*
X144787011Y-101138294D01*
X144735501Y-101149500D01*
X144562130Y-101149500D01*
X144562123Y-101149501D01*
X144502516Y-101155908D01*
X144367671Y-101206202D01*
X144367664Y-101206206D01*
X144252455Y-101292452D01*
X144252452Y-101292455D01*
X144166206Y-101407664D01*
X144166202Y-101407671D01*
X144115908Y-101542517D01*
X144109501Y-101602116D01*
X144109500Y-101602135D01*
X144109500Y-103397870D01*
X144109501Y-103397876D01*
X144115908Y-103457483D01*
X144166202Y-103592328D01*
X144166206Y-103592335D01*
X144252452Y-103707544D01*
X144252455Y-103707547D01*
X144367664Y-103793793D01*
X144367671Y-103793797D01*
X144502517Y-103844091D01*
X144502516Y-103844091D01*
X144509444Y-103844835D01*
X144562127Y-103850500D01*
X146357872Y-103850499D01*
X146417483Y-103844091D01*
X146552331Y-103793796D01*
X146667546Y-103707546D01*
X146753796Y-103592331D01*
X146804091Y-103457483D01*
X146810500Y-103397873D01*
X146810499Y-103373979D01*
X146813330Y-103360963D01*
X146823940Y-103341525D01*
X146830179Y-103320275D01*
X146846803Y-103299643D01*
X146846808Y-103299636D01*
X146846811Y-103299634D01*
X146846818Y-103299626D01*
X147517037Y-102629408D01*
X147534075Y-102692993D01*
X147599901Y-102807007D01*
X147692993Y-102900099D01*
X147807007Y-102965925D01*
X147870590Y-102982962D01*
X147238282Y-103615269D01*
X147238282Y-103615270D01*
X147292449Y-103654624D01*
X147481782Y-103751095D01*
X147683870Y-103816757D01*
X147893754Y-103850000D01*
X148106246Y-103850000D01*
X148316127Y-103816757D01*
X148316130Y-103816757D01*
X148518217Y-103751095D01*
X148707554Y-103654622D01*
X148761716Y-103615270D01*
X148761717Y-103615270D01*
X148129408Y-102982962D01*
X148192993Y-102965925D01*
X148307007Y-102900099D01*
X148400099Y-102807007D01*
X148465925Y-102692993D01*
X148482962Y-102629408D01*
X149115270Y-103261717D01*
X149115270Y-103261716D01*
X149154622Y-103207554D01*
X149251095Y-103018217D01*
X149316757Y-102816130D01*
X149316757Y-102816127D01*
X149350000Y-102606246D01*
X149350000Y-102393753D01*
X149316757Y-102183872D01*
X149316757Y-102183869D01*
X149251095Y-101981782D01*
X149154625Y-101792451D01*
X149149811Y-101785825D01*
X149149810Y-101785823D01*
X149149809Y-101785822D01*
X149115269Y-101738282D01*
X148482962Y-102370590D01*
X148465925Y-102307007D01*
X148400099Y-102192993D01*
X148307007Y-102099901D01*
X148192993Y-102034075D01*
X148129409Y-102017037D01*
X148761716Y-101384728D01*
X148707556Y-101345378D01*
X148707552Y-101345376D01*
X148520368Y-101250000D01*
X180421522Y-101250000D01*
X181899999Y-101250000D01*
X181874979Y-101310402D01*
X181850000Y-101435981D01*
X181850000Y-101564019D01*
X181874979Y-101689598D01*
X181899999Y-101750000D01*
X180421522Y-101750000D01*
X180435704Y-101839544D01*
X180506230Y-102056604D01*
X180609849Y-102259966D01*
X180744004Y-102444614D01*
X180905385Y-102605995D01*
X181090033Y-102740150D01*
X181293395Y-102843769D01*
X181510455Y-102914295D01*
X181735884Y-102950000D01*
X182250000Y-102950000D01*
X182250000Y-102100001D01*
X182310402Y-102125021D01*
X182435981Y-102150000D01*
X182564019Y-102150000D01*
X182689598Y-102125021D01*
X182750000Y-102100001D01*
X182750000Y-102950000D01*
X183264116Y-102950000D01*
X183489544Y-102914295D01*
X183706604Y-102843769D01*
X183909966Y-102740150D01*
X184094614Y-102605995D01*
X184255995Y-102444614D01*
X184390150Y-102259966D01*
X184493769Y-102056604D01*
X184564295Y-101839544D01*
X184578478Y-101750000D01*
X183100001Y-101750000D01*
X183125021Y-101689598D01*
X183150000Y-101564019D01*
X183150000Y-101435981D01*
X183125021Y-101310402D01*
X183100001Y-101250000D01*
X184578478Y-101250000D01*
X192921522Y-101250000D01*
X194399999Y-101250000D01*
X194374979Y-101310402D01*
X194350000Y-101435981D01*
X194350000Y-101564019D01*
X194374979Y-101689598D01*
X194399999Y-101750000D01*
X192921522Y-101750000D01*
X192935704Y-101839544D01*
X193006230Y-102056604D01*
X193109849Y-102259966D01*
X193244004Y-102444614D01*
X193405385Y-102605995D01*
X193590033Y-102740150D01*
X193793395Y-102843769D01*
X194010455Y-102914295D01*
X194235884Y-102950000D01*
X194750000Y-102950000D01*
X194750000Y-102100001D01*
X194810402Y-102125021D01*
X194935981Y-102150000D01*
X195064019Y-102150000D01*
X195189598Y-102125021D01*
X195250000Y-102100001D01*
X195250000Y-102950000D01*
X195764116Y-102950000D01*
X195989544Y-102914295D01*
X196206604Y-102843769D01*
X196409966Y-102740150D01*
X196594614Y-102605995D01*
X196755995Y-102444614D01*
X196890150Y-102259966D01*
X196993769Y-102056604D01*
X197064295Y-101839544D01*
X197078478Y-101750000D01*
X195600001Y-101750000D01*
X195625021Y-101689598D01*
X195650000Y-101564019D01*
X195650000Y-101435981D01*
X195625021Y-101310402D01*
X195600001Y-101250000D01*
X197078478Y-101250000D01*
X197064295Y-101160455D01*
X196993769Y-100943395D01*
X196890150Y-100740033D01*
X196755995Y-100555385D01*
X196594614Y-100394004D01*
X196409966Y-100259849D01*
X196206604Y-100156230D01*
X195989544Y-100085704D01*
X195764116Y-100050000D01*
X195250000Y-100050000D01*
X195250000Y-100899998D01*
X195189598Y-100874979D01*
X195064019Y-100850000D01*
X194935981Y-100850000D01*
X194810402Y-100874979D01*
X194750000Y-100899998D01*
X194750000Y-100050000D01*
X194235884Y-100050000D01*
X194010455Y-100085704D01*
X193793395Y-100156230D01*
X193590033Y-100259849D01*
X193405385Y-100394004D01*
X193244004Y-100555385D01*
X193109849Y-100740033D01*
X193006230Y-100943395D01*
X192935704Y-101160455D01*
X192921522Y-101250000D01*
X184578478Y-101250000D01*
X184564295Y-101160455D01*
X184493769Y-100943395D01*
X184390150Y-100740033D01*
X184255995Y-100555385D01*
X184094614Y-100394004D01*
X183909966Y-100259849D01*
X183706604Y-100156230D01*
X183489544Y-100085704D01*
X183264116Y-100050000D01*
X182750000Y-100050000D01*
X182750000Y-100899998D01*
X182689598Y-100874979D01*
X182564019Y-100850000D01*
X182435981Y-100850000D01*
X182310402Y-100874979D01*
X182250000Y-100899998D01*
X182250000Y-100050000D01*
X181735884Y-100050000D01*
X181510455Y-100085704D01*
X181293395Y-100156230D01*
X181090033Y-100259849D01*
X180905385Y-100394004D01*
X180744004Y-100555385D01*
X180609849Y-100740033D01*
X180506230Y-100943395D01*
X180435704Y-101160455D01*
X180421522Y-101250000D01*
X148520368Y-101250000D01*
X148518217Y-101248904D01*
X148316129Y-101183242D01*
X148106246Y-101150000D01*
X147893754Y-101150000D01*
X147683872Y-101183242D01*
X147683869Y-101183242D01*
X147481782Y-101248904D01*
X147292439Y-101345380D01*
X147238282Y-101384727D01*
X147238282Y-101384728D01*
X147870591Y-102017037D01*
X147807007Y-102034075D01*
X147692993Y-102099901D01*
X147599901Y-102192993D01*
X147534075Y-102307007D01*
X147517037Y-102370591D01*
X146846818Y-101700372D01*
X146813333Y-101639049D01*
X146813330Y-101639036D01*
X146810499Y-101626015D01*
X146810499Y-101602128D01*
X146804091Y-101542517D01*
X146764356Y-101435981D01*
X146753798Y-101407673D01*
X146753793Y-101407664D01*
X146667547Y-101292455D01*
X146667544Y-101292452D01*
X146552335Y-101206206D01*
X146552328Y-101206202D01*
X146417482Y-101155908D01*
X146417483Y-101155908D01*
X146357883Y-101149501D01*
X146357881Y-101149500D01*
X146357873Y-101149500D01*
X146357865Y-101149500D01*
X146184500Y-101149500D01*
X146117461Y-101129815D01*
X146071706Y-101077011D01*
X146060500Y-101025500D01*
X146060500Y-93549060D01*
X146060501Y-93549047D01*
X146060501Y-93380944D01*
X146060501Y-93380943D01*
X146019577Y-93228216D01*
X146003287Y-93200000D01*
X145940524Y-93091290D01*
X145940518Y-93091282D01*
X138599236Y-85750000D01*
X156421522Y-85750000D01*
X157899999Y-85750000D01*
X157874979Y-85810402D01*
X157850000Y-85935981D01*
X157850000Y-86064019D01*
X157874979Y-86189598D01*
X157899999Y-86250000D01*
X156421522Y-86250000D01*
X156435704Y-86339544D01*
X156506230Y-86556604D01*
X156609849Y-86759966D01*
X156744004Y-86944614D01*
X156905385Y-87105995D01*
X157090033Y-87240150D01*
X157293395Y-87343769D01*
X157510455Y-87414295D01*
X157735884Y-87450000D01*
X158250000Y-87450000D01*
X158250000Y-86600001D01*
X158310402Y-86625021D01*
X158435981Y-86650000D01*
X158564019Y-86650000D01*
X158689598Y-86625021D01*
X158750000Y-86600001D01*
X158750000Y-87450000D01*
X159264116Y-87450000D01*
X159489544Y-87414295D01*
X159706604Y-87343769D01*
X159909966Y-87240150D01*
X160094614Y-87105995D01*
X160255995Y-86944614D01*
X160390150Y-86759966D01*
X160493769Y-86556604D01*
X160564295Y-86339544D01*
X160578478Y-86250000D01*
X159100001Y-86250000D01*
X159125021Y-86189598D01*
X159150000Y-86064019D01*
X159150000Y-85935981D01*
X159125021Y-85810402D01*
X159100001Y-85750000D01*
X160578478Y-85750000D01*
X168921522Y-85750000D01*
X170399999Y-85750000D01*
X170374979Y-85810402D01*
X170350000Y-85935981D01*
X170350000Y-86064019D01*
X170374979Y-86189598D01*
X170399999Y-86250000D01*
X168921522Y-86250000D01*
X168935704Y-86339544D01*
X169006230Y-86556604D01*
X169109849Y-86759966D01*
X169244004Y-86944614D01*
X169405385Y-87105995D01*
X169590033Y-87240150D01*
X169793395Y-87343769D01*
X170010455Y-87414295D01*
X170235884Y-87450000D01*
X170750000Y-87450000D01*
X170750000Y-86600001D01*
X170810402Y-86625021D01*
X170935981Y-86650000D01*
X171064019Y-86650000D01*
X171189598Y-86625021D01*
X171250000Y-86600001D01*
X171250000Y-87450000D01*
X171764116Y-87450000D01*
X171989544Y-87414295D01*
X172206604Y-87343769D01*
X172409966Y-87240150D01*
X172594614Y-87105995D01*
X172755995Y-86944614D01*
X172890150Y-86759966D01*
X172993769Y-86556604D01*
X173064295Y-86339544D01*
X173078478Y-86250000D01*
X171600001Y-86250000D01*
X171625021Y-86189598D01*
X171650000Y-86064019D01*
X171650000Y-85935981D01*
X171625021Y-85810402D01*
X171600001Y-85750000D01*
X173078478Y-85750000D01*
X173064295Y-85660455D01*
X172993769Y-85443395D01*
X172890150Y-85240033D01*
X172755995Y-85055385D01*
X172594614Y-84894004D01*
X172409966Y-84759849D01*
X172206604Y-84656230D01*
X171989544Y-84585704D01*
X171764116Y-84550000D01*
X171250000Y-84550000D01*
X171250000Y-85399998D01*
X171189598Y-85374979D01*
X171064019Y-85350000D01*
X170935981Y-85350000D01*
X170810402Y-85374979D01*
X170750000Y-85399998D01*
X170750000Y-84550000D01*
X170235884Y-84550000D01*
X170010455Y-84585704D01*
X169793395Y-84656230D01*
X169590033Y-84759849D01*
X169405385Y-84894004D01*
X169244004Y-85055385D01*
X169109849Y-85240033D01*
X169006230Y-85443395D01*
X168935704Y-85660455D01*
X168921522Y-85750000D01*
X160578478Y-85750000D01*
X160564295Y-85660455D01*
X160493769Y-85443395D01*
X160390150Y-85240033D01*
X160255995Y-85055385D01*
X160094614Y-84894004D01*
X159909966Y-84759849D01*
X159706604Y-84656230D01*
X159489544Y-84585704D01*
X159264116Y-84550000D01*
X158750000Y-84550000D01*
X158750000Y-85399998D01*
X158689598Y-85374979D01*
X158564019Y-85350000D01*
X158435981Y-85350000D01*
X158310402Y-85374979D01*
X158250000Y-85399998D01*
X158250000Y-84550000D01*
X157735884Y-84550000D01*
X157510455Y-84585704D01*
X157293395Y-84656230D01*
X157090033Y-84759849D01*
X156905385Y-84894004D01*
X156744004Y-85055385D01*
X156609849Y-85240033D01*
X156506230Y-85443395D01*
X156435704Y-85660455D01*
X156421522Y-85750000D01*
X138599236Y-85750000D01*
X132834573Y-79985337D01*
X132801088Y-79924014D01*
X132800637Y-79921847D01*
X132795023Y-79893622D01*
X132769737Y-79766503D01*
X132735854Y-79684701D01*
X132709397Y-79620827D01*
X132709390Y-79620814D01*
X132633948Y-79507908D01*
X132613070Y-79441231D01*
X132631554Y-79373851D01*
X132649365Y-79351340D01*
X139875359Y-72125348D01*
X139936682Y-72091863D01*
X139963040Y-72089029D01*
X146523331Y-72089029D01*
X146523347Y-72089030D01*
X146530943Y-72089030D01*
X146689054Y-72089030D01*
X146689057Y-72089030D01*
X146841785Y-72048106D01*
X146891904Y-72019168D01*
X146978716Y-71969049D01*
X147090520Y-71857245D01*
X147090520Y-71857243D01*
X147100728Y-71847036D01*
X147100729Y-71847033D01*
X147687820Y-71259943D01*
X147749142Y-71226459D01*
X147818834Y-71231443D01*
X147874767Y-71273315D01*
X147899184Y-71338779D01*
X147899500Y-71347625D01*
X147899500Y-79754091D01*
X147879815Y-79821130D01*
X147835731Y-79859641D01*
X147836813Y-79861395D01*
X147830667Y-79865185D01*
X147830666Y-79865186D01*
X147784564Y-79893622D01*
X147681342Y-79957289D01*
X147557289Y-80081342D01*
X147465187Y-80230663D01*
X147465185Y-80230668D01*
X147446090Y-80288293D01*
X147410001Y-80397203D01*
X147410001Y-80397204D01*
X147410000Y-80397204D01*
X147399500Y-80499983D01*
X147399500Y-81500001D01*
X147399501Y-81500019D01*
X147410000Y-81602796D01*
X147410001Y-81602799D01*
X147465185Y-81769331D01*
X147465187Y-81769336D01*
X147489087Y-81808084D01*
X147557288Y-81918656D01*
X147681344Y-82042712D01*
X147830666Y-82134814D01*
X147997203Y-82189999D01*
X148099991Y-82200500D01*
X148900008Y-82200499D01*
X148900016Y-82200498D01*
X148900019Y-82200498D01*
X148956302Y-82194748D01*
X149002797Y-82189999D01*
X149169334Y-82134814D01*
X149318656Y-82042712D01*
X149412319Y-81949049D01*
X149473642Y-81915564D01*
X149543334Y-81920548D01*
X149587681Y-81949049D01*
X149681344Y-82042712D01*
X149830666Y-82134814D01*
X149830667Y-82134814D01*
X149836813Y-82138605D01*
X149835706Y-82140399D01*
X149880337Y-82179687D01*
X149899500Y-82245908D01*
X149899500Y-83420234D01*
X149879815Y-83487273D01*
X149878602Y-83489125D01*
X149790609Y-83620814D01*
X149790602Y-83620827D01*
X149730264Y-83766498D01*
X149730261Y-83766510D01*
X149699500Y-83921153D01*
X149699500Y-84078846D01*
X149730261Y-84233489D01*
X149730264Y-84233501D01*
X149790602Y-84379172D01*
X149790609Y-84379185D01*
X149878210Y-84510288D01*
X149878213Y-84510292D01*
X149989707Y-84621786D01*
X149989711Y-84621789D01*
X150120814Y-84709390D01*
X150120827Y-84709397D01*
X150266498Y-84769735D01*
X150266503Y-84769737D01*
X150385977Y-84793502D01*
X150421153Y-84800499D01*
X150421156Y-84800500D01*
X150421158Y-84800500D01*
X150578844Y-84800500D01*
X150578845Y-84800499D01*
X150733497Y-84769737D01*
X150879179Y-84709394D01*
X151010289Y-84621789D01*
X151121789Y-84510289D01*
X151209394Y-84379179D01*
X151269737Y-84233497D01*
X151300500Y-84078842D01*
X151300500Y-83921158D01*
X151300500Y-83921155D01*
X151300499Y-83921153D01*
X151287153Y-83854059D01*
X151269737Y-83766503D01*
X151265249Y-83755667D01*
X151209397Y-83620827D01*
X151209390Y-83620814D01*
X151121398Y-83489125D01*
X151100520Y-83422447D01*
X151100500Y-83420234D01*
X151100500Y-82245908D01*
X151120185Y-82178869D01*
X151164271Y-82140363D01*
X151163187Y-82138605D01*
X151169332Y-82134814D01*
X151169334Y-82134814D01*
X151318656Y-82042712D01*
X151442712Y-81918656D01*
X151534814Y-81769334D01*
X151562595Y-81685495D01*
X151602368Y-81628051D01*
X151666884Y-81601228D01*
X151680301Y-81600500D01*
X156452048Y-81600500D01*
X156519087Y-81620185D01*
X156562533Y-81668205D01*
X156609421Y-81760228D01*
X156743621Y-81944937D01*
X156905063Y-82106379D01*
X157089772Y-82240579D01*
X157147514Y-82270000D01*
X157293196Y-82344229D01*
X157293198Y-82344229D01*
X157293201Y-82344231D01*
X157409592Y-82382049D01*
X157510339Y-82414784D01*
X157735838Y-82450500D01*
X157735843Y-82450500D01*
X159264162Y-82450500D01*
X159489660Y-82414784D01*
X159508831Y-82408555D01*
X159706799Y-82344231D01*
X159910228Y-82240579D01*
X160094937Y-82106379D01*
X160256379Y-81944937D01*
X160390579Y-81760228D01*
X160437467Y-81668205D01*
X160485442Y-81617409D01*
X160547952Y-81600500D01*
X168952048Y-81600500D01*
X169019087Y-81620185D01*
X169062533Y-81668205D01*
X169109421Y-81760228D01*
X169243621Y-81944937D01*
X169405063Y-82106379D01*
X169589772Y-82240579D01*
X169647514Y-82270000D01*
X169793196Y-82344229D01*
X169793198Y-82344229D01*
X169793201Y-82344231D01*
X169909592Y-82382049D01*
X170010339Y-82414784D01*
X170235838Y-82450500D01*
X170235843Y-82450500D01*
X171764162Y-82450500D01*
X171989660Y-82414784D01*
X172008831Y-82408555D01*
X172206799Y-82344231D01*
X172410228Y-82240579D01*
X172594937Y-82106379D01*
X172756379Y-81944937D01*
X172890579Y-81760228D01*
X172994231Y-81556799D01*
X173064784Y-81339660D01*
X173067047Y-81325375D01*
X173100500Y-81114162D01*
X173100500Y-80885837D01*
X173064784Y-80660339D01*
X173025905Y-80540683D01*
X173016850Y-80512817D01*
X173014856Y-80442978D01*
X173050936Y-80383145D01*
X173113637Y-80352316D01*
X173134782Y-80350500D01*
X178699903Y-80350500D01*
X178766942Y-80370185D01*
X178787584Y-80386819D01*
X179313083Y-80912318D01*
X179346568Y-80973641D01*
X179341584Y-81043333D01*
X179313083Y-81087680D01*
X173884397Y-86516366D01*
X173884390Y-86516373D01*
X173881286Y-86519478D01*
X173881284Y-86519480D01*
X173769480Y-86631284D01*
X173745087Y-86673535D01*
X173739152Y-86683815D01*
X173695186Y-86759966D01*
X173690423Y-86768215D01*
X173649499Y-86920943D01*
X173649499Y-86920945D01*
X173649499Y-87089046D01*
X173649500Y-87089059D01*
X173649500Y-92949902D01*
X173629815Y-93016941D01*
X173613181Y-93037583D01*
X172519481Y-94131282D01*
X172519477Y-94131287D01*
X172494690Y-94174223D01*
X172493941Y-94175520D01*
X172440423Y-94268215D01*
X172399499Y-94420943D01*
X172399499Y-94420945D01*
X172399499Y-94589046D01*
X172399500Y-94589059D01*
X172399500Y-95254091D01*
X172379815Y-95321130D01*
X172335731Y-95359641D01*
X172336813Y-95361395D01*
X172330667Y-95365185D01*
X172330666Y-95365186D01*
X172284564Y-95393622D01*
X172181342Y-95457289D01*
X172057289Y-95581342D01*
X171965187Y-95730663D01*
X171965185Y-95730668D01*
X171937405Y-95814504D01*
X171910001Y-95897203D01*
X171910001Y-95897204D01*
X171910000Y-95897204D01*
X171899500Y-95999983D01*
X171899500Y-97000001D01*
X171899501Y-97000019D01*
X171910000Y-97102796D01*
X171910001Y-97102799D01*
X171937665Y-97186282D01*
X171965186Y-97269334D01*
X172057288Y-97418656D01*
X172181344Y-97542712D01*
X172330666Y-97634814D01*
X172497203Y-97689999D01*
X172599991Y-97700500D01*
X173400008Y-97700499D01*
X173400016Y-97700498D01*
X173400019Y-97700498D01*
X173456302Y-97694748D01*
X173502797Y-97689999D01*
X173669334Y-97634814D01*
X173818656Y-97542712D01*
X173912319Y-97449049D01*
X173973642Y-97415564D01*
X174043334Y-97420548D01*
X174087681Y-97449049D01*
X174181344Y-97542712D01*
X174330666Y-97634814D01*
X174330667Y-97634814D01*
X174336813Y-97638605D01*
X174335706Y-97640399D01*
X174380337Y-97679687D01*
X174399500Y-97745908D01*
X174399500Y-98205164D01*
X174379815Y-98272203D01*
X174344391Y-98308266D01*
X174239710Y-98378210D01*
X174128213Y-98489707D01*
X174128210Y-98489711D01*
X174040609Y-98620814D01*
X174040602Y-98620827D01*
X173980264Y-98766498D01*
X173980261Y-98766510D01*
X173949500Y-98921153D01*
X173949500Y-99078846D01*
X173980261Y-99233489D01*
X173980264Y-99233501D01*
X174040602Y-99379172D01*
X174040609Y-99379185D01*
X174128210Y-99510288D01*
X174128213Y-99510292D01*
X174239707Y-99621786D01*
X174239711Y-99621789D01*
X174370814Y-99709390D01*
X174370827Y-99709397D01*
X174516498Y-99769735D01*
X174516503Y-99769737D01*
X174671153Y-99800499D01*
X174671156Y-99800500D01*
X174671158Y-99800500D01*
X174828844Y-99800500D01*
X174828845Y-99800499D01*
X174983497Y-99769737D01*
X175129179Y-99709394D01*
X175260289Y-99621789D01*
X175371789Y-99510289D01*
X175459394Y-99379179D01*
X175519737Y-99233497D01*
X175550500Y-99078842D01*
X175550500Y-99028362D01*
X175558167Y-98989822D01*
X175557473Y-98989636D01*
X175559971Y-98980313D01*
X175600500Y-98829057D01*
X175600500Y-97745908D01*
X175620185Y-97678869D01*
X175664271Y-97640363D01*
X175663187Y-97638605D01*
X175669332Y-97634814D01*
X175669334Y-97634814D01*
X175818656Y-97542712D01*
X175942712Y-97418656D01*
X176034814Y-97269334D01*
X176062595Y-97185495D01*
X176102368Y-97128051D01*
X176166884Y-97101228D01*
X176180301Y-97100500D01*
X180452048Y-97100500D01*
X180519087Y-97120185D01*
X180562533Y-97168205D01*
X180609421Y-97260228D01*
X180743621Y-97444937D01*
X180905063Y-97606379D01*
X181089772Y-97740579D01*
X181142443Y-97767416D01*
X181293196Y-97844229D01*
X181293198Y-97844229D01*
X181293201Y-97844231D01*
X181409592Y-97882049D01*
X181510339Y-97914784D01*
X181735838Y-97950500D01*
X181735843Y-97950500D01*
X183264162Y-97950500D01*
X183489660Y-97914784D01*
X183706799Y-97844231D01*
X183910228Y-97740579D01*
X184094937Y-97606379D01*
X184256379Y-97444937D01*
X184390579Y-97260228D01*
X184437467Y-97168205D01*
X184485442Y-97117409D01*
X184547952Y-97100500D01*
X192952048Y-97100500D01*
X193019087Y-97120185D01*
X193062533Y-97168205D01*
X193109421Y-97260228D01*
X193243621Y-97444937D01*
X193405063Y-97606379D01*
X193589772Y-97740579D01*
X193642443Y-97767416D01*
X193793196Y-97844229D01*
X193793198Y-97844229D01*
X193793201Y-97844231D01*
X193909592Y-97882049D01*
X194010339Y-97914784D01*
X194235838Y-97950500D01*
X194235843Y-97950500D01*
X195764162Y-97950500D01*
X195989660Y-97914784D01*
X196206799Y-97844231D01*
X196410228Y-97740579D01*
X196594937Y-97606379D01*
X196756379Y-97444937D01*
X196890579Y-97260228D01*
X196994231Y-97056799D01*
X197064784Y-96839660D01*
X197078153Y-96755251D01*
X197100500Y-96614162D01*
X197100500Y-96385837D01*
X197064784Y-96160339D01*
X197026564Y-96042712D01*
X196994231Y-95943201D01*
X196994229Y-95943198D01*
X196994229Y-95943196D01*
X196936433Y-95829765D01*
X196890579Y-95739772D01*
X196756379Y-95555063D01*
X196594937Y-95393621D01*
X196410228Y-95259421D01*
X196391738Y-95250000D01*
X196206803Y-95155770D01*
X195989660Y-95085215D01*
X195764162Y-95049500D01*
X195764157Y-95049500D01*
X194235843Y-95049500D01*
X194235838Y-95049500D01*
X194010339Y-95085215D01*
X193793196Y-95155770D01*
X193589771Y-95259421D01*
X193405061Y-95393622D01*
X193243622Y-95555061D01*
X193109421Y-95739771D01*
X193062533Y-95831795D01*
X193014558Y-95882591D01*
X192952048Y-95899500D01*
X184547952Y-95899500D01*
X184480913Y-95879815D01*
X184437467Y-95831795D01*
X184411880Y-95781578D01*
X184390579Y-95739772D01*
X184256379Y-95555063D01*
X184094937Y-95393621D01*
X183910228Y-95259421D01*
X183891738Y-95250000D01*
X183706803Y-95155770D01*
X183489660Y-95085215D01*
X183264162Y-95049500D01*
X183264157Y-95049500D01*
X181735843Y-95049500D01*
X181735838Y-95049500D01*
X181510339Y-95085215D01*
X181293196Y-95155770D01*
X181089771Y-95259421D01*
X180905061Y-95393622D01*
X180743622Y-95555061D01*
X180609421Y-95739771D01*
X180562533Y-95831795D01*
X180514558Y-95882591D01*
X180452048Y-95899500D01*
X176180301Y-95899500D01*
X176113262Y-95879815D01*
X176067507Y-95827011D01*
X176062595Y-95814504D01*
X176053674Y-95787583D01*
X176034814Y-95730666D01*
X175942712Y-95581344D01*
X175818656Y-95457288D01*
X175669334Y-95365186D01*
X175502797Y-95310001D01*
X175502795Y-95310000D01*
X175400010Y-95299500D01*
X174599998Y-95299500D01*
X174599980Y-95299501D01*
X174497203Y-95310000D01*
X174497200Y-95310001D01*
X174330668Y-95365185D01*
X174330663Y-95365187D01*
X174181342Y-95457289D01*
X174087681Y-95550951D01*
X174026358Y-95584436D01*
X173956666Y-95579452D01*
X173912319Y-95550951D01*
X173818657Y-95457289D01*
X173818656Y-95457288D01*
X173669334Y-95365186D01*
X173669332Y-95365185D01*
X173663187Y-95361395D01*
X173664290Y-95359605D01*
X173619649Y-95320290D01*
X173600500Y-95254091D01*
X173600500Y-94800096D01*
X173620185Y-94733057D01*
X173636814Y-94712419D01*
X174618713Y-93730521D01*
X174618716Y-93730520D01*
X174730520Y-93618716D01*
X174780639Y-93531904D01*
X174809577Y-93481785D01*
X174850501Y-93329057D01*
X174850501Y-93170943D01*
X174850501Y-93163348D01*
X174850500Y-93163330D01*
X174850500Y-87300097D01*
X174870185Y-87233058D01*
X174886819Y-87212416D01*
X176349235Y-85750000D01*
X205421522Y-85750000D01*
X206899999Y-85750000D01*
X206874979Y-85810402D01*
X206850000Y-85935981D01*
X206850000Y-86064019D01*
X206874979Y-86189598D01*
X206899999Y-86250000D01*
X205421522Y-86250000D01*
X205435704Y-86339544D01*
X205506230Y-86556604D01*
X205609849Y-86759966D01*
X205744004Y-86944614D01*
X205905385Y-87105995D01*
X206090033Y-87240150D01*
X206293395Y-87343769D01*
X206510455Y-87414295D01*
X206735884Y-87450000D01*
X207250000Y-87450000D01*
X207250000Y-86600001D01*
X207310402Y-86625021D01*
X207435981Y-86650000D01*
X207564019Y-86650000D01*
X207689598Y-86625021D01*
X207750000Y-86600001D01*
X207750000Y-87450000D01*
X208264116Y-87450000D01*
X208489544Y-87414295D01*
X208706604Y-87343769D01*
X208909966Y-87240150D01*
X209094614Y-87105995D01*
X209255995Y-86944614D01*
X209390150Y-86759966D01*
X209493769Y-86556604D01*
X209564295Y-86339544D01*
X209578478Y-86250000D01*
X208100001Y-86250000D01*
X208125021Y-86189598D01*
X208150000Y-86064019D01*
X208150000Y-85935981D01*
X208125021Y-85810402D01*
X208100001Y-85750000D01*
X209578478Y-85750000D01*
X217921522Y-85750000D01*
X219399999Y-85750000D01*
X219374979Y-85810402D01*
X219350000Y-85935981D01*
X219350000Y-86064019D01*
X219374979Y-86189598D01*
X219399999Y-86250000D01*
X217921522Y-86250000D01*
X217935704Y-86339544D01*
X218006230Y-86556604D01*
X218109849Y-86759966D01*
X218244004Y-86944614D01*
X218405385Y-87105995D01*
X218590033Y-87240150D01*
X218793395Y-87343769D01*
X219010455Y-87414295D01*
X219235884Y-87450000D01*
X219750000Y-87450000D01*
X219750000Y-86600001D01*
X219810402Y-86625021D01*
X219935981Y-86650000D01*
X220064019Y-86650000D01*
X220189598Y-86625021D01*
X220250000Y-86600001D01*
X220250000Y-87450000D01*
X220764116Y-87450000D01*
X220989544Y-87414295D01*
X221206604Y-87343769D01*
X221409966Y-87240150D01*
X221594614Y-87105995D01*
X221755995Y-86944614D01*
X221890150Y-86759966D01*
X221993769Y-86556604D01*
X222064295Y-86339544D01*
X222078478Y-86250000D01*
X220600001Y-86250000D01*
X220625021Y-86189598D01*
X220650000Y-86064019D01*
X220650000Y-85935981D01*
X220625021Y-85810402D01*
X220600001Y-85750000D01*
X222078478Y-85750000D01*
X222064295Y-85660455D01*
X221993769Y-85443395D01*
X221890150Y-85240033D01*
X221755995Y-85055385D01*
X221594614Y-84894004D01*
X221409966Y-84759849D01*
X221206604Y-84656230D01*
X220989544Y-84585704D01*
X220764116Y-84550000D01*
X220250000Y-84550000D01*
X220250000Y-85399998D01*
X220189598Y-85374979D01*
X220064019Y-85350000D01*
X219935981Y-85350000D01*
X219810402Y-85374979D01*
X219750000Y-85399998D01*
X219750000Y-84550000D01*
X219235884Y-84550000D01*
X219010455Y-84585704D01*
X218793395Y-84656230D01*
X218590033Y-84759849D01*
X218405385Y-84894004D01*
X218244004Y-85055385D01*
X218109849Y-85240033D01*
X218006230Y-85443395D01*
X217935704Y-85660455D01*
X217921522Y-85750000D01*
X209578478Y-85750000D01*
X209564295Y-85660455D01*
X209493769Y-85443395D01*
X209390150Y-85240033D01*
X209255995Y-85055385D01*
X209094614Y-84894004D01*
X208909966Y-84759849D01*
X208706604Y-84656230D01*
X208489544Y-84585704D01*
X208264116Y-84550000D01*
X207750000Y-84550000D01*
X207750000Y-85399998D01*
X207689598Y-85374979D01*
X207564019Y-85350000D01*
X207435981Y-85350000D01*
X207310402Y-85374979D01*
X207250000Y-85399998D01*
X207250000Y-84550000D01*
X206735884Y-84550000D01*
X206510455Y-84585704D01*
X206293395Y-84656230D01*
X206090033Y-84759849D01*
X205905385Y-84894004D01*
X205744004Y-85055385D01*
X205609849Y-85240033D01*
X205506230Y-85443395D01*
X205435704Y-85660455D01*
X205421522Y-85750000D01*
X176349235Y-85750000D01*
X180462416Y-81636819D01*
X180523739Y-81603334D01*
X180550097Y-81600500D01*
X199319699Y-81600500D01*
X199386738Y-81620185D01*
X199432493Y-81672989D01*
X199437403Y-81685492D01*
X199459199Y-81751265D01*
X199465185Y-81769331D01*
X199465187Y-81769336D01*
X199489087Y-81808084D01*
X199557288Y-81918656D01*
X199681344Y-82042712D01*
X199830666Y-82134814D01*
X199997203Y-82189999D01*
X200099991Y-82200500D01*
X200900008Y-82200499D01*
X200900016Y-82200498D01*
X200900019Y-82200498D01*
X200956302Y-82194748D01*
X201002797Y-82189999D01*
X201169334Y-82134814D01*
X201318656Y-82042712D01*
X201412319Y-81949049D01*
X201473642Y-81915564D01*
X201543334Y-81920548D01*
X201587681Y-81949049D01*
X201681344Y-82042712D01*
X201830666Y-82134814D01*
X201997203Y-82189999D01*
X202099991Y-82200500D01*
X202900008Y-82200499D01*
X202900016Y-82200498D01*
X202900019Y-82200498D01*
X202956302Y-82194748D01*
X203002797Y-82189999D01*
X203169334Y-82134814D01*
X203318656Y-82042712D01*
X203442712Y-81918656D01*
X203534814Y-81769334D01*
X203562595Y-81685495D01*
X203602368Y-81628051D01*
X203666884Y-81601228D01*
X203680301Y-81600500D01*
X205452048Y-81600500D01*
X205519087Y-81620185D01*
X205562533Y-81668205D01*
X205609421Y-81760228D01*
X205743621Y-81944937D01*
X205905063Y-82106379D01*
X206089772Y-82240579D01*
X206147514Y-82270000D01*
X206293196Y-82344229D01*
X206293198Y-82344229D01*
X206293201Y-82344231D01*
X206409592Y-82382049D01*
X206510339Y-82414784D01*
X206735838Y-82450500D01*
X206735843Y-82450500D01*
X208264162Y-82450500D01*
X208489660Y-82414784D01*
X208508831Y-82408555D01*
X208706799Y-82344231D01*
X208910228Y-82240579D01*
X209094937Y-82106379D01*
X209256379Y-81944937D01*
X209390579Y-81760228D01*
X209437467Y-81668205D01*
X209485442Y-81617409D01*
X209547952Y-81600500D01*
X217952048Y-81600500D01*
X218019087Y-81620185D01*
X218062533Y-81668205D01*
X218109421Y-81760228D01*
X218243621Y-81944937D01*
X218405063Y-82106379D01*
X218589772Y-82240579D01*
X218647514Y-82270000D01*
X218793196Y-82344229D01*
X218793198Y-82344229D01*
X218793201Y-82344231D01*
X218909592Y-82382049D01*
X219010339Y-82414784D01*
X219235838Y-82450500D01*
X219235843Y-82450500D01*
X220764162Y-82450500D01*
X220989660Y-82414784D01*
X221008831Y-82408555D01*
X221206799Y-82344231D01*
X221410228Y-82240579D01*
X221594937Y-82106379D01*
X221756379Y-81944937D01*
X221890579Y-81760228D01*
X221994231Y-81556799D01*
X222064784Y-81339660D01*
X222067047Y-81325375D01*
X222100500Y-81114162D01*
X222100500Y-80885837D01*
X222064784Y-80660339D01*
X222012683Y-80499991D01*
X221994231Y-80443201D01*
X221994229Y-80443198D01*
X221994229Y-80443196D01*
X221921011Y-80299499D01*
X221890579Y-80239772D01*
X221756379Y-80055063D01*
X221594937Y-79893621D01*
X221410228Y-79759421D01*
X221399767Y-79754091D01*
X221206803Y-79655770D01*
X220989660Y-79585215D01*
X220764162Y-79549500D01*
X220764157Y-79549500D01*
X219235843Y-79549500D01*
X219235838Y-79549500D01*
X219010339Y-79585215D01*
X218793196Y-79655770D01*
X218589771Y-79759421D01*
X218405061Y-79893622D01*
X218243622Y-80055061D01*
X218109421Y-80239771D01*
X218062533Y-80331795D01*
X218014558Y-80382591D01*
X217952048Y-80399500D01*
X209547952Y-80399500D01*
X209480913Y-80379815D01*
X209437467Y-80331795D01*
X209421011Y-80299499D01*
X209390579Y-80239772D01*
X209256379Y-80055063D01*
X209094937Y-79893621D01*
X208910228Y-79759421D01*
X208899767Y-79754091D01*
X208706803Y-79655770D01*
X208489660Y-79585215D01*
X208264162Y-79549500D01*
X208264157Y-79549500D01*
X206735843Y-79549500D01*
X206735838Y-79549500D01*
X206510339Y-79585215D01*
X206293196Y-79655770D01*
X206089771Y-79759421D01*
X205905061Y-79893622D01*
X205743622Y-80055061D01*
X205609421Y-80239771D01*
X205562533Y-80331795D01*
X205514558Y-80382591D01*
X205452048Y-80399500D01*
X203680301Y-80399500D01*
X203613262Y-80379815D01*
X203567507Y-80327011D01*
X203562595Y-80314504D01*
X203557623Y-80299499D01*
X203534814Y-80230666D01*
X203442712Y-80081344D01*
X203318656Y-79957288D01*
X203169334Y-79865186D01*
X203169332Y-79865185D01*
X203163187Y-79861395D01*
X203164290Y-79859605D01*
X203119649Y-79820290D01*
X203100500Y-79754091D01*
X203100500Y-79079765D01*
X203120185Y-79012726D01*
X203121398Y-79010874D01*
X203133214Y-78993191D01*
X203209394Y-78879179D01*
X203269737Y-78733497D01*
X203300500Y-78578842D01*
X203300500Y-78421158D01*
X203300500Y-78421155D01*
X203300499Y-78421153D01*
X203288013Y-78358383D01*
X203269737Y-78266503D01*
X203221636Y-78150375D01*
X203209397Y-78120827D01*
X203209390Y-78120814D01*
X203121789Y-77989711D01*
X203121786Y-77989707D01*
X203010292Y-77878213D01*
X203010288Y-77878210D01*
X202879185Y-77790609D01*
X202879172Y-77790602D01*
X202733501Y-77730264D01*
X202733489Y-77730261D01*
X202578845Y-77699500D01*
X202578842Y-77699500D01*
X202421158Y-77699500D01*
X202421155Y-77699500D01*
X202266510Y-77730261D01*
X202266498Y-77730264D01*
X202120827Y-77790602D01*
X202120814Y-77790609D01*
X201989711Y-77878210D01*
X201989707Y-77878213D01*
X201878213Y-77989707D01*
X201878210Y-77989711D01*
X201790609Y-78120814D01*
X201790602Y-78120827D01*
X201730264Y-78266498D01*
X201730261Y-78266510D01*
X201699500Y-78421153D01*
X201699500Y-78578846D01*
X201730261Y-78733489D01*
X201730264Y-78733501D01*
X201790602Y-78879172D01*
X201790609Y-78879185D01*
X201878602Y-79010874D01*
X201899480Y-79077551D01*
X201899500Y-79079765D01*
X201899500Y-79754091D01*
X201879815Y-79821130D01*
X201835731Y-79859641D01*
X201836813Y-79861395D01*
X201830667Y-79865185D01*
X201830666Y-79865186D01*
X201784564Y-79893622D01*
X201681342Y-79957289D01*
X201587681Y-80050951D01*
X201526358Y-80084436D01*
X201456666Y-80079452D01*
X201412319Y-80050951D01*
X201318657Y-79957289D01*
X201318656Y-79957288D01*
X201169334Y-79865186D01*
X201002797Y-79810001D01*
X201002795Y-79810000D01*
X200900010Y-79799500D01*
X200099998Y-79799500D01*
X200099980Y-79799501D01*
X199997203Y-79810000D01*
X199997200Y-79810001D01*
X199830668Y-79865185D01*
X199830663Y-79865187D01*
X199681342Y-79957289D01*
X199557289Y-80081342D01*
X199465187Y-80230663D01*
X199465185Y-80230668D01*
X199437405Y-80314504D01*
X199397632Y-80371949D01*
X199333116Y-80398772D01*
X199319699Y-80399500D01*
X180550097Y-80399500D01*
X180483058Y-80379815D01*
X180462416Y-80363181D01*
X179480521Y-79381286D01*
X179480520Y-79381284D01*
X179368716Y-79269480D01*
X179368713Y-79269478D01*
X175353032Y-75253797D01*
X175319547Y-75192474D01*
X175324531Y-75122782D01*
X175353032Y-75078435D01*
X177749967Y-72681500D01*
X180216619Y-70214848D01*
X180277938Y-70181366D01*
X180347630Y-70186350D01*
X180403563Y-70228222D01*
X180426769Y-70283133D01*
X180435704Y-70339544D01*
X180506230Y-70556604D01*
X180609849Y-70759966D01*
X180744004Y-70944614D01*
X180905385Y-71105995D01*
X181090033Y-71240150D01*
X181293395Y-71343769D01*
X181510455Y-71414295D01*
X181735884Y-71450000D01*
X182250000Y-71450000D01*
X182250000Y-70600001D01*
X182310402Y-70625021D01*
X182435981Y-70650000D01*
X182564019Y-70650000D01*
X182689598Y-70625021D01*
X182750000Y-70600001D01*
X182750000Y-71450000D01*
X183264116Y-71450000D01*
X183489544Y-71414295D01*
X183706604Y-71343769D01*
X183909966Y-71240150D01*
X184094614Y-71105995D01*
X184255995Y-70944614D01*
X184390150Y-70759966D01*
X184493769Y-70556604D01*
X184564295Y-70339544D01*
X184578478Y-70250000D01*
X183100001Y-70250000D01*
X183125021Y-70189598D01*
X183150000Y-70064019D01*
X183150000Y-69935981D01*
X183125021Y-69810402D01*
X183100001Y-69750000D01*
X184578478Y-69750000D01*
X184564295Y-69660456D01*
X184516325Y-69512818D01*
X184514330Y-69442977D01*
X184550410Y-69383144D01*
X184613111Y-69352316D01*
X184634256Y-69350500D01*
X192865744Y-69350500D01*
X192932783Y-69370185D01*
X192978538Y-69422989D01*
X192988482Y-69492147D01*
X192983675Y-69512818D01*
X192935704Y-69660456D01*
X192921522Y-69750000D01*
X194399999Y-69750000D01*
X194374979Y-69810402D01*
X194350000Y-69935981D01*
X194350000Y-70064019D01*
X194374979Y-70189598D01*
X194399999Y-70250000D01*
X192921522Y-70250000D01*
X192935704Y-70339544D01*
X193006230Y-70556604D01*
X193109849Y-70759966D01*
X193244004Y-70944614D01*
X193405385Y-71105995D01*
X193590033Y-71240150D01*
X193793395Y-71343769D01*
X194010455Y-71414295D01*
X194235884Y-71450000D01*
X194750000Y-71450000D01*
X194750000Y-70600001D01*
X194810402Y-70625021D01*
X194935981Y-70650000D01*
X195064019Y-70650000D01*
X195189598Y-70625021D01*
X195250000Y-70600001D01*
X195250000Y-71450000D01*
X195764116Y-71450000D01*
X195989544Y-71414295D01*
X196206604Y-71343769D01*
X196409966Y-71240150D01*
X196594614Y-71105995D01*
X196755995Y-70944614D01*
X196890150Y-70759966D01*
X196993769Y-70556604D01*
X197064295Y-70339544D01*
X197078478Y-70250000D01*
X195600001Y-70250000D01*
X195625021Y-70189598D01*
X195650000Y-70064019D01*
X195650000Y-69935981D01*
X195625021Y-69810402D01*
X195600001Y-69750000D01*
X197078478Y-69750000D01*
X197064295Y-69660456D01*
X197016325Y-69512818D01*
X197014330Y-69442977D01*
X197050410Y-69383144D01*
X197113111Y-69352316D01*
X197134256Y-69350500D01*
X218265589Y-69350500D01*
X218332628Y-69370185D01*
X218353270Y-69386819D01*
X226363181Y-77396730D01*
X226396666Y-77458053D01*
X226399500Y-77484411D01*
X226399500Y-98699903D01*
X226379815Y-98766942D01*
X226363181Y-98787584D01*
X218387584Y-106763181D01*
X218326261Y-106796666D01*
X218299903Y-106799500D01*
X122116259Y-106799500D01*
X122049220Y-106779815D01*
X122003465Y-106727011D01*
X122001698Y-106722952D01*
X121959397Y-106620827D01*
X121959390Y-106620814D01*
X121871789Y-106489711D01*
X121871786Y-106489707D01*
X121760292Y-106378213D01*
X121760288Y-106378210D01*
X121629185Y-106290609D01*
X121629172Y-106290602D01*
X121483501Y-106230264D01*
X121483489Y-106230261D01*
X121328845Y-106199500D01*
X121328842Y-106199500D01*
X121171158Y-106199500D01*
X121171155Y-106199500D01*
X121016510Y-106230261D01*
X121016498Y-106230264D01*
X120870827Y-106290602D01*
X120870814Y-106290609D01*
X120739711Y-106378210D01*
X120739707Y-106378213D01*
X120628213Y-106489707D01*
X120628210Y-106489711D01*
X120540609Y-106620814D01*
X120540602Y-106620827D01*
X120480264Y-106766498D01*
X120480261Y-106766510D01*
X120449500Y-106921153D01*
X120449500Y-107078846D01*
X120480261Y-107233489D01*
X120480264Y-107233501D01*
X120540602Y-107379172D01*
X120540609Y-107379185D01*
X120628210Y-107510288D01*
X120628213Y-107510292D01*
X120739707Y-107621786D01*
X120739711Y-107621789D01*
X120870814Y-107709390D01*
X120870827Y-107709397D01*
X120989391Y-107758507D01*
X121016503Y-107769737D01*
X121171158Y-107800500D01*
X121171847Y-107800637D01*
X121233758Y-107833022D01*
X121235337Y-107834573D01*
X121281284Y-107880520D01*
X121281286Y-107880521D01*
X121281290Y-107880524D01*
X121418209Y-107959573D01*
X121418216Y-107959577D01*
X121530019Y-107989534D01*
X121570942Y-108000500D01*
X121570943Y-108000500D01*
X218513331Y-108000500D01*
X218513347Y-108000501D01*
X218520943Y-108000501D01*
X218679054Y-108000501D01*
X218679057Y-108000501D01*
X218831785Y-107959577D01*
X218881904Y-107930639D01*
X218968716Y-107880520D01*
X219080520Y-107768716D01*
X219080520Y-107768714D01*
X219090728Y-107758507D01*
X219090730Y-107758504D01*
X227358506Y-99490728D01*
X227358511Y-99490724D01*
X227368714Y-99480520D01*
X227368716Y-99480520D01*
X227480520Y-99368716D01*
X227537665Y-99269737D01*
X227559577Y-99231785D01*
X227600501Y-99079057D01*
X227600501Y-98920943D01*
X227600501Y-98913348D01*
X227600500Y-98913330D01*
X227600500Y-77105259D01*
X227600500Y-77105257D01*
X227559577Y-76952530D01*
X227559577Y-76952529D01*
X227559577Y-76952528D01*
X227530639Y-76902409D01*
X227530637Y-76902406D01*
X227480520Y-76815598D01*
X227368716Y-76703794D01*
X227368715Y-76703793D01*
X227364385Y-76699463D01*
X227364374Y-76699453D01*
X219053276Y-68388355D01*
X219053274Y-68388352D01*
X218934403Y-68269481D01*
X218934402Y-68269480D01*
X218847590Y-68219360D01*
X218847590Y-68219359D01*
X218847586Y-68219358D01*
X218797471Y-68190423D01*
X218644743Y-68149499D01*
X218486629Y-68149499D01*
X218479033Y-68149499D01*
X218479017Y-68149500D01*
X180911290Y-68149500D01*
X180753176Y-68149500D01*
X180600448Y-68190423D01*
X180600447Y-68190423D01*
X180600445Y-68190424D01*
X180600442Y-68190425D01*
X180550329Y-68219359D01*
X180550328Y-68219360D01*
X180514483Y-68240055D01*
X180463518Y-68269479D01*
X180463515Y-68269481D01*
X174503797Y-74229200D01*
X174442474Y-74262685D01*
X174372782Y-74257701D01*
X174328435Y-74229200D01*
X173636819Y-73537584D01*
X173603334Y-73476261D01*
X173600500Y-73449903D01*
X173600500Y-65503439D01*
X173620185Y-65436400D01*
X173672989Y-65390645D01*
X173742147Y-65380701D01*
X173805703Y-65409726D01*
X173827602Y-65434548D01*
X173878210Y-65510288D01*
X173878213Y-65510292D01*
X173989707Y-65621786D01*
X173989711Y-65621789D01*
X174120814Y-65709390D01*
X174120827Y-65709397D01*
X174266498Y-65769735D01*
X174266503Y-65769737D01*
X174421153Y-65800499D01*
X174421156Y-65800500D01*
X174421158Y-65800500D01*
X174578844Y-65800500D01*
X174578845Y-65800499D01*
X174733497Y-65769737D01*
X174879179Y-65709394D01*
X174940823Y-65668205D01*
X175010875Y-65621398D01*
X175077553Y-65600520D01*
X175079766Y-65600500D01*
X175254092Y-65600500D01*
X175321131Y-65620185D01*
X175359636Y-65664271D01*
X175361395Y-65663187D01*
X175365185Y-65669332D01*
X175365186Y-65669334D01*
X175457288Y-65818656D01*
X175581344Y-65942712D01*
X175730666Y-66034814D01*
X175897203Y-66089999D01*
X175999991Y-66100500D01*
X177000008Y-66100499D01*
X177000016Y-66100498D01*
X177000019Y-66100498D01*
X177056302Y-66094748D01*
X177102797Y-66089999D01*
X177269334Y-66034814D01*
X177418656Y-65942712D01*
X177542712Y-65818656D01*
X177634814Y-65669334D01*
X177634814Y-65669332D01*
X177638605Y-65663187D01*
X177640399Y-65664293D01*
X177679687Y-65619663D01*
X177745908Y-65600500D01*
X180452048Y-65600500D01*
X180519087Y-65620185D01*
X180562533Y-65668205D01*
X180609421Y-65760228D01*
X180743621Y-65944937D01*
X180905063Y-66106379D01*
X181089772Y-66240579D01*
X181185884Y-66289550D01*
X181293196Y-66344229D01*
X181293198Y-66344229D01*
X181293201Y-66344231D01*
X181409592Y-66382049D01*
X181510339Y-66414784D01*
X181735838Y-66450500D01*
X181735843Y-66450500D01*
X183264162Y-66450500D01*
X183489660Y-66414784D01*
X183706799Y-66344231D01*
X183910228Y-66240579D01*
X184094937Y-66106379D01*
X184256379Y-65944937D01*
X184390579Y-65760228D01*
X184437467Y-65668205D01*
X184485442Y-65617409D01*
X184547952Y-65600500D01*
X192952048Y-65600500D01*
X193019087Y-65620185D01*
X193062533Y-65668205D01*
X193109421Y-65760228D01*
X193243621Y-65944937D01*
X193405063Y-66106379D01*
X193589772Y-66240579D01*
X193685884Y-66289550D01*
X193793196Y-66344229D01*
X193793198Y-66344229D01*
X193793201Y-66344231D01*
X193909592Y-66382049D01*
X194010339Y-66414784D01*
X194235838Y-66450500D01*
X194235843Y-66450500D01*
X195764162Y-66450500D01*
X195989660Y-66414784D01*
X196206799Y-66344231D01*
X196410228Y-66240579D01*
X196594937Y-66106379D01*
X196756379Y-65944937D01*
X196890579Y-65760228D01*
X196994231Y-65556799D01*
X197064784Y-65339660D01*
X197073895Y-65282137D01*
X197100500Y-65114162D01*
X197100500Y-64885837D01*
X197064784Y-64660339D01*
X197032049Y-64559592D01*
X196994231Y-64443201D01*
X196994229Y-64443198D01*
X196994229Y-64443196D01*
X196927143Y-64311534D01*
X196890579Y-64239772D01*
X196756379Y-64055063D01*
X196594937Y-63893621D01*
X196410228Y-63759421D01*
X196387746Y-63747966D01*
X196206803Y-63655770D01*
X195989660Y-63585215D01*
X195764162Y-63549500D01*
X195764157Y-63549500D01*
X194235843Y-63549500D01*
X194235838Y-63549500D01*
X194010339Y-63585215D01*
X193793196Y-63655770D01*
X193589771Y-63759421D01*
X193405061Y-63893622D01*
X193243622Y-64055061D01*
X193109421Y-64239771D01*
X193062533Y-64331795D01*
X193014558Y-64382591D01*
X192952048Y-64399500D01*
X184547952Y-64399500D01*
X184480913Y-64379815D01*
X184437467Y-64331795D01*
X184423099Y-64303598D01*
X184390579Y-64239772D01*
X184256379Y-64055063D01*
X184094937Y-63893621D01*
X183910228Y-63759421D01*
X183887746Y-63747966D01*
X183706803Y-63655770D01*
X183489660Y-63585215D01*
X183264162Y-63549500D01*
X183264157Y-63549500D01*
X181735843Y-63549500D01*
X181735838Y-63549500D01*
X181510339Y-63585215D01*
X181293196Y-63655770D01*
X181089771Y-63759421D01*
X180905061Y-63893622D01*
X180743622Y-64055061D01*
X180609421Y-64239771D01*
X180562533Y-64331795D01*
X180514558Y-64382591D01*
X180452048Y-64399500D01*
X177745908Y-64399500D01*
X177678869Y-64379815D01*
X177640363Y-64335728D01*
X177638605Y-64336813D01*
X177634814Y-64330666D01*
X177542712Y-64181344D01*
X177449049Y-64087681D01*
X177415564Y-64026358D01*
X177420548Y-63956666D01*
X177449049Y-63912319D01*
X177482196Y-63879172D01*
X177542712Y-63818656D01*
X177634814Y-63669334D01*
X177689999Y-63502797D01*
X177700500Y-63400009D01*
X177700499Y-62599992D01*
X177689999Y-62497203D01*
X177634814Y-62330666D01*
X177542712Y-62181344D01*
X177418656Y-62057288D01*
X177269334Y-61965186D01*
X177102797Y-61910001D01*
X177102795Y-61910000D01*
X177000010Y-61899500D01*
X175999998Y-61899500D01*
X175999980Y-61899501D01*
X175897203Y-61910000D01*
X175897200Y-61910001D01*
X175730668Y-61965185D01*
X175730663Y-61965187D01*
X175581342Y-62057289D01*
X175457289Y-62181342D01*
X175361395Y-62336813D01*
X175359600Y-62335706D01*
X175320313Y-62380337D01*
X175254092Y-62399500D01*
X144300097Y-62399500D01*
X144233058Y-62379815D01*
X144212416Y-62363181D01*
X143627840Y-61778605D01*
X143627838Y-61778602D01*
X143508967Y-61659731D01*
X143508959Y-61659725D01*
X143406377Y-61600500D01*
X143372038Y-61580674D01*
X143372037Y-61580673D01*
X143309670Y-61563962D01*
X143219307Y-61539749D01*
X143061193Y-61539749D01*
X143053597Y-61539749D01*
X143053581Y-61539750D01*
X135149890Y-61539750D01*
X135082851Y-61520065D01*
X135037096Y-61467261D01*
X135030676Y-61449867D01*
X134978409Y-61267201D01*
X134884198Y-61086843D01*
X134771161Y-60948214D01*
X134744052Y-60883818D01*
X134756061Y-60814988D01*
X134771162Y-60791491D01*
X134883778Y-60653380D01*
X134977942Y-60473111D01*
X135033890Y-60277578D01*
X135033891Y-60277575D01*
X135044499Y-60158250D01*
X135044500Y-60158248D01*
X135044500Y-59042252D01*
X135044499Y-59042249D01*
X135033891Y-58922924D01*
X135033890Y-58922921D01*
X134977942Y-58727388D01*
X134883778Y-58547120D01*
X134771161Y-58409007D01*
X134744052Y-58344611D01*
X134756061Y-58275781D01*
X134771158Y-58252289D01*
X134884198Y-58113657D01*
X134978409Y-57933299D01*
X135034386Y-57737668D01*
X135045000Y-57618287D01*
X135044999Y-56502214D01*
X135034386Y-56382832D01*
X134978409Y-56187201D01*
X134884198Y-56006843D01*
X134832184Y-55943053D01*
X134755609Y-55849140D01*
X134597909Y-55720554D01*
X134597910Y-55720554D01*
X134597907Y-55720552D01*
X134417549Y-55626341D01*
X134417548Y-55626340D01*
X134417545Y-55626339D01*
X134300329Y-55592800D01*
X134221918Y-55570364D01*
X134221915Y-55570363D01*
X134221913Y-55570363D01*
X134155602Y-55564467D01*
X134102537Y-55559750D01*
X134102532Y-55559750D01*
X132236471Y-55559750D01*
X132236465Y-55559750D01*
X132236464Y-55559751D01*
X132224816Y-55560786D01*
X132117084Y-55570363D01*
X131921454Y-55626339D01*
X131911984Y-55631286D01*
X131741093Y-55720552D01*
X131741091Y-55720553D01*
X131741090Y-55720554D01*
X131583390Y-55849140D01*
X131454804Y-56006840D01*
X131360589Y-56187204D01*
X131337048Y-56269480D01*
X131305478Y-56379815D01*
X131304614Y-56382833D01*
X131304613Y-56382836D01*
X131294000Y-56502216D01*
X131294000Y-57618278D01*
X131294000Y-57618283D01*
X131294001Y-57618286D01*
X131296071Y-57641580D01*
X131304613Y-57737665D01*
X131360589Y-57933295D01*
X131360590Y-57933296D01*
X131360591Y-57933299D01*
X131454802Y-58113657D01*
X131470850Y-58133338D01*
X131567838Y-58252285D01*
X131594947Y-58316682D01*
X131582938Y-58385511D01*
X131567838Y-58409007D01*
X131455221Y-58547120D01*
X131361057Y-58727388D01*
X131305109Y-58922921D01*
X131305108Y-58922924D01*
X131294500Y-59042249D01*
X131294500Y-60158250D01*
X131305108Y-60277575D01*
X131305109Y-60277578D01*
X131361057Y-60473111D01*
X131455221Y-60653379D01*
X131567838Y-60791492D01*
X131594947Y-60855888D01*
X131582938Y-60924718D01*
X131567838Y-60948213D01*
X131454805Y-61086837D01*
X131360589Y-61267204D01*
X131328552Y-61379172D01*
X131308326Y-61449861D01*
X131304614Y-61462833D01*
X131304613Y-61462836D01*
X131294000Y-61582216D01*
X131294000Y-62698278D01*
X131294001Y-62698284D01*
X131304613Y-62817665D01*
X131360589Y-63013295D01*
X131360590Y-63013298D01*
X131360591Y-63013299D01*
X131454802Y-63193657D01*
X131478736Y-63223010D01*
X131567515Y-63331889D01*
X131594624Y-63396286D01*
X131582615Y-63465115D01*
X131567515Y-63488611D01*
X131456115Y-63625233D01*
X131454802Y-63626843D01*
X131426426Y-63681166D01*
X131360589Y-63807204D01*
X131327984Y-63921158D01*
X131305425Y-64000000D01*
X131304614Y-64002833D01*
X131304613Y-64002836D01*
X131294000Y-64122216D01*
X131294000Y-65238278D01*
X131294001Y-65238284D01*
X131304613Y-65357665D01*
X131360589Y-65553295D01*
X131360590Y-65553298D01*
X131360591Y-65553299D01*
X131454802Y-65733657D01*
X131484222Y-65769738D01*
X131567515Y-65871889D01*
X131594624Y-65936286D01*
X131582615Y-66005115D01*
X131567515Y-66028611D01*
X131454804Y-66166840D01*
X131360589Y-66347204D01*
X131331033Y-66450500D01*
X131305687Y-66539084D01*
X131304614Y-66542833D01*
X131304613Y-66542836D01*
X131294000Y-66662216D01*
X131294000Y-67778278D01*
X131294001Y-67778284D01*
X131304613Y-67897665D01*
X131359782Y-68090473D01*
X131359299Y-68160341D01*
X131328247Y-68212265D01*
X129350786Y-70189728D01*
X129238981Y-70301532D01*
X129238980Y-70301534D01*
X129201042Y-70367245D01*
X129159923Y-70438465D01*
X129118999Y-70591193D01*
X129118999Y-70591195D01*
X129118999Y-70759296D01*
X129119000Y-70759309D01*
X129119000Y-72042650D01*
X129099315Y-72109689D01*
X129046511Y-72155444D01*
X128995000Y-72166650D01*
X128550941Y-72166650D01*
X128420851Y-72181307D01*
X128420841Y-72181309D01*
X128255895Y-72239027D01*
X128107923Y-72332003D01*
X127984353Y-72455573D01*
X127891377Y-72603545D01*
X127841541Y-72745967D01*
X127800819Y-72802743D01*
X127735866Y-72828490D01*
X127667305Y-72815033D01*
X127616902Y-72766646D01*
X127600500Y-72705012D01*
X127600500Y-64079765D01*
X127620185Y-64012726D01*
X127621398Y-64010874D01*
X127635439Y-63989861D01*
X127709394Y-63879179D01*
X127769737Y-63733497D01*
X127800500Y-63578842D01*
X127800500Y-63421158D01*
X127800500Y-63421155D01*
X127800499Y-63421153D01*
X127794029Y-63388628D01*
X127769737Y-63266503D01*
X127769735Y-63266498D01*
X127709397Y-63120827D01*
X127709390Y-63120814D01*
X127621789Y-62989711D01*
X127621786Y-62989707D01*
X127510292Y-62878213D01*
X127510288Y-62878210D01*
X127379185Y-62790609D01*
X127379172Y-62790602D01*
X127233501Y-62730264D01*
X127233489Y-62730261D01*
X127078845Y-62699500D01*
X127078842Y-62699500D01*
X126921158Y-62699500D01*
X126921155Y-62699500D01*
X126766510Y-62730261D01*
X126766498Y-62730264D01*
X126620827Y-62790602D01*
X126620814Y-62790609D01*
X126489711Y-62878210D01*
X126489707Y-62878213D01*
X126378213Y-62989707D01*
X126378210Y-62989711D01*
X126290609Y-63120814D01*
X126290602Y-63120827D01*
X126230264Y-63266498D01*
X126230261Y-63266510D01*
X126199500Y-63421153D01*
X126199500Y-63578846D01*
X126230261Y-63733489D01*
X126230264Y-63733501D01*
X126290602Y-63879172D01*
X126290609Y-63879185D01*
X126378602Y-64010874D01*
X126399480Y-64077551D01*
X126399500Y-64079765D01*
X126399500Y-80175499D01*
X126379815Y-80242538D01*
X126327011Y-80288293D01*
X126275501Y-80299499D01*
X126169472Y-80299499D01*
X126169468Y-80299499D01*
X126161861Y-80299500D01*
X126161860Y-80299499D01*
X126161860Y-80299500D01*
X125724500Y-80299500D01*
X125657461Y-80279815D01*
X125611706Y-80227011D01*
X125600500Y-80175500D01*
X125600500Y-64579765D01*
X125620185Y-64512726D01*
X125621398Y-64510874D01*
X125709390Y-64379185D01*
X125709390Y-64379184D01*
X125709394Y-64379179D01*
X125769737Y-64233497D01*
X125800500Y-64078842D01*
X125800500Y-63921158D01*
X125800500Y-63921155D01*
X125800499Y-63921153D01*
X125795023Y-63893622D01*
X125769737Y-63766503D01*
X125731003Y-63672989D01*
X125709397Y-63620827D01*
X125709390Y-63620814D01*
X125621789Y-63489711D01*
X125621786Y-63489707D01*
X125510292Y-63378213D01*
X125510288Y-63378210D01*
X125379185Y-63290609D01*
X125379172Y-63290602D01*
X125233501Y-63230264D01*
X125233489Y-63230261D01*
X125078845Y-63199500D01*
X125078842Y-63199500D01*
X124921158Y-63199500D01*
X124921155Y-63199500D01*
X124766510Y-63230261D01*
X124766498Y-63230264D01*
X124620827Y-63290602D01*
X124620814Y-63290609D01*
X124489711Y-63378210D01*
X124489707Y-63378213D01*
X124378213Y-63489707D01*
X124378210Y-63489711D01*
X124290609Y-63620814D01*
X124290602Y-63620827D01*
X124230264Y-63766498D01*
X124230261Y-63766510D01*
X124199500Y-63921153D01*
X124199500Y-64078846D01*
X124230261Y-64233489D01*
X124230264Y-64233501D01*
X124290602Y-64379172D01*
X124290609Y-64379185D01*
X124378602Y-64510874D01*
X124399480Y-64577551D01*
X124399500Y-64579765D01*
X124399500Y-67003153D01*
X124379815Y-67070192D01*
X124327011Y-67115947D01*
X124257853Y-67125891D01*
X124194297Y-67096866D01*
X124187819Y-67090834D01*
X122279473Y-65182488D01*
X122245988Y-65121165D01*
X122250972Y-65051473D01*
X122262161Y-65028834D01*
X122292619Y-64980360D01*
X122292622Y-64980356D01*
X122350341Y-64815407D01*
X122365000Y-64685302D01*
X122365000Y-64048198D01*
X122350341Y-63918093D01*
X122292622Y-63753144D01*
X122199647Y-63605174D01*
X122096050Y-63501577D01*
X122062565Y-63440254D01*
X122067549Y-63370562D01*
X122096050Y-63326214D01*
X122199254Y-63223010D01*
X122292169Y-63075136D01*
X122349851Y-62910289D01*
X122364499Y-62780280D01*
X122364500Y-62780276D01*
X122364500Y-62143223D01*
X122364499Y-62143219D01*
X122349851Y-62013210D01*
X122292169Y-61848363D01*
X122199253Y-61700487D01*
X122075762Y-61576996D01*
X121938839Y-61490962D01*
X121004372Y-62425431D01*
X120943049Y-62458916D01*
X120916691Y-62461750D01*
X120312309Y-62461750D01*
X120245270Y-62442065D01*
X120224628Y-62425431D01*
X119290159Y-61490962D01*
X119153241Y-61576993D01*
X119089570Y-61640664D01*
X119028246Y-61674148D01*
X118958555Y-61669163D01*
X118902621Y-61627292D01*
X118878376Y-61563962D01*
X118876100Y-61538363D01*
X118869386Y-61462832D01*
X118854770Y-61411750D01*
X119918052Y-61411750D01*
X120614500Y-62108197D01*
X121310947Y-61411750D01*
X119918052Y-61411750D01*
X118854770Y-61411750D01*
X118813409Y-61267201D01*
X118719198Y-61086843D01*
X118606483Y-60948609D01*
X118579375Y-60884215D01*
X118591384Y-60815385D01*
X118606481Y-60791892D01*
X118719198Y-60653657D01*
X118813409Y-60473299D01*
X118869386Y-60277668D01*
X118880000Y-60158287D01*
X118879999Y-59042214D01*
X118869386Y-58922832D01*
X118813409Y-58727201D01*
X118719198Y-58546843D01*
X118606483Y-58408609D01*
X118579375Y-58344215D01*
X118591384Y-58275385D01*
X118606481Y-58251892D01*
X118719198Y-58113657D01*
X118813409Y-57933299D01*
X118816884Y-57921153D01*
X120199500Y-57921153D01*
X120199500Y-58078846D01*
X120230261Y-58233489D01*
X120230264Y-58233501D01*
X120290602Y-58379172D01*
X120290609Y-58379185D01*
X120378210Y-58510288D01*
X120378213Y-58510292D01*
X120489707Y-58621786D01*
X120489711Y-58621789D01*
X120620814Y-58709390D01*
X120620827Y-58709397D01*
X120738254Y-58758036D01*
X120766503Y-58769737D01*
X120921153Y-58800499D01*
X120921156Y-58800500D01*
X120921158Y-58800500D01*
X121078844Y-58800500D01*
X121078845Y-58800499D01*
X121233497Y-58769737D01*
X121379179Y-58709394D01*
X121510289Y-58621789D01*
X121621789Y-58510289D01*
X121709394Y-58379179D01*
X121769737Y-58233497D01*
X121800500Y-58078842D01*
X121800500Y-57921158D01*
X121800500Y-57921155D01*
X121800499Y-57921153D01*
X121769738Y-57766510D01*
X121769737Y-57766503D01*
X121757793Y-57737667D01*
X121709397Y-57620827D01*
X121709390Y-57620814D01*
X121621398Y-57489125D01*
X121600520Y-57422447D01*
X121600500Y-57420234D01*
X121600500Y-57050097D01*
X121620185Y-56983058D01*
X121636819Y-56962416D01*
X121962416Y-56636819D01*
X122023739Y-56603334D01*
X122050097Y-56600500D01*
X122163331Y-56600500D01*
X122163347Y-56600501D01*
X122170943Y-56600501D01*
X122329054Y-56600501D01*
X122329057Y-56600501D01*
X122402562Y-56580805D01*
X122472409Y-56582468D01*
X122530271Y-56621630D01*
X122545138Y-56644285D01*
X122595264Y-56742661D01*
X122629707Y-56810260D01*
X122634451Y-56819569D01*
X122759390Y-56991536D01*
X122909713Y-57141859D01*
X123081682Y-57266800D01*
X123090446Y-57271266D01*
X123141242Y-57319241D01*
X123158036Y-57387062D01*
X123135498Y-57453197D01*
X123090446Y-57492234D01*
X123081682Y-57496699D01*
X122909713Y-57621640D01*
X122759390Y-57771963D01*
X122634451Y-57943929D01*
X122537944Y-58133335D01*
X122472253Y-58335510D01*
X122439000Y-58545463D01*
X122439000Y-58758036D01*
X122465115Y-58922924D01*
X122472254Y-58967993D01*
X122526661Y-59135441D01*
X122537944Y-59170164D01*
X122634451Y-59359570D01*
X122759390Y-59531536D01*
X122909713Y-59681859D01*
X123081679Y-59806798D01*
X123081681Y-59806799D01*
X123081684Y-59806801D01*
X123271088Y-59903307D01*
X123473257Y-59968996D01*
X123683213Y-60002250D01*
X123683214Y-60002250D01*
X123895786Y-60002250D01*
X123895787Y-60002250D01*
X124105743Y-59968996D01*
X124148023Y-59955257D01*
X124217862Y-59953261D01*
X124274022Y-59985507D01*
X125163181Y-60874666D01*
X125196666Y-60935989D01*
X125199500Y-60962347D01*
X125199500Y-61078846D01*
X125230261Y-61233489D01*
X125230264Y-61233501D01*
X125290602Y-61379172D01*
X125290609Y-61379185D01*
X125378210Y-61510288D01*
X125378213Y-61510292D01*
X125489707Y-61621786D01*
X125489711Y-61621789D01*
X125620814Y-61709390D01*
X125620827Y-61709397D01*
X125766498Y-61769735D01*
X125766503Y-61769737D01*
X125921153Y-61800499D01*
X125921156Y-61800500D01*
X125921158Y-61800500D01*
X126078844Y-61800500D01*
X126078845Y-61800499D01*
X126233497Y-61769737D01*
X126379179Y-61709394D01*
X126510289Y-61621789D01*
X126621789Y-61510289D01*
X126709394Y-61379179D01*
X126769737Y-61233497D01*
X126786422Y-61149617D01*
X126818806Y-61087706D01*
X126879522Y-61053132D01*
X126915066Y-61050748D01*
X126915066Y-61050500D01*
X126918774Y-61050500D01*
X126920191Y-61050405D01*
X126921156Y-61050500D01*
X126921158Y-61050500D01*
X127078844Y-61050500D01*
X127078845Y-61050499D01*
X127233497Y-61019737D01*
X127379179Y-60959394D01*
X127510289Y-60871789D01*
X127621789Y-60760289D01*
X127709394Y-60629179D01*
X127769737Y-60483497D01*
X127800500Y-60328842D01*
X127800500Y-60171158D01*
X127800500Y-60171155D01*
X127800499Y-60171153D01*
X127769738Y-60016510D01*
X127769737Y-60016503D01*
X127738640Y-59941428D01*
X127709397Y-59870827D01*
X127709390Y-59870814D01*
X127621398Y-59739125D01*
X127600520Y-59672447D01*
X127600500Y-59670234D01*
X127600500Y-59243193D01*
X127597037Y-59230268D01*
X127597035Y-59230261D01*
X127590495Y-59205853D01*
X127592156Y-59136006D01*
X127592270Y-59135651D01*
X127646746Y-58967993D01*
X127680000Y-58758037D01*
X127680000Y-58545463D01*
X127646746Y-58335507D01*
X127581057Y-58133338D01*
X127484551Y-57943934D01*
X127484549Y-57943931D01*
X127484548Y-57943929D01*
X127359609Y-57771963D01*
X127209286Y-57621640D01*
X127037317Y-57496699D01*
X127028004Y-57491954D01*
X126977207Y-57443980D01*
X126960412Y-57376159D01*
X126982949Y-57310024D01*
X127028007Y-57270982D01*
X127037055Y-57266372D01*
X127091216Y-57227020D01*
X127091217Y-57227020D01*
X126329500Y-56465304D01*
X125567782Y-57227019D01*
X125567782Y-57227020D01*
X125621952Y-57266376D01*
X125621951Y-57266376D01*
X125630995Y-57270984D01*
X125681792Y-57318958D01*
X125698587Y-57386779D01*
X125676050Y-57452914D01*
X125630999Y-57491952D01*
X125621682Y-57496699D01*
X125449713Y-57621640D01*
X125299390Y-57771963D01*
X125174449Y-57943932D01*
X125169984Y-57952696D01*
X125122009Y-58003492D01*
X125054188Y-58020286D01*
X124988053Y-57997748D01*
X124949016Y-57952696D01*
X124944550Y-57943932D01*
X124819609Y-57771963D01*
X124669286Y-57621640D01*
X124497320Y-57496701D01*
X124496615Y-57496341D01*
X124488554Y-57492235D01*
X124437759Y-57444262D01*
X124420963Y-57376442D01*
X124443499Y-57310306D01*
X124488554Y-57271265D01*
X124497316Y-57266801D01*
X124552072Y-57227019D01*
X124669286Y-57141859D01*
X124669288Y-57141856D01*
X124669292Y-57141854D01*
X124819604Y-56991542D01*
X124819606Y-56991538D01*
X124819609Y-56991536D01*
X124905390Y-56873467D01*
X124944551Y-56819566D01*
X124949293Y-56810258D01*
X124997263Y-56759461D01*
X125065083Y-56742661D01*
X125131219Y-56765195D01*
X125170263Y-56810250D01*
X125174873Y-56819297D01*
X125214228Y-56873466D01*
X125975946Y-56111750D01*
X125975945Y-56111749D01*
X126683054Y-56111749D01*
X126683054Y-56111751D01*
X127444770Y-56873467D01*
X127444770Y-56873466D01*
X127484122Y-56819304D01*
X127580595Y-56629967D01*
X127646257Y-56427880D01*
X127646257Y-56427877D01*
X127679500Y-56217996D01*
X127679500Y-56005503D01*
X127646257Y-55795622D01*
X127646257Y-55795619D01*
X127580595Y-55593532D01*
X127484124Y-55404199D01*
X127444770Y-55350032D01*
X127444769Y-55350032D01*
X126683054Y-56111749D01*
X125975945Y-56111749D01*
X125214228Y-55350032D01*
X125214227Y-55350032D01*
X125174880Y-55404190D01*
X125174876Y-55404196D01*
X125170260Y-55413255D01*
X125122281Y-55464047D01*
X125054459Y-55480837D01*
X124988326Y-55458293D01*
X124949294Y-55413243D01*
X124944551Y-55403934D01*
X124944549Y-55403931D01*
X124944548Y-55403929D01*
X124819609Y-55231963D01*
X124669286Y-55081640D01*
X124552068Y-54996477D01*
X125567782Y-54996477D01*
X125567782Y-54996478D01*
X126329500Y-55758196D01*
X126329501Y-55758196D01*
X127091216Y-54996478D01*
X127037050Y-54957125D01*
X126847717Y-54860654D01*
X126645629Y-54794992D01*
X126435746Y-54761750D01*
X126223254Y-54761750D01*
X126013372Y-54794992D01*
X126013369Y-54794992D01*
X125811282Y-54860654D01*
X125621939Y-54957130D01*
X125567782Y-54996477D01*
X124552068Y-54996477D01*
X124497320Y-54956701D01*
X124307914Y-54860194D01*
X124307913Y-54860193D01*
X124307912Y-54860193D01*
X124105743Y-54794504D01*
X124105741Y-54794503D01*
X124105740Y-54794503D01*
X123944457Y-54768958D01*
X123895787Y-54761250D01*
X123683213Y-54761250D01*
X123634542Y-54768958D01*
X123473260Y-54794503D01*
X123271085Y-54860194D01*
X123081679Y-54956701D01*
X122909713Y-55081640D01*
X122909709Y-55081644D01*
X122878173Y-55113181D01*
X122816850Y-55146666D01*
X122790492Y-55149500D01*
X122420940Y-55149500D01*
X122380019Y-55160464D01*
X122380019Y-55160465D01*
X122342751Y-55170451D01*
X122268214Y-55190423D01*
X122268209Y-55190426D01*
X122131290Y-55269475D01*
X122131282Y-55269481D01*
X122037583Y-55363181D01*
X121976260Y-55396666D01*
X121949902Y-55399500D01*
X121829057Y-55399500D01*
X121670943Y-55399500D01*
X121518215Y-55440423D01*
X121518214Y-55440423D01*
X121518212Y-55440424D01*
X121518209Y-55440425D01*
X121468096Y-55469359D01*
X121468095Y-55469360D01*
X121424689Y-55494420D01*
X121381285Y-55519479D01*
X121381282Y-55519481D01*
X120519481Y-56381282D01*
X120519479Y-56381285D01*
X120518585Y-56382834D01*
X120470972Y-56465304D01*
X120469361Y-56468094D01*
X120469359Y-56468096D01*
X120440425Y-56518209D01*
X120440424Y-56518210D01*
X120440423Y-56518215D01*
X120399499Y-56670943D01*
X120399499Y-56670945D01*
X120399499Y-56839046D01*
X120399500Y-56839059D01*
X120399500Y-57420234D01*
X120379815Y-57487273D01*
X120378602Y-57489125D01*
X120290609Y-57620814D01*
X120290602Y-57620827D01*
X120230264Y-57766498D01*
X120230261Y-57766510D01*
X120199500Y-57921153D01*
X118816884Y-57921153D01*
X118869386Y-57737668D01*
X118880000Y-57618287D01*
X118879999Y-56502214D01*
X118869386Y-56382832D01*
X118813409Y-56187201D01*
X118719198Y-56006843D01*
X118667184Y-55943053D01*
X118590609Y-55849140D01*
X118432909Y-55720554D01*
X118432910Y-55720554D01*
X118432907Y-55720552D01*
X118252549Y-55626341D01*
X118252548Y-55626340D01*
X118252545Y-55626339D01*
X118135329Y-55592800D01*
X118056918Y-55570364D01*
X118056915Y-55570363D01*
X118056913Y-55570363D01*
X117990602Y-55564467D01*
X117937537Y-55559750D01*
X117937532Y-55559750D01*
X116071471Y-55559750D01*
X116071465Y-55559750D01*
X116071464Y-55559751D01*
X116059816Y-55560786D01*
X115952084Y-55570363D01*
X115756454Y-55626339D01*
X115746984Y-55631286D01*
X115576093Y-55720552D01*
X115576091Y-55720553D01*
X115576090Y-55720554D01*
X115418390Y-55849140D01*
X115289804Y-56006840D01*
X115195590Y-56187203D01*
X115160565Y-56309612D01*
X115123197Y-56368650D01*
X115059844Y-56398113D01*
X115041349Y-56399500D01*
X114579766Y-56399500D01*
X114512727Y-56379815D01*
X114510875Y-56378602D01*
X114379185Y-56290609D01*
X114379172Y-56290602D01*
X114233501Y-56230264D01*
X114233489Y-56230261D01*
X114078845Y-56199500D01*
X114078842Y-56199500D01*
X113921158Y-56199500D01*
X113921155Y-56199500D01*
X113766510Y-56230261D01*
X113766498Y-56230264D01*
X113620827Y-56290602D01*
X113620814Y-56290609D01*
X113489711Y-56378210D01*
X113489707Y-56378213D01*
X113378213Y-56489707D01*
X113378210Y-56489711D01*
X113290609Y-56620814D01*
X113290602Y-56620827D01*
X113230264Y-56766498D01*
X113230261Y-56766510D01*
X113199500Y-56921153D01*
X113199500Y-57078846D01*
X113230261Y-57233489D01*
X113230264Y-57233501D01*
X113290602Y-57379172D01*
X113290609Y-57379185D01*
X113378210Y-57510288D01*
X113378213Y-57510292D01*
X113489707Y-57621786D01*
X113489711Y-57621789D01*
X113620814Y-57709390D01*
X113620827Y-57709397D01*
X113758683Y-57766498D01*
X113766503Y-57769737D01*
X113921153Y-57800499D01*
X113921156Y-57800500D01*
X113921158Y-57800500D01*
X114078844Y-57800500D01*
X114078845Y-57800499D01*
X114233497Y-57769737D01*
X114379179Y-57709394D01*
X114433663Y-57672989D01*
X114510875Y-57621398D01*
X114577553Y-57600520D01*
X114579766Y-57600500D01*
X115013954Y-57600500D01*
X115080993Y-57620185D01*
X115126748Y-57672989D01*
X115137467Y-57713519D01*
X115139613Y-57737665D01*
X115195589Y-57933295D01*
X115195590Y-57933296D01*
X115195591Y-57933299D01*
X115289802Y-58113657D01*
X115305850Y-58133338D01*
X115402515Y-58251889D01*
X115429624Y-58316286D01*
X115417615Y-58385115D01*
X115402515Y-58408611D01*
X115319608Y-58510289D01*
X115289802Y-58546843D01*
X115288082Y-58550136D01*
X115195589Y-58727204D01*
X115159996Y-58851597D01*
X115143325Y-58909862D01*
X115105959Y-58968899D01*
X115042605Y-58998363D01*
X115024110Y-58999750D01*
X113486419Y-58999750D01*
X113486403Y-58999749D01*
X113478807Y-58999749D01*
X113320693Y-58999749D01*
X113213337Y-59028515D01*
X113167960Y-59040674D01*
X113167959Y-59040675D01*
X113123609Y-59066281D01*
X113123601Y-59066286D01*
X113117845Y-59069610D01*
X113031034Y-59119730D01*
X112978545Y-59172218D01*
X112970786Y-59177885D01*
X112946583Y-59186587D01*
X112924013Y-59198911D01*
X112921848Y-59199362D01*
X112766508Y-59230261D01*
X112766498Y-59230264D01*
X112620827Y-59290602D01*
X112620814Y-59290609D01*
X112489711Y-59378210D01*
X112489707Y-59378213D01*
X112378213Y-59489707D01*
X112378210Y-59489711D01*
X112290609Y-59620814D01*
X112290602Y-59620827D01*
X112230264Y-59766498D01*
X112230261Y-59766510D01*
X112199500Y-59921153D01*
X112199500Y-60078846D01*
X112230261Y-60233489D01*
X112230264Y-60233501D01*
X112290602Y-60379172D01*
X112290609Y-60379185D01*
X112378210Y-60510288D01*
X112378213Y-60510292D01*
X112489707Y-60621786D01*
X112489711Y-60621789D01*
X112620814Y-60709390D01*
X112620827Y-60709397D01*
X112766498Y-60769735D01*
X112766503Y-60769737D01*
X112877868Y-60791889D01*
X112921153Y-60800499D01*
X112921156Y-60800500D01*
X112921158Y-60800500D01*
X113078844Y-60800500D01*
X113078845Y-60800499D01*
X113233497Y-60769737D01*
X113379179Y-60709394D01*
X113510289Y-60621789D01*
X113621789Y-60510289D01*
X113709394Y-60379179D01*
X113724948Y-60341626D01*
X113751595Y-60277297D01*
X113795436Y-60222894D01*
X113861730Y-60200829D01*
X113866156Y-60200750D01*
X115024110Y-60200750D01*
X115091149Y-60220435D01*
X115136904Y-60273239D01*
X115143323Y-60290632D01*
X115154258Y-60328846D01*
X115195589Y-60473295D01*
X115195590Y-60473298D01*
X115195591Y-60473299D01*
X115289802Y-60653657D01*
X115289804Y-60653659D01*
X115402515Y-60791889D01*
X115429624Y-60856286D01*
X115417615Y-60925115D01*
X115402515Y-60948611D01*
X115289807Y-61086837D01*
X115289802Y-61086843D01*
X115257012Y-61149617D01*
X115195589Y-61267204D01*
X115163552Y-61379172D01*
X115143325Y-61449862D01*
X115105959Y-61508899D01*
X115042605Y-61538363D01*
X115024110Y-61539750D01*
X83946420Y-61539750D01*
X83946404Y-61539749D01*
X83938808Y-61539749D01*
X83780693Y-61539749D01*
X83704329Y-61560211D01*
X83627964Y-61580673D01*
X83627959Y-61580676D01*
X83491040Y-61659725D01*
X83491032Y-61659731D01*
X77287584Y-67863181D01*
X77226261Y-67896666D01*
X77199903Y-67899500D01*
X72915301Y-67899500D01*
X72848262Y-67879815D01*
X72802507Y-67827011D01*
X72797595Y-67814504D01*
X72794918Y-67806424D01*
X72769814Y-67730666D01*
X72677712Y-67581344D01*
X72553656Y-67457288D01*
X72404334Y-67365186D01*
X72237797Y-67310001D01*
X72237795Y-67310000D01*
X72135010Y-67299500D01*
X71334998Y-67299500D01*
X71334980Y-67299501D01*
X71232203Y-67310000D01*
X71232200Y-67310001D01*
X71065668Y-67365185D01*
X71065663Y-67365187D01*
X70916342Y-67457289D01*
X70822681Y-67550951D01*
X70761358Y-67584436D01*
X70691666Y-67579452D01*
X70647319Y-67550951D01*
X70553657Y-67457289D01*
X70553656Y-67457288D01*
X70404334Y-67365186D01*
X70237797Y-67310001D01*
X70237795Y-67310000D01*
X70135010Y-67299500D01*
X69334998Y-67299500D01*
X69334980Y-67299501D01*
X69232203Y-67310000D01*
X69232200Y-67310001D01*
X69065668Y-67365185D01*
X69065663Y-67365187D01*
X68916342Y-67457289D01*
X68792289Y-67581342D01*
X68700187Y-67730663D01*
X68700186Y-67730666D01*
X68675452Y-67805310D01*
X68672405Y-67814504D01*
X68632632Y-67871948D01*
X68568116Y-67898771D01*
X68554699Y-67899499D01*
X68420943Y-67899499D01*
X68313587Y-67928265D01*
X68268210Y-67940424D01*
X68268209Y-67940425D01*
X68218096Y-67969359D01*
X68218095Y-67969360D01*
X68174689Y-67994420D01*
X68131285Y-68019479D01*
X68131282Y-68019481D01*
X65519481Y-70631282D01*
X65519477Y-70631287D01*
X65496583Y-70670943D01*
X65495087Y-70673535D01*
X65440423Y-70768215D01*
X65399499Y-70920943D01*
X65399499Y-71079057D01*
X65399499Y-71079059D01*
X65399500Y-71089058D01*
X65399500Y-81913330D01*
X65399499Y-81913348D01*
X65399499Y-82079054D01*
X65399498Y-82079054D01*
X60500500Y-82079054D01*
X60500500Y-54624500D01*
X60520185Y-54557461D01*
X60572989Y-54511706D01*
X60624500Y-54500500D01*
X229375500Y-54500500D01*
X229442539Y-54520185D01*
G37*
%TD.AperFunction*%
%TD*%
M02*
