%TF.GenerationSoftware,KiCad,Pcbnew,10.0.0*%
%TF.CreationDate,2026-06-03T11:52:45+05:30*%
%TF.ProjectId,usbkitv1,7573626b-6974-4763-912e-6b696361645f,rev?*%
%TF.SameCoordinates,Original*%
%TF.FileFunction,Copper,L2,Bot*%
%TF.FilePolarity,Positive*%
%FSLAX46Y46*%
G04 Gerber Fmt 4.6, Leading zero omitted, Abs format (unit mm)*
G04 Created by KiCad (PCBNEW 10.0.0) date 2026-06-03 11:52:45*
%MOMM*%
%LPD*%
G01*
G04 APERTURE LIST*
%TA.AperFunction,ComponentPad*%
%ADD10R,1.700000X1.700000*%
%TD*%
%TA.AperFunction,ComponentPad*%
%ADD11C,1.700000*%
%TD*%
%TA.AperFunction,ComponentPad*%
%ADD12O,3.200000X1.900000*%
%TD*%
%TA.AperFunction,ComponentPad*%
%ADD13C,2.000000*%
%TD*%
%TA.AperFunction,ComponentPad*%
%ADD14C,1.778000*%
%TD*%
%TA.AperFunction,ComponentPad*%
%ADD15C,2.286000*%
%TD*%
%TA.AperFunction,ViaPad*%
%ADD16C,0.600000*%
%TD*%
%TA.AperFunction,Conductor*%
%ADD17C,0.200000*%
%TD*%
G04 APERTURE END LIST*
D10*
%TO.P,J4,1,Pin_1_1*%
%TO.N,+3.3V*%
X127575000Y-102500000D03*
D11*
%TO.P,J4,2,Pin_2_2*%
%TO.N,GND*%
X130115000Y-102500000D03*
%TO.P,J4,3,Pin_3_3*%
%TO.N,SWDIO*%
X132655000Y-102500000D03*
%TO.P,J4,4,Pin_4_4*%
%TO.N,SWCLK*%
X135195000Y-102500000D03*
%TO.P,J4,5,Pin_5_5*%
%TO.N,RESET*%
X137735000Y-102500000D03*
%TD*%
D12*
%TO.P,SW4,1,1_1*%
%TO.N,GPIO_D8*%
X207500000Y-81000000D03*
X220000000Y-81000000D03*
%TO.P,SW4,2,2_2*%
%TO.N,GND*%
X207500000Y-86000000D03*
X220000000Y-86000000D03*
%TD*%
D10*
%TO.P,J1,1,Pin_1_1*%
%TO.N,UART_TX*%
X115195000Y-102500000D03*
D11*
%TO.P,J1,2,Pin_2_2*%
%TO.N,UART_RX*%
X117735000Y-102500000D03*
%TO.P,J1,3,Pin_3_3*%
%TO.N,GND*%
X120275000Y-102500000D03*
%TD*%
D12*
%TO.P,SW2,1,1_1*%
%TO.N,GPIO_D5*%
X182500000Y-96500000D03*
X195000000Y-96500000D03*
%TO.P,SW2,2,2_2*%
%TO.N,GND*%
X182500000Y-101500000D03*
X195000000Y-101500000D03*
%TD*%
%TO.P,SW1,1,1_1*%
%TO.N,GPIO_D4*%
X182500000Y-65000000D03*
X195000000Y-65000000D03*
%TO.P,SW1,2,2_2*%
%TO.N,GND*%
X182500000Y-70000000D03*
X195000000Y-70000000D03*
%TD*%
D13*
%TO.P,SW5,1,1_1*%
%TO.N,RESET*%
X106985000Y-89250000D03*
X113485000Y-89250000D03*
%TO.P,SW5,2,2_2*%
%TO.N,GND*%
X106985000Y-93750000D03*
X113485000Y-93750000D03*
%TD*%
D12*
%TO.P,SW3,1,1_1*%
%TO.N,GPIO_D3*%
X158500000Y-81000000D03*
X171000000Y-81000000D03*
%TO.P,SW3,2,2_2*%
%TO.N,GND*%
X158500000Y-86000000D03*
X171000000Y-86000000D03*
%TD*%
D14*
%TO.P,U2,B1A,SEL+_B1A*%
%TO.N,GPIO_D2*%
X72535000Y-84175000D03*
%TO.P,U2,B1B*%
%TO.N,N/C*%
X72535000Y-77825000D03*
%TO.P,U2,B2A,SEL-_B2A*%
%TO.N,GND*%
X77615000Y-84175000D03*
%TO.P,U2,B2B*%
%TO.N,N/C*%
X77615000Y-77825000D03*
%TO.P,U2,H1,H+_H1*%
%TO.N,+3.3V*%
X95395000Y-83540000D03*
%TO.P,U2,H2,H_H2*%
%TO.N,ADC_01*%
X95395000Y-81000000D03*
%TO.P,U2,H3,H-_H3*%
%TO.N,GND*%
X95395000Y-78460000D03*
D15*
%TO.P,U2,S1,SHIELD_S1*%
X78567500Y-88620000D03*
%TO.P,U2,S2,SHIELD__1_S2*%
X91902500Y-88620000D03*
%TO.P,U2,S3,SHIELD__2_S3*%
X91902500Y-73380000D03*
%TO.P,U2,S4,SHIELD__3_S4*%
X78567500Y-73380000D03*
D14*
%TO.P,U2,V1,V+_V1*%
%TO.N,+3.3V*%
X82695000Y-91160000D03*
%TO.P,U2,V2,V_V2*%
%TO.N,ADC_00*%
X85235000Y-91160000D03*
%TO.P,U2,V3,V-_V3*%
%TO.N,GND*%
X87775000Y-91160000D03*
%TD*%
D10*
%TO.P,J6,1,Pin_1_1*%
%TO.N,BAT*%
X145460000Y-102500000D03*
D11*
%TO.P,J6,2,Pin_2_2*%
%TO.N,GND*%
X148000000Y-102500000D03*
%TD*%
D16*
%TO.N,+3.3V*%
X121250000Y-107000000D03*
X122500000Y-104750000D03*
%TO.N,GND*%
X95000000Y-93000000D03*
X82000000Y-86000000D03*
%TO.N,SWDIO*%
X126000000Y-61000000D03*
X126000000Y-81500000D03*
X132750000Y-98500000D03*
%TO.N,SWCLK*%
X127000000Y-63500000D03*
X135000000Y-100500000D03*
X130500000Y-84250000D03*
X127000000Y-60250000D03*
%TO.N,RESET*%
X125000000Y-64000000D03*
X121000000Y-58000000D03*
%TO.N,GPIO_D8*%
X202500000Y-78500000D03*
X147500000Y-69750000D03*
X151000000Y-70000000D03*
X171750000Y-71250000D03*
%TO.N,GPIO_D5*%
X123750000Y-103750000D03*
X121500000Y-90250000D03*
X119750000Y-86000000D03*
X174750000Y-99000000D03*
%TO.N,UART_TX*%
X116500000Y-95250000D03*
X116500000Y-74000000D03*
%TO.N,UART_RX*%
X118250000Y-95250000D03*
X133250000Y-74500000D03*
%TO.N,ADC_00*%
X92000000Y-77000000D03*
X114000000Y-57000000D03*
%TO.N,ADC_01*%
X113000000Y-60000000D03*
X107000000Y-64000000D03*
%TO.N,GPIO_D3*%
X132000000Y-88750000D03*
X126000000Y-85750000D03*
X123000000Y-82750000D03*
X137750000Y-89500000D03*
X127500000Y-87250000D03*
X150500000Y-84000000D03*
%TO.N,GPIO_D4*%
X124750000Y-87500000D03*
X128500000Y-90250000D03*
X174500000Y-65000000D03*
X130000000Y-88750000D03*
X134750000Y-84750000D03*
X121500000Y-84250000D03*
%TO.N,BAT*%
X124000000Y-81750000D03*
X132000000Y-80000000D03*
%TD*%
%TO.N,+3.3V*%
D17*
X121250000Y-106000000D02*
X122500000Y-104750000D01*
X121250000Y-107000000D02*
X121250000Y-106000000D01*
%TO.N,GND*%
X88000000Y-89000000D02*
X87775000Y-89225000D01*
X88000000Y-87000000D02*
X88000000Y-89000000D01*
X87775000Y-89225000D02*
X87775000Y-91160000D01*
X95000000Y-91717500D02*
X91902500Y-88620000D01*
X95000000Y-93000000D02*
X95000000Y-91717500D01*
X82000000Y-86000000D02*
X87000000Y-86000000D01*
X87000000Y-86000000D02*
X88000000Y-87000000D01*
%TO.N,SWDIO*%
X126000000Y-61000000D02*
X126000000Y-81500000D01*
X132750000Y-99250000D02*
X132655000Y-99345000D01*
X132655000Y-99345000D02*
X132655000Y-102500000D01*
X132750000Y-98500000D02*
X132750000Y-99250000D01*
%TO.N,SWCLK*%
X133750000Y-97250000D02*
X133750000Y-87500000D01*
X133750000Y-87500000D02*
X130500000Y-84250000D01*
X135000000Y-100500000D02*
X135000000Y-98500000D01*
X127000000Y-63500000D02*
X127000000Y-60250000D01*
X135000000Y-98500000D02*
X133750000Y-97250000D01*
%TO.N,RESET*%
X124000000Y-61000000D02*
X122000000Y-61000000D01*
X125000000Y-64000000D02*
X125000000Y-62000000D01*
X122000000Y-61000000D02*
X121000000Y-60000000D01*
X125000000Y-62000000D02*
X124000000Y-61000000D01*
X121000000Y-60000000D02*
X121000000Y-58000000D01*
%TO.N,GPIO_D8*%
X147500000Y-69750000D02*
X150750000Y-69750000D01*
X150750000Y-69750000D02*
X151000000Y-70000000D01*
X201500000Y-77500000D02*
X202500000Y-78500000D01*
X171750000Y-71250000D02*
X171750000Y-71750000D01*
X177500000Y-77500000D02*
X201500000Y-77500000D01*
X171750000Y-71750000D02*
X177500000Y-77500000D01*
%TO.N,GPIO_D5*%
X125750000Y-105750000D02*
X168000000Y-105750000D01*
X168000000Y-105750000D02*
X174750000Y-99000000D01*
X119750000Y-86000000D02*
X121500000Y-87750000D01*
X123750000Y-103750000D02*
X125750000Y-105750000D01*
X121500000Y-87750000D02*
X121500000Y-90250000D01*
%TO.N,UART_TX*%
X116500000Y-95250000D02*
X116500000Y-74000000D01*
%TO.N,UART_RX*%
X133250000Y-80250000D02*
X133250000Y-74500000D01*
X118250000Y-95250000D02*
X133250000Y-80250000D01*
%TO.N,ADC_00*%
X92000000Y-77000000D02*
X112000000Y-57000000D01*
X112000000Y-57000000D02*
X114000000Y-57000000D01*
%TO.N,ADC_01*%
X107000000Y-64000000D02*
X111000000Y-60000000D01*
X111000000Y-60000000D02*
X113000000Y-60000000D01*
%TO.N,GPIO_D3*%
X125000000Y-85250000D02*
X125500000Y-85250000D01*
X123000000Y-82750000D02*
X123000000Y-83250000D01*
X130500000Y-87250000D02*
X132000000Y-88750000D01*
X137750000Y-89500000D02*
X145000000Y-89500000D01*
X123000000Y-83250000D02*
X125000000Y-85250000D01*
X127500000Y-87250000D02*
X130500000Y-87250000D01*
X145000000Y-89500000D02*
X150500000Y-84000000D01*
X125500000Y-85250000D02*
X126000000Y-85750000D01*
%TO.N,GPIO_D4*%
X128500000Y-90250000D02*
X130000000Y-88750000D01*
X134750000Y-84750000D02*
X137750000Y-84750000D01*
X137750000Y-84750000D02*
X157500000Y-65000000D01*
X121500000Y-84250000D02*
X124750000Y-87500000D01*
X157500000Y-65000000D02*
X174500000Y-65000000D01*
%TO.N,BAT*%
X126500000Y-84500000D02*
X131000000Y-80000000D01*
X124000000Y-83250000D02*
X125250000Y-84500000D01*
X125250000Y-84500000D02*
X126500000Y-84500000D01*
X124000000Y-81750000D02*
X124000000Y-83250000D01*
X131000000Y-80000000D02*
X132000000Y-80000000D01*
%TD*%
%TA.AperFunction,Conductor*%
%TO.N,GND*%
G36*
X229442539Y-54520185D02*
G01*
X229488294Y-54572989D01*
X229499500Y-54624500D01*
X229499500Y-109375500D01*
X229479815Y-109442539D01*
X229427011Y-109488294D01*
X229375500Y-109499500D01*
X60649363Y-109499500D01*
X60582324Y-109479815D01*
X60546189Y-109444283D01*
X60521326Y-109406989D01*
X60500518Y-109340290D01*
X60500500Y-109338206D01*
X60500500Y-106921153D01*
X120449500Y-106921153D01*
X120449500Y-107078846D01*
X120480261Y-107233489D01*
X120480264Y-107233501D01*
X120540602Y-107379172D01*
X120540609Y-107379185D01*
X120628210Y-107510288D01*
X120628213Y-107510292D01*
X120739707Y-107621786D01*
X120739711Y-107621789D01*
X120870814Y-107709390D01*
X120870827Y-107709397D01*
X121016498Y-107769735D01*
X121016503Y-107769737D01*
X121171153Y-107800499D01*
X121171156Y-107800500D01*
X121171158Y-107800500D01*
X121328844Y-107800500D01*
X121328845Y-107800499D01*
X121483497Y-107769737D01*
X121629179Y-107709394D01*
X121760289Y-107621789D01*
X121871789Y-107510289D01*
X121959394Y-107379179D01*
X122019737Y-107233497D01*
X122050500Y-107078842D01*
X122050500Y-106921158D01*
X122050500Y-106921155D01*
X122050499Y-106921153D01*
X122019738Y-106766510D01*
X122019737Y-106766503D01*
X122019735Y-106766498D01*
X121959397Y-106620827D01*
X121959390Y-106620814D01*
X121871398Y-106489125D01*
X121850520Y-106422447D01*
X121850500Y-106420234D01*
X121850500Y-106300097D01*
X121870185Y-106233058D01*
X121886819Y-106212416D01*
X122178292Y-105920943D01*
X122514662Y-105584572D01*
X122575983Y-105551089D01*
X122578150Y-105550638D01*
X122636085Y-105539113D01*
X122733497Y-105519737D01*
X122879179Y-105459394D01*
X123010289Y-105371789D01*
X123121789Y-105260289D01*
X123209394Y-105129179D01*
X123269737Y-104983497D01*
X123300500Y-104828842D01*
X123300500Y-104671158D01*
X123300500Y-104671155D01*
X123293540Y-104636167D01*
X123299767Y-104566576D01*
X123342629Y-104511398D01*
X123408519Y-104488153D01*
X123446277Y-104491944D01*
X123454637Y-104494111D01*
X123516503Y-104519737D01*
X123671158Y-104550500D01*
X123672129Y-104550500D01*
X123678778Y-104552224D01*
X123705830Y-104568413D01*
X123733760Y-104583023D01*
X123735339Y-104584574D01*
X125265139Y-106114374D01*
X125265149Y-106114385D01*
X125269479Y-106118715D01*
X125269480Y-106118716D01*
X125381284Y-106230520D01*
X125468095Y-106280639D01*
X125468097Y-106280641D01*
X125501796Y-106300097D01*
X125518215Y-106309577D01*
X125670943Y-106350500D01*
X125829057Y-106350500D01*
X167913331Y-106350500D01*
X167913347Y-106350501D01*
X167920943Y-106350501D01*
X168079054Y-106350501D01*
X168079057Y-106350501D01*
X168231785Y-106309577D01*
X168281904Y-106280639D01*
X168368716Y-106230520D01*
X168480520Y-106118716D01*
X168480520Y-106118714D01*
X168490728Y-106108507D01*
X168490729Y-106108504D01*
X173349235Y-101250000D01*
X180421522Y-101250000D01*
X181899999Y-101250000D01*
X181874979Y-101310402D01*
X181850000Y-101435981D01*
X181850000Y-101564019D01*
X181874979Y-101689598D01*
X181899999Y-101750000D01*
X180421522Y-101750000D01*
X180435704Y-101839544D01*
X180506230Y-102056604D01*
X180609849Y-102259966D01*
X180744004Y-102444614D01*
X180905385Y-102605995D01*
X181090033Y-102740150D01*
X181293395Y-102843769D01*
X181510455Y-102914295D01*
X181735884Y-102950000D01*
X182250000Y-102950000D01*
X182250000Y-102100001D01*
X182310402Y-102125021D01*
X182435981Y-102150000D01*
X182564019Y-102150000D01*
X182689598Y-102125021D01*
X182750000Y-102100001D01*
X182750000Y-102950000D01*
X183264116Y-102950000D01*
X183489544Y-102914295D01*
X183706604Y-102843769D01*
X183909966Y-102740150D01*
X184094614Y-102605995D01*
X184255995Y-102444614D01*
X184390150Y-102259966D01*
X184493769Y-102056604D01*
X184564295Y-101839544D01*
X184578478Y-101750000D01*
X183100001Y-101750000D01*
X183125021Y-101689598D01*
X183150000Y-101564019D01*
X183150000Y-101435981D01*
X183125021Y-101310402D01*
X183100001Y-101250000D01*
X184578478Y-101250000D01*
X192921522Y-101250000D01*
X194399999Y-101250000D01*
X194374979Y-101310402D01*
X194350000Y-101435981D01*
X194350000Y-101564019D01*
X194374979Y-101689598D01*
X194399999Y-101750000D01*
X192921522Y-101750000D01*
X192935704Y-101839544D01*
X193006230Y-102056604D01*
X193109849Y-102259966D01*
X193244004Y-102444614D01*
X193405385Y-102605995D01*
X193590033Y-102740150D01*
X193793395Y-102843769D01*
X194010455Y-102914295D01*
X194235884Y-102950000D01*
X194750000Y-102950000D01*
X194750000Y-102100001D01*
X194810402Y-102125021D01*
X194935981Y-102150000D01*
X195064019Y-102150000D01*
X195189598Y-102125021D01*
X195250000Y-102100001D01*
X195250000Y-102950000D01*
X195764116Y-102950000D01*
X195989544Y-102914295D01*
X196206604Y-102843769D01*
X196409966Y-102740150D01*
X196594614Y-102605995D01*
X196755995Y-102444614D01*
X196890150Y-102259966D01*
X196993769Y-102056604D01*
X197064295Y-101839544D01*
X197078478Y-101750000D01*
X195600001Y-101750000D01*
X195625021Y-101689598D01*
X195650000Y-101564019D01*
X195650000Y-101435981D01*
X195625021Y-101310402D01*
X195600001Y-101250000D01*
X197078478Y-101250000D01*
X197064295Y-101160455D01*
X196993769Y-100943395D01*
X196890150Y-100740033D01*
X196755995Y-100555385D01*
X196594614Y-100394004D01*
X196409966Y-100259849D01*
X196206604Y-100156230D01*
X195989544Y-100085704D01*
X195764116Y-100050000D01*
X195250000Y-100050000D01*
X195250000Y-100899998D01*
X195189598Y-100874979D01*
X195064019Y-100850000D01*
X194935981Y-100850000D01*
X194810402Y-100874979D01*
X194750000Y-100899998D01*
X194750000Y-100050000D01*
X194235884Y-100050000D01*
X194010455Y-100085704D01*
X193793395Y-100156230D01*
X193590033Y-100259849D01*
X193405385Y-100394004D01*
X193244004Y-100555385D01*
X193109849Y-100740033D01*
X193006230Y-100943395D01*
X192935704Y-101160455D01*
X192921522Y-101250000D01*
X184578478Y-101250000D01*
X184564295Y-101160455D01*
X184493769Y-100943395D01*
X184390150Y-100740033D01*
X184255995Y-100555385D01*
X184094614Y-100394004D01*
X183909966Y-100259849D01*
X183706604Y-100156230D01*
X183489544Y-100085704D01*
X183264116Y-100050000D01*
X182750000Y-100050000D01*
X182750000Y-100899998D01*
X182689598Y-100874979D01*
X182564019Y-100850000D01*
X182435981Y-100850000D01*
X182310402Y-100874979D01*
X182250000Y-100899998D01*
X182250000Y-100050000D01*
X181735884Y-100050000D01*
X181510455Y-100085704D01*
X181293395Y-100156230D01*
X181090033Y-100259849D01*
X180905385Y-100394004D01*
X180744004Y-100555385D01*
X180609849Y-100740033D01*
X180506230Y-100943395D01*
X180435704Y-101160455D01*
X180421522Y-101250000D01*
X173349235Y-101250000D01*
X174764664Y-99834571D01*
X174825985Y-99801088D01*
X174828152Y-99800637D01*
X174828841Y-99800500D01*
X174828842Y-99800500D01*
X174983497Y-99769737D01*
X175129179Y-99709394D01*
X175260289Y-99621789D01*
X175371789Y-99510289D01*
X175459394Y-99379179D01*
X175519737Y-99233497D01*
X175550500Y-99078842D01*
X175550500Y-98921158D01*
X175550500Y-98921155D01*
X175550499Y-98921153D01*
X175519738Y-98766510D01*
X175519738Y-98766508D01*
X175519737Y-98766503D01*
X175497334Y-98712416D01*
X175459397Y-98620827D01*
X175459390Y-98620814D01*
X175371789Y-98489711D01*
X175371786Y-98489707D01*
X175260292Y-98378213D01*
X175260288Y-98378210D01*
X175129185Y-98290609D01*
X175129172Y-98290602D01*
X174983501Y-98230264D01*
X174983489Y-98230261D01*
X174828845Y-98199500D01*
X174828842Y-98199500D01*
X174671158Y-98199500D01*
X174671155Y-98199500D01*
X174516510Y-98230261D01*
X174516498Y-98230264D01*
X174370827Y-98290602D01*
X174370814Y-98290609D01*
X174239711Y-98378210D01*
X174239707Y-98378213D01*
X174128213Y-98489707D01*
X174128210Y-98489711D01*
X174040609Y-98620814D01*
X174040602Y-98620827D01*
X173980264Y-98766498D01*
X173980261Y-98766508D01*
X173949362Y-98921848D01*
X173916977Y-98983759D01*
X173915426Y-98985337D01*
X167787584Y-105113181D01*
X167726261Y-105146666D01*
X167699903Y-105149500D01*
X126050097Y-105149500D01*
X125983058Y-105129815D01*
X125962416Y-105113181D01*
X124584574Y-103735339D01*
X124551089Y-103674016D01*
X124550638Y-103671849D01*
X124522443Y-103530109D01*
X124519737Y-103516503D01*
X124496713Y-103460917D01*
X124459397Y-103370827D01*
X124459390Y-103370814D01*
X124371789Y-103239711D01*
X124371786Y-103239707D01*
X124260292Y-103128213D01*
X124260288Y-103128210D01*
X124129185Y-103040609D01*
X124129172Y-103040602D01*
X123983501Y-102980264D01*
X123983489Y-102980261D01*
X123828845Y-102949500D01*
X123828842Y-102949500D01*
X123671158Y-102949500D01*
X123671155Y-102949500D01*
X123516510Y-102980261D01*
X123516498Y-102980264D01*
X123370827Y-103040602D01*
X123370814Y-103040609D01*
X123239711Y-103128210D01*
X123239707Y-103128213D01*
X123128213Y-103239707D01*
X123128210Y-103239711D01*
X123040609Y-103370814D01*
X123040602Y-103370827D01*
X122980264Y-103516498D01*
X122980261Y-103516510D01*
X122949500Y-103671153D01*
X122949500Y-103828841D01*
X122956460Y-103863834D01*
X122950231Y-103933426D01*
X122907368Y-103988602D01*
X122841478Y-104011846D01*
X122787391Y-104002586D01*
X122753629Y-103988602D01*
X122733497Y-103980263D01*
X122733493Y-103980262D01*
X122733489Y-103980261D01*
X122578845Y-103949500D01*
X122578842Y-103949500D01*
X122421158Y-103949500D01*
X122421155Y-103949500D01*
X122266510Y-103980261D01*
X122266498Y-103980264D01*
X122120827Y-104040602D01*
X122120814Y-104040609D01*
X121989711Y-104128210D01*
X121989707Y-104128213D01*
X121878213Y-104239707D01*
X121878210Y-104239711D01*
X121790609Y-104370814D01*
X121790602Y-104370827D01*
X121730264Y-104516498D01*
X121730261Y-104516508D01*
X121699361Y-104671850D01*
X121666976Y-104733761D01*
X121665425Y-104735339D01*
X120769481Y-105631282D01*
X120769479Y-105631285D01*
X120719361Y-105718094D01*
X120719359Y-105718096D01*
X120690425Y-105768209D01*
X120690424Y-105768210D01*
X120690423Y-105768215D01*
X120649499Y-105920943D01*
X120649499Y-105920945D01*
X120649499Y-106089046D01*
X120649500Y-106089059D01*
X120649500Y-106420234D01*
X120629815Y-106487273D01*
X120628602Y-106489125D01*
X120540609Y-106620814D01*
X120540602Y-106620827D01*
X120480264Y-106766498D01*
X120480261Y-106766510D01*
X120449500Y-106921153D01*
X60500500Y-106921153D01*
X60500500Y-101602135D01*
X113844500Y-101602135D01*
X113844500Y-103397870D01*
X113844501Y-103397876D01*
X113850908Y-103457483D01*
X113901202Y-103592328D01*
X113901206Y-103592335D01*
X113987452Y-103707544D01*
X113987455Y-103707547D01*
X114102664Y-103793793D01*
X114102671Y-103793797D01*
X114237517Y-103844091D01*
X114237516Y-103844091D01*
X114244444Y-103844835D01*
X114297127Y-103850500D01*
X116092872Y-103850499D01*
X116152483Y-103844091D01*
X116287331Y-103793796D01*
X116402546Y-103707546D01*
X116488796Y-103592331D01*
X116537810Y-103460916D01*
X116579681Y-103404984D01*
X116645145Y-103380566D01*
X116713418Y-103395417D01*
X116741673Y-103416569D01*
X116855213Y-103530109D01*
X117027179Y-103655048D01*
X117027181Y-103655049D01*
X117027184Y-103655051D01*
X117216588Y-103751557D01*
X117418757Y-103817246D01*
X117628713Y-103850500D01*
X117628714Y-103850500D01*
X117841286Y-103850500D01*
X117841287Y-103850500D01*
X118051243Y-103817246D01*
X118253412Y-103751557D01*
X118442816Y-103655051D01*
X118529138Y-103592335D01*
X118614786Y-103530109D01*
X118614788Y-103530106D01*
X118614792Y-103530104D01*
X118765104Y-103379792D01*
X118765106Y-103379788D01*
X118765109Y-103379786D01*
X118850890Y-103261717D01*
X118890051Y-103207816D01*
X118894793Y-103198508D01*
X118942763Y-103147711D01*
X119010583Y-103130911D01*
X119076719Y-103153445D01*
X119115763Y-103198500D01*
X119120373Y-103207547D01*
X119159728Y-103261716D01*
X119792037Y-102629408D01*
X119809075Y-102692993D01*
X119874901Y-102807007D01*
X119967993Y-102900099D01*
X120082007Y-102965925D01*
X120145590Y-102982962D01*
X119513282Y-103615269D01*
X119513282Y-103615270D01*
X119567449Y-103654624D01*
X119756782Y-103751095D01*
X119958870Y-103816757D01*
X120168754Y-103850000D01*
X120381246Y-103850000D01*
X120591127Y-103816757D01*
X120591130Y-103816757D01*
X120793217Y-103751095D01*
X120982554Y-103654622D01*
X121036716Y-103615270D01*
X121036717Y-103615270D01*
X120404408Y-102982962D01*
X120467993Y-102965925D01*
X120582007Y-102900099D01*
X120675099Y-102807007D01*
X120740925Y-102692993D01*
X120757962Y-102629409D01*
X121390270Y-103261717D01*
X121390270Y-103261716D01*
X121429622Y-103207554D01*
X121526095Y-103018217D01*
X121591757Y-102816130D01*
X121591757Y-102816127D01*
X121625000Y-102606246D01*
X121625000Y-102393753D01*
X121591757Y-102183872D01*
X121591757Y-102183869D01*
X121526095Y-101981782D01*
X121429624Y-101792449D01*
X121390270Y-101738282D01*
X121390269Y-101738282D01*
X120757962Y-102370590D01*
X120740925Y-102307007D01*
X120675099Y-102192993D01*
X120582007Y-102099901D01*
X120467993Y-102034075D01*
X120404409Y-102017037D01*
X120910320Y-101511125D01*
X121036716Y-101384728D01*
X120982550Y-101345375D01*
X120793217Y-101248904D01*
X120591129Y-101183242D01*
X120381246Y-101150000D01*
X120168754Y-101150000D01*
X119958872Y-101183242D01*
X119958869Y-101183242D01*
X119756782Y-101248904D01*
X119567439Y-101345380D01*
X119513282Y-101384727D01*
X119513282Y-101384728D01*
X120145591Y-102017037D01*
X120082007Y-102034075D01*
X119967993Y-102099901D01*
X119874901Y-102192993D01*
X119809075Y-102307007D01*
X119792037Y-102370591D01*
X119159728Y-101738282D01*
X119159727Y-101738282D01*
X119120380Y-101792440D01*
X119120376Y-101792446D01*
X119115760Y-101801505D01*
X119067781Y-101852297D01*
X118999959Y-101869087D01*
X118933826Y-101846543D01*
X118894794Y-101801493D01*
X118890051Y-101792184D01*
X118890049Y-101792181D01*
X118890048Y-101792179D01*
X118765109Y-101620213D01*
X118614786Y-101469890D01*
X118442820Y-101344951D01*
X118253414Y-101248444D01*
X118253413Y-101248443D01*
X118253412Y-101248443D01*
X118051243Y-101182754D01*
X118051241Y-101182753D01*
X118051240Y-101182753D01*
X117889957Y-101157208D01*
X117841287Y-101149500D01*
X117628713Y-101149500D01*
X117580042Y-101157208D01*
X117418760Y-101182753D01*
X117216585Y-101248444D01*
X117027179Y-101344951D01*
X116855215Y-101469889D01*
X116741673Y-101583431D01*
X116680350Y-101616915D01*
X116610658Y-101611931D01*
X116554725Y-101570059D01*
X116537810Y-101539082D01*
X116488797Y-101407671D01*
X116488793Y-101407664D01*
X116402547Y-101292455D01*
X116402544Y-101292452D01*
X116287335Y-101206206D01*
X116287328Y-101206202D01*
X116152482Y-101155908D01*
X116152483Y-101155908D01*
X116092883Y-101149501D01*
X116092881Y-101149500D01*
X116092873Y-101149500D01*
X116092864Y-101149500D01*
X114297129Y-101149500D01*
X114297123Y-101149501D01*
X114237516Y-101155908D01*
X114102671Y-101206202D01*
X114102664Y-101206206D01*
X113987455Y-101292452D01*
X113987452Y-101292455D01*
X113901206Y-101407664D01*
X113901202Y-101407671D01*
X113850908Y-101542517D01*
X113844501Y-101602116D01*
X113844500Y-101602135D01*
X60500500Y-101602135D01*
X60500500Y-93631947D01*
X105485000Y-93631947D01*
X105485000Y-93868052D01*
X105521934Y-94101247D01*
X105594897Y-94325802D01*
X105702087Y-94536174D01*
X105762338Y-94619104D01*
X105762340Y-94619105D01*
X106461212Y-93920233D01*
X106472482Y-93962292D01*
X106544890Y-94087708D01*
X106647292Y-94190110D01*
X106772708Y-94262518D01*
X106814765Y-94273787D01*
X106115893Y-94972658D01*
X106198828Y-95032914D01*
X106409197Y-95140102D01*
X106633752Y-95213065D01*
X106633751Y-95213065D01*
X106866948Y-95250000D01*
X107103052Y-95250000D01*
X107336247Y-95213065D01*
X107560802Y-95140102D01*
X107771163Y-95032918D01*
X107771169Y-95032914D01*
X107854104Y-94972658D01*
X107854105Y-94972658D01*
X107155233Y-94273787D01*
X107197292Y-94262518D01*
X107322708Y-94190110D01*
X107425110Y-94087708D01*
X107497518Y-93962292D01*
X107508787Y-93920233D01*
X108207658Y-94619105D01*
X108207658Y-94619104D01*
X108267914Y-94536169D01*
X108267918Y-94536163D01*
X108375102Y-94325802D01*
X108448065Y-94101247D01*
X108485000Y-93868052D01*
X108485000Y-93631947D01*
X111985000Y-93631947D01*
X111985000Y-93868052D01*
X112021934Y-94101247D01*
X112094897Y-94325802D01*
X112202087Y-94536174D01*
X112262338Y-94619104D01*
X112262340Y-94619105D01*
X112961212Y-93920233D01*
X112972482Y-93962292D01*
X113044890Y-94087708D01*
X113147292Y-94190110D01*
X113272708Y-94262518D01*
X113314765Y-94273787D01*
X112615893Y-94972658D01*
X112698828Y-95032914D01*
X112909197Y-95140102D01*
X113133752Y-95213065D01*
X113133751Y-95213065D01*
X113366948Y-95250000D01*
X113603052Y-95250000D01*
X113836247Y-95213065D01*
X114060802Y-95140102D01*
X114271163Y-95032918D01*
X114271169Y-95032914D01*
X114354104Y-94972658D01*
X114354105Y-94972658D01*
X113655233Y-94273787D01*
X113697292Y-94262518D01*
X113822708Y-94190110D01*
X113925110Y-94087708D01*
X113997518Y-93962292D01*
X114008787Y-93920234D01*
X114707658Y-94619105D01*
X114707658Y-94619104D01*
X114767914Y-94536169D01*
X114767918Y-94536163D01*
X114875102Y-94325802D01*
X114948065Y-94101247D01*
X114985000Y-93868052D01*
X114985000Y-93631947D01*
X114948065Y-93398752D01*
X114875102Y-93174197D01*
X114767914Y-92963828D01*
X114707658Y-92880894D01*
X114707658Y-92880893D01*
X114008787Y-93579765D01*
X113997518Y-93537708D01*
X113925110Y-93412292D01*
X113822708Y-93309890D01*
X113697292Y-93237482D01*
X113655234Y-93226212D01*
X114354105Y-92527340D01*
X114354104Y-92527338D01*
X114271174Y-92467087D01*
X114060802Y-92359897D01*
X113836247Y-92286934D01*
X113836248Y-92286934D01*
X113603052Y-92250000D01*
X113366948Y-92250000D01*
X113133752Y-92286934D01*
X112909197Y-92359897D01*
X112698830Y-92467084D01*
X112615894Y-92527340D01*
X113314766Y-93226212D01*
X113272708Y-93237482D01*
X113147292Y-93309890D01*
X113044890Y-93412292D01*
X112972482Y-93537708D01*
X112961212Y-93579766D01*
X112262340Y-92880894D01*
X112202084Y-92963830D01*
X112094897Y-93174197D01*
X112021934Y-93398752D01*
X111985000Y-93631947D01*
X108485000Y-93631947D01*
X108448065Y-93398752D01*
X108375102Y-93174197D01*
X108267914Y-92963828D01*
X108207658Y-92880894D01*
X108207658Y-92880893D01*
X107508787Y-93579765D01*
X107497518Y-93537708D01*
X107425110Y-93412292D01*
X107322708Y-93309890D01*
X107197292Y-93237482D01*
X107155234Y-93226212D01*
X107854105Y-92527340D01*
X107854104Y-92527339D01*
X107771174Y-92467087D01*
X107560802Y-92359897D01*
X107336247Y-92286934D01*
X107336248Y-92286934D01*
X107103052Y-92250000D01*
X106866948Y-92250000D01*
X106633752Y-92286934D01*
X106409197Y-92359897D01*
X106198830Y-92467084D01*
X106115894Y-92527340D01*
X106814766Y-93226212D01*
X106772708Y-93237482D01*
X106647292Y-93309890D01*
X106544890Y-93412292D01*
X106472482Y-93537708D01*
X106461212Y-93579766D01*
X105762340Y-92880894D01*
X105702084Y-92963830D01*
X105594897Y-93174197D01*
X105521934Y-93398752D01*
X105485000Y-93631947D01*
X60500500Y-93631947D01*
X60500500Y-91050638D01*
X81305500Y-91050638D01*
X81305500Y-91269361D01*
X81339714Y-91485376D01*
X81407297Y-91693380D01*
X81407298Y-91693383D01*
X81474782Y-91825825D01*
X81494722Y-91864960D01*
X81506595Y-91888260D01*
X81635142Y-92065193D01*
X81789806Y-92219857D01*
X81904508Y-92303191D01*
X81966743Y-92348407D01*
X82094132Y-92413315D01*
X82161616Y-92447701D01*
X82161619Y-92447702D01*
X82265621Y-92481493D01*
X82369625Y-92515286D01*
X82469672Y-92531132D01*
X82585639Y-92549500D01*
X82585644Y-92549500D01*
X82804361Y-92549500D01*
X82909082Y-92532912D01*
X83020375Y-92515286D01*
X83228383Y-92447701D01*
X83423257Y-92348407D01*
X83558704Y-92250000D01*
X83600193Y-92219857D01*
X83600195Y-92219854D01*
X83600199Y-92219852D01*
X83754852Y-92065199D01*
X83864683Y-91914028D01*
X83920011Y-91871364D01*
X83989624Y-91865385D01*
X84051420Y-91897990D01*
X84065313Y-91914023D01*
X84175144Y-92065193D01*
X84175148Y-92065199D01*
X84329806Y-92219857D01*
X84444508Y-92303191D01*
X84506743Y-92348407D01*
X84634132Y-92413315D01*
X84701616Y-92447701D01*
X84701619Y-92447702D01*
X84805621Y-92481493D01*
X84909625Y-92515286D01*
X85009672Y-92531132D01*
X85125639Y-92549500D01*
X85125644Y-92549500D01*
X85344361Y-92549500D01*
X85449082Y-92532912D01*
X85560375Y-92515286D01*
X85768383Y-92447701D01*
X85963257Y-92348407D01*
X86098704Y-92250000D01*
X86140193Y-92219857D01*
X86140195Y-92219854D01*
X86140199Y-92219852D01*
X86294852Y-92065199D01*
X86404991Y-91913603D01*
X86460320Y-91870939D01*
X86529933Y-91864960D01*
X86591729Y-91897565D01*
X86605628Y-91913606D01*
X86631806Y-91949638D01*
X86631807Y-91949638D01*
X87337352Y-91244093D01*
X87360792Y-91331571D01*
X87419311Y-91432930D01*
X87502070Y-91515689D01*
X87603429Y-91574208D01*
X87690905Y-91597647D01*
X86985360Y-92303191D01*
X87047008Y-92347980D01*
X87241808Y-92447237D01*
X87241811Y-92447238D01*
X87449740Y-92514797D01*
X87665684Y-92549000D01*
X87884316Y-92549000D01*
X88100259Y-92514797D01*
X88279166Y-92456668D01*
X88308188Y-92447238D01*
X88308191Y-92447237D01*
X88502995Y-92347978D01*
X88564638Y-92303191D01*
X88564639Y-92303191D01*
X87859094Y-91597647D01*
X87946571Y-91574208D01*
X88047930Y-91515689D01*
X88130689Y-91432930D01*
X88189208Y-91331571D01*
X88212647Y-91244095D01*
X88918191Y-91949639D01*
X88918191Y-91949638D01*
X88962978Y-91887995D01*
X89062237Y-91693191D01*
X89062238Y-91693188D01*
X89129797Y-91485259D01*
X89164000Y-91269316D01*
X89164000Y-91050683D01*
X89129797Y-90834740D01*
X89062238Y-90626811D01*
X89062237Y-90626808D01*
X88962980Y-90432008D01*
X88918191Y-90370360D01*
X88212647Y-91075904D01*
X88189208Y-90988429D01*
X88130689Y-90887070D01*
X88047930Y-90804311D01*
X87946571Y-90745792D01*
X87859092Y-90722352D01*
X88564638Y-90016807D01*
X88564638Y-90016806D01*
X88538882Y-89998094D01*
X88502995Y-89972021D01*
X88502993Y-89972020D01*
X88308191Y-89872762D01*
X88308188Y-89872761D01*
X88100259Y-89805202D01*
X87884316Y-89771000D01*
X87665684Y-89771000D01*
X87449740Y-89805202D01*
X87241811Y-89872761D01*
X87241808Y-89872762D01*
X87047001Y-89972023D01*
X86985360Y-90016806D01*
X86985360Y-90016807D01*
X87690905Y-90722352D01*
X87603429Y-90745792D01*
X87502070Y-90804311D01*
X87419311Y-90887070D01*
X87360792Y-90988429D01*
X87337352Y-91075905D01*
X86631807Y-90370360D01*
X86631805Y-90370360D01*
X86605626Y-90406394D01*
X86550297Y-90449060D01*
X86480683Y-90455039D01*
X86418888Y-90422434D01*
X86404995Y-90406401D01*
X86294852Y-90254801D01*
X86140199Y-90100148D01*
X86140193Y-90100142D01*
X85963260Y-89971595D01*
X85963259Y-89971594D01*
X85963257Y-89971593D01*
X85900825Y-89939782D01*
X85768383Y-89872298D01*
X85768380Y-89872297D01*
X85560376Y-89804714D01*
X85344361Y-89770500D01*
X85344356Y-89770500D01*
X85125644Y-89770500D01*
X85125639Y-89770500D01*
X84909623Y-89804714D01*
X84701619Y-89872297D01*
X84701616Y-89872298D01*
X84506739Y-89971595D01*
X84329806Y-90100142D01*
X84175142Y-90254806D01*
X84065318Y-90405969D01*
X84009989Y-90448635D01*
X83940375Y-90454614D01*
X83878580Y-90422009D01*
X83864682Y-90405969D01*
X83754857Y-90254806D01*
X83600193Y-90100142D01*
X83423260Y-89971595D01*
X83423259Y-89971594D01*
X83423257Y-89971593D01*
X83360825Y-89939782D01*
X83228383Y-89872298D01*
X83228380Y-89872297D01*
X83020376Y-89804714D01*
X82804361Y-89770500D01*
X82804356Y-89770500D01*
X82585644Y-89770500D01*
X82585639Y-89770500D01*
X82369623Y-89804714D01*
X82161619Y-89872297D01*
X82161616Y-89872298D01*
X81966739Y-89971595D01*
X81789806Y-90100142D01*
X81635142Y-90254806D01*
X81506595Y-90431739D01*
X81407298Y-90626616D01*
X81407297Y-90626619D01*
X81339714Y-90834623D01*
X81305500Y-91050638D01*
X60500500Y-91050638D01*
X60500500Y-88490693D01*
X76924500Y-88490693D01*
X76924500Y-88749306D01*
X76964956Y-89004733D01*
X76964956Y-89004734D01*
X77044874Y-89250695D01*
X77162283Y-89481122D01*
X77242463Y-89591481D01*
X77242464Y-89591482D01*
X77929337Y-88904609D01*
X77948497Y-88950864D01*
X78024939Y-89065268D01*
X78122232Y-89162561D01*
X78236636Y-89239003D01*
X78282890Y-89258161D01*
X77596016Y-89945034D01*
X77596017Y-89945036D01*
X77706377Y-90025216D01*
X77936804Y-90142625D01*
X78182766Y-90222543D01*
X78438194Y-90263000D01*
X78696806Y-90263000D01*
X78952233Y-90222543D01*
X78952234Y-90222543D01*
X79198195Y-90142625D01*
X79428619Y-90025218D01*
X79538981Y-89945034D01*
X79538982Y-89945034D01*
X78852109Y-89258162D01*
X78898364Y-89239003D01*
X79012768Y-89162561D01*
X79110061Y-89065268D01*
X79186503Y-88950864D01*
X79205662Y-88904609D01*
X79892534Y-89591482D01*
X79892534Y-89591481D01*
X79972718Y-89481119D01*
X80090125Y-89250695D01*
X80170043Y-89004734D01*
X80170043Y-89004733D01*
X80210500Y-88749306D01*
X80210500Y-88490693D01*
X90259500Y-88490693D01*
X90259500Y-88749306D01*
X90299956Y-89004733D01*
X90299956Y-89004734D01*
X90379874Y-89250695D01*
X90497283Y-89481122D01*
X90577463Y-89591481D01*
X90577464Y-89591482D01*
X91264337Y-88904609D01*
X91283497Y-88950864D01*
X91359939Y-89065268D01*
X91457232Y-89162561D01*
X91571636Y-89239003D01*
X91617890Y-89258161D01*
X90931016Y-89945034D01*
X90931017Y-89945036D01*
X91041377Y-90025216D01*
X91271804Y-90142625D01*
X91517766Y-90222543D01*
X91773194Y-90263000D01*
X92031806Y-90263000D01*
X92287233Y-90222543D01*
X92287234Y-90222543D01*
X92533195Y-90142625D01*
X92763619Y-90025218D01*
X92873981Y-89945034D01*
X92873982Y-89945034D01*
X92187109Y-89258162D01*
X92233364Y-89239003D01*
X92347768Y-89162561D01*
X92445061Y-89065268D01*
X92521503Y-88950864D01*
X92540661Y-88904609D01*
X93227534Y-89591482D01*
X93227534Y-89591481D01*
X93307718Y-89481119D01*
X93425125Y-89250695D01*
X93463724Y-89131902D01*
X105484500Y-89131902D01*
X105484500Y-89368097D01*
X105521446Y-89601368D01*
X105594433Y-89825996D01*
X105691657Y-90016807D01*
X105701657Y-90036433D01*
X105840483Y-90227510D01*
X106007490Y-90394517D01*
X106198567Y-90533343D01*
X106297991Y-90584002D01*
X106409003Y-90640566D01*
X106409005Y-90640566D01*
X106409008Y-90640568D01*
X106529412Y-90679689D01*
X106633631Y-90713553D01*
X106866903Y-90750500D01*
X106866908Y-90750500D01*
X107103097Y-90750500D01*
X107336368Y-90713553D01*
X107560992Y-90640568D01*
X107771433Y-90533343D01*
X107962510Y-90394517D01*
X108129517Y-90227510D01*
X108268343Y-90036433D01*
X108375568Y-89825992D01*
X108448553Y-89601368D01*
X108452121Y-89578842D01*
X108485500Y-89368097D01*
X108485500Y-89131902D01*
X111984500Y-89131902D01*
X111984500Y-89368097D01*
X112021446Y-89601368D01*
X112094433Y-89825996D01*
X112191657Y-90016807D01*
X112201657Y-90036433D01*
X112340483Y-90227510D01*
X112507490Y-90394517D01*
X112698567Y-90533343D01*
X112797991Y-90584002D01*
X112909003Y-90640566D01*
X112909005Y-90640566D01*
X112909008Y-90640568D01*
X113029412Y-90679689D01*
X113133631Y-90713553D01*
X113366903Y-90750500D01*
X113366908Y-90750500D01*
X113603097Y-90750500D01*
X113836368Y-90713553D01*
X114060992Y-90640568D01*
X114271433Y-90533343D01*
X114462510Y-90394517D01*
X114629517Y-90227510D01*
X114768343Y-90036433D01*
X114875568Y-89825992D01*
X114948553Y-89601368D01*
X114952121Y-89578842D01*
X114985500Y-89368097D01*
X114985500Y-89131902D01*
X114948553Y-88898631D01*
X114875566Y-88674003D01*
X114795315Y-88516503D01*
X114768343Y-88463567D01*
X114629517Y-88272490D01*
X114462510Y-88105483D01*
X114271433Y-87966657D01*
X114263110Y-87962416D01*
X114060996Y-87859433D01*
X113836368Y-87786446D01*
X113603097Y-87749500D01*
X113603092Y-87749500D01*
X113366908Y-87749500D01*
X113366903Y-87749500D01*
X113133631Y-87786446D01*
X112909003Y-87859433D01*
X112698566Y-87966657D01*
X112596791Y-88040602D01*
X112507490Y-88105483D01*
X112507488Y-88105485D01*
X112507487Y-88105485D01*
X112340485Y-88272487D01*
X112340485Y-88272488D01*
X112340483Y-88272490D01*
X112337465Y-88276644D01*
X112201657Y-88463566D01*
X112094433Y-88674003D01*
X112021446Y-88898631D01*
X111984500Y-89131902D01*
X108485500Y-89131902D01*
X108448553Y-88898631D01*
X108375566Y-88674003D01*
X108295315Y-88516503D01*
X108268343Y-88463567D01*
X108129517Y-88272490D01*
X107962510Y-88105483D01*
X107771433Y-87966657D01*
X107763110Y-87962416D01*
X107560996Y-87859433D01*
X107336368Y-87786446D01*
X107103097Y-87749500D01*
X107103092Y-87749500D01*
X106866908Y-87749500D01*
X106866903Y-87749500D01*
X106633631Y-87786446D01*
X106409003Y-87859433D01*
X106198566Y-87966657D01*
X106096791Y-88040602D01*
X106007490Y-88105483D01*
X106007488Y-88105485D01*
X106007487Y-88105485D01*
X105840485Y-88272487D01*
X105840485Y-88272488D01*
X105840483Y-88272490D01*
X105837465Y-88276644D01*
X105701657Y-88463566D01*
X105594433Y-88674003D01*
X105521446Y-88898631D01*
X105484500Y-89131902D01*
X93463724Y-89131902D01*
X93477756Y-89088718D01*
X93505043Y-89004734D01*
X93505043Y-89004733D01*
X93545500Y-88749306D01*
X93545500Y-88490693D01*
X93505043Y-88235266D01*
X93505043Y-88235265D01*
X93425125Y-87989304D01*
X93307716Y-87758877D01*
X93227536Y-87648517D01*
X93227534Y-87648516D01*
X92540661Y-88335389D01*
X92521503Y-88289136D01*
X92445061Y-88174732D01*
X92347768Y-88077439D01*
X92233364Y-88000997D01*
X92187108Y-87981837D01*
X92873982Y-87294964D01*
X92873981Y-87294963D01*
X92763622Y-87214783D01*
X92533195Y-87097374D01*
X92287233Y-87017456D01*
X92031806Y-86977000D01*
X91773194Y-86977000D01*
X91517766Y-87017456D01*
X91517765Y-87017456D01*
X91271804Y-87097374D01*
X91041384Y-87214779D01*
X90931017Y-87294964D01*
X90931017Y-87294965D01*
X91617890Y-87981837D01*
X91571636Y-88000997D01*
X91457232Y-88077439D01*
X91359939Y-88174732D01*
X91283497Y-88289136D01*
X91264337Y-88335390D01*
X90577465Y-87648517D01*
X90577464Y-87648517D01*
X90497279Y-87758884D01*
X90379874Y-87989304D01*
X90299956Y-88235265D01*
X90299956Y-88235266D01*
X90259500Y-88490693D01*
X80210500Y-88490693D01*
X80170043Y-88235266D01*
X80170043Y-88235265D01*
X80090125Y-87989304D01*
X79972716Y-87758877D01*
X79892536Y-87648517D01*
X79892534Y-87648516D01*
X79205661Y-88335389D01*
X79186503Y-88289136D01*
X79110061Y-88174732D01*
X79012768Y-88077439D01*
X78898364Y-88000997D01*
X78852108Y-87981837D01*
X79538982Y-87294964D01*
X79538981Y-87294963D01*
X79428622Y-87214783D01*
X79198195Y-87097374D01*
X78952233Y-87017456D01*
X78696806Y-86977000D01*
X78438194Y-86977000D01*
X78182766Y-87017456D01*
X78182765Y-87017456D01*
X77936804Y-87097374D01*
X77706384Y-87214779D01*
X77596017Y-87294964D01*
X77596017Y-87294965D01*
X78282890Y-87981837D01*
X78236636Y-88000997D01*
X78122232Y-88077439D01*
X78024939Y-88174732D01*
X77948497Y-88289136D01*
X77929337Y-88335390D01*
X77242465Y-87648517D01*
X77242464Y-87648517D01*
X77162279Y-87758884D01*
X77044874Y-87989304D01*
X76964956Y-88235265D01*
X76964956Y-88235266D01*
X76924500Y-88490693D01*
X60500500Y-88490693D01*
X60500500Y-84065638D01*
X71145500Y-84065638D01*
X71145500Y-84284361D01*
X71179714Y-84500376D01*
X71247297Y-84708380D01*
X71247298Y-84708383D01*
X71308676Y-84828842D01*
X71346458Y-84902993D01*
X71346595Y-84903260D01*
X71475142Y-85080193D01*
X71629806Y-85234857D01*
X71744508Y-85318191D01*
X71806743Y-85363407D01*
X71934132Y-85428315D01*
X72001616Y-85462701D01*
X72001619Y-85462702D01*
X72084734Y-85489707D01*
X72209625Y-85530286D01*
X72309672Y-85546132D01*
X72425639Y-85564500D01*
X72425644Y-85564500D01*
X72644361Y-85564500D01*
X72749082Y-85547912D01*
X72860375Y-85530286D01*
X73068383Y-85462701D01*
X73263257Y-85363407D01*
X73405188Y-85260289D01*
X73440193Y-85234857D01*
X73440195Y-85234854D01*
X73440199Y-85234852D01*
X73594852Y-85080199D01*
X73594854Y-85080195D01*
X73594857Y-85080193D01*
X73665107Y-84983501D01*
X73723407Y-84903257D01*
X73822701Y-84708383D01*
X73890286Y-84500375D01*
X73910805Y-84370821D01*
X73924500Y-84284361D01*
X73924500Y-84065683D01*
X76226000Y-84065683D01*
X76226000Y-84284316D01*
X76260202Y-84500259D01*
X76327761Y-84708188D01*
X76327762Y-84708191D01*
X76427020Y-84902993D01*
X76427021Y-84902995D01*
X76471806Y-84964638D01*
X76471807Y-84964638D01*
X77172861Y-84263584D01*
X77195667Y-84348694D01*
X77254910Y-84451306D01*
X77338694Y-84535090D01*
X77441306Y-84594333D01*
X77526414Y-84617137D01*
X76825360Y-85318191D01*
X76887008Y-85362980D01*
X77081808Y-85462237D01*
X77081811Y-85462238D01*
X77289740Y-85529797D01*
X77505684Y-85564000D01*
X77724316Y-85564000D01*
X77940259Y-85529797D01*
X78148188Y-85462238D01*
X78148191Y-85462237D01*
X78342995Y-85362978D01*
X78404638Y-85318191D01*
X78404639Y-85318191D01*
X77703585Y-84617138D01*
X77788694Y-84594333D01*
X77891306Y-84535090D01*
X77975090Y-84451306D01*
X78034333Y-84348694D01*
X78057137Y-84263585D01*
X78758191Y-84964639D01*
X78758191Y-84964638D01*
X78802978Y-84902995D01*
X78902237Y-84708191D01*
X78902238Y-84708188D01*
X78969797Y-84500259D01*
X79004000Y-84284316D01*
X79004000Y-84065683D01*
X78969797Y-83849740D01*
X78902238Y-83641811D01*
X78902237Y-83641808D01*
X78802980Y-83447008D01*
X78758191Y-83385360D01*
X78057137Y-84086414D01*
X78034333Y-84001306D01*
X77975090Y-83898694D01*
X77891306Y-83814910D01*
X77788694Y-83755667D01*
X77703583Y-83732861D01*
X78404638Y-83031807D01*
X78404638Y-83031806D01*
X78342995Y-82987021D01*
X78342993Y-82987020D01*
X78148191Y-82887762D01*
X78148188Y-82887761D01*
X77940259Y-82820202D01*
X77724316Y-82786000D01*
X77505684Y-82786000D01*
X77289740Y-82820202D01*
X77081811Y-82887761D01*
X77081808Y-82887762D01*
X76887001Y-82987023D01*
X76825360Y-83031806D01*
X76825360Y-83031807D01*
X77526414Y-83732861D01*
X77441306Y-83755667D01*
X77338694Y-83814910D01*
X77254910Y-83898694D01*
X77195667Y-84001306D01*
X77172861Y-84086414D01*
X76471807Y-83385360D01*
X76471806Y-83385360D01*
X76427023Y-83447001D01*
X76327762Y-83641808D01*
X76327761Y-83641811D01*
X76260202Y-83849740D01*
X76226000Y-84065683D01*
X73924500Y-84065683D01*
X73924500Y-84065638D01*
X73898185Y-83899500D01*
X73890286Y-83849625D01*
X73853884Y-83737590D01*
X73822702Y-83641619D01*
X73822701Y-83641616D01*
X73788315Y-83574132D01*
X73723407Y-83446743D01*
X73715147Y-83435374D01*
X73594857Y-83269806D01*
X73440193Y-83115142D01*
X73263260Y-82986595D01*
X73263259Y-82986594D01*
X73263257Y-82986593D01*
X73191249Y-82949903D01*
X73068383Y-82887298D01*
X73068380Y-82887297D01*
X72860376Y-82819714D01*
X72644361Y-82785500D01*
X72644356Y-82785500D01*
X72425644Y-82785500D01*
X72425639Y-82785500D01*
X72209623Y-82819714D01*
X72001619Y-82887297D01*
X72001616Y-82887298D01*
X71806739Y-82986595D01*
X71629806Y-83115142D01*
X71475142Y-83269806D01*
X71346595Y-83446739D01*
X71247298Y-83641616D01*
X71247297Y-83641619D01*
X71179714Y-83849623D01*
X71145500Y-84065638D01*
X60500500Y-84065638D01*
X60500500Y-80890638D01*
X94005500Y-80890638D01*
X94005500Y-81109361D01*
X94039714Y-81325376D01*
X94107297Y-81533380D01*
X94107298Y-81533383D01*
X94206595Y-81728260D01*
X94335142Y-81905193D01*
X94489806Y-82059857D01*
X94640969Y-82169682D01*
X94683635Y-82225011D01*
X94689614Y-82294625D01*
X94657009Y-82356420D01*
X94640969Y-82370318D01*
X94489806Y-82480142D01*
X94335142Y-82634806D01*
X94206595Y-82811739D01*
X94107298Y-83006616D01*
X94107297Y-83006619D01*
X94039714Y-83214623D01*
X94005500Y-83430638D01*
X94005500Y-83649361D01*
X94039714Y-83865376D01*
X94107297Y-84073380D01*
X94107298Y-84073383D01*
X94157118Y-84171158D01*
X94189820Y-84235339D01*
X94206595Y-84268260D01*
X94335142Y-84445193D01*
X94489806Y-84599857D01*
X94619008Y-84693726D01*
X94666743Y-84728407D01*
X94794132Y-84793315D01*
X94861616Y-84827701D01*
X94861619Y-84827702D01*
X94956411Y-84858501D01*
X95069625Y-84895286D01*
X95169672Y-84911132D01*
X95285639Y-84929500D01*
X95285644Y-84929500D01*
X95504361Y-84929500D01*
X95609082Y-84912912D01*
X95720375Y-84895286D01*
X95928383Y-84827701D01*
X96123257Y-84728407D01*
X96222601Y-84656229D01*
X96300193Y-84599857D01*
X96300195Y-84599854D01*
X96300199Y-84599852D01*
X96454852Y-84445199D01*
X96454854Y-84445195D01*
X96454857Y-84445193D01*
X96511229Y-84367601D01*
X96583407Y-84268257D01*
X96682701Y-84073383D01*
X96750286Y-83865375D01*
X96772519Y-83725000D01*
X96784500Y-83649361D01*
X96784500Y-83430638D01*
X96762320Y-83290606D01*
X96750286Y-83214625D01*
X96690886Y-83031807D01*
X96682702Y-83006619D01*
X96682701Y-83006616D01*
X96592119Y-82828842D01*
X96583407Y-82811743D01*
X96564704Y-82786000D01*
X96454857Y-82634806D01*
X96300199Y-82480148D01*
X96300191Y-82480142D01*
X96149028Y-82370316D01*
X96106364Y-82314989D01*
X96100385Y-82245376D01*
X96132990Y-82183580D01*
X96149023Y-82169686D01*
X96300199Y-82059852D01*
X96454852Y-81905199D01*
X96454854Y-81905195D01*
X96454857Y-81905193D01*
X96512756Y-81825500D01*
X96583407Y-81728257D01*
X96682701Y-81533383D01*
X96750286Y-81325375D01*
X96767912Y-81214082D01*
X96784500Y-81109361D01*
X96784500Y-80890638D01*
X96759139Y-80730520D01*
X96750286Y-80674625D01*
X96682701Y-80466617D01*
X96682701Y-80466616D01*
X96612610Y-80329057D01*
X96583407Y-80271743D01*
X96560178Y-80239771D01*
X96454857Y-80094806D01*
X96300197Y-79940146D01*
X96300192Y-79940142D01*
X96148605Y-79830008D01*
X96105939Y-79774678D01*
X96099960Y-79705065D01*
X96132565Y-79643270D01*
X96148605Y-79629372D01*
X96184638Y-79603191D01*
X96184639Y-79603191D01*
X95479094Y-78897647D01*
X95566571Y-78874208D01*
X95667930Y-78815689D01*
X95750689Y-78732930D01*
X95809208Y-78631571D01*
X95832647Y-78544094D01*
X96538191Y-79249639D01*
X96538191Y-79249638D01*
X96582978Y-79187995D01*
X96682237Y-78993191D01*
X96682238Y-78993188D01*
X96749797Y-78785259D01*
X96784000Y-78569316D01*
X96784000Y-78350683D01*
X96749797Y-78134740D01*
X96682238Y-77926811D01*
X96682237Y-77926808D01*
X96582980Y-77732008D01*
X96538191Y-77670360D01*
X95832647Y-78375904D01*
X95809208Y-78288429D01*
X95750689Y-78187070D01*
X95667930Y-78104311D01*
X95566571Y-78045792D01*
X95479092Y-78022352D01*
X96184638Y-77316807D01*
X96184638Y-77316806D01*
X96122995Y-77272021D01*
X96122993Y-77272020D01*
X95928191Y-77172762D01*
X95928188Y-77172761D01*
X95720259Y-77105202D01*
X95504316Y-77071000D01*
X95285684Y-77071000D01*
X95069740Y-77105202D01*
X94861811Y-77172761D01*
X94861808Y-77172762D01*
X94667001Y-77272023D01*
X94605360Y-77316806D01*
X94605360Y-77316807D01*
X95310905Y-78022352D01*
X95223429Y-78045792D01*
X95122070Y-78104311D01*
X95039311Y-78187070D01*
X94980792Y-78288429D01*
X94957352Y-78375905D01*
X94251807Y-77670360D01*
X94251806Y-77670360D01*
X94207023Y-77732001D01*
X94107762Y-77926808D01*
X94107761Y-77926811D01*
X94040202Y-78134740D01*
X94006000Y-78350683D01*
X94006000Y-78569316D01*
X94040202Y-78785259D01*
X94107761Y-78993188D01*
X94107762Y-78993191D01*
X94207020Y-79187993D01*
X94207021Y-79187995D01*
X94251806Y-79249638D01*
X94251807Y-79249638D01*
X94957352Y-78544093D01*
X94980792Y-78631571D01*
X95039311Y-78732930D01*
X95122070Y-78815689D01*
X95223429Y-78874208D01*
X95310905Y-78897647D01*
X94605360Y-79603191D01*
X94605360Y-79603192D01*
X94641394Y-79629372D01*
X94684060Y-79684701D01*
X94690039Y-79754315D01*
X94657434Y-79816110D01*
X94641394Y-79830008D01*
X94489807Y-79940142D01*
X94489802Y-79940146D01*
X94335142Y-80094806D01*
X94206595Y-80271739D01*
X94107298Y-80466616D01*
X94107297Y-80466619D01*
X94039714Y-80674623D01*
X94005500Y-80890638D01*
X60500500Y-80890638D01*
X60500500Y-77715638D01*
X71145500Y-77715638D01*
X71145500Y-77934361D01*
X71179714Y-78150376D01*
X71247297Y-78358380D01*
X71247298Y-78358383D01*
X71299075Y-78459999D01*
X71328893Y-78518520D01*
X71346595Y-78553260D01*
X71475142Y-78730193D01*
X71629806Y-78884857D01*
X71778914Y-78993188D01*
X71806743Y-79013407D01*
X71934132Y-79078315D01*
X72001616Y-79112701D01*
X72001619Y-79112702D01*
X72029587Y-79121789D01*
X72209625Y-79180286D01*
X72309672Y-79196132D01*
X72425639Y-79214500D01*
X72425644Y-79214500D01*
X72644361Y-79214500D01*
X72749082Y-79197912D01*
X72860375Y-79180286D01*
X73068383Y-79112701D01*
X73263257Y-79013407D01*
X73413156Y-78904500D01*
X73440193Y-78884857D01*
X73440195Y-78884854D01*
X73440199Y-78884852D01*
X73594852Y-78730199D01*
X73594854Y-78730195D01*
X73594857Y-78730193D01*
X73666509Y-78631571D01*
X73723407Y-78553257D01*
X73822701Y-78358383D01*
X73890286Y-78150375D01*
X73915733Y-77989711D01*
X73924500Y-77934361D01*
X73924500Y-77715638D01*
X76225500Y-77715638D01*
X76225500Y-77934361D01*
X76259714Y-78150376D01*
X76327297Y-78358380D01*
X76327298Y-78358383D01*
X76379075Y-78459999D01*
X76408893Y-78518520D01*
X76426595Y-78553260D01*
X76555142Y-78730193D01*
X76709806Y-78884857D01*
X76858914Y-78993188D01*
X76886743Y-79013407D01*
X77014132Y-79078315D01*
X77081616Y-79112701D01*
X77081619Y-79112702D01*
X77109587Y-79121789D01*
X77289625Y-79180286D01*
X77389672Y-79196132D01*
X77505639Y-79214500D01*
X77505644Y-79214500D01*
X77724361Y-79214500D01*
X77829082Y-79197912D01*
X77940375Y-79180286D01*
X78148383Y-79112701D01*
X78343257Y-79013407D01*
X78493156Y-78904500D01*
X78520193Y-78884857D01*
X78520195Y-78884854D01*
X78520199Y-78884852D01*
X78674852Y-78730199D01*
X78674854Y-78730195D01*
X78674857Y-78730193D01*
X78746509Y-78631571D01*
X78803407Y-78553257D01*
X78902701Y-78358383D01*
X78970286Y-78150375D01*
X78995733Y-77989711D01*
X79004500Y-77934361D01*
X79004500Y-77715638D01*
X78971975Y-77510292D01*
X78970286Y-77499625D01*
X78910886Y-77316807D01*
X78902702Y-77291619D01*
X78902701Y-77291616D01*
X78842140Y-77172761D01*
X78803407Y-77096743D01*
X78675834Y-76921153D01*
X91199500Y-76921153D01*
X91199500Y-77078846D01*
X91230261Y-77233489D01*
X91230264Y-77233501D01*
X91290602Y-77379172D01*
X91290609Y-77379185D01*
X91378210Y-77510288D01*
X91378213Y-77510292D01*
X91489707Y-77621786D01*
X91489711Y-77621789D01*
X91620814Y-77709390D01*
X91620827Y-77709397D01*
X91675416Y-77732008D01*
X91766503Y-77769737D01*
X91921153Y-77800499D01*
X91921156Y-77800500D01*
X91921158Y-77800500D01*
X92078844Y-77800500D01*
X92078845Y-77800499D01*
X92233497Y-77769737D01*
X92379179Y-77709394D01*
X92510289Y-77621789D01*
X92621789Y-77510289D01*
X92709394Y-77379179D01*
X92769737Y-77233497D01*
X92796940Y-77096739D01*
X92800638Y-77078150D01*
X92833023Y-77016239D01*
X92834518Y-77014716D01*
X95928081Y-73921153D01*
X115699500Y-73921153D01*
X115699500Y-74078846D01*
X115730261Y-74233489D01*
X115730264Y-74233501D01*
X115790602Y-74379172D01*
X115790609Y-74379185D01*
X115878602Y-74510874D01*
X115899480Y-74577551D01*
X115899500Y-74579765D01*
X115899500Y-94670234D01*
X115879815Y-94737273D01*
X115878602Y-94739125D01*
X115790609Y-94870814D01*
X115790602Y-94870827D01*
X115730264Y-95016498D01*
X115730261Y-95016510D01*
X115699500Y-95171153D01*
X115699500Y-95328846D01*
X115730261Y-95483489D01*
X115730264Y-95483501D01*
X115790602Y-95629172D01*
X115790609Y-95629185D01*
X115878210Y-95760288D01*
X115878213Y-95760292D01*
X115989707Y-95871786D01*
X115989711Y-95871789D01*
X116120814Y-95959390D01*
X116120827Y-95959397D01*
X116266498Y-96019735D01*
X116266503Y-96019737D01*
X116421153Y-96050499D01*
X116421156Y-96050500D01*
X116421158Y-96050500D01*
X116578844Y-96050500D01*
X116578845Y-96050499D01*
X116733497Y-96019737D01*
X116879179Y-95959394D01*
X117010289Y-95871789D01*
X117121789Y-95760289D01*
X117209394Y-95629179D01*
X117240094Y-95555063D01*
X117260439Y-95505945D01*
X117304279Y-95451541D01*
X117370573Y-95429476D01*
X117438273Y-95446755D01*
X117485884Y-95497892D01*
X117489561Y-95505945D01*
X117540602Y-95629172D01*
X117540609Y-95629185D01*
X117628210Y-95760288D01*
X117628213Y-95760292D01*
X117739707Y-95871786D01*
X117739711Y-95871789D01*
X117870814Y-95959390D01*
X117870827Y-95959397D01*
X118016498Y-96019735D01*
X118016503Y-96019737D01*
X118171153Y-96050499D01*
X118171156Y-96050500D01*
X118171158Y-96050500D01*
X118328844Y-96050500D01*
X118328845Y-96050499D01*
X118483497Y-96019737D01*
X118629179Y-95959394D01*
X118760289Y-95871789D01*
X118871789Y-95760289D01*
X118959394Y-95629179D01*
X119019737Y-95483497D01*
X119039113Y-95386085D01*
X119050638Y-95328150D01*
X119083023Y-95266239D01*
X119084518Y-95264716D01*
X126655509Y-87693724D01*
X126716830Y-87660241D01*
X126786522Y-87665225D01*
X126842455Y-87707097D01*
X126846290Y-87712517D01*
X126878207Y-87760284D01*
X126878213Y-87760292D01*
X126989707Y-87871786D01*
X126989711Y-87871789D01*
X127120814Y-87959390D01*
X127120827Y-87959397D01*
X127266498Y-88019735D01*
X127266503Y-88019737D01*
X127419132Y-88050097D01*
X127421153Y-88050499D01*
X127421156Y-88050500D01*
X127421158Y-88050500D01*
X127578844Y-88050500D01*
X127578845Y-88050499D01*
X127733497Y-88019737D01*
X127846166Y-87973067D01*
X127879172Y-87959397D01*
X127879172Y-87959396D01*
X127879179Y-87959394D01*
X127879185Y-87959390D01*
X128010875Y-87871398D01*
X128077553Y-87850520D01*
X128079766Y-87850500D01*
X129496561Y-87850500D01*
X129563600Y-87870185D01*
X129609355Y-87922989D01*
X129619299Y-87992147D01*
X129590274Y-88055703D01*
X129565452Y-88077602D01*
X129489711Y-88128210D01*
X129489707Y-88128213D01*
X129378213Y-88239707D01*
X129378210Y-88239711D01*
X129290609Y-88370814D01*
X129290602Y-88370827D01*
X129230264Y-88516498D01*
X129230261Y-88516508D01*
X129199361Y-88671850D01*
X129166976Y-88733761D01*
X129165425Y-88735339D01*
X128485339Y-89415425D01*
X128424016Y-89448910D01*
X128421850Y-89449361D01*
X128266508Y-89480261D01*
X128266498Y-89480264D01*
X128120827Y-89540602D01*
X128120814Y-89540609D01*
X127989711Y-89628210D01*
X127989707Y-89628213D01*
X127878213Y-89739707D01*
X127878210Y-89739711D01*
X127790609Y-89870814D01*
X127790602Y-89870827D01*
X127730264Y-90016498D01*
X127730261Y-90016510D01*
X127699500Y-90171153D01*
X127699500Y-90328846D01*
X127730261Y-90483489D01*
X127730264Y-90483501D01*
X127790602Y-90629172D01*
X127790609Y-90629185D01*
X127878210Y-90760288D01*
X127878213Y-90760292D01*
X127989707Y-90871786D01*
X127989711Y-90871789D01*
X128120814Y-90959390D01*
X128120827Y-90959397D01*
X128266498Y-91019735D01*
X128266503Y-91019737D01*
X128394413Y-91045180D01*
X128421153Y-91050499D01*
X128421156Y-91050500D01*
X128421158Y-91050500D01*
X128578844Y-91050500D01*
X128578845Y-91050499D01*
X128733497Y-91019737D01*
X128879179Y-90959394D01*
X129010289Y-90871789D01*
X129121789Y-90760289D01*
X129209394Y-90629179D01*
X129269737Y-90483497D01*
X129295181Y-90355584D01*
X129300638Y-90328150D01*
X129333023Y-90266239D01*
X129334518Y-90264716D01*
X130014662Y-89584572D01*
X130075983Y-89551089D01*
X130078150Y-89550638D01*
X130136085Y-89539113D01*
X130233497Y-89519737D01*
X130379179Y-89459394D01*
X130510289Y-89371789D01*
X130621789Y-89260289D01*
X130709394Y-89129179D01*
X130712854Y-89120827D01*
X130767163Y-88989711D01*
X130769737Y-88983497D01*
X130800500Y-88828842D01*
X130800500Y-88699097D01*
X130820185Y-88632058D01*
X130872989Y-88586303D01*
X130942147Y-88576359D01*
X131005703Y-88605384D01*
X131012181Y-88611416D01*
X131165425Y-88764660D01*
X131198910Y-88825983D01*
X131199361Y-88828149D01*
X131230261Y-88983491D01*
X131230264Y-88983501D01*
X131290602Y-89129172D01*
X131290609Y-89129185D01*
X131378210Y-89260288D01*
X131378213Y-89260292D01*
X131489707Y-89371786D01*
X131489711Y-89371789D01*
X131620814Y-89459390D01*
X131620827Y-89459397D01*
X131673277Y-89481122D01*
X131766503Y-89519737D01*
X131921153Y-89550499D01*
X131921156Y-89550500D01*
X131921158Y-89550500D01*
X132078844Y-89550500D01*
X132078845Y-89550499D01*
X132233497Y-89519737D01*
X132379179Y-89459394D01*
X132510289Y-89371789D01*
X132621789Y-89260289D01*
X132709394Y-89129179D01*
X132712854Y-89120827D01*
X132767163Y-88989711D01*
X132769737Y-88983497D01*
X132800500Y-88828842D01*
X132800500Y-88671158D01*
X132800500Y-88671155D01*
X132800499Y-88671153D01*
X132788616Y-88611416D01*
X132769737Y-88516503D01*
X132759046Y-88490693D01*
X132709397Y-88370827D01*
X132709390Y-88370814D01*
X132621789Y-88239711D01*
X132621786Y-88239707D01*
X132510292Y-88128213D01*
X132510288Y-88128210D01*
X132379185Y-88040609D01*
X132379172Y-88040602D01*
X132233501Y-87980264D01*
X132233491Y-87980261D01*
X132078149Y-87949361D01*
X132016238Y-87916976D01*
X132014660Y-87915425D01*
X130987590Y-86888355D01*
X130987588Y-86888352D01*
X130868717Y-86769481D01*
X130868716Y-86769480D01*
X130764643Y-86709394D01*
X130764642Y-86709393D01*
X130731783Y-86690422D01*
X130675881Y-86675443D01*
X130579057Y-86649499D01*
X130420943Y-86649499D01*
X130413347Y-86649499D01*
X130413331Y-86649500D01*
X128079766Y-86649500D01*
X128012727Y-86629815D01*
X128010876Y-86628603D01*
X127962517Y-86596291D01*
X127917711Y-86542679D01*
X127909004Y-86473354D01*
X127939158Y-86410326D01*
X127943707Y-86405526D01*
X129655509Y-84693724D01*
X129716830Y-84660241D01*
X129786522Y-84665225D01*
X129842455Y-84707097D01*
X129846290Y-84712517D01*
X129878207Y-84760284D01*
X129878213Y-84760292D01*
X129989707Y-84871786D01*
X129989711Y-84871789D01*
X130120814Y-84959390D01*
X130120827Y-84959397D01*
X130266498Y-85019735D01*
X130266503Y-85019737D01*
X130321311Y-85030639D01*
X130421849Y-85050638D01*
X130483760Y-85083023D01*
X130485339Y-85084574D01*
X133113181Y-87712416D01*
X133146666Y-87773739D01*
X133149500Y-87800097D01*
X133149500Y-97163330D01*
X133149499Y-97163348D01*
X133149499Y-97329054D01*
X133149498Y-97329054D01*
X133149499Y-97329057D01*
X133190423Y-97481785D01*
X133191700Y-97483996D01*
X133224089Y-97540095D01*
X133261366Y-97604662D01*
X133277838Y-97672562D01*
X133257255Y-97732031D01*
X133254985Y-97738589D01*
X133200063Y-97781779D01*
X133130510Y-97788420D01*
X133106526Y-97781222D01*
X132983501Y-97730264D01*
X132983489Y-97730261D01*
X132828845Y-97699500D01*
X132828842Y-97699500D01*
X132671158Y-97699500D01*
X132671155Y-97699500D01*
X132516510Y-97730261D01*
X132516498Y-97730264D01*
X132370827Y-97790602D01*
X132370814Y-97790609D01*
X132239711Y-97878210D01*
X132239707Y-97878213D01*
X132128213Y-97989707D01*
X132128210Y-97989711D01*
X132040609Y-98120814D01*
X132040602Y-98120827D01*
X131980264Y-98266498D01*
X131980261Y-98266510D01*
X131949500Y-98421153D01*
X131949500Y-98578846D01*
X131980261Y-98733489D01*
X131980264Y-98733501D01*
X132040602Y-98879172D01*
X132040612Y-98879190D01*
X132099660Y-98967562D01*
X132120538Y-99034239D01*
X132103947Y-99098449D01*
X132095424Y-99113211D01*
X132095423Y-99113215D01*
X132054499Y-99265943D01*
X132054499Y-99265945D01*
X132054499Y-99434046D01*
X132054500Y-99434059D01*
X132054500Y-101214281D01*
X132034815Y-101281320D01*
X131986795Y-101324765D01*
X131947185Y-101344947D01*
X131947184Y-101344948D01*
X131775213Y-101469890D01*
X131624890Y-101620213D01*
X131499949Y-101792182D01*
X131495202Y-101801499D01*
X131447227Y-101852293D01*
X131379405Y-101869087D01*
X131313271Y-101846548D01*
X131274234Y-101801495D01*
X131269626Y-101792452D01*
X131230270Y-101738282D01*
X131230269Y-101738282D01*
X130597962Y-102370590D01*
X130580925Y-102307007D01*
X130515099Y-102192993D01*
X130422007Y-102099901D01*
X130307993Y-102034075D01*
X130244409Y-102017037D01*
X130876716Y-101384728D01*
X130822550Y-101345375D01*
X130633217Y-101248904D01*
X130431129Y-101183242D01*
X130221246Y-101150000D01*
X130008754Y-101150000D01*
X129798872Y-101183242D01*
X129798869Y-101183242D01*
X129596782Y-101248904D01*
X129407439Y-101345380D01*
X129353282Y-101384727D01*
X129353282Y-101384728D01*
X129985591Y-102017037D01*
X129922007Y-102034075D01*
X129807993Y-102099901D01*
X129714901Y-102192993D01*
X129649075Y-102307007D01*
X129632037Y-102370591D01*
X128961818Y-101700372D01*
X128928333Y-101639049D01*
X128928330Y-101639036D01*
X128925499Y-101626015D01*
X128925499Y-101602128D01*
X128919091Y-101542517D01*
X128879356Y-101435981D01*
X128868798Y-101407673D01*
X128868793Y-101407664D01*
X128782547Y-101292455D01*
X128782544Y-101292452D01*
X128667335Y-101206206D01*
X128667328Y-101206202D01*
X128532482Y-101155908D01*
X128532483Y-101155908D01*
X128472883Y-101149501D01*
X128472881Y-101149500D01*
X128472873Y-101149500D01*
X128472864Y-101149500D01*
X126677129Y-101149500D01*
X126677123Y-101149501D01*
X126617516Y-101155908D01*
X126482671Y-101206202D01*
X126482664Y-101206206D01*
X126367455Y-101292452D01*
X126367452Y-101292455D01*
X126281206Y-101407664D01*
X126281202Y-101407671D01*
X126230908Y-101542517D01*
X126224501Y-101602116D01*
X126224500Y-101602135D01*
X126224500Y-103397870D01*
X126224501Y-103397876D01*
X126230908Y-103457483D01*
X126281202Y-103592328D01*
X126281206Y-103592335D01*
X126367452Y-103707544D01*
X126367455Y-103707547D01*
X126482664Y-103793793D01*
X126482671Y-103793797D01*
X126617517Y-103844091D01*
X126617516Y-103844091D01*
X126624444Y-103844835D01*
X126677127Y-103850500D01*
X128472872Y-103850499D01*
X128532483Y-103844091D01*
X128667331Y-103793796D01*
X128782546Y-103707546D01*
X128868796Y-103592331D01*
X128919091Y-103457483D01*
X128925500Y-103397873D01*
X128925499Y-103373979D01*
X128928330Y-103360963D01*
X128938940Y-103341525D01*
X128945179Y-103320275D01*
X128961803Y-103299643D01*
X128961808Y-103299636D01*
X128961811Y-103299634D01*
X128961818Y-103299626D01*
X129632037Y-102629408D01*
X129649075Y-102692993D01*
X129714901Y-102807007D01*
X129807993Y-102900099D01*
X129922007Y-102965925D01*
X129985590Y-102982962D01*
X129353282Y-103615269D01*
X129353282Y-103615270D01*
X129407449Y-103654624D01*
X129596782Y-103751095D01*
X129798870Y-103816757D01*
X130008754Y-103850000D01*
X130221246Y-103850000D01*
X130431127Y-103816757D01*
X130431130Y-103816757D01*
X130633217Y-103751095D01*
X130822554Y-103654622D01*
X130876716Y-103615270D01*
X130876717Y-103615270D01*
X130244408Y-102982962D01*
X130307993Y-102965925D01*
X130422007Y-102900099D01*
X130515099Y-102807007D01*
X130580925Y-102692993D01*
X130597962Y-102629408D01*
X131230270Y-103261717D01*
X131230270Y-103261716D01*
X131269622Y-103207555D01*
X131274232Y-103198507D01*
X131322205Y-103147709D01*
X131390025Y-103130912D01*
X131456161Y-103153447D01*
X131495204Y-103198504D01*
X131499949Y-103207817D01*
X131624890Y-103379786D01*
X131775213Y-103530109D01*
X131947179Y-103655048D01*
X131947181Y-103655049D01*
X131947184Y-103655051D01*
X132136588Y-103751557D01*
X132338757Y-103817246D01*
X132548713Y-103850500D01*
X132548714Y-103850500D01*
X132761286Y-103850500D01*
X132761287Y-103850500D01*
X132971243Y-103817246D01*
X133173412Y-103751557D01*
X133362816Y-103655051D01*
X133449138Y-103592335D01*
X133534786Y-103530109D01*
X133534788Y-103530106D01*
X133534792Y-103530104D01*
X133685104Y-103379792D01*
X133685106Y-103379788D01*
X133685109Y-103379786D01*
X133810048Y-103207820D01*
X133810047Y-103207820D01*
X133810051Y-103207816D01*
X133814514Y-103199054D01*
X133862488Y-103148259D01*
X133930308Y-103131463D01*
X133996444Y-103153999D01*
X134035486Y-103199056D01*
X134039951Y-103207820D01*
X134164890Y-103379786D01*
X134315213Y-103530109D01*
X134487179Y-103655048D01*
X134487181Y-103655049D01*
X134487184Y-103655051D01*
X134676588Y-103751557D01*
X134878757Y-103817246D01*
X135088713Y-103850500D01*
X135088714Y-103850500D01*
X135301286Y-103850500D01*
X135301287Y-103850500D01*
X135511243Y-103817246D01*
X135713412Y-103751557D01*
X135902816Y-103655051D01*
X135989138Y-103592335D01*
X136074786Y-103530109D01*
X136074788Y-103530106D01*
X136074792Y-103530104D01*
X136225104Y-103379792D01*
X136225106Y-103379788D01*
X136225109Y-103379786D01*
X136350048Y-103207820D01*
X136350047Y-103207820D01*
X136350051Y-103207816D01*
X136354514Y-103199054D01*
X136402488Y-103148259D01*
X136470308Y-103131463D01*
X136536444Y-103153999D01*
X136575486Y-103199056D01*
X136579951Y-103207820D01*
X136704890Y-103379786D01*
X136855213Y-103530109D01*
X137027179Y-103655048D01*
X137027181Y-103655049D01*
X137027184Y-103655051D01*
X137216588Y-103751557D01*
X137418757Y-103817246D01*
X137628713Y-103850500D01*
X137628714Y-103850500D01*
X137841286Y-103850500D01*
X137841287Y-103850500D01*
X138051243Y-103817246D01*
X138253412Y-103751557D01*
X138442816Y-103655051D01*
X138529138Y-103592335D01*
X138614786Y-103530109D01*
X138614788Y-103530106D01*
X138614792Y-103530104D01*
X138765104Y-103379792D01*
X138765106Y-103379788D01*
X138765109Y-103379786D01*
X138890048Y-103207820D01*
X138890047Y-103207820D01*
X138890051Y-103207816D01*
X138986557Y-103018412D01*
X139052246Y-102816243D01*
X139085500Y-102606287D01*
X139085500Y-102393713D01*
X139052246Y-102183757D01*
X138986557Y-101981588D01*
X138890051Y-101792184D01*
X138850889Y-101738282D01*
X138802511Y-101671694D01*
X138802508Y-101671691D01*
X138778792Y-101639049D01*
X138765104Y-101620208D01*
X138747031Y-101602135D01*
X144109500Y-101602135D01*
X144109500Y-103397870D01*
X144109501Y-103397876D01*
X144115908Y-103457483D01*
X144166202Y-103592328D01*
X144166206Y-103592335D01*
X144252452Y-103707544D01*
X144252455Y-103707547D01*
X144367664Y-103793793D01*
X144367671Y-103793797D01*
X144502517Y-103844091D01*
X144502516Y-103844091D01*
X144509444Y-103844835D01*
X144562127Y-103850500D01*
X146357872Y-103850499D01*
X146417483Y-103844091D01*
X146552331Y-103793796D01*
X146667546Y-103707546D01*
X146753796Y-103592331D01*
X146804091Y-103457483D01*
X146810500Y-103397873D01*
X146810499Y-103373979D01*
X146813330Y-103360963D01*
X146823940Y-103341525D01*
X146830179Y-103320275D01*
X146846803Y-103299643D01*
X146846808Y-103299636D01*
X146846811Y-103299634D01*
X146846818Y-103299626D01*
X147517037Y-102629408D01*
X147534075Y-102692993D01*
X147599901Y-102807007D01*
X147692993Y-102900099D01*
X147807007Y-102965925D01*
X147870590Y-102982962D01*
X147238282Y-103615269D01*
X147238282Y-103615270D01*
X147292449Y-103654624D01*
X147481782Y-103751095D01*
X147683870Y-103816757D01*
X147893754Y-103850000D01*
X148106246Y-103850000D01*
X148316127Y-103816757D01*
X148316130Y-103816757D01*
X148518217Y-103751095D01*
X148707554Y-103654622D01*
X148761716Y-103615270D01*
X148761717Y-103615270D01*
X148129408Y-102982962D01*
X148192993Y-102965925D01*
X148307007Y-102900099D01*
X148400099Y-102807007D01*
X148465925Y-102692993D01*
X148482962Y-102629408D01*
X149115270Y-103261717D01*
X149115270Y-103261716D01*
X149154622Y-103207554D01*
X149251095Y-103018217D01*
X149316757Y-102816130D01*
X149316757Y-102816127D01*
X149350000Y-102606246D01*
X149350000Y-102393753D01*
X149316757Y-102183872D01*
X149316757Y-102183869D01*
X149251095Y-101981782D01*
X149154624Y-101792449D01*
X149115270Y-101738282D01*
X149115269Y-101738282D01*
X148482962Y-102370590D01*
X148465925Y-102307007D01*
X148400099Y-102192993D01*
X148307007Y-102099901D01*
X148192993Y-102034075D01*
X148129409Y-102017037D01*
X148761716Y-101384728D01*
X148707550Y-101345375D01*
X148518217Y-101248904D01*
X148316129Y-101183242D01*
X148106246Y-101150000D01*
X147893754Y-101150000D01*
X147683872Y-101183242D01*
X147683869Y-101183242D01*
X147481782Y-101248904D01*
X147292439Y-101345380D01*
X147238282Y-101384727D01*
X147238282Y-101384728D01*
X147870591Y-102017037D01*
X147807007Y-102034075D01*
X147692993Y-102099901D01*
X147599901Y-102192993D01*
X147534075Y-102307007D01*
X147517037Y-102370591D01*
X146846818Y-101700372D01*
X146813333Y-101639049D01*
X146813330Y-101639036D01*
X146810499Y-101626015D01*
X146810499Y-101602128D01*
X146804091Y-101542517D01*
X146764356Y-101435981D01*
X146753798Y-101407673D01*
X146753793Y-101407664D01*
X146667547Y-101292455D01*
X146667544Y-101292452D01*
X146552335Y-101206206D01*
X146552328Y-101206202D01*
X146417482Y-101155908D01*
X146417483Y-101155908D01*
X146357883Y-101149501D01*
X146357881Y-101149500D01*
X146357873Y-101149500D01*
X146357864Y-101149500D01*
X144562129Y-101149500D01*
X144562123Y-101149501D01*
X144502516Y-101155908D01*
X144367671Y-101206202D01*
X144367664Y-101206206D01*
X144252455Y-101292452D01*
X144252452Y-101292455D01*
X144166206Y-101407664D01*
X144166202Y-101407671D01*
X144115908Y-101542517D01*
X144109501Y-101602116D01*
X144109500Y-101602135D01*
X138747031Y-101602135D01*
X138614792Y-101469896D01*
X138614786Y-101469890D01*
X138442820Y-101344951D01*
X138253414Y-101248444D01*
X138253413Y-101248443D01*
X138253412Y-101248443D01*
X138051243Y-101182754D01*
X138051241Y-101182753D01*
X138051240Y-101182753D01*
X137889957Y-101157208D01*
X137841287Y-101149500D01*
X137628713Y-101149500D01*
X137580042Y-101157208D01*
X137418760Y-101182753D01*
X137216585Y-101248444D01*
X137027179Y-101344951D01*
X136855213Y-101469890D01*
X136704890Y-101620213D01*
X136579949Y-101792182D01*
X136575484Y-101800946D01*
X136527509Y-101851742D01*
X136459688Y-101868536D01*
X136393553Y-101845998D01*
X136354516Y-101800946D01*
X136350050Y-101792182D01*
X136225109Y-101620213D01*
X136074786Y-101469890D01*
X135902820Y-101344951D01*
X135713414Y-101248444D01*
X135713413Y-101248443D01*
X135713412Y-101248443D01*
X135656952Y-101230098D01*
X135599278Y-101190662D01*
X135572080Y-101126303D01*
X135583995Y-101057457D01*
X135607590Y-101024487D01*
X135621789Y-101010289D01*
X135709394Y-100879179D01*
X135769737Y-100733497D01*
X135800500Y-100578842D01*
X135800500Y-100421158D01*
X135800500Y-100421155D01*
X135800499Y-100421153D01*
X135769738Y-100266510D01*
X135769737Y-100266503D01*
X135724061Y-100156230D01*
X135709397Y-100120827D01*
X135709390Y-100120814D01*
X135621398Y-99989125D01*
X135600520Y-99922447D01*
X135600500Y-99920234D01*
X135600500Y-98589059D01*
X135600501Y-98589046D01*
X135600501Y-98420945D01*
X135600501Y-98420943D01*
X135559577Y-98268215D01*
X135519904Y-98199500D01*
X135480520Y-98131284D01*
X135368716Y-98019480D01*
X135364385Y-98015149D01*
X135364374Y-98015139D01*
X134386819Y-97037584D01*
X134353334Y-96976261D01*
X134350500Y-96949903D01*
X134350500Y-96385837D01*
X180399500Y-96385837D01*
X180399500Y-96614162D01*
X180435215Y-96839660D01*
X180505770Y-97056803D01*
X180560049Y-97163330D01*
X180609421Y-97260228D01*
X180743621Y-97444937D01*
X180905063Y-97606379D01*
X181089772Y-97740579D01*
X181185884Y-97789550D01*
X181293196Y-97844229D01*
X181293198Y-97844229D01*
X181293201Y-97844231D01*
X181409592Y-97882049D01*
X181510339Y-97914784D01*
X181735838Y-97950500D01*
X181735843Y-97950500D01*
X183264162Y-97950500D01*
X183489660Y-97914784D01*
X183706799Y-97844231D01*
X183910228Y-97740579D01*
X184094937Y-97606379D01*
X184256379Y-97444937D01*
X184390579Y-97260228D01*
X184494231Y-97056799D01*
X184564784Y-96839660D01*
X184600500Y-96614162D01*
X184600500Y-96385837D01*
X192899500Y-96385837D01*
X192899500Y-96614162D01*
X192935215Y-96839660D01*
X193005770Y-97056803D01*
X193060049Y-97163330D01*
X193109421Y-97260228D01*
X193243621Y-97444937D01*
X193405063Y-97606379D01*
X193589772Y-97740579D01*
X193685884Y-97789550D01*
X193793196Y-97844229D01*
X193793198Y-97844229D01*
X193793201Y-97844231D01*
X193909592Y-97882049D01*
X194010339Y-97914784D01*
X194235838Y-97950500D01*
X194235843Y-97950500D01*
X195764162Y-97950500D01*
X195989660Y-97914784D01*
X196206799Y-97844231D01*
X196410228Y-97740579D01*
X196594937Y-97606379D01*
X196756379Y-97444937D01*
X196890579Y-97260228D01*
X196994231Y-97056799D01*
X197064784Y-96839660D01*
X197100500Y-96614162D01*
X197100500Y-96385837D01*
X197064784Y-96160339D01*
X196994229Y-95943196D01*
X196890578Y-95739771D01*
X196810232Y-95629185D01*
X196756379Y-95555063D01*
X196594937Y-95393621D01*
X196410228Y-95259421D01*
X196391738Y-95250000D01*
X196206803Y-95155770D01*
X195989660Y-95085215D01*
X195764162Y-95049500D01*
X195764157Y-95049500D01*
X194235843Y-95049500D01*
X194235838Y-95049500D01*
X194010339Y-95085215D01*
X193793196Y-95155770D01*
X193589771Y-95259421D01*
X193405061Y-95393622D01*
X193243622Y-95555061D01*
X193109421Y-95739771D01*
X193005770Y-95943196D01*
X192935215Y-96160339D01*
X192899500Y-96385837D01*
X184600500Y-96385837D01*
X184564784Y-96160339D01*
X184494229Y-95943196D01*
X184390578Y-95739771D01*
X184310232Y-95629185D01*
X184256379Y-95555063D01*
X184094937Y-95393621D01*
X183910228Y-95259421D01*
X183891738Y-95250000D01*
X183706803Y-95155770D01*
X183489660Y-95085215D01*
X183264162Y-95049500D01*
X183264157Y-95049500D01*
X181735843Y-95049500D01*
X181735838Y-95049500D01*
X181510339Y-95085215D01*
X181293196Y-95155770D01*
X181089771Y-95259421D01*
X180905061Y-95393622D01*
X180743622Y-95555061D01*
X180609421Y-95739771D01*
X180505770Y-95943196D01*
X180435215Y-96160339D01*
X180399500Y-96385837D01*
X134350500Y-96385837D01*
X134350500Y-89421153D01*
X136949500Y-89421153D01*
X136949500Y-89578846D01*
X136980261Y-89733489D01*
X136980264Y-89733501D01*
X137040602Y-89879172D01*
X137040609Y-89879185D01*
X137128210Y-90010288D01*
X137128213Y-90010292D01*
X137239707Y-90121786D01*
X137239711Y-90121789D01*
X137370814Y-90209390D01*
X137370827Y-90209397D01*
X137480444Y-90254801D01*
X137516503Y-90269737D01*
X137662285Y-90298735D01*
X137671153Y-90300499D01*
X137671156Y-90300500D01*
X137671158Y-90300500D01*
X137828844Y-90300500D01*
X137828845Y-90300499D01*
X137983497Y-90269737D01*
X138129179Y-90209394D01*
X138165674Y-90185009D01*
X138260875Y-90121398D01*
X138327553Y-90100520D01*
X138329766Y-90100500D01*
X144913331Y-90100500D01*
X144913347Y-90100501D01*
X144920943Y-90100501D01*
X145079054Y-90100501D01*
X145079057Y-90100501D01*
X145231785Y-90059577D01*
X145281904Y-90030639D01*
X145368716Y-89980520D01*
X145480520Y-89868716D01*
X145480520Y-89868714D01*
X145490728Y-89858507D01*
X145490729Y-89858504D01*
X149599235Y-85750000D01*
X156421522Y-85750000D01*
X157899999Y-85750000D01*
X157874979Y-85810402D01*
X157850000Y-85935981D01*
X157850000Y-86064019D01*
X157874979Y-86189598D01*
X157899999Y-86250000D01*
X156421522Y-86250000D01*
X156435704Y-86339544D01*
X156506230Y-86556604D01*
X156609849Y-86759966D01*
X156744004Y-86944614D01*
X156905385Y-87105995D01*
X157090033Y-87240150D01*
X157293395Y-87343769D01*
X157510455Y-87414295D01*
X157735884Y-87450000D01*
X158250000Y-87450000D01*
X158250000Y-86600001D01*
X158310402Y-86625021D01*
X158435981Y-86650000D01*
X158564019Y-86650000D01*
X158689598Y-86625021D01*
X158750000Y-86600001D01*
X158750000Y-87450000D01*
X159264116Y-87450000D01*
X159489544Y-87414295D01*
X159706604Y-87343769D01*
X159909966Y-87240150D01*
X160094614Y-87105995D01*
X160255995Y-86944614D01*
X160390150Y-86759966D01*
X160493769Y-86556604D01*
X160564295Y-86339544D01*
X160578478Y-86250000D01*
X159100001Y-86250000D01*
X159125021Y-86189598D01*
X159150000Y-86064019D01*
X159150000Y-85935981D01*
X159125021Y-85810402D01*
X159100001Y-85750000D01*
X160578478Y-85750000D01*
X168921522Y-85750000D01*
X170399999Y-85750000D01*
X170374979Y-85810402D01*
X170350000Y-85935981D01*
X170350000Y-86064019D01*
X170374979Y-86189598D01*
X170399999Y-86250000D01*
X168921522Y-86250000D01*
X168935704Y-86339544D01*
X169006230Y-86556604D01*
X169109849Y-86759966D01*
X169244004Y-86944614D01*
X169405385Y-87105995D01*
X169590033Y-87240150D01*
X169793395Y-87343769D01*
X170010455Y-87414295D01*
X170235884Y-87450000D01*
X170750000Y-87450000D01*
X170750000Y-86600001D01*
X170810402Y-86625021D01*
X170935981Y-86650000D01*
X171064019Y-86650000D01*
X171189598Y-86625021D01*
X171250000Y-86600001D01*
X171250000Y-87450000D01*
X171764116Y-87450000D01*
X171989544Y-87414295D01*
X172206604Y-87343769D01*
X172409966Y-87240150D01*
X172594614Y-87105995D01*
X172755995Y-86944614D01*
X172890150Y-86759966D01*
X172993769Y-86556604D01*
X173064295Y-86339544D01*
X173078478Y-86250000D01*
X171600001Y-86250000D01*
X171625021Y-86189598D01*
X171650000Y-86064019D01*
X171650000Y-85935981D01*
X171625021Y-85810402D01*
X171600001Y-85750000D01*
X173078478Y-85750000D01*
X205421522Y-85750000D01*
X206899999Y-85750000D01*
X206874979Y-85810402D01*
X206850000Y-85935981D01*
X206850000Y-86064019D01*
X206874979Y-86189598D01*
X206899999Y-86250000D01*
X205421522Y-86250000D01*
X205435704Y-86339544D01*
X205506230Y-86556604D01*
X205609849Y-86759966D01*
X205744004Y-86944614D01*
X205905385Y-87105995D01*
X206090033Y-87240150D01*
X206293395Y-87343769D01*
X206510455Y-87414295D01*
X206735884Y-87450000D01*
X207250000Y-87450000D01*
X207250000Y-86600001D01*
X207310402Y-86625021D01*
X207435981Y-86650000D01*
X207564019Y-86650000D01*
X207689598Y-86625021D01*
X207750000Y-86600001D01*
X207750000Y-87450000D01*
X208264116Y-87450000D01*
X208489544Y-87414295D01*
X208706604Y-87343769D01*
X208909966Y-87240150D01*
X209094614Y-87105995D01*
X209255995Y-86944614D01*
X209390150Y-86759966D01*
X209493769Y-86556604D01*
X209564295Y-86339544D01*
X209578478Y-86250000D01*
X208100001Y-86250000D01*
X208125021Y-86189598D01*
X208150000Y-86064019D01*
X208150000Y-85935981D01*
X208125021Y-85810402D01*
X208100001Y-85750000D01*
X209578478Y-85750000D01*
X217921522Y-85750000D01*
X219399999Y-85750000D01*
X219374979Y-85810402D01*
X219350000Y-85935981D01*
X219350000Y-86064019D01*
X219374979Y-86189598D01*
X219399999Y-86250000D01*
X217921522Y-86250000D01*
X217935704Y-86339544D01*
X218006230Y-86556604D01*
X218109849Y-86759966D01*
X218244004Y-86944614D01*
X218405385Y-87105995D01*
X218590033Y-87240150D01*
X218793395Y-87343769D01*
X219010455Y-87414295D01*
X219235884Y-87450000D01*
X219750000Y-87450000D01*
X219750000Y-86600001D01*
X219810402Y-86625021D01*
X219935981Y-86650000D01*
X220064019Y-86650000D01*
X220189598Y-86625021D01*
X220250000Y-86600001D01*
X220250000Y-87450000D01*
X220764116Y-87450000D01*
X220989544Y-87414295D01*
X221206604Y-87343769D01*
X221409966Y-87240150D01*
X221594614Y-87105995D01*
X221755995Y-86944614D01*
X221890150Y-86759966D01*
X221993769Y-86556604D01*
X222064295Y-86339544D01*
X222078478Y-86250000D01*
X220600001Y-86250000D01*
X220625021Y-86189598D01*
X220650000Y-86064019D01*
X220650000Y-85935981D01*
X220625021Y-85810402D01*
X220600001Y-85750000D01*
X222078478Y-85750000D01*
X222064295Y-85660455D01*
X221993769Y-85443395D01*
X221890150Y-85240033D01*
X221755995Y-85055385D01*
X221594614Y-84894004D01*
X221409966Y-84759849D01*
X221206604Y-84656230D01*
X220989544Y-84585704D01*
X220764116Y-84550000D01*
X220250000Y-84550000D01*
X220250000Y-85399998D01*
X220189598Y-85374979D01*
X220064019Y-85350000D01*
X219935981Y-85350000D01*
X219810402Y-85374979D01*
X219750000Y-85399998D01*
X219750000Y-84550000D01*
X219235884Y-84550000D01*
X219010455Y-84585704D01*
X218793395Y-84656230D01*
X218590033Y-84759849D01*
X218405385Y-84894004D01*
X218244004Y-85055385D01*
X218109849Y-85240033D01*
X218006230Y-85443395D01*
X217935704Y-85660455D01*
X217921522Y-85750000D01*
X209578478Y-85750000D01*
X209564295Y-85660455D01*
X209493769Y-85443395D01*
X209390150Y-85240033D01*
X209255995Y-85055385D01*
X209094614Y-84894004D01*
X208909966Y-84759849D01*
X208706604Y-84656230D01*
X208489544Y-84585704D01*
X208264116Y-84550000D01*
X207750000Y-84550000D01*
X207750000Y-85399998D01*
X207689598Y-85374979D01*
X207564019Y-85350000D01*
X207435981Y-85350000D01*
X207310402Y-85374979D01*
X207250000Y-85399998D01*
X207250000Y-84550000D01*
X206735884Y-84550000D01*
X206510455Y-84585704D01*
X206293395Y-84656230D01*
X206090033Y-84759849D01*
X205905385Y-84894004D01*
X205744004Y-85055385D01*
X205609849Y-85240033D01*
X205506230Y-85443395D01*
X205435704Y-85660455D01*
X205421522Y-85750000D01*
X173078478Y-85750000D01*
X173064295Y-85660455D01*
X172993769Y-85443395D01*
X172890150Y-85240033D01*
X172755995Y-85055385D01*
X172594614Y-84894004D01*
X172409966Y-84759849D01*
X172206604Y-84656230D01*
X171989544Y-84585704D01*
X171764116Y-84550000D01*
X171250000Y-84550000D01*
X171250000Y-85399998D01*
X171189598Y-85374979D01*
X171064019Y-85350000D01*
X170935981Y-85350000D01*
X170810402Y-85374979D01*
X170750000Y-85399998D01*
X170750000Y-84550000D01*
X170235884Y-84550000D01*
X170010455Y-84585704D01*
X169793395Y-84656230D01*
X169590033Y-84759849D01*
X169405385Y-84894004D01*
X169244004Y-85055385D01*
X169109849Y-85240033D01*
X169006230Y-85443395D01*
X168935704Y-85660455D01*
X168921522Y-85750000D01*
X160578478Y-85750000D01*
X160564295Y-85660455D01*
X160493769Y-85443395D01*
X160390150Y-85240033D01*
X160255995Y-85055385D01*
X160094614Y-84894004D01*
X159909966Y-84759849D01*
X159706604Y-84656230D01*
X159489544Y-84585704D01*
X159264116Y-84550000D01*
X158750000Y-84550000D01*
X158750000Y-85399998D01*
X158689598Y-85374979D01*
X158564019Y-85350000D01*
X158435981Y-85350000D01*
X158310402Y-85374979D01*
X158250000Y-85399998D01*
X158250000Y-84550000D01*
X157735884Y-84550000D01*
X157510455Y-84585704D01*
X157293395Y-84656230D01*
X157090033Y-84759849D01*
X156905385Y-84894004D01*
X156744004Y-85055385D01*
X156609849Y-85240033D01*
X156506230Y-85443395D01*
X156435704Y-85660455D01*
X156421522Y-85750000D01*
X149599235Y-85750000D01*
X150514664Y-84834571D01*
X150575985Y-84801088D01*
X150578152Y-84800637D01*
X150578841Y-84800500D01*
X150578842Y-84800500D01*
X150733497Y-84769737D01*
X150846166Y-84723067D01*
X150879172Y-84709397D01*
X150879172Y-84709396D01*
X150879179Y-84709394D01*
X151010289Y-84621789D01*
X151121789Y-84510289D01*
X151209394Y-84379179D01*
X151212854Y-84370827D01*
X151230244Y-84328842D01*
X151269737Y-84233497D01*
X151300500Y-84078842D01*
X151300500Y-83921158D01*
X151300500Y-83921155D01*
X151300499Y-83921153D01*
X151289404Y-83865375D01*
X151269737Y-83766503D01*
X151265249Y-83755667D01*
X151209397Y-83620827D01*
X151209390Y-83620814D01*
X151121789Y-83489711D01*
X151121786Y-83489707D01*
X151010292Y-83378213D01*
X151010288Y-83378210D01*
X150879185Y-83290609D01*
X150879172Y-83290602D01*
X150733501Y-83230264D01*
X150733489Y-83230261D01*
X150578845Y-83199500D01*
X150578842Y-83199500D01*
X150421158Y-83199500D01*
X150421155Y-83199500D01*
X150266510Y-83230261D01*
X150266498Y-83230264D01*
X150120827Y-83290602D01*
X150120814Y-83290609D01*
X149989711Y-83378210D01*
X149989707Y-83378213D01*
X149878213Y-83489707D01*
X149878210Y-83489711D01*
X149790609Y-83620814D01*
X149790602Y-83620827D01*
X149730264Y-83766498D01*
X149730261Y-83766508D01*
X149699362Y-83921848D01*
X149666977Y-83983759D01*
X149665426Y-83985337D01*
X144787584Y-88863181D01*
X144726261Y-88896666D01*
X144699903Y-88899500D01*
X138329766Y-88899500D01*
X138262727Y-88879815D01*
X138260875Y-88878602D01*
X138129185Y-88790609D01*
X138129172Y-88790602D01*
X137983501Y-88730264D01*
X137983489Y-88730261D01*
X137828845Y-88699500D01*
X137828842Y-88699500D01*
X137671158Y-88699500D01*
X137671155Y-88699500D01*
X137516510Y-88730261D01*
X137516498Y-88730264D01*
X137370827Y-88790602D01*
X137370814Y-88790609D01*
X137239711Y-88878210D01*
X137239707Y-88878213D01*
X137128213Y-88989707D01*
X137128210Y-88989711D01*
X137040609Y-89120814D01*
X137040602Y-89120827D01*
X136980264Y-89266498D01*
X136980261Y-89266510D01*
X136949500Y-89421153D01*
X134350500Y-89421153D01*
X134350500Y-87420945D01*
X134350500Y-87420943D01*
X134309577Y-87268216D01*
X134309577Y-87268215D01*
X134309577Y-87268214D01*
X134280639Y-87218095D01*
X134280637Y-87218092D01*
X134278727Y-87214783D01*
X134230520Y-87131284D01*
X134118716Y-87019480D01*
X134118715Y-87019479D01*
X134114385Y-87015149D01*
X134114374Y-87015139D01*
X131770388Y-84671153D01*
X133949500Y-84671153D01*
X133949500Y-84828846D01*
X133980261Y-84983489D01*
X133980264Y-84983501D01*
X134040602Y-85129172D01*
X134040609Y-85129185D01*
X134128210Y-85260288D01*
X134128213Y-85260292D01*
X134239707Y-85371786D01*
X134239711Y-85371789D01*
X134370814Y-85459390D01*
X134370827Y-85459397D01*
X134508683Y-85516498D01*
X134516503Y-85519737D01*
X134671153Y-85550499D01*
X134671156Y-85550500D01*
X134671158Y-85550500D01*
X134828844Y-85550500D01*
X134828845Y-85550499D01*
X134983497Y-85519737D01*
X135122313Y-85462238D01*
X135129172Y-85459397D01*
X135129172Y-85459396D01*
X135129179Y-85459394D01*
X135182183Y-85423978D01*
X135260875Y-85371398D01*
X135327553Y-85350520D01*
X135329766Y-85350500D01*
X137663331Y-85350500D01*
X137663347Y-85350501D01*
X137670943Y-85350501D01*
X137829054Y-85350501D01*
X137829057Y-85350501D01*
X137981785Y-85309577D01*
X138031904Y-85280639D01*
X138118716Y-85230520D01*
X138230520Y-85118716D01*
X138230520Y-85118714D01*
X138240728Y-85108507D01*
X138240729Y-85108504D01*
X142463396Y-80885837D01*
X156399500Y-80885837D01*
X156399500Y-81114162D01*
X156435215Y-81339660D01*
X156505770Y-81556803D01*
X156595797Y-81733489D01*
X156609421Y-81760228D01*
X156743621Y-81944937D01*
X156905063Y-82106379D01*
X157089772Y-82240579D01*
X157146994Y-82269735D01*
X157293196Y-82344229D01*
X157293198Y-82344229D01*
X157293201Y-82344231D01*
X157375055Y-82370827D01*
X157510339Y-82414784D01*
X157735838Y-82450500D01*
X157735843Y-82450500D01*
X159264162Y-82450500D01*
X159489660Y-82414784D01*
X159706799Y-82344231D01*
X159910228Y-82240579D01*
X160094937Y-82106379D01*
X160256379Y-81944937D01*
X160390579Y-81760228D01*
X160494231Y-81556799D01*
X160564784Y-81339660D01*
X160576372Y-81266498D01*
X160600500Y-81114162D01*
X160600500Y-80885837D01*
X168899500Y-80885837D01*
X168899500Y-81114162D01*
X168935215Y-81339660D01*
X169005770Y-81556803D01*
X169095797Y-81733489D01*
X169109421Y-81760228D01*
X169243621Y-81944937D01*
X169405063Y-82106379D01*
X169589772Y-82240579D01*
X169646994Y-82269735D01*
X169793196Y-82344229D01*
X169793198Y-82344229D01*
X169793201Y-82344231D01*
X169875055Y-82370827D01*
X170010339Y-82414784D01*
X170235838Y-82450500D01*
X170235843Y-82450500D01*
X171764162Y-82450500D01*
X171989660Y-82414784D01*
X172206799Y-82344231D01*
X172410228Y-82240579D01*
X172594937Y-82106379D01*
X172756379Y-81944937D01*
X172890579Y-81760228D01*
X172994231Y-81556799D01*
X173064784Y-81339660D01*
X173076372Y-81266498D01*
X173100500Y-81114162D01*
X173100500Y-80885837D01*
X205399500Y-80885837D01*
X205399500Y-81114162D01*
X205435215Y-81339660D01*
X205505770Y-81556803D01*
X205595797Y-81733489D01*
X205609421Y-81760228D01*
X205743621Y-81944937D01*
X205905063Y-82106379D01*
X206089772Y-82240579D01*
X206146994Y-82269735D01*
X206293196Y-82344229D01*
X206293198Y-82344229D01*
X206293201Y-82344231D01*
X206375055Y-82370827D01*
X206510339Y-82414784D01*
X206735838Y-82450500D01*
X206735843Y-82450500D01*
X208264162Y-82450500D01*
X208489660Y-82414784D01*
X208706799Y-82344231D01*
X208910228Y-82240579D01*
X209094937Y-82106379D01*
X209256379Y-81944937D01*
X209390579Y-81760228D01*
X209494231Y-81556799D01*
X209564784Y-81339660D01*
X209576372Y-81266498D01*
X209600500Y-81114162D01*
X209600500Y-80885837D01*
X217899500Y-80885837D01*
X217899500Y-81114162D01*
X217935215Y-81339660D01*
X218005770Y-81556803D01*
X218095797Y-81733489D01*
X218109421Y-81760228D01*
X218243621Y-81944937D01*
X218405063Y-82106379D01*
X218589772Y-82240579D01*
X218646994Y-82269735D01*
X218793196Y-82344229D01*
X218793198Y-82344229D01*
X218793201Y-82344231D01*
X218875055Y-82370827D01*
X219010339Y-82414784D01*
X219235838Y-82450500D01*
X219235843Y-82450500D01*
X220764162Y-82450500D01*
X220989660Y-82414784D01*
X221206799Y-82344231D01*
X221410228Y-82240579D01*
X221594937Y-82106379D01*
X221756379Y-81944937D01*
X221890579Y-81760228D01*
X221994231Y-81556799D01*
X222064784Y-81339660D01*
X222076372Y-81266498D01*
X222100500Y-81114162D01*
X222100500Y-80885837D01*
X222064784Y-80660339D01*
X221994229Y-80443196D01*
X221890578Y-80239771D01*
X221785254Y-80094806D01*
X221756379Y-80055063D01*
X221594937Y-79893621D01*
X221410228Y-79759421D01*
X221400207Y-79754315D01*
X221206803Y-79655770D01*
X220989660Y-79585215D01*
X220764162Y-79549500D01*
X220764157Y-79549500D01*
X219235843Y-79549500D01*
X219235838Y-79549500D01*
X219010339Y-79585215D01*
X218793196Y-79655770D01*
X218589771Y-79759421D01*
X218405061Y-79893622D01*
X218243622Y-80055061D01*
X218109421Y-80239771D01*
X218005770Y-80443196D01*
X217935215Y-80660339D01*
X217899500Y-80885837D01*
X209600500Y-80885837D01*
X209564784Y-80660339D01*
X209494229Y-80443196D01*
X209390578Y-80239771D01*
X209285254Y-80094806D01*
X209256379Y-80055063D01*
X209094937Y-79893621D01*
X208910228Y-79759421D01*
X208900207Y-79754315D01*
X208706803Y-79655770D01*
X208489660Y-79585215D01*
X208264162Y-79549500D01*
X208264157Y-79549500D01*
X206735843Y-79549500D01*
X206735838Y-79549500D01*
X206510339Y-79585215D01*
X206293196Y-79655770D01*
X206089771Y-79759421D01*
X205905061Y-79893622D01*
X205743622Y-80055061D01*
X205609421Y-80239771D01*
X205505770Y-80443196D01*
X205435215Y-80660339D01*
X205399500Y-80885837D01*
X173100500Y-80885837D01*
X173064784Y-80660339D01*
X172994229Y-80443196D01*
X172890578Y-80239771D01*
X172785254Y-80094806D01*
X172756379Y-80055063D01*
X172594937Y-79893621D01*
X172410228Y-79759421D01*
X172400207Y-79754315D01*
X172206803Y-79655770D01*
X171989660Y-79585215D01*
X171764162Y-79549500D01*
X171764157Y-79549500D01*
X170235843Y-79549500D01*
X170235838Y-79549500D01*
X170010339Y-79585215D01*
X169793196Y-79655770D01*
X169589771Y-79759421D01*
X169405061Y-79893622D01*
X169243622Y-80055061D01*
X169109421Y-80239771D01*
X169005770Y-80443196D01*
X168935215Y-80660339D01*
X168899500Y-80885837D01*
X160600500Y-80885837D01*
X160564784Y-80660339D01*
X160494229Y-80443196D01*
X160390578Y-80239771D01*
X160285254Y-80094806D01*
X160256379Y-80055063D01*
X160094937Y-79893621D01*
X159910228Y-79759421D01*
X159900207Y-79754315D01*
X159706803Y-79655770D01*
X159489660Y-79585215D01*
X159264162Y-79549500D01*
X159264157Y-79549500D01*
X157735843Y-79549500D01*
X157735838Y-79549500D01*
X157510339Y-79585215D01*
X157293196Y-79655770D01*
X157089771Y-79759421D01*
X156905061Y-79893622D01*
X156743622Y-80055061D01*
X156609421Y-80239771D01*
X156505770Y-80443196D01*
X156435215Y-80660339D01*
X156399500Y-80885837D01*
X142463396Y-80885837D01*
X152178081Y-71171153D01*
X170949500Y-71171153D01*
X170949500Y-71328846D01*
X170980261Y-71483489D01*
X170980264Y-71483501D01*
X171040602Y-71629172D01*
X171040609Y-71629185D01*
X171128601Y-71760873D01*
X171147467Y-71821124D01*
X171148438Y-71820997D01*
X171149171Y-71826568D01*
X171149479Y-71827550D01*
X171149492Y-71829002D01*
X171149498Y-71829054D01*
X171190422Y-71981783D01*
X171212334Y-72019735D01*
X171212336Y-72019738D01*
X171269479Y-72118714D01*
X171269481Y-72118717D01*
X171388349Y-72237585D01*
X171388355Y-72237590D01*
X177015139Y-77864374D01*
X177015149Y-77864385D01*
X177019479Y-77868715D01*
X177019480Y-77868716D01*
X177131284Y-77980520D01*
X177191873Y-78015500D01*
X177218095Y-78030639D01*
X177218097Y-78030641D01*
X177256151Y-78052611D01*
X177268215Y-78059577D01*
X177420943Y-78100501D01*
X177420946Y-78100501D01*
X177586653Y-78100501D01*
X177586669Y-78100500D01*
X201199903Y-78100500D01*
X201266942Y-78120185D01*
X201287584Y-78136819D01*
X201665425Y-78514660D01*
X201698910Y-78575983D01*
X201699361Y-78578149D01*
X201730261Y-78733491D01*
X201730264Y-78733501D01*
X201790602Y-78879172D01*
X201790609Y-78879185D01*
X201878210Y-79010288D01*
X201878213Y-79010292D01*
X201989707Y-79121786D01*
X201989711Y-79121789D01*
X202120814Y-79209390D01*
X202120827Y-79209397D01*
X202266498Y-79269735D01*
X202266503Y-79269737D01*
X202421153Y-79300499D01*
X202421156Y-79300500D01*
X202421158Y-79300500D01*
X202578844Y-79300500D01*
X202578845Y-79300499D01*
X202733497Y-79269737D01*
X202879179Y-79209394D01*
X203010289Y-79121789D01*
X203121789Y-79010289D01*
X203209394Y-78879179D01*
X203269737Y-78733497D01*
X203300500Y-78578842D01*
X203300500Y-78421158D01*
X203300500Y-78421155D01*
X203300499Y-78421153D01*
X203288013Y-78358383D01*
X203269737Y-78266503D01*
X203216021Y-78136819D01*
X203209397Y-78120827D01*
X203209390Y-78120814D01*
X203121789Y-77989711D01*
X203121786Y-77989707D01*
X203010292Y-77878213D01*
X203010288Y-77878210D01*
X202879185Y-77790609D01*
X202879172Y-77790602D01*
X202733501Y-77730264D01*
X202733491Y-77730261D01*
X202578151Y-77699362D01*
X202516241Y-77666977D01*
X202514662Y-77665426D01*
X201987590Y-77138355D01*
X201987588Y-77138352D01*
X201868717Y-77019481D01*
X201868716Y-77019480D01*
X201781904Y-76969360D01*
X201781904Y-76969359D01*
X201781900Y-76969358D01*
X201731785Y-76940423D01*
X201579057Y-76899499D01*
X201420943Y-76899499D01*
X201413347Y-76899499D01*
X201413331Y-76899500D01*
X177800097Y-76899500D01*
X177733058Y-76879815D01*
X177712416Y-76863181D01*
X172523551Y-71674316D01*
X172490066Y-71612993D01*
X172495050Y-71543301D01*
X172496671Y-71539182D01*
X172519737Y-71483497D01*
X172550500Y-71328842D01*
X172550500Y-71171158D01*
X172550500Y-71171155D01*
X172550499Y-71171153D01*
X172519738Y-71016510D01*
X172519737Y-71016503D01*
X172475662Y-70910095D01*
X172459397Y-70870827D01*
X172459390Y-70870814D01*
X172371789Y-70739711D01*
X172371786Y-70739707D01*
X172260292Y-70628213D01*
X172260288Y-70628210D01*
X172129185Y-70540609D01*
X172129172Y-70540602D01*
X171983501Y-70480264D01*
X171983489Y-70480261D01*
X171828845Y-70449500D01*
X171828842Y-70449500D01*
X171671158Y-70449500D01*
X171671155Y-70449500D01*
X171516510Y-70480261D01*
X171516498Y-70480264D01*
X171370827Y-70540602D01*
X171370814Y-70540609D01*
X171239711Y-70628210D01*
X171239707Y-70628213D01*
X171128213Y-70739707D01*
X171128210Y-70739711D01*
X171040609Y-70870814D01*
X171040602Y-70870827D01*
X170980264Y-71016498D01*
X170980261Y-71016510D01*
X170949500Y-71171153D01*
X152178081Y-71171153D01*
X153599234Y-69750000D01*
X180421522Y-69750000D01*
X181899999Y-69750000D01*
X181874979Y-69810402D01*
X181850000Y-69935981D01*
X181850000Y-70064019D01*
X181874979Y-70189598D01*
X181899999Y-70250000D01*
X180421522Y-70250000D01*
X180435704Y-70339544D01*
X180506230Y-70556604D01*
X180609849Y-70759966D01*
X180744004Y-70944614D01*
X180905385Y-71105995D01*
X181090033Y-71240150D01*
X181293395Y-71343769D01*
X181510455Y-71414295D01*
X181735884Y-71450000D01*
X182250000Y-71450000D01*
X182250000Y-70600001D01*
X182310402Y-70625021D01*
X182435981Y-70650000D01*
X182564019Y-70650000D01*
X182689598Y-70625021D01*
X182750000Y-70600001D01*
X182750000Y-71450000D01*
X183264116Y-71450000D01*
X183489544Y-71414295D01*
X183706604Y-71343769D01*
X183909966Y-71240150D01*
X184094614Y-71105995D01*
X184255995Y-70944614D01*
X184390150Y-70759966D01*
X184493769Y-70556604D01*
X184564295Y-70339544D01*
X184578478Y-70250000D01*
X183100001Y-70250000D01*
X183125021Y-70189598D01*
X183150000Y-70064019D01*
X183150000Y-69935981D01*
X183125021Y-69810402D01*
X183100001Y-69750000D01*
X184578478Y-69750000D01*
X192921522Y-69750000D01*
X194399999Y-69750000D01*
X194374979Y-69810402D01*
X194350000Y-69935981D01*
X194350000Y-70064019D01*
X194374979Y-70189598D01*
X194399999Y-70250000D01*
X192921522Y-70250000D01*
X192935704Y-70339544D01*
X193006230Y-70556604D01*
X193109849Y-70759966D01*
X193244004Y-70944614D01*
X193405385Y-71105995D01*
X193590033Y-71240150D01*
X193793395Y-71343769D01*
X194010455Y-71414295D01*
X194235884Y-71450000D01*
X194750000Y-71450000D01*
X194750000Y-70600001D01*
X194810402Y-70625021D01*
X194935981Y-70650000D01*
X195064019Y-70650000D01*
X195189598Y-70625021D01*
X195250000Y-70600001D01*
X195250000Y-71450000D01*
X195764116Y-71450000D01*
X195989544Y-71414295D01*
X196206604Y-71343769D01*
X196409966Y-71240150D01*
X196594614Y-71105995D01*
X196755995Y-70944614D01*
X196890150Y-70759966D01*
X196993769Y-70556604D01*
X197064295Y-70339544D01*
X197078478Y-70250000D01*
X195600001Y-70250000D01*
X195625021Y-70189598D01*
X195650000Y-70064019D01*
X195650000Y-69935981D01*
X195625021Y-69810402D01*
X195600001Y-69750000D01*
X197078478Y-69750000D01*
X197064295Y-69660455D01*
X196993769Y-69443395D01*
X196890150Y-69240033D01*
X196755995Y-69055385D01*
X196594614Y-68894004D01*
X196409966Y-68759849D01*
X196206604Y-68656230D01*
X195989544Y-68585704D01*
X195764116Y-68550000D01*
X195250000Y-68550000D01*
X195250000Y-69399998D01*
X195189598Y-69374979D01*
X195064019Y-69350000D01*
X194935981Y-69350000D01*
X194810402Y-69374979D01*
X194750000Y-69399998D01*
X194750000Y-68550000D01*
X194235884Y-68550000D01*
X194010455Y-68585704D01*
X193793395Y-68656230D01*
X193590033Y-68759849D01*
X193405385Y-68894004D01*
X193244004Y-69055385D01*
X193109849Y-69240033D01*
X193006230Y-69443395D01*
X192935704Y-69660455D01*
X192921522Y-69750000D01*
X184578478Y-69750000D01*
X184564295Y-69660455D01*
X184493769Y-69443395D01*
X184390150Y-69240033D01*
X184255995Y-69055385D01*
X184094614Y-68894004D01*
X183909966Y-68759849D01*
X183706604Y-68656230D01*
X183489544Y-68585704D01*
X183264116Y-68550000D01*
X182750000Y-68550000D01*
X182750000Y-69399998D01*
X182689598Y-69374979D01*
X182564019Y-69350000D01*
X182435981Y-69350000D01*
X182310402Y-69374979D01*
X182250000Y-69399998D01*
X182250000Y-68550000D01*
X181735884Y-68550000D01*
X181510455Y-68585704D01*
X181293395Y-68656230D01*
X181090033Y-68759849D01*
X180905385Y-68894004D01*
X180744004Y-69055385D01*
X180609849Y-69240033D01*
X180506230Y-69443395D01*
X180435704Y-69660455D01*
X180421522Y-69750000D01*
X153599234Y-69750000D01*
X157712416Y-65636819D01*
X157773739Y-65603334D01*
X157800097Y-65600500D01*
X173920234Y-65600500D01*
X173987273Y-65620185D01*
X173989125Y-65621398D01*
X174120814Y-65709390D01*
X174120827Y-65709397D01*
X174243546Y-65760228D01*
X174266503Y-65769737D01*
X174421153Y-65800499D01*
X174421156Y-65800500D01*
X174421158Y-65800500D01*
X174578844Y-65800500D01*
X174578845Y-65800499D01*
X174733497Y-65769737D01*
X174879179Y-65709394D01*
X175010289Y-65621789D01*
X175121789Y-65510289D01*
X175209394Y-65379179D01*
X175269737Y-65233497D01*
X175300500Y-65078842D01*
X175300500Y-64921158D01*
X175300500Y-64921155D01*
X175300499Y-64921153D01*
X175297319Y-64905162D01*
X175293475Y-64885837D01*
X180399500Y-64885837D01*
X180399500Y-65114162D01*
X180435215Y-65339660D01*
X180505770Y-65556803D01*
X180583518Y-65709390D01*
X180609421Y-65760228D01*
X180743621Y-65944937D01*
X180905063Y-66106379D01*
X181089772Y-66240579D01*
X181185884Y-66289550D01*
X181293196Y-66344229D01*
X181293198Y-66344229D01*
X181293201Y-66344231D01*
X181409592Y-66382049D01*
X181510339Y-66414784D01*
X181735838Y-66450500D01*
X181735843Y-66450500D01*
X183264162Y-66450500D01*
X183489660Y-66414784D01*
X183706799Y-66344231D01*
X183910228Y-66240579D01*
X184094937Y-66106379D01*
X184256379Y-65944937D01*
X184390579Y-65760228D01*
X184494231Y-65556799D01*
X184564784Y-65339660D01*
X184581598Y-65233501D01*
X184600500Y-65114162D01*
X184600500Y-64885837D01*
X192899500Y-64885837D01*
X192899500Y-65114162D01*
X192935215Y-65339660D01*
X193005770Y-65556803D01*
X193083518Y-65709390D01*
X193109421Y-65760228D01*
X193243621Y-65944937D01*
X193405063Y-66106379D01*
X193589772Y-66240579D01*
X193685884Y-66289550D01*
X193793196Y-66344229D01*
X193793198Y-66344229D01*
X193793201Y-66344231D01*
X193909592Y-66382049D01*
X194010339Y-66414784D01*
X194235838Y-66450500D01*
X194235843Y-66450500D01*
X195764162Y-66450500D01*
X195989660Y-66414784D01*
X196206799Y-66344231D01*
X196410228Y-66240579D01*
X196594937Y-66106379D01*
X196756379Y-65944937D01*
X196890579Y-65760228D01*
X196994231Y-65556799D01*
X197064784Y-65339660D01*
X197081598Y-65233501D01*
X197100500Y-65114162D01*
X197100500Y-64885837D01*
X197064784Y-64660339D01*
X197002731Y-64469361D01*
X196994231Y-64443201D01*
X196994229Y-64443198D01*
X196994229Y-64443196D01*
X196921521Y-64300499D01*
X196890579Y-64239772D01*
X196756379Y-64055063D01*
X196594937Y-63893621D01*
X196410228Y-63759421D01*
X196206803Y-63655770D01*
X195989660Y-63585215D01*
X195764162Y-63549500D01*
X195764157Y-63549500D01*
X194235843Y-63549500D01*
X194235838Y-63549500D01*
X194010339Y-63585215D01*
X193793196Y-63655770D01*
X193589771Y-63759421D01*
X193405061Y-63893622D01*
X193243622Y-64055061D01*
X193109421Y-64239771D01*
X193005770Y-64443196D01*
X192935215Y-64660339D01*
X192899500Y-64885837D01*
X184600500Y-64885837D01*
X184564784Y-64660339D01*
X184502731Y-64469361D01*
X184494231Y-64443201D01*
X184494229Y-64443198D01*
X184494229Y-64443196D01*
X184421521Y-64300499D01*
X184390579Y-64239772D01*
X184256379Y-64055063D01*
X184094937Y-63893621D01*
X183910228Y-63759421D01*
X183706803Y-63655770D01*
X183489660Y-63585215D01*
X183264162Y-63549500D01*
X183264157Y-63549500D01*
X181735843Y-63549500D01*
X181735838Y-63549500D01*
X181510339Y-63585215D01*
X181293196Y-63655770D01*
X181089771Y-63759421D01*
X180905061Y-63893622D01*
X180743622Y-64055061D01*
X180609421Y-64239771D01*
X180505770Y-64443196D01*
X180435215Y-64660339D01*
X180399500Y-64885837D01*
X175293475Y-64885837D01*
X175269738Y-64766508D01*
X175269737Y-64766507D01*
X175269737Y-64766503D01*
X175246080Y-64709390D01*
X175209397Y-64620827D01*
X175209390Y-64620814D01*
X175121789Y-64489711D01*
X175121786Y-64489707D01*
X175010292Y-64378213D01*
X175010288Y-64378210D01*
X174879185Y-64290609D01*
X174879172Y-64290602D01*
X174733501Y-64230264D01*
X174733489Y-64230261D01*
X174578845Y-64199500D01*
X174578842Y-64199500D01*
X174421158Y-64199500D01*
X174421155Y-64199500D01*
X174266510Y-64230261D01*
X174266498Y-64230264D01*
X174120827Y-64290602D01*
X174120814Y-64290609D01*
X173989125Y-64378602D01*
X173922447Y-64399480D01*
X173920234Y-64399500D01*
X157586669Y-64399500D01*
X157586653Y-64399499D01*
X157579057Y-64399499D01*
X157420943Y-64399499D01*
X157313587Y-64428265D01*
X157268210Y-64440424D01*
X157268209Y-64440425D01*
X157218096Y-64469359D01*
X157218095Y-64469360D01*
X157182853Y-64489707D01*
X157131285Y-64519479D01*
X157131282Y-64519481D01*
X157019478Y-64631286D01*
X151934504Y-69716259D01*
X151873181Y-69749744D01*
X151803489Y-69744760D01*
X151747556Y-69702888D01*
X151732263Y-69676033D01*
X151709394Y-69620821D01*
X151709390Y-69620814D01*
X151621789Y-69489711D01*
X151621786Y-69489707D01*
X151510292Y-69378213D01*
X151510288Y-69378210D01*
X151379185Y-69290609D01*
X151379172Y-69290602D01*
X151233501Y-69230264D01*
X151233489Y-69230261D01*
X151078845Y-69199500D01*
X151078842Y-69199500D01*
X151028364Y-69199500D01*
X150989820Y-69191834D01*
X150989635Y-69192527D01*
X150981786Y-69190424D01*
X150981785Y-69190423D01*
X150829057Y-69149499D01*
X150670943Y-69149499D01*
X150663347Y-69149499D01*
X150663331Y-69149500D01*
X148079766Y-69149500D01*
X148012727Y-69129815D01*
X148010875Y-69128602D01*
X147879185Y-69040609D01*
X147879172Y-69040602D01*
X147733501Y-68980264D01*
X147733489Y-68980261D01*
X147578845Y-68949500D01*
X147578842Y-68949500D01*
X147421158Y-68949500D01*
X147421155Y-68949500D01*
X147266510Y-68980261D01*
X147266498Y-68980264D01*
X147120827Y-69040602D01*
X147120814Y-69040609D01*
X146989711Y-69128210D01*
X146989707Y-69128213D01*
X146878213Y-69239707D01*
X146878210Y-69239711D01*
X146790609Y-69370814D01*
X146790602Y-69370827D01*
X146730264Y-69516498D01*
X146730261Y-69516510D01*
X146699500Y-69671153D01*
X146699500Y-69828846D01*
X146730261Y-69983489D01*
X146730264Y-69983501D01*
X146790602Y-70129172D01*
X146790609Y-70129185D01*
X146878210Y-70260288D01*
X146878213Y-70260292D01*
X146989707Y-70371786D01*
X146989711Y-70371789D01*
X147120814Y-70459390D01*
X147120827Y-70459397D01*
X147230654Y-70504888D01*
X147266503Y-70519737D01*
X147421153Y-70550499D01*
X147421156Y-70550500D01*
X147421158Y-70550500D01*
X147578844Y-70550500D01*
X147578845Y-70550499D01*
X147733497Y-70519737D01*
X147879179Y-70459394D01*
X147879185Y-70459390D01*
X148010875Y-70371398D01*
X148077553Y-70350520D01*
X148079766Y-70350500D01*
X150205164Y-70350500D01*
X150272203Y-70370185D01*
X150308266Y-70405609D01*
X150378210Y-70510289D01*
X150489707Y-70621786D01*
X150489711Y-70621789D01*
X150620814Y-70709390D01*
X150620821Y-70709394D01*
X150676030Y-70732262D01*
X150730433Y-70776102D01*
X150752499Y-70842396D01*
X150735221Y-70910095D01*
X150716259Y-70934504D01*
X137537584Y-84113181D01*
X137476261Y-84146666D01*
X137449903Y-84149500D01*
X135329766Y-84149500D01*
X135262727Y-84129815D01*
X135260875Y-84128602D01*
X135129185Y-84040609D01*
X135129172Y-84040602D01*
X134983501Y-83980264D01*
X134983489Y-83980261D01*
X134828845Y-83949500D01*
X134828842Y-83949500D01*
X134671158Y-83949500D01*
X134671155Y-83949500D01*
X134516510Y-83980261D01*
X134516498Y-83980264D01*
X134370827Y-84040602D01*
X134370814Y-84040609D01*
X134239711Y-84128210D01*
X134239707Y-84128213D01*
X134128213Y-84239707D01*
X134128210Y-84239711D01*
X134040609Y-84370814D01*
X134040602Y-84370827D01*
X133980264Y-84516498D01*
X133980261Y-84516510D01*
X133949500Y-84671153D01*
X131770388Y-84671153D01*
X131334574Y-84235339D01*
X131301089Y-84174016D01*
X131300638Y-84171849D01*
X131281051Y-84073380D01*
X131269737Y-84016503D01*
X131256174Y-83983759D01*
X131209397Y-83870827D01*
X131209390Y-83870814D01*
X131121789Y-83739711D01*
X131121786Y-83739707D01*
X131010292Y-83628213D01*
X131010284Y-83628207D01*
X130962517Y-83596290D01*
X130917711Y-83542678D01*
X130909004Y-83473353D01*
X130939158Y-83410326D01*
X130943707Y-83405526D01*
X133608506Y-80740728D01*
X133608511Y-80740724D01*
X133618714Y-80730520D01*
X133618716Y-80730520D01*
X133730520Y-80618716D01*
X133809577Y-80481784D01*
X133850500Y-80329057D01*
X133850500Y-75079765D01*
X133870185Y-75012726D01*
X133871398Y-75010874D01*
X133959390Y-74879185D01*
X133959390Y-74879184D01*
X133959394Y-74879179D01*
X134019737Y-74733497D01*
X134050500Y-74578842D01*
X134050500Y-74421158D01*
X134050500Y-74421155D01*
X134050499Y-74421153D01*
X134019738Y-74266510D01*
X134019737Y-74266503D01*
X134006062Y-74233489D01*
X133959397Y-74120827D01*
X133959390Y-74120814D01*
X133871789Y-73989711D01*
X133871786Y-73989707D01*
X133760292Y-73878213D01*
X133760288Y-73878210D01*
X133629185Y-73790609D01*
X133629172Y-73790602D01*
X133483501Y-73730264D01*
X133483489Y-73730261D01*
X133328845Y-73699500D01*
X133328842Y-73699500D01*
X133171158Y-73699500D01*
X133171155Y-73699500D01*
X133016510Y-73730261D01*
X133016498Y-73730264D01*
X132870827Y-73790602D01*
X132870814Y-73790609D01*
X132739711Y-73878210D01*
X132739707Y-73878213D01*
X132628213Y-73989707D01*
X132628210Y-73989711D01*
X132540609Y-74120814D01*
X132540602Y-74120827D01*
X132480264Y-74266498D01*
X132480261Y-74266510D01*
X132449500Y-74421153D01*
X132449500Y-74578846D01*
X132480261Y-74733489D01*
X132480264Y-74733501D01*
X132540602Y-74879172D01*
X132540609Y-74879185D01*
X132628602Y-75010874D01*
X132649480Y-75077551D01*
X132649500Y-75079765D01*
X132649500Y-79239240D01*
X132629815Y-79306279D01*
X132577011Y-79352034D01*
X132507853Y-79361978D01*
X132456610Y-79342342D01*
X132379190Y-79290612D01*
X132379172Y-79290602D01*
X132233501Y-79230264D01*
X132233489Y-79230261D01*
X132078845Y-79199500D01*
X132078842Y-79199500D01*
X131921158Y-79199500D01*
X131921155Y-79199500D01*
X131766510Y-79230261D01*
X131766498Y-79230264D01*
X131620827Y-79290602D01*
X131620814Y-79290609D01*
X131489125Y-79378602D01*
X131422447Y-79399480D01*
X131420234Y-79399500D01*
X131086669Y-79399500D01*
X131086653Y-79399499D01*
X131079057Y-79399499D01*
X130920943Y-79399499D01*
X130813587Y-79428265D01*
X130768210Y-79440424D01*
X130768209Y-79440425D01*
X130718096Y-79469359D01*
X130718095Y-79469360D01*
X130682846Y-79489711D01*
X130631285Y-79519479D01*
X130631282Y-79519481D01*
X130565549Y-79585215D01*
X130519480Y-79631284D01*
X130519478Y-79631286D01*
X128390537Y-81760228D01*
X126287584Y-83863181D01*
X126226261Y-83896666D01*
X126199903Y-83899500D01*
X125550097Y-83899500D01*
X125483058Y-83879815D01*
X125462416Y-83863181D01*
X124636819Y-83037584D01*
X124603334Y-82976261D01*
X124600500Y-82949903D01*
X124600500Y-82329765D01*
X124620185Y-82262726D01*
X124621398Y-82260874D01*
X124631754Y-82245376D01*
X124709394Y-82129179D01*
X124769737Y-81983497D01*
X124800500Y-81828842D01*
X124800500Y-81671158D01*
X124800500Y-81671155D01*
X124800499Y-81671153D01*
X124777752Y-81556799D01*
X124769737Y-81516503D01*
X124730242Y-81421153D01*
X124709397Y-81370827D01*
X124709390Y-81370814D01*
X124621789Y-81239711D01*
X124621786Y-81239707D01*
X124510292Y-81128213D01*
X124510288Y-81128210D01*
X124379185Y-81040609D01*
X124379172Y-81040602D01*
X124233501Y-80980264D01*
X124233489Y-80980261D01*
X124078845Y-80949500D01*
X124078842Y-80949500D01*
X123921158Y-80949500D01*
X123921155Y-80949500D01*
X123766510Y-80980261D01*
X123766498Y-80980264D01*
X123620827Y-81040602D01*
X123620814Y-81040609D01*
X123489711Y-81128210D01*
X123489707Y-81128213D01*
X123378213Y-81239707D01*
X123378210Y-81239711D01*
X123290609Y-81370814D01*
X123290602Y-81370827D01*
X123230264Y-81516498D01*
X123230261Y-81516510D01*
X123199500Y-81671153D01*
X123199500Y-81825500D01*
X123179815Y-81892539D01*
X123127011Y-81938294D01*
X123075500Y-81949500D01*
X122921155Y-81949500D01*
X122766510Y-81980261D01*
X122766498Y-81980264D01*
X122620827Y-82040602D01*
X122620814Y-82040609D01*
X122489711Y-82128210D01*
X122489707Y-82128213D01*
X122378213Y-82239707D01*
X122378210Y-82239711D01*
X122290609Y-82370814D01*
X122290602Y-82370827D01*
X122230264Y-82516498D01*
X122230261Y-82516510D01*
X122199500Y-82671153D01*
X122199500Y-82828846D01*
X122230261Y-82983489D01*
X122230264Y-82983501D01*
X122290602Y-83129172D01*
X122290609Y-83129185D01*
X122378601Y-83260873D01*
X122397467Y-83321124D01*
X122398438Y-83320997D01*
X122399171Y-83326568D01*
X122399479Y-83327550D01*
X122399492Y-83329002D01*
X122399498Y-83329054D01*
X122440014Y-83480261D01*
X122440423Y-83481785D01*
X122462335Y-83519737D01*
X122519479Y-83618714D01*
X122519481Y-83618717D01*
X122638349Y-83737585D01*
X122638355Y-83737590D01*
X124515139Y-85614374D01*
X124515149Y-85614385D01*
X124519479Y-85618715D01*
X124519480Y-85618716D01*
X124631284Y-85730520D01*
X124693610Y-85766503D01*
X124718095Y-85780639D01*
X124718097Y-85780641D01*
X124756151Y-85802611D01*
X124768215Y-85809577D01*
X124920943Y-85850500D01*
X125079057Y-85850500D01*
X125102044Y-85850500D01*
X125169083Y-85870185D01*
X125214838Y-85922989D01*
X125223661Y-85950309D01*
X125230261Y-85983489D01*
X125230264Y-85983501D01*
X125290602Y-86129172D01*
X125290609Y-86129185D01*
X125378210Y-86260288D01*
X125378213Y-86260292D01*
X125489707Y-86371786D01*
X125489711Y-86371789D01*
X125620814Y-86459390D01*
X125620827Y-86459397D01*
X125766498Y-86519735D01*
X125766503Y-86519737D01*
X125825400Y-86531452D01*
X125843018Y-86534957D01*
X125904929Y-86567341D01*
X125939503Y-86628057D01*
X125935764Y-86697827D01*
X125906508Y-86744255D01*
X125594491Y-87056272D01*
X125533168Y-87089757D01*
X125463476Y-87084773D01*
X125407543Y-87042901D01*
X125403723Y-87037504D01*
X125371789Y-86989711D01*
X125371787Y-86989708D01*
X125260292Y-86878213D01*
X125260288Y-86878210D01*
X125129185Y-86790609D01*
X125129172Y-86790602D01*
X124983501Y-86730264D01*
X124983491Y-86730261D01*
X124828149Y-86699361D01*
X124766238Y-86666976D01*
X124764660Y-86665425D01*
X122334574Y-84235339D01*
X122301089Y-84174016D01*
X122300638Y-84171849D01*
X122281051Y-84073380D01*
X122269737Y-84016503D01*
X122256174Y-83983759D01*
X122209397Y-83870827D01*
X122209390Y-83870814D01*
X122121789Y-83739711D01*
X122121786Y-83739707D01*
X122010292Y-83628213D01*
X122010288Y-83628210D01*
X121879185Y-83540609D01*
X121879172Y-83540602D01*
X121733501Y-83480264D01*
X121733489Y-83480261D01*
X121578845Y-83449500D01*
X121578842Y-83449500D01*
X121421158Y-83449500D01*
X121421155Y-83449500D01*
X121266510Y-83480261D01*
X121266498Y-83480264D01*
X121120827Y-83540602D01*
X121120814Y-83540609D01*
X120989711Y-83628210D01*
X120989707Y-83628213D01*
X120878213Y-83739707D01*
X120878210Y-83739711D01*
X120790609Y-83870814D01*
X120790602Y-83870827D01*
X120730264Y-84016498D01*
X120730261Y-84016510D01*
X120699500Y-84171153D01*
X120699500Y-84328846D01*
X120730261Y-84483489D01*
X120730264Y-84483501D01*
X120790602Y-84629172D01*
X120790609Y-84629185D01*
X120878210Y-84760288D01*
X120878213Y-84760292D01*
X120989707Y-84871786D01*
X120989711Y-84871789D01*
X121120814Y-84959390D01*
X121120827Y-84959397D01*
X121266498Y-85019735D01*
X121266503Y-85019737D01*
X121321311Y-85030639D01*
X121421849Y-85050638D01*
X121483760Y-85083023D01*
X121485339Y-85084574D01*
X123915425Y-87514660D01*
X123948910Y-87575983D01*
X123949361Y-87578149D01*
X123980261Y-87733491D01*
X123980264Y-87733501D01*
X124040602Y-87879172D01*
X124040609Y-87879185D01*
X124128210Y-88010288D01*
X124128213Y-88010292D01*
X124239708Y-88121787D01*
X124239711Y-88121789D01*
X124287482Y-88153709D01*
X124332286Y-88207319D01*
X124340995Y-88276644D01*
X124310841Y-88339671D01*
X124306272Y-88344491D01*
X122494255Y-90156508D01*
X122432932Y-90189993D01*
X122363240Y-90185009D01*
X122307307Y-90143137D01*
X122284957Y-90093018D01*
X122272549Y-90030639D01*
X122269737Y-90016503D01*
X122262112Y-89998094D01*
X122209397Y-89870827D01*
X122209390Y-89870814D01*
X122121398Y-89739125D01*
X122100520Y-89672447D01*
X122100500Y-89670234D01*
X122100500Y-87839060D01*
X122100501Y-87839047D01*
X122100501Y-87670944D01*
X122094492Y-87648517D01*
X122059577Y-87518216D01*
X121999579Y-87414295D01*
X121980524Y-87381290D01*
X121980518Y-87381282D01*
X120584573Y-85985337D01*
X120551088Y-85924014D01*
X120550637Y-85921847D01*
X120528305Y-85809577D01*
X120519737Y-85766503D01*
X120512901Y-85750000D01*
X120459397Y-85620827D01*
X120459390Y-85620814D01*
X120371789Y-85489711D01*
X120371786Y-85489707D01*
X120260292Y-85378213D01*
X120260288Y-85378210D01*
X120129185Y-85290609D01*
X120129172Y-85290602D01*
X119983501Y-85230264D01*
X119983489Y-85230261D01*
X119828845Y-85199500D01*
X119828842Y-85199500D01*
X119671158Y-85199500D01*
X119671155Y-85199500D01*
X119516510Y-85230261D01*
X119516498Y-85230264D01*
X119370827Y-85290602D01*
X119370814Y-85290609D01*
X119239711Y-85378210D01*
X119239707Y-85378213D01*
X119128213Y-85489707D01*
X119128210Y-85489711D01*
X119040609Y-85620814D01*
X119040602Y-85620827D01*
X118980264Y-85766498D01*
X118980261Y-85766510D01*
X118949500Y-85921153D01*
X118949500Y-86078846D01*
X118980261Y-86233489D01*
X118980264Y-86233501D01*
X119040602Y-86379172D01*
X119040609Y-86379185D01*
X119128210Y-86510288D01*
X119128213Y-86510292D01*
X119239707Y-86621786D01*
X119239711Y-86621789D01*
X119370814Y-86709390D01*
X119370827Y-86709397D01*
X119515885Y-86769481D01*
X119516503Y-86769737D01*
X119581147Y-86782595D01*
X119671849Y-86800638D01*
X119733760Y-86833023D01*
X119735339Y-86834574D01*
X120863181Y-87962416D01*
X120896666Y-88023739D01*
X120899500Y-88050097D01*
X120899500Y-89670234D01*
X120879815Y-89737273D01*
X120878602Y-89739125D01*
X120790609Y-89870814D01*
X120790602Y-89870827D01*
X120730264Y-90016498D01*
X120730261Y-90016510D01*
X120699500Y-90171153D01*
X120699500Y-90328846D01*
X120730261Y-90483489D01*
X120730264Y-90483501D01*
X120790602Y-90629172D01*
X120790609Y-90629185D01*
X120878210Y-90760288D01*
X120878213Y-90760292D01*
X120989707Y-90871786D01*
X120989711Y-90871789D01*
X121120814Y-90959390D01*
X121120827Y-90959397D01*
X121266498Y-91019735D01*
X121266503Y-91019737D01*
X121325400Y-91031452D01*
X121343018Y-91034957D01*
X121404929Y-91067341D01*
X121439503Y-91128057D01*
X121435764Y-91197827D01*
X121406508Y-91244255D01*
X118235339Y-94415425D01*
X118174016Y-94448910D01*
X118171850Y-94449361D01*
X118016508Y-94480261D01*
X118016498Y-94480264D01*
X117870827Y-94540602D01*
X117870814Y-94540609D01*
X117739711Y-94628210D01*
X117739707Y-94628213D01*
X117628213Y-94739707D01*
X117628210Y-94739711D01*
X117540609Y-94870814D01*
X117540602Y-94870827D01*
X117489561Y-94994054D01*
X117445720Y-95048458D01*
X117379426Y-95070523D01*
X117311727Y-95053244D01*
X117264116Y-95002107D01*
X117260439Y-94994054D01*
X117209397Y-94870827D01*
X117209390Y-94870814D01*
X117121398Y-94739125D01*
X117100520Y-94672447D01*
X117100500Y-94670234D01*
X117100500Y-74579765D01*
X117120185Y-74512726D01*
X117121398Y-74510874D01*
X117181347Y-74421155D01*
X117209394Y-74379179D01*
X117269737Y-74233497D01*
X117300500Y-74078842D01*
X117300500Y-73921158D01*
X117300500Y-73921155D01*
X117300499Y-73921153D01*
X117274531Y-73790606D01*
X117269737Y-73766503D01*
X117256089Y-73733553D01*
X117209397Y-73620827D01*
X117209390Y-73620814D01*
X117121789Y-73489711D01*
X117121786Y-73489707D01*
X117010292Y-73378213D01*
X117010288Y-73378210D01*
X116879185Y-73290609D01*
X116879172Y-73290602D01*
X116733501Y-73230264D01*
X116733489Y-73230261D01*
X116578845Y-73199500D01*
X116578842Y-73199500D01*
X116421158Y-73199500D01*
X116421155Y-73199500D01*
X116266510Y-73230261D01*
X116266498Y-73230264D01*
X116120827Y-73290602D01*
X116120814Y-73290609D01*
X115989711Y-73378210D01*
X115989707Y-73378213D01*
X115878213Y-73489707D01*
X115878210Y-73489711D01*
X115790609Y-73620814D01*
X115790602Y-73620827D01*
X115730264Y-73766498D01*
X115730261Y-73766510D01*
X115699500Y-73921153D01*
X95928081Y-73921153D01*
X105987819Y-63861416D01*
X106049142Y-63827931D01*
X106118834Y-63832915D01*
X106174767Y-63874787D01*
X106199184Y-63940251D01*
X106199500Y-63949097D01*
X106199500Y-64078846D01*
X106230261Y-64233489D01*
X106230264Y-64233501D01*
X106290602Y-64379172D01*
X106290609Y-64379185D01*
X106378210Y-64510288D01*
X106378213Y-64510292D01*
X106489707Y-64621786D01*
X106489711Y-64621789D01*
X106620814Y-64709390D01*
X106620827Y-64709397D01*
X106766498Y-64769735D01*
X106766503Y-64769737D01*
X106896982Y-64795691D01*
X106921153Y-64800499D01*
X106921156Y-64800500D01*
X106921158Y-64800500D01*
X107078844Y-64800500D01*
X107078845Y-64800499D01*
X107233497Y-64769737D01*
X107379179Y-64709394D01*
X107510289Y-64621789D01*
X107621789Y-64510289D01*
X107709394Y-64379179D01*
X107769737Y-64233497D01*
X107791958Y-64121786D01*
X107800638Y-64078150D01*
X107833023Y-64016239D01*
X107834518Y-64014716D01*
X111212416Y-60636819D01*
X111273739Y-60603334D01*
X111300097Y-60600500D01*
X112420234Y-60600500D01*
X112487273Y-60620185D01*
X112489125Y-60621398D01*
X112620814Y-60709390D01*
X112620827Y-60709397D01*
X112749577Y-60762726D01*
X112766503Y-60769737D01*
X112921153Y-60800499D01*
X112921156Y-60800500D01*
X112921158Y-60800500D01*
X113078844Y-60800500D01*
X113078845Y-60800499D01*
X113233497Y-60769737D01*
X113379179Y-60709394D01*
X113510289Y-60621789D01*
X113621789Y-60510289D01*
X113709394Y-60379179D01*
X113713728Y-60368717D01*
X113730244Y-60328842D01*
X113769737Y-60233497D01*
X113800500Y-60078842D01*
X113800500Y-59921158D01*
X113800500Y-59921155D01*
X113800499Y-59921153D01*
X113769738Y-59766510D01*
X113769737Y-59766503D01*
X113763425Y-59751264D01*
X113709397Y-59620827D01*
X113709390Y-59620814D01*
X113621789Y-59489711D01*
X113621786Y-59489707D01*
X113510292Y-59378213D01*
X113510288Y-59378210D01*
X113379185Y-59290609D01*
X113379172Y-59290602D01*
X113233501Y-59230264D01*
X113233489Y-59230261D01*
X113078845Y-59199500D01*
X113078842Y-59199500D01*
X112921158Y-59199500D01*
X112921155Y-59199500D01*
X112766510Y-59230261D01*
X112766498Y-59230264D01*
X112620827Y-59290602D01*
X112620814Y-59290609D01*
X112489125Y-59378602D01*
X112422447Y-59399480D01*
X112420234Y-59399500D01*
X111079057Y-59399500D01*
X110920942Y-59399500D01*
X110768215Y-59440423D01*
X110768214Y-59440423D01*
X110768212Y-59440424D01*
X110768207Y-59440425D01*
X110733542Y-59460440D01*
X110665642Y-59476913D01*
X110599615Y-59454060D01*
X110556425Y-59399139D01*
X110549784Y-59329585D01*
X110581800Y-59267483D01*
X110583819Y-59265415D01*
X111928082Y-57921153D01*
X120199500Y-57921153D01*
X120199500Y-58078846D01*
X120230261Y-58233489D01*
X120230264Y-58233501D01*
X120290602Y-58379172D01*
X120290609Y-58379185D01*
X120378602Y-58510874D01*
X120399480Y-58577551D01*
X120399500Y-58579765D01*
X120399500Y-59913330D01*
X120399499Y-59913348D01*
X120399499Y-60079054D01*
X120399498Y-60079054D01*
X120440423Y-60231785D01*
X120469358Y-60281900D01*
X120469359Y-60281904D01*
X120469360Y-60281904D01*
X120516284Y-60363181D01*
X120519479Y-60368714D01*
X120519481Y-60368717D01*
X120638349Y-60487585D01*
X120638354Y-60487589D01*
X121631284Y-61480520D01*
X121631286Y-61480521D01*
X121631290Y-61480524D01*
X121752085Y-61550264D01*
X121768216Y-61559577D01*
X121920943Y-61600501D01*
X121920945Y-61600501D01*
X122086654Y-61600501D01*
X122086670Y-61600500D01*
X123699903Y-61600500D01*
X123766942Y-61620185D01*
X123787584Y-61636819D01*
X124363181Y-62212416D01*
X124396666Y-62273739D01*
X124399500Y-62300097D01*
X124399500Y-63420234D01*
X124379815Y-63487273D01*
X124378602Y-63489125D01*
X124290609Y-63620814D01*
X124290602Y-63620827D01*
X124230264Y-63766498D01*
X124230261Y-63766510D01*
X124199500Y-63921153D01*
X124199500Y-64078846D01*
X124230261Y-64233489D01*
X124230264Y-64233501D01*
X124290602Y-64379172D01*
X124290609Y-64379185D01*
X124378210Y-64510288D01*
X124378213Y-64510292D01*
X124489707Y-64621786D01*
X124489711Y-64621789D01*
X124620814Y-64709390D01*
X124620827Y-64709397D01*
X124766498Y-64769735D01*
X124766503Y-64769737D01*
X124896982Y-64795691D01*
X124921153Y-64800499D01*
X124921156Y-64800500D01*
X124921158Y-64800500D01*
X125078844Y-64800500D01*
X125078845Y-64800499D01*
X125233497Y-64769737D01*
X125233509Y-64769731D01*
X125239324Y-64767969D01*
X125240158Y-64770720D01*
X125297359Y-64764497D01*
X125359878Y-64795691D01*
X125395608Y-64855734D01*
X125399500Y-64886555D01*
X125399500Y-80920234D01*
X125379815Y-80987273D01*
X125378602Y-80989125D01*
X125290609Y-81120814D01*
X125290602Y-81120827D01*
X125230264Y-81266498D01*
X125230261Y-81266510D01*
X125199500Y-81421153D01*
X125199500Y-81578846D01*
X125230261Y-81733489D01*
X125230264Y-81733501D01*
X125290602Y-81879172D01*
X125290609Y-81879185D01*
X125378210Y-82010288D01*
X125378213Y-82010292D01*
X125489707Y-82121786D01*
X125489711Y-82121789D01*
X125620814Y-82209390D01*
X125620827Y-82209397D01*
X125749577Y-82262726D01*
X125766503Y-82269737D01*
X125891623Y-82294625D01*
X125921153Y-82300499D01*
X125921156Y-82300500D01*
X125921158Y-82300500D01*
X126078844Y-82300500D01*
X126078845Y-82300499D01*
X126233497Y-82269737D01*
X126379179Y-82209394D01*
X126510289Y-82121789D01*
X126621789Y-82010289D01*
X126709394Y-81879179D01*
X126769737Y-81733497D01*
X126800500Y-81578842D01*
X126800500Y-81421158D01*
X126800500Y-81421155D01*
X126800499Y-81421153D01*
X126784289Y-81339660D01*
X126769737Y-81266503D01*
X126769735Y-81266498D01*
X126709397Y-81120827D01*
X126709390Y-81120814D01*
X126621398Y-80989125D01*
X126600520Y-80922447D01*
X126600500Y-80920234D01*
X126600500Y-64386555D01*
X126620185Y-64319516D01*
X126672989Y-64273761D01*
X126742147Y-64263817D01*
X126760411Y-64268840D01*
X126760676Y-64267969D01*
X126766492Y-64269732D01*
X126766503Y-64269737D01*
X126921153Y-64300499D01*
X126921156Y-64300500D01*
X126921158Y-64300500D01*
X127078844Y-64300500D01*
X127078845Y-64300499D01*
X127233497Y-64269737D01*
X127379179Y-64209394D01*
X127510289Y-64121789D01*
X127621789Y-64010289D01*
X127709394Y-63879179D01*
X127769737Y-63733497D01*
X127800500Y-63578842D01*
X127800500Y-63421158D01*
X127800500Y-63421155D01*
X127800499Y-63421153D01*
X127769738Y-63266510D01*
X127769737Y-63266503D01*
X127741984Y-63199500D01*
X127709397Y-63120827D01*
X127709390Y-63120814D01*
X127621398Y-62989125D01*
X127600520Y-62922447D01*
X127600500Y-62920234D01*
X127600500Y-60829765D01*
X127620185Y-60762726D01*
X127621398Y-60760874D01*
X127709390Y-60629185D01*
X127709390Y-60629184D01*
X127709394Y-60629179D01*
X127712854Y-60620827D01*
X127767163Y-60489711D01*
X127769737Y-60483497D01*
X127800500Y-60328842D01*
X127800500Y-60171158D01*
X127800500Y-60171155D01*
X127800499Y-60171153D01*
X127769738Y-60016510D01*
X127769738Y-60016508D01*
X127769737Y-60016503D01*
X127730155Y-59920943D01*
X127709397Y-59870827D01*
X127709390Y-59870814D01*
X127621789Y-59739711D01*
X127621786Y-59739707D01*
X127510292Y-59628213D01*
X127510288Y-59628210D01*
X127379185Y-59540609D01*
X127379172Y-59540602D01*
X127233501Y-59480264D01*
X127233489Y-59480261D01*
X127078845Y-59449500D01*
X127078842Y-59449500D01*
X126921158Y-59449500D01*
X126921155Y-59449500D01*
X126766510Y-59480261D01*
X126766498Y-59480264D01*
X126620827Y-59540602D01*
X126620814Y-59540609D01*
X126489711Y-59628210D01*
X126489707Y-59628213D01*
X126378213Y-59739707D01*
X126378210Y-59739711D01*
X126290609Y-59870814D01*
X126290602Y-59870827D01*
X126230264Y-60016498D01*
X126230261Y-60016508D01*
X126213577Y-60100383D01*
X126181191Y-60162294D01*
X126120475Y-60196868D01*
X126084934Y-60199253D01*
X126084934Y-60199500D01*
X126081254Y-60199500D01*
X126079823Y-60199596D01*
X126078847Y-60199500D01*
X126078842Y-60199500D01*
X125921158Y-60199500D01*
X125921155Y-60199500D01*
X125766510Y-60230261D01*
X125766498Y-60230264D01*
X125620827Y-60290602D01*
X125620814Y-60290609D01*
X125489711Y-60378210D01*
X125489707Y-60378213D01*
X125378213Y-60489707D01*
X125378210Y-60489711D01*
X125290609Y-60620814D01*
X125290602Y-60620827D01*
X125230264Y-60766498D01*
X125230261Y-60766510D01*
X125199500Y-60921153D01*
X125199500Y-61050902D01*
X125179815Y-61117941D01*
X125127011Y-61163696D01*
X125057853Y-61173640D01*
X124994297Y-61144615D01*
X124987819Y-61138583D01*
X124487590Y-60638355D01*
X124487588Y-60638352D01*
X124368717Y-60519481D01*
X124368716Y-60519480D01*
X124281904Y-60469360D01*
X124281904Y-60469359D01*
X124281900Y-60469358D01*
X124231785Y-60440423D01*
X124079057Y-60399499D01*
X123920943Y-60399499D01*
X123913347Y-60399499D01*
X123913331Y-60399500D01*
X122300098Y-60399500D01*
X122233059Y-60379815D01*
X122212417Y-60363181D01*
X121636819Y-59787583D01*
X121603334Y-59726260D01*
X121600500Y-59699902D01*
X121600500Y-58579765D01*
X121620185Y-58512726D01*
X121621398Y-58510874D01*
X121709390Y-58379185D01*
X121709390Y-58379184D01*
X121709394Y-58379179D01*
X121769737Y-58233497D01*
X121800500Y-58078842D01*
X121800500Y-57921158D01*
X121800500Y-57921155D01*
X121800499Y-57921153D01*
X121769738Y-57766510D01*
X121769737Y-57766503D01*
X121709794Y-57621786D01*
X121709397Y-57620827D01*
X121709390Y-57620814D01*
X121621789Y-57489711D01*
X121621786Y-57489707D01*
X121510292Y-57378213D01*
X121510288Y-57378210D01*
X121379185Y-57290609D01*
X121379172Y-57290602D01*
X121233501Y-57230264D01*
X121233489Y-57230261D01*
X121078845Y-57199500D01*
X121078842Y-57199500D01*
X120921158Y-57199500D01*
X120921155Y-57199500D01*
X120766510Y-57230261D01*
X120766498Y-57230264D01*
X120620827Y-57290602D01*
X120620814Y-57290609D01*
X120489711Y-57378210D01*
X120489707Y-57378213D01*
X120378213Y-57489707D01*
X120378210Y-57489711D01*
X120290609Y-57620814D01*
X120290602Y-57620827D01*
X120230264Y-57766498D01*
X120230261Y-57766510D01*
X120199500Y-57921153D01*
X111928082Y-57921153D01*
X112212416Y-57636819D01*
X112273739Y-57603334D01*
X112300097Y-57600500D01*
X113420234Y-57600500D01*
X113487273Y-57620185D01*
X113489125Y-57621398D01*
X113620814Y-57709390D01*
X113620827Y-57709397D01*
X113758683Y-57766498D01*
X113766503Y-57769737D01*
X113921153Y-57800499D01*
X113921156Y-57800500D01*
X113921158Y-57800500D01*
X114078844Y-57800500D01*
X114078845Y-57800499D01*
X114089179Y-57798443D01*
X114114287Y-57793450D01*
X114114292Y-57793449D01*
X114199800Y-57776439D01*
X114233497Y-57769737D01*
X114379179Y-57709394D01*
X114510289Y-57621789D01*
X114621789Y-57510289D01*
X114709394Y-57379179D01*
X114769737Y-57233497D01*
X114800500Y-57078842D01*
X114800500Y-56921158D01*
X114800500Y-56921155D01*
X114800499Y-56921153D01*
X114769738Y-56766510D01*
X114769737Y-56766503D01*
X114713728Y-56631284D01*
X114709397Y-56620827D01*
X114709390Y-56620814D01*
X114621789Y-56489711D01*
X114621786Y-56489707D01*
X114510292Y-56378213D01*
X114510288Y-56378210D01*
X114379185Y-56290609D01*
X114379172Y-56290602D01*
X114233501Y-56230264D01*
X114233489Y-56230261D01*
X114078845Y-56199500D01*
X114078842Y-56199500D01*
X113921158Y-56199500D01*
X113921155Y-56199500D01*
X113766510Y-56230261D01*
X113766498Y-56230264D01*
X113620827Y-56290602D01*
X113620814Y-56290609D01*
X113489125Y-56378602D01*
X113422447Y-56399480D01*
X113420234Y-56399500D01*
X112079057Y-56399500D01*
X111920942Y-56399500D01*
X111768215Y-56440423D01*
X111768214Y-56440423D01*
X111768212Y-56440424D01*
X111768209Y-56440425D01*
X111718096Y-56469359D01*
X111718095Y-56469360D01*
X111682853Y-56489707D01*
X111631285Y-56519479D01*
X111631282Y-56519481D01*
X91985339Y-76165425D01*
X91924016Y-76198910D01*
X91921850Y-76199361D01*
X91766508Y-76230261D01*
X91766498Y-76230264D01*
X91620827Y-76290602D01*
X91620814Y-76290609D01*
X91489711Y-76378210D01*
X91489707Y-76378213D01*
X91378213Y-76489707D01*
X91378210Y-76489711D01*
X91290609Y-76620814D01*
X91290602Y-76620827D01*
X91230264Y-76766498D01*
X91230261Y-76766510D01*
X91199500Y-76921153D01*
X78675834Y-76921153D01*
X78674852Y-76919801D01*
X78520199Y-76765148D01*
X78520193Y-76765142D01*
X78343260Y-76636595D01*
X78343259Y-76636594D01*
X78343257Y-76636593D01*
X78280825Y-76604782D01*
X78148383Y-76537298D01*
X78148380Y-76537297D01*
X77940376Y-76469714D01*
X77724361Y-76435500D01*
X77724356Y-76435500D01*
X77505644Y-76435500D01*
X77505639Y-76435500D01*
X77289623Y-76469714D01*
X77081619Y-76537297D01*
X77081616Y-76537298D01*
X76886739Y-76636595D01*
X76709806Y-76765142D01*
X76555142Y-76919806D01*
X76426595Y-77096739D01*
X76327298Y-77291616D01*
X76327297Y-77291619D01*
X76259714Y-77499623D01*
X76225500Y-77715638D01*
X73924500Y-77715638D01*
X73891975Y-77510292D01*
X73890286Y-77499625D01*
X73830886Y-77316807D01*
X73822702Y-77291619D01*
X73822701Y-77291616D01*
X73762140Y-77172761D01*
X73723407Y-77096743D01*
X73710401Y-77078842D01*
X73594857Y-76919806D01*
X73440193Y-76765142D01*
X73263260Y-76636595D01*
X73263259Y-76636594D01*
X73263257Y-76636593D01*
X73200825Y-76604782D01*
X73068383Y-76537298D01*
X73068380Y-76537297D01*
X72860376Y-76469714D01*
X72644361Y-76435500D01*
X72644356Y-76435500D01*
X72425644Y-76435500D01*
X72425639Y-76435500D01*
X72209623Y-76469714D01*
X72001619Y-76537297D01*
X72001616Y-76537298D01*
X71806739Y-76636595D01*
X71629806Y-76765142D01*
X71475142Y-76919806D01*
X71346595Y-77096739D01*
X71247298Y-77291616D01*
X71247297Y-77291619D01*
X71179714Y-77499623D01*
X71145500Y-77715638D01*
X60500500Y-77715638D01*
X60500500Y-73250693D01*
X76924500Y-73250693D01*
X76924500Y-73509306D01*
X76964956Y-73764733D01*
X76964956Y-73764734D01*
X77044874Y-74010695D01*
X77162283Y-74241122D01*
X77242463Y-74351481D01*
X77242464Y-74351482D01*
X77929337Y-73664609D01*
X77948497Y-73710864D01*
X78024939Y-73825268D01*
X78122232Y-73922561D01*
X78236636Y-73999003D01*
X78282890Y-74018161D01*
X77596016Y-74705034D01*
X77596017Y-74705036D01*
X77706377Y-74785216D01*
X77936804Y-74902625D01*
X78182766Y-74982543D01*
X78438194Y-75023000D01*
X78696806Y-75023000D01*
X78952233Y-74982543D01*
X78952234Y-74982543D01*
X79198195Y-74902625D01*
X79428619Y-74785218D01*
X79538981Y-74705034D01*
X79538982Y-74705034D01*
X78852109Y-74018162D01*
X78898364Y-73999003D01*
X79012768Y-73922561D01*
X79110061Y-73825268D01*
X79186503Y-73710864D01*
X79205662Y-73664609D01*
X79892534Y-74351482D01*
X79892534Y-74351481D01*
X79972718Y-74241119D01*
X80090125Y-74010695D01*
X80170043Y-73764734D01*
X80170043Y-73764733D01*
X80210500Y-73509306D01*
X80210500Y-73250693D01*
X90259500Y-73250693D01*
X90259500Y-73509306D01*
X90299956Y-73764733D01*
X90299956Y-73764734D01*
X90379874Y-74010695D01*
X90497283Y-74241122D01*
X90577463Y-74351481D01*
X90577464Y-74351482D01*
X91264337Y-73664609D01*
X91283497Y-73710864D01*
X91359939Y-73825268D01*
X91457232Y-73922561D01*
X91571636Y-73999003D01*
X91617890Y-74018161D01*
X90931016Y-74705034D01*
X90931017Y-74705036D01*
X91041377Y-74785216D01*
X91271804Y-74902625D01*
X91517766Y-74982543D01*
X91773194Y-75023000D01*
X92031806Y-75023000D01*
X92287233Y-74982543D01*
X92287234Y-74982543D01*
X92533195Y-74902625D01*
X92763619Y-74785218D01*
X92873981Y-74705034D01*
X92873982Y-74705034D01*
X92187109Y-74018162D01*
X92233364Y-73999003D01*
X92347768Y-73922561D01*
X92445061Y-73825268D01*
X92521503Y-73710864D01*
X92540661Y-73664609D01*
X93227534Y-74351482D01*
X93227534Y-74351481D01*
X93307718Y-74241119D01*
X93425125Y-74010695D01*
X93505043Y-73764734D01*
X93505043Y-73764733D01*
X93545500Y-73509306D01*
X93545500Y-73250693D01*
X93505043Y-72995266D01*
X93505043Y-72995265D01*
X93425125Y-72749304D01*
X93307716Y-72518877D01*
X93227536Y-72408517D01*
X93227534Y-72408516D01*
X92540661Y-73095389D01*
X92521503Y-73049136D01*
X92445061Y-72934732D01*
X92347768Y-72837439D01*
X92233364Y-72760997D01*
X92187108Y-72741837D01*
X92873982Y-72054964D01*
X92873981Y-72054963D01*
X92763622Y-71974783D01*
X92533195Y-71857374D01*
X92287233Y-71777456D01*
X92031806Y-71737000D01*
X91773194Y-71737000D01*
X91517766Y-71777456D01*
X91517765Y-71777456D01*
X91271804Y-71857374D01*
X91041384Y-71974779D01*
X90931017Y-72054964D01*
X90931017Y-72054965D01*
X91617890Y-72741837D01*
X91571636Y-72760997D01*
X91457232Y-72837439D01*
X91359939Y-72934732D01*
X91283497Y-73049136D01*
X91264337Y-73095390D01*
X90577465Y-72408517D01*
X90577464Y-72408517D01*
X90497279Y-72518884D01*
X90379874Y-72749304D01*
X90299956Y-72995265D01*
X90299956Y-72995266D01*
X90259500Y-73250693D01*
X80210500Y-73250693D01*
X80170043Y-72995266D01*
X80170043Y-72995265D01*
X80090125Y-72749304D01*
X79972716Y-72518877D01*
X79892536Y-72408517D01*
X79892534Y-72408516D01*
X79205661Y-73095389D01*
X79186503Y-73049136D01*
X79110061Y-72934732D01*
X79012768Y-72837439D01*
X78898364Y-72760997D01*
X78852108Y-72741837D01*
X79538982Y-72054964D01*
X79538981Y-72054963D01*
X79428622Y-71974783D01*
X79198195Y-71857374D01*
X78952233Y-71777456D01*
X78696806Y-71737000D01*
X78438194Y-71737000D01*
X78182766Y-71777456D01*
X78182765Y-71777456D01*
X77936804Y-71857374D01*
X77706384Y-71974779D01*
X77596017Y-72054964D01*
X77596017Y-72054965D01*
X78282890Y-72741837D01*
X78236636Y-72760997D01*
X78122232Y-72837439D01*
X78024939Y-72934732D01*
X77948497Y-73049136D01*
X77929337Y-73095390D01*
X77242465Y-72408517D01*
X77242464Y-72408517D01*
X77162279Y-72518884D01*
X77044874Y-72749304D01*
X76964956Y-72995265D01*
X76964956Y-72995266D01*
X76924500Y-73250693D01*
X60500500Y-73250693D01*
X60500500Y-54624500D01*
X60520185Y-54557461D01*
X60572989Y-54511706D01*
X60624500Y-54500500D01*
X229375500Y-54500500D01*
X229442539Y-54520185D01*
G37*
%TD.AperFunction*%
%TD*%
M02*
