M48
; DRILL file KiCad 10.0.0 date 2026-06-03T11:52:46
; FORMAT={-:-/ absolute / metric / decimal}
; #@! TF.CreationDate,2026-06-03T11:52:46+05:30
; #@! TF.GenerationSoftware,Kicad,Pcbnew,10.0.0
; #@! TF.FileFunction,Plated,1,2,PTH
FMAT,2
METRIC
; #@! TA.AperFunction,Plated,PTH,ViaDrill
T1C0.300
; #@! TA.AperFunction,Plated,PTH,ComponentDrill
T2C0.889
; #@! TA.AperFunction,Plated,PTH,ComponentDrill
T3C0.900
; #@! TA.AperFunction,Plated,PTH,ComponentDrill
T4C1.000
; #@! TA.AperFunction,Plated,PTH,ComponentDrill
T5C1.100
; #@! TA.AperFunction,Plated,PTH,ComponentDrill
T6C1.300
; #@! TA.AperFunction,Plated,PTH,ComponentDrill
T7C1.397
%
G90
G05
T1
X82.0Y-86.0
X92.0Y-77.0
X95.0Y-93.0
X107.0Y-64.0
X113.0Y-60.0
X114.0Y-57.0
X116.5Y-74.0
X116.5Y-95.25
X118.25Y-95.25
X119.75Y-86.0
X121.0Y-58.0
X121.25Y-107.0
X121.5Y-84.25
X121.5Y-90.25
X122.5Y-104.75
X123.0Y-82.75
X123.75Y-103.75
X124.0Y-81.75
X124.75Y-87.5
X125.0Y-64.0
X126.0Y-61.0
X126.0Y-81.5
X126.0Y-85.75
X127.0Y-60.25
X127.0Y-63.5
X127.5Y-87.25
X128.5Y-90.25
X130.0Y-88.75
X130.5Y-84.25
X132.0Y-80.0
X132.0Y-88.75
X132.75Y-98.5
X133.25Y-74.5
X134.75Y-84.75
X135.0Y-100.5
X137.75Y-89.5
X147.5Y-69.75
X150.5Y-84.0
X151.0Y-70.0
X171.75Y-71.25
X174.5Y-65.0
X174.75Y-99.0
X202.5Y-78.5
T2
X82.695Y-91.16
X85.235Y-91.16
X87.775Y-91.16
X95.395Y-78.46
X95.395Y-81.0
X95.395Y-83.54
T3
X72.535Y-77.825
X72.535Y-84.175
X77.615Y-77.825
X77.615Y-84.175
T4
X115.195Y-102.5
X117.735Y-102.5
X120.275Y-102.5
X127.575Y-102.5
X130.115Y-102.5
X132.655Y-102.5
X135.195Y-102.5
X137.735Y-102.5
X145.46Y-102.5
X148.0Y-102.5
T5
X106.985Y-89.25
X106.985Y-93.75
X113.485Y-89.25
X113.485Y-93.75
T6
X158.5Y-81.0
X158.5Y-86.0
X171.0Y-81.0
X171.0Y-86.0
X182.5Y-65.0
X182.5Y-70.0
X182.5Y-96.5
X182.5Y-101.5
X195.0Y-65.0
X195.0Y-70.0
X195.0Y-96.5
X195.0Y-101.5
X207.5Y-81.0
X207.5Y-86.0
X220.0Y-81.0
X220.0Y-86.0
T7
X78.567Y-73.38
X78.567Y-88.62
X91.902Y-73.38
X91.902Y-88.62
M30
