%TF.GenerationSoftware,KiCad,Pcbnew,10.0.0*%
%TF.CreationDate,2026-06-03T11:52:45+05:30*%
%TF.ProjectId,usbkitv1,7573626b-6974-4763-912e-6b696361645f,rev?*%
%TF.SameCoordinates,Original*%
%TF.FileFunction,Soldermask,Top*%
%TF.FilePolarity,Negative*%
%FSLAX46Y46*%
G04 Gerber Fmt 4.6, Leading zero omitted, Abs format (unit mm)*
G04 Created by KiCad (PCBNEW 10.0.0) date 2026-06-03 11:52:45*
%MOMM*%
%LPD*%
G01*
G04 APERTURE LIST*
G04 Aperture macros list*
%AMRoundRect*
0 Rectangle with rounded corners*
0 $1 Rounding radius*
0 $2 $3 $4 $5 $6 $7 $8 $9 X,Y pos of 4 corners*
0 Add a 4 corners polygon primitive as box body*
4,1,4,$2,$3,$4,$5,$6,$7,$8,$9,$2,$3,0*
0 Add four circle primitives for the rounded corners*
1,1,$1+$1,$2,$3*
1,1,$1+$1,$4,$5*
1,1,$1+$1,$6,$7*
1,1,$1+$1,$8,$9*
0 Add four rect primitives between the rounded corners*
20,1,$1+$1,$2,$3,$4,$5,0*
20,1,$1+$1,$4,$5,$6,$7,0*
20,1,$1+$1,$6,$7,$8,$9,0*
20,1,$1+$1,$8,$9,$2,$3,0*%
G04 Aperture macros list end*
%ADD10RoundRect,0.250000X-0.350000X-0.450000X0.350000X-0.450000X0.350000X0.450000X-0.350000X0.450000X0*%
%ADD11R,1.700000X1.700000*%
%ADD12C,1.700000*%
%ADD13O,3.200000X1.900000*%
%ADD14RoundRect,0.250000X0.350000X0.450000X-0.350000X0.450000X-0.350000X-0.450000X0.350000X-0.450000X0*%
%ADD15RoundRect,0.250000X-0.325000X-0.450000X0.325000X-0.450000X0.325000X0.450000X-0.325000X0.450000X0*%
%ADD16RoundRect,0.525400X-0.900400X-0.525400X0.900400X-0.525400X0.900400X0.525400X-0.900400X0.525400X0*%
%ADD17RoundRect,0.275000X0.975000X0.275000X-0.975000X0.275000X-0.975000X-0.275000X0.975000X-0.275000X0*%
%ADD18RoundRect,0.275000X-0.275000X0.975000X-0.275000X-0.975000X0.275000X-0.975000X0.275000X0.975000X0*%
%ADD19C,2.000000*%
%ADD20C,1.982000*%
%ADD21C,2.490000*%
%ADD22RoundRect,0.250000X-0.450000X0.350000X-0.450000X-0.350000X0.450000X-0.350000X0.450000X0.350000X0*%
G04 APERTURE END LIST*
D10*
%TO.C,R1*%
X69735000Y-68500000D03*
X71735000Y-68500000D03*
%TD*%
D11*
%TO.C,J4*%
X127575000Y-102500000D03*
D12*
X130115000Y-102500000D03*
X132655000Y-102500000D03*
X135195000Y-102500000D03*
X137735000Y-102500000D03*
%TD*%
D13*
%TO.C,SW4*%
X207500000Y-81000000D03*
X220000000Y-81000000D03*
X207500000Y-86000000D03*
X220000000Y-86000000D03*
%TD*%
D10*
%TO.C,R3*%
X173000000Y-96500000D03*
X175000000Y-96500000D03*
%TD*%
%TO.C,R5*%
X200500000Y-81000000D03*
X202500000Y-81000000D03*
%TD*%
D14*
%TO.C,R7*%
X142235000Y-95000000D03*
X140235000Y-95000000D03*
%TD*%
D11*
%TO.C,J1*%
X115195000Y-102500000D03*
D12*
X117735000Y-102500000D03*
X120275000Y-102500000D03*
%TD*%
D15*
%TO.C,D2*%
X134710000Y-95000000D03*
X136760000Y-95000000D03*
%TD*%
D10*
%TO.C,R6*%
X124235000Y-95000000D03*
X126235000Y-95000000D03*
%TD*%
D13*
%TO.C,SW2*%
X182500000Y-96500000D03*
X195000000Y-96500000D03*
X182500000Y-101500000D03*
X195000000Y-101500000D03*
%TD*%
D16*
%TO.C,U1*%
X117004500Y-57060250D03*
X117004500Y-59600250D03*
X117004500Y-62140250D03*
X117004500Y-64680250D03*
X117004500Y-67220250D03*
X117004500Y-69760250D03*
X117004500Y-72300250D03*
X133169500Y-72300250D03*
X133169500Y-69760250D03*
X133169500Y-67220250D03*
X133169500Y-64680250D03*
X133169500Y-62140250D03*
X133169500Y-59600250D03*
X133169500Y-57060250D03*
D12*
X123789500Y-58651750D03*
X126329500Y-58651750D03*
X123789500Y-56111750D03*
X126329500Y-56111750D03*
D17*
X120614500Y-64366750D03*
X120614500Y-62461750D03*
D18*
X128869500Y-73917150D03*
X130774500Y-73917150D03*
%TD*%
D13*
%TO.C,SW1*%
X182500000Y-65000000D03*
X195000000Y-65000000D03*
X182500000Y-70000000D03*
X195000000Y-70000000D03*
%TD*%
D10*
%TO.C,R4*%
X148500000Y-81000000D03*
X150500000Y-81000000D03*
%TD*%
D19*
%TO.C,SW5*%
X106985000Y-89250000D03*
X113485000Y-89250000D03*
X106985000Y-93750000D03*
X113485000Y-93750000D03*
%TD*%
D10*
%TO.C,R10*%
X111735000Y-83500000D03*
X113735000Y-83500000D03*
%TD*%
D13*
%TO.C,SW3*%
X158500000Y-81000000D03*
X171000000Y-81000000D03*
X158500000Y-86000000D03*
X171000000Y-86000000D03*
%TD*%
D15*
%TO.C,D1*%
X129210000Y-95000000D03*
X131260000Y-95000000D03*
%TD*%
D20*
%TO.C,U2*%
X72535000Y-84175000D03*
X72535000Y-77825000D03*
X77615000Y-84175000D03*
X77615000Y-77825000D03*
X95395000Y-83540000D03*
X95395000Y-81000000D03*
X95395000Y-78460000D03*
D21*
X78567500Y-88620000D03*
X91902500Y-88620000D03*
X91902500Y-73380000D03*
X78567500Y-73380000D03*
D20*
X82695000Y-91160000D03*
X85235000Y-91160000D03*
X87775000Y-91160000D03*
%TD*%
D22*
%TO.C,R2*%
X176500000Y-63000000D03*
X176500000Y-65000000D03*
%TD*%
D11*
%TO.C,J6*%
X145460000Y-102500000D03*
D12*
X148000000Y-102500000D03*
%TD*%
M02*
